<?xml version="1.0" encoding="UTF-8"?>
<svg xmlns="http://www.w3.org/2000/svg" xmlns:xlink="http://www.w3.org/1999/xlink" width="130pt" height="57pt" viewBox="0 0 130 57" version="1.1">
<g id="surface1">
<path style=" stroke:none;fill-rule:nonzero;fill:rgb(95.686275%,50.196078%,12.54902%);fill-opacity:1;" d="M 11.210938 40.957031 C 11.132812 40.878906 10.96875 40.878906 10.886719 40.957031 L 9.832031 42.097656 C 9.75 42.179688 9.75 42.34375 9.832031 42.425781 C 9.914062 42.503906 10.074219 42.503906 10.15625 42.425781 L 11.210938 41.367188 C 11.292969 41.285156 11.292969 41.121094 11.210938 40.957031 Z M 11.210938 40.957031 "/>
<path style=" stroke:none;fill-rule:nonzero;fill:rgb(95.686275%,50.196078%,12.54902%);fill-opacity:1;" d="M 11.210938 45.519531 L 10.15625 44.460938 C 10.074219 44.378906 9.914062 44.378906 9.832031 44.460938 C 9.75 44.542969 9.75 44.703125 9.832031 44.785156 L 10.886719 45.84375 C 10.96875 45.925781 11.132812 45.925781 11.210938 45.84375 C 11.292969 45.761719 11.292969 45.679688 11.210938 45.519531 Z M 11.210938 45.519531 "/>
<path style=" stroke:none;fill-rule:nonzero;fill:rgb(95.686275%,50.196078%,12.54902%);fill-opacity:1;" d="M 7.71875 42.097656 L 6.664062 40.957031 C 6.582031 40.878906 6.417969 40.878906 6.335938 40.957031 C 6.257812 41.039062 6.257812 41.203125 6.335938 41.285156 L 7.394531 42.34375 C 7.476562 42.425781 7.636719 42.425781 7.71875 42.34375 C 7.800781 42.34375 7.800781 42.179688 7.71875 42.097656 Z M 7.71875 42.097656 "/>
<path style=" stroke:none;fill-rule:nonzero;fill:rgb(95.686275%,50.196078%,12.54902%);fill-opacity:1;" d="M 9.019531 41.445312 L 9.019531 40.46875 C 9.019531 40.308594 8.9375 40.226562 8.773438 40.226562 C 8.613281 40.226562 8.53125 40.308594 8.53125 40.46875 L 8.53125 41.445312 C 8.53125 41.527344 8.53125 41.609375 8.613281 41.609375 C 8.695312 41.691406 8.695312 41.691406 8.773438 41.691406 C 8.9375 41.691406 9.019531 41.609375 9.019531 41.445312 Z M 9.019531 41.445312 "/>
<path style=" stroke:none;fill-rule:nonzero;fill:rgb(95.686275%,50.196078%,12.54902%);fill-opacity:1;" d="M 12.023438 43.484375 C 12.023438 43.320312 11.945312 43.238281 11.78125 43.238281 L 10.726562 43.238281 C 10.5625 43.238281 10.480469 43.320312 10.480469 43.484375 C 10.480469 43.5625 10.480469 43.644531 10.5625 43.644531 C 10.644531 43.644531 10.644531 43.726562 10.726562 43.726562 L 11.699219 43.726562 C 11.863281 43.726562 12.023438 43.5625 12.023438 43.484375 Z M 12.023438 43.484375 "/>
<path style=" stroke:none;fill-rule:nonzero;fill:rgb(95.686275%,50.196078%,12.54902%);fill-opacity:1;" d="M 10.074219 47.796875 C 9.992188 47.636719 9.832031 47.554688 9.667969 47.554688 C 9.832031 47.230469 9.832031 46.738281 9.507812 46.496094 C 9.34375 46.25 9.101562 46.171875 8.855469 46.171875 C 8.855469 45.925781 8.773438 45.679688 8.613281 45.519531 C 8.449219 45.4375 8.367188 45.355469 8.207031 45.273438 L 9.425781 44.054688 C 9.75 43.726562 9.75 43.15625 9.425781 42.75 C 9.101562 42.425781 8.449219 42.425781 8.125 42.832031 L 7.230469 43.726562 C 7.148438 43.808594 7.148438 43.972656 7.230469 44.054688 C 7.3125 44.132812 7.476562 44.132812 7.554688 44.054688 L 8.449219 43.15625 C 8.613281 42.996094 8.855469 42.996094 9.019531 43.15625 C 9.179688 43.320312 9.179688 43.5625 9.019531 43.726562 L 6.175781 46.660156 C 6.09375 46.738281 6.09375 46.902344 6.175781 46.984375 C 6.257812 47.066406 6.417969 47.066406 6.5 46.984375 L 7.636719 45.84375 C 7.800781 45.679688 8.042969 45.679688 8.207031 45.84375 C 8.367188 46.007812 8.367188 46.25 8.207031 46.414062 L 8.042969 46.578125 L 7.070312 47.554688 C 6.988281 47.636719 6.988281 47.796875 7.070312 47.878906 C 7.148438 47.960938 7.3125 47.960938 7.394531 47.878906 L 8.367188 46.902344 L 8.53125 46.738281 C 8.695312 46.578125 8.9375 46.578125 9.101562 46.738281 C 9.261719 46.902344 9.261719 47.148438 9.101562 47.308594 L 8.773438 47.796875 L 8.53125 48.042969 L 8.042969 48.53125 C 7.960938 48.613281 7.960938 48.777344 8.042969 48.855469 C 8.125 48.9375 8.289062 48.9375 8.367188 48.855469 L 9.179688 48.042969 C 9.34375 47.878906 9.585938 47.878906 9.75 48.042969 C 9.914062 48.207031 9.914062 48.449219 9.75 48.613281 L 7.960938 50.484375 C 7.800781 50.648438 7.636719 50.730469 7.476562 50.894531 C 7.394531 50.972656 7.394531 51.054688 7.476562 51.21875 C 7.554688 51.300781 7.71875 51.300781 7.800781 51.21875 C 7.960938 51.136719 8.125 50.972656 8.289062 50.894531 L 10.074219 49.101562 C 10.398438 48.695312 10.398438 48.125 10.074219 47.796875 Z M 10.074219 47.796875 "/>
<path style=" stroke:none;fill-rule:nonzero;fill:rgb(95.686275%,50.196078%,12.54902%);fill-opacity:1;" d="M 5.929688 51.625 C 5.929688 51.460938 5.851562 51.382812 5.6875 51.382812 C 4.957031 51.382812 4.226562 51.054688 3.65625 50.484375 C 2.84375 49.671875 2.601562 48.449219 2.925781 47.390625 L 3.820312 44.949219 C 3.898438 44.703125 4.144531 44.621094 4.386719 44.621094 C 4.632812 44.703125 4.792969 44.949219 4.710938 45.191406 L 4.304688 46.660156 C 4.304688 46.738281 4.304688 46.902344 4.386719 46.902344 C 4.46875 46.984375 4.632812 46.902344 4.710938 46.902344 L 6.417969 45.191406 C 6.5 45.113281 6.5 44.949219 6.417969 44.867188 C 6.335938 44.785156 6.175781 44.785156 6.09375 44.867188 L 4.957031 45.925781 L 5.117188 45.273438 C 5.28125 44.785156 4.957031 44.296875 4.46875 44.132812 C 3.980469 44.054688 3.492188 44.296875 3.332031 44.785156 L 2.519531 47.230469 C 2.273438 47.878906 2.273438 48.53125 2.355469 49.183594 C 2.519531 49.835938 2.84375 50.402344 3.332031 50.894531 C 3.980469 51.460938 4.792969 51.871094 5.6875 51.871094 C 5.851562 51.871094 5.929688 51.789062 5.929688 51.625 Z M 5.929688 51.625 "/>
<path style=" stroke:none;fill-rule:nonzero;fill:rgb(95.686275%,50.196078%,12.54902%);fill-opacity:1;" d="M 6.988281 51.542969 C 6.988281 51.460938 6.988281 51.382812 6.90625 51.382812 C 6.824219 51.382812 6.742188 51.300781 6.742188 51.300781 C 6.742188 51.300781 6.582031 51.300781 6.582031 51.382812 C 6.5 51.382812 6.5 51.460938 6.5 51.542969 C 6.5 51.625 6.5 51.707031 6.582031 51.707031 C 6.664062 51.707031 6.664062 51.789062 6.742188 51.789062 C 6.824219 51.789062 6.90625 51.789062 6.90625 51.707031 C 6.90625 51.625 6.988281 51.542969 6.988281 51.542969 Z M 6.988281 51.542969 "/>
<path style=" stroke:none;fill-rule:nonzero;fill:rgb(95.686275%,50.196078%,12.54902%);fill-opacity:1;" d="M 7.070312 44.460938 C 7.070312 44.378906 7.070312 44.296875 6.988281 44.296875 C 6.90625 44.296875 6.90625 44.214844 6.824219 44.214844 C 6.742188 44.214844 6.664062 44.214844 6.664062 44.296875 C 6.664062 44.378906 6.582031 44.378906 6.582031 44.460938 C 6.582031 44.542969 6.582031 44.621094 6.664062 44.621094 C 6.742188 44.703125 6.742188 44.703125 6.824219 44.703125 C 6.90625 44.703125 6.988281 44.703125 6.988281 44.621094 C 6.988281 44.621094 7.070312 44.542969 7.070312 44.460938 Z M 7.070312 44.460938 "/>
<path style=" stroke:none;fill-rule:nonzero;fill:rgb(95.686275%,50.196078%,12.54902%);fill-opacity:1;" d="M 15.679688 47.308594 L 16.167969 45.03125 C 16.167969 44.949219 16.167969 44.867188 16.167969 44.867188 L 14.789062 41.039062 L 16.085938 41.039062 C 16.332031 42.015625 16.820312 43.320312 16.898438 43.972656 C 17.304688 43.320312 18.363281 41.9375 19.011719 41.039062 L 20.394531 41.039062 L 17.46875 44.867188 C 17.46875 44.949219 17.386719 45.03125 17.386719 45.113281 L 16.898438 47.308594 Z M 15.679688 47.308594 "/>
<path style=" stroke:none;fill-rule:nonzero;fill:rgb(95.686275%,50.196078%,12.54902%);fill-opacity:1;" d="M 23.886719 44.542969 C 23.886719 45.679688 23.238281 47.390625 21.289062 47.390625 C 19.988281 47.390625 19.335938 46.578125 19.335938 45.4375 C 19.335938 44.132812 20.148438 42.503906 21.9375 42.503906 C 23.074219 42.503906 23.886719 43.15625 23.886719 44.542969 Z M 20.554688 45.4375 C 20.554688 46.089844 20.800781 46.414062 21.289062 46.414062 C 22.179688 46.414062 22.507812 45.191406 22.507812 44.378906 C 22.507812 43.726562 22.261719 43.484375 21.773438 43.484375 C 20.960938 43.484375 20.554688 44.703125 20.554688 45.4375 Z M 20.554688 45.4375 "/>
<path style=" stroke:none;fill-rule:nonzero;fill:rgb(95.686275%,50.196078%,12.54902%);fill-opacity:1;" d="M 28.519531 46.007812 C 28.4375 46.496094 28.355469 46.902344 28.273438 47.308594 L 27.054688 47.308594 C 27.054688 47.148438 27.136719 46.820312 27.136719 46.660156 C 26.8125 47.148438 26.324219 47.390625 25.675781 47.390625 C 24.78125 47.390625 24.292969 46.820312 24.539062 45.761719 L 25.1875 42.585938 L 26.40625 42.585938 L 25.835938 45.601562 C 25.757812 46.089844 25.835938 46.414062 26.324219 46.414062 C 26.894531 46.414062 27.300781 46.007812 27.542969 44.949219 L 28.03125 42.667969 L 29.25 42.667969 Z M 28.519531 46.007812 "/>
<path style=" stroke:none;fill-rule:nonzero;fill:rgb(95.686275%,50.196078%,12.54902%);fill-opacity:1;" d="M 32.988281 46.902344 L 32.5 49.101562 L 31.28125 49.101562 L 32.335938 43.972656 C 32.5 43.320312 32.582031 42.914062 32.582031 42.585938 L 33.800781 42.585938 C 33.800781 42.667969 33.71875 42.996094 33.71875 43.238281 C 33.960938 42.914062 34.449219 42.503906 35.179688 42.503906 C 36.15625 42.503906 36.726562 43.238281 36.726562 44.378906 C 36.726562 45.84375 35.832031 47.390625 34.125 47.390625 C 33.554688 47.390625 33.148438 47.148438 32.988281 46.902344 Z M 35.425781 44.460938 C 35.425781 43.808594 35.101562 43.484375 34.613281 43.484375 C 33.960938 43.484375 33.476562 44.132812 33.3125 44.949219 C 33.148438 45.761719 33.3125 46.332031 34.042969 46.332031 C 35.019531 46.414062 35.425781 45.273438 35.425781 44.460938 Z M 35.425781 44.460938 "/>
<path style=" stroke:none;fill-rule:nonzero;fill:rgb(95.686275%,50.196078%,12.54902%);fill-opacity:1;" d="M 41.84375 44.542969 C 41.84375 45.679688 41.195312 47.390625 39.242188 47.390625 C 37.945312 47.390625 37.292969 46.578125 37.292969 45.4375 C 37.292969 44.132812 38.105469 42.503906 39.894531 42.503906 C 41.03125 42.503906 41.84375 43.15625 41.84375 44.542969 Z M 38.59375 45.4375 C 38.59375 46.089844 38.835938 46.414062 39.324219 46.414062 C 40.21875 46.414062 40.542969 45.191406 40.542969 44.378906 C 40.542969 43.726562 40.300781 43.484375 39.8125 43.484375 C 38.917969 43.484375 38.59375 44.703125 38.59375 45.4375 Z M 38.59375 45.4375 "/>
<path style=" stroke:none;fill-rule:nonzero;fill:rgb(95.686275%,50.196078%,12.54902%);fill-opacity:1;" d="M 43.226562 42.585938 L 44.445312 42.585938 L 43.46875 47.308594 L 42.25 47.308594 Z M 43.632812 40.632812 L 44.851562 40.632812 L 44.605469 41.855469 L 43.386719 41.855469 Z M 43.632812 40.632812 "/>
<path style=" stroke:none;fill-rule:nonzero;fill:rgb(95.686275%,50.196078%,12.54902%);fill-opacity:1;" d="M 45.417969 43.808594 C 45.5 43.402344 45.582031 42.996094 45.664062 42.585938 L 46.882812 42.585938 C 46.882812 42.75 46.800781 43.074219 46.800781 43.15625 C 47.042969 42.832031 47.449219 42.503906 48.179688 42.503906 C 49.074219 42.503906 49.644531 43.074219 49.320312 44.460938 L 48.75 47.308594 L 47.449219 47.308594 L 48.019531 44.460938 C 48.101562 43.890625 48.019531 43.5625 47.449219 43.5625 C 46.882812 43.5625 46.476562 44.054688 46.3125 44.867188 L 45.824219 47.308594 L 44.605469 47.308594 Z M 45.417969 43.808594 "/>
<path style=" stroke:none;fill-rule:nonzero;fill:rgb(95.686275%,50.196078%,12.54902%);fill-opacity:1;" d="M 50.292969 42.585938 L 51.023438 42.585938 L 51.269531 41.285156 L 52.488281 41.285156 L 52.242188 42.585938 L 53.136719 42.585938 L 52.894531 43.5625 L 52 43.5625 L 51.511719 45.925781 C 51.429688 46.25 51.511719 46.414062 51.835938 46.414062 C 52 46.414062 52.082031 46.414062 52.242188 46.414062 L 52.082031 47.230469 C 51.835938 47.308594 51.511719 47.308594 51.269531 47.308594 C 50.292969 47.308594 50.132812 46.738281 50.292969 45.925781 L 50.78125 43.484375 L 50.132812 43.484375 Z M 50.292969 42.585938 "/>
<path style=" stroke:none;fill-rule:nonzero;fill:rgb(95.686275%,50.196078%,12.54902%);fill-opacity:1;" d="M 56.144531 42.585938 L 57.363281 42.585938 L 56.386719 47.308594 L 55.167969 47.308594 Z M 56.550781 40.632812 L 57.769531 40.632812 L 57.523438 41.855469 L 56.304688 41.855469 Z M 56.550781 40.632812 "/>
<path style=" stroke:none;fill-rule:nonzero;fill:rgb(95.686275%,50.196078%,12.54902%);fill-opacity:1;" d="M 58.011719 42.585938 L 58.742188 42.585938 L 58.988281 41.285156 L 60.207031 41.285156 L 59.960938 42.585938 L 60.855469 42.585938 L 60.695312 43.5625 L 59.800781 43.5625 L 59.3125 45.925781 C 59.230469 46.25 59.3125 46.414062 59.636719 46.414062 C 59.800781 46.414062 59.882812 46.414062 60.042969 46.414062 L 59.800781 47.230469 C 59.554688 47.308594 59.230469 47.308594 58.988281 47.308594 C 58.011719 47.308594 57.851562 46.738281 58.011719 45.925781 L 58.5 43.484375 L 57.851562 43.484375 Z M 58.011719 42.585938 "/>
<path style=" stroke:none;fill-rule:nonzero;fill:rgb(95.686275%,50.196078%,12.54902%);fill-opacity:1;" d="M 60.289062 48.289062 C 60.9375 47.390625 61.34375 46.25 61.507812 45.679688 L 62.804688 45.679688 C 62.5625 46.660156 61.992188 47.636719 61.425781 48.289062 Z M 60.289062 48.289062 "/>
<path style=" stroke:none;fill-rule:nonzero;fill:rgb(95.686275%,50.196078%,12.54902%);fill-opacity:1;" d="M 67.113281 42.585938 C 67.113281 44.132812 67.113281 45.519531 67.113281 46.089844 C 67.355469 45.519531 67.601562 44.949219 68.65625 42.585938 L 69.792969 42.585938 C 69.792969 44.949219 69.792969 45.601562 69.792969 46.089844 C 69.957031 45.601562 70.363281 44.621094 71.335938 42.585938 L 72.636719 42.585938 L 70.199219 47.308594 L 68.898438 47.308594 C 68.820312 45.761719 68.820312 44.785156 68.898438 44.132812 C 68.65625 44.785156 68.25 45.601562 67.4375 47.308594 L 66.136719 47.308594 L 65.894531 42.585938 Z M 67.113281 42.585938 "/>
<path style=" stroke:none;fill-rule:nonzero;fill:rgb(95.686275%,50.196078%,12.54902%);fill-opacity:1;" d="M 73.773438 45.191406 C 73.773438 45.273438 73.773438 45.355469 73.773438 45.4375 C 73.773438 45.925781 73.9375 46.332031 74.507812 46.332031 C 74.992188 46.332031 75.238281 46.089844 75.398438 45.761719 L 76.699219 45.761719 C 76.375 46.578125 75.804688 47.390625 74.34375 47.390625 C 73.042969 47.390625 72.476562 46.578125 72.476562 45.4375 C 72.476562 44.214844 73.125 42.503906 74.992188 42.503906 C 76.375 42.503906 76.863281 43.320312 76.863281 44.296875 C 76.863281 44.703125 76.78125 44.949219 76.699219 45.191406 Z M 75.726562 44.378906 C 75.726562 44.296875 75.726562 44.214844 75.726562 44.132812 C 75.726562 43.726562 75.5625 43.402344 74.992188 43.402344 C 74.425781 43.402344 74.101562 43.726562 73.9375 44.378906 Z M 75.726562 44.378906 "/>
<path style=" stroke:none;fill-rule:nonzero;fill:rgb(95.686275%,50.196078%,12.54902%);fill-opacity:1;" d="M 79.542969 47.308594 L 80.355469 43.5625 L 79.707031 43.5625 L 79.949219 42.585938 L 80.601562 42.585938 L 80.679688 42.097656 C 80.925781 41.121094 81.414062 40.550781 82.386719 40.550781 C 82.632812 40.550781 82.875 40.550781 83.039062 40.632812 L 82.792969 41.609375 C 82.710938 41.609375 82.550781 41.609375 82.46875 41.609375 C 82.144531 41.609375 81.898438 41.773438 81.820312 42.179688 L 81.738281 42.585938 L 82.550781 42.585938 L 82.304688 43.5625 L 81.492188 43.5625 L 80.679688 47.308594 Z M 79.542969 47.308594 "/>
<path style=" stroke:none;fill-rule:nonzero;fill:rgb(95.686275%,50.196078%,12.54902%);fill-opacity:1;" d="M 83.363281 42.585938 L 84.582031 42.585938 L 83.605469 47.308594 L 82.386719 47.308594 Z M 83.769531 40.632812 L 84.988281 40.632812 L 84.742188 41.773438 L 83.523438 41.773438 Z M 83.769531 40.632812 "/>
<path style=" stroke:none;fill-rule:nonzero;fill:rgb(95.686275%,50.196078%,12.54902%);fill-opacity:1;" d="M 86.613281 42.585938 C 86.855469 43.15625 87.101562 43.808594 87.179688 44.054688 C 87.425781 43.726562 87.75 43.320312 88.238281 42.585938 L 89.617188 42.585938 L 87.75 44.867188 L 88.804688 47.308594 L 87.507812 47.308594 C 87.261719 46.738281 87.019531 46.007812 86.9375 45.84375 C 86.773438 46.089844 86.289062 46.738281 85.882812 47.308594 L 84.5 47.308594 L 86.449219 44.949219 L 85.3125 42.585938 Z M 86.613281 42.585938 "/>
<path style=" stroke:none;fill-rule:nonzero;fill:rgb(95.686275%,50.196078%,12.54902%);fill-opacity:1;" d="M 92.789062 42.585938 L 94.007812 42.585938 L 93.03125 47.308594 L 91.8125 47.308594 Z M 93.195312 40.632812 L 94.414062 40.632812 L 94.167969 41.773438 L 92.949219 41.773438 Z M 93.195312 40.632812 "/>
<path style=" stroke:none;fill-rule:nonzero;fill:rgb(95.686275%,50.196078%,12.54902%);fill-opacity:1;" d="M 94.738281 42.585938 L 95.46875 42.585938 L 95.710938 41.285156 L 96.929688 41.285156 L 96.6875 42.585938 L 97.5 42.585938 L 97.257812 43.5625 L 96.363281 43.5625 L 95.875 45.925781 C 95.792969 46.25 95.875 46.414062 96.199219 46.414062 C 96.363281 46.414062 96.445312 46.414062 96.605469 46.414062 L 96.523438 47.230469 C 96.28125 47.308594 95.957031 47.308594 95.710938 47.308594 C 94.738281 47.308594 94.574219 46.738281 94.738281 45.925781 L 95.226562 43.484375 L 94.492188 43.484375 Z M 94.738281 42.585938 "/>
<path style=" stroke:none;fill-rule:nonzero;fill:rgb(95.686275%,50.196078%,12.54902%);fill-opacity:1;" d="M 97.90625 47.308594 L 98.230469 45.761719 L 99.449219 45.761719 L 99.125 47.308594 Z M 98.476562 45.03125 L 98.960938 42.097656 L 99.207031 41.039062 L 100.507812 41.039062 L 100.261719 42.097656 L 99.53125 45.03125 Z M 98.476562 45.03125 "/>
<path style=" stroke:none;fill-rule:nonzero;fill:rgb(95.686275%,50.196078%,12.54902%);fill-opacity:1;" d="M 50.78125 5.699219 L 45.257812 37.132812 L 14.21875 37.132812 C 12.757812 37.132812 11.375 36.480469 10.398438 35.339844 C 9.425781 34.199219 9.019531 32.734375 9.261719 31.269531 L 13 9.851562 C 13.40625 7.410156 15.4375 5.699219 17.875 5.699219 L 50.78125 5.699219 M 51.429688 5.128906 L 17.875 5.128906 C 15.195312 5.128906 12.835938 7.085938 12.429688 9.769531 L 8.773438 31.1875 C 8.125 34.527344 10.804688 37.703125 14.21875 37.703125 L 45.742188 37.703125 Z M 51.429688 5.128906 "/>
<path style=" stroke:none;fill-rule:nonzero;fill:rgb(95.686275%,50.196078%,12.54902%);fill-opacity:1;" d="M 22.019531 32.898438 C 21.9375 32.898438 21.855469 32.898438 21.773438 32.816406 C 20.230469 31.675781 18.851562 30.210938 17.792969 28.5 C 16.574219 26.382812 15.925781 23.941406 15.925781 21.414062 C 15.925781 19.460938 16.25 17.589844 17.0625 15.878906 C 17.144531 15.632812 17.386719 15.554688 17.632812 15.632812 C 17.875 15.714844 17.957031 15.960938 17.875 16.203125 C 17.144531 17.832031 16.820312 19.542969 16.820312 21.414062 C 16.820312 23.777344 17.46875 26.058594 18.605469 28.09375 C 19.5 29.640625 20.800781 31.105469 22.34375 32.164062 C 22.507812 32.328125 22.585938 32.570312 22.425781 32.816406 C 22.34375 32.816406 22.179688 32.898438 22.019531 32.898438 Z M 22.019531 32.898438 "/>
<path style=" stroke:none;fill-rule:nonzero;fill:rgb(95.686275%,50.196078%,12.54902%);fill-opacity:1;" d="M 29.820312 35.339844 C 27.542969 35.339844 25.269531 34.769531 23.320312 33.710938 C 23.15625 33.628906 23.074219 33.386719 23.15625 33.140625 C 23.238281 32.980469 23.5625 32.898438 23.726562 32.980469 C 25.59375 33.957031 27.707031 34.445312 29.820312 34.445312 C 32.664062 34.445312 35.34375 33.546875 37.457031 31.757812 C 39.324219 30.292969 40.707031 28.253906 41.519531 25.976562 L 38.511719 25.976562 C 37.863281 27.441406 36.96875 28.664062 35.75 29.640625 C 35.585938 29.804688 35.34375 29.722656 35.179688 29.558594 C 35.019531 29.394531 35.019531 29.070312 35.261719 28.90625 C 36.398438 28.011719 37.210938 26.871094 37.78125 25.40625 C 37.863281 25.242188 38.023438 25.160156 38.1875 25.160156 L 42.085938 25.160156 C 42.25 25.160156 42.332031 25.242188 42.414062 25.324219 C 42.492188 25.40625 42.492188 25.570312 42.492188 25.730469 C 41.761719 28.417969 40.21875 30.78125 38.023438 32.570312 C 35.75 34.363281 32.90625 35.339844 29.820312 35.339844 Z M 29.820312 35.339844 "/>
<path style=" stroke:none;fill-rule:nonzero;fill:rgb(95.686275%,50.196078%,12.54902%);fill-opacity:1;" d="M 29.820312 31.59375 C 26.8125 31.59375 23.96875 30.292969 22.019531 27.929688 C 20.476562 26.136719 19.664062 23.777344 19.664062 21.414062 C 19.664062 18.566406 20.882812 15.796875 22.992188 13.84375 C 24.210938 12.703125 25.675781 11.96875 27.300781 11.480469 C 27.542969 11.398438 27.789062 11.5625 27.867188 11.808594 C 27.949219 12.050781 27.789062 12.296875 27.542969 12.378906 C 26.082031 12.703125 24.699219 13.4375 23.5625 14.496094 C 21.695312 16.285156 20.554688 18.730469 20.554688 21.414062 C 20.554688 23.613281 21.289062 25.730469 22.75 27.359375 C 24.539062 29.476562 27.136719 30.699219 29.898438 30.699219 C 31.445312 30.699219 32.824219 30.371094 34.042969 29.722656 C 34.289062 29.640625 34.53125 29.722656 34.613281 29.882812 C 34.695312 30.128906 34.613281 30.371094 34.449219 30.453125 C 33.070312 31.269531 31.523438 31.59375 29.820312 31.59375 Z M 29.820312 31.59375 "/>
<path style=" stroke:none;fill-rule:nonzero;fill:rgb(95.686275%,50.196078%,12.54902%);fill-opacity:1;" d="M 37.699219 16.773438 C 37.539062 16.773438 37.375 16.691406 37.292969 16.53125 C 36.726562 15.390625 35.914062 14.496094 34.9375 13.761719 C 33.476562 12.703125 31.769531 12.132812 29.820312 12.132812 C 29.574219 12.132812 29.414062 11.96875 29.414062 11.726562 C 29.414062 11.480469 29.574219 11.320312 29.820312 11.320312 C 31.929688 11.320312 33.882812 11.96875 35.425781 13.191406 C 36.398438 13.925781 37.210938 14.902344 37.863281 15.960938 L 40.789062 15.144531 C 38.511719 10.75 34.53125 8.304688 29.820312 8.304688 C 25.1875 8.304688 20.960938 10.667969 18.605469 14.65625 C 18.523438 14.902344 18.199219 14.902344 18.039062 14.820312 C 17.792969 14.65625 17.792969 14.414062 17.875 14.167969 C 19.09375 12.132812 20.800781 10.421875 22.832031 9.28125 C 24.945312 8.0625 27.382812 7.410156 29.820312 7.410156 C 35.019531 7.410156 39.40625 10.179688 41.84375 15.0625 C 41.925781 15.144531 41.925781 15.308594 41.84375 15.472656 C 41.84375 15.554688 41.761719 15.632812 41.601562 15.714844 L 37.863281 16.773438 C 37.78125 16.773438 37.78125 16.773438 37.699219 16.773438 Z M 37.699219 16.773438 "/>
<path style=" stroke:none;fill-rule:nonzero;fill:rgb(95.686275%,50.196078%,12.54902%);fill-opacity:1;" d="M 31.363281 24.347656 L 28.925781 24.347656 C 28.679688 24.347656 28.519531 24.183594 28.519531 23.941406 L 28.519531 20.113281 C 28.519531 20.03125 28.601562 19.867188 28.679688 19.789062 C 28.761719 19.707031 28.84375 19.625 29.007812 19.625 L 36.480469 19.625 C 36.726562 19.625 36.886719 19.789062 36.886719 20.03125 C 36.886719 20.277344 36.726562 20.4375 36.480469 20.4375 L 29.492188 20.4375 L 29.492188 23.371094 L 31.523438 23.371094 C 31.769531 23.371094 31.929688 23.53125 31.929688 23.777344 C 31.929688 24.019531 31.605469 24.347656 31.363281 24.347656 Z M 31.363281 24.347656 "/>
<path style=" stroke:none;fill-rule:nonzero;fill:rgb(95.686275%,50.196078%,12.54902%);fill-opacity:1;" d="M 42.492188 24.347656 L 33.148438 24.347656 C 32.90625 24.347656 32.742188 24.183594 32.742188 23.941406 C 32.742188 23.695312 32.90625 23.53125 33.148438 23.53125 L 42.085938 23.53125 C 42.25 22.800781 42.25 22.066406 42.25 21.414062 C 42.25 21.171875 42.25 20.847656 42.25 20.601562 L 38.917969 20.601562 C 38.675781 20.601562 38.511719 20.4375 38.511719 20.195312 C 38.511719 19.949219 38.675781 19.789062 38.917969 19.789062 L 42.65625 19.789062 C 42.898438 19.789062 43.0625 19.949219 43.0625 20.195312 C 43.0625 20.519531 43.144531 21.007812 43.144531 21.496094 C 43.144531 22.394531 43.0625 23.207031 42.898438 24.101562 C 42.898438 24.183594 42.738281 24.347656 42.492188 24.347656 Z M 42.492188 24.347656 "/>
<path style=" stroke:none;fill-rule:nonzero;fill:rgb(95.686275%,50.196078%,12.54902%);fill-opacity:1;" d="M 19.011719 14.414062 C 19.011719 14.816406 18.683594 15.144531 18.28125 15.144531 C 17.878906 15.144531 17.550781 14.816406 17.550781 14.414062 C 17.550781 14.007812 17.878906 13.679688 18.28125 13.679688 C 18.683594 13.679688 19.011719 14.007812 19.011719 14.414062 Z M 19.011719 14.414062 "/>
<path style=" stroke:none;fill-rule:nonzero;fill:rgb(95.686275%,50.196078%,12.54902%);fill-opacity:1;" d="M 18.199219 16.042969 C 18.199219 16.445312 17.871094 16.773438 17.46875 16.773438 C 17.066406 16.773438 16.738281 16.445312 16.738281 16.042969 C 16.738281 15.636719 17.066406 15.308594 17.46875 15.308594 C 17.871094 15.308594 18.199219 15.636719 18.199219 16.042969 Z M 18.199219 16.042969 "/>
<path style=" stroke:none;fill-rule:nonzero;fill:rgb(95.686275%,50.196078%,12.54902%);fill-opacity:1;" d="M 22.75 32.488281 C 22.75 32.894531 22.421875 33.222656 22.019531 33.222656 C 21.613281 33.222656 21.289062 32.894531 21.289062 32.488281 C 21.289062 32.085938 21.613281 31.757812 22.019531 31.757812 C 22.421875 31.757812 22.75 32.085938 22.75 32.488281 Z M 22.75 32.488281 "/>
<path style=" stroke:none;fill-rule:nonzero;fill:rgb(95.686275%,50.196078%,12.54902%);fill-opacity:1;" d="M 24.292969 33.386719 C 24.292969 33.789062 23.964844 34.117188 23.5625 34.117188 C 23.160156 34.117188 22.832031 33.789062 22.832031 33.386719 C 22.832031 32.980469 23.160156 32.652344 23.5625 32.652344 C 23.964844 32.652344 24.292969 32.980469 24.292969 33.386719 Z M 24.292969 33.386719 "/>
<path style=" stroke:none;fill-rule:nonzero;fill:rgb(95.686275%,50.196078%,12.54902%);fill-opacity:1;" d="M 34.9375 30.128906 C 34.9375 30.535156 34.609375 30.863281 34.207031 30.863281 C 33.800781 30.863281 33.476562 30.535156 33.476562 30.128906 C 33.476562 29.722656 33.800781 29.394531 34.207031 29.394531 C 34.609375 29.394531 34.9375 29.722656 34.9375 30.128906 Z M 34.9375 30.128906 "/>
<path style=" stroke:none;fill-rule:nonzero;fill:rgb(95.686275%,50.196078%,12.54902%);fill-opacity:1;" d="M 28.113281 11.96875 C 28.113281 12.375 27.785156 12.703125 27.382812 12.703125 C 26.976562 12.703125 26.648438 12.375 26.648438 11.96875 C 26.648438 11.566406 26.976562 11.238281 27.382812 11.238281 C 27.785156 11.238281 28.113281 11.566406 28.113281 11.96875 Z M 28.113281 11.96875 "/>
<path style=" stroke:none;fill-rule:nonzero;fill:rgb(95.686275%,50.196078%,12.54902%);fill-opacity:1;" d="M 30.632812 11.644531 C 30.632812 12.050781 30.304688 12.378906 29.898438 12.378906 C 29.496094 12.378906 29.167969 12.050781 29.167969 11.644531 C 29.167969 11.238281 29.496094 10.910156 29.898438 10.910156 C 30.304688 10.910156 30.632812 11.238281 30.632812 11.644531 Z M 30.632812 11.644531 "/>
<path style=" stroke:none;fill-rule:nonzero;fill:rgb(95.686275%,50.196078%,12.54902%);fill-opacity:1;" d="M 39.648438 20.195312 C 39.648438 20.597656 39.324219 20.925781 38.917969 20.925781 C 38.515625 20.925781 38.1875 20.597656 38.1875 20.195312 C 38.1875 19.789062 38.515625 19.460938 38.917969 19.460938 C 39.324219 19.460938 39.648438 19.789062 39.648438 20.195312 Z M 39.648438 20.195312 "/>
<path style=" stroke:none;fill-rule:nonzero;fill:rgb(95.686275%,50.196078%,12.54902%);fill-opacity:1;" d="M 37.050781 20.195312 C 37.050781 20.597656 36.722656 20.925781 36.320312 20.925781 C 35.914062 20.925781 35.585938 20.597656 35.585938 20.195312 C 35.585938 19.789062 35.914062 19.460938 36.320312 19.460938 C 36.722656 19.460938 37.050781 19.789062 37.050781 20.195312 Z M 37.050781 20.195312 "/>
<path style=" stroke:none;fill-rule:nonzero;fill:rgb(95.686275%,50.196078%,12.54902%);fill-opacity:1;" d="M 33.882812 23.941406 C 33.882812 24.34375 33.554688 24.671875 33.148438 24.671875 C 32.746094 24.671875 32.417969 24.34375 32.417969 23.941406 C 32.417969 23.535156 32.746094 23.207031 33.148438 23.207031 C 33.554688 23.207031 33.882812 23.535156 33.882812 23.941406 Z M 33.882812 23.941406 "/>
<path style=" stroke:none;fill-rule:nonzero;fill:rgb(95.686275%,50.196078%,12.54902%);fill-opacity:1;" d="M 32.011719 23.941406 C 32.011719 24.34375 31.683594 24.671875 31.28125 24.671875 C 30.878906 24.671875 30.550781 24.34375 30.550781 23.941406 C 30.550781 23.535156 30.878906 23.207031 31.28125 23.207031 C 31.683594 23.207031 32.011719 23.535156 32.011719 23.941406 Z M 32.011719 23.941406 "/>
<path style=" stroke:none;fill-rule:nonzero;fill:rgb(95.686275%,50.196078%,12.54902%);fill-opacity:1;" d="M 36.398438 29.234375 C 36.398438 29.636719 36.074219 29.964844 35.667969 29.964844 C 35.265625 29.964844 34.9375 29.636719 34.9375 29.234375 C 34.9375 28.828125 35.265625 28.5 35.667969 28.5 C 36.074219 28.5 36.398438 28.828125 36.398438 29.234375 Z M 36.398438 29.234375 "/>
<path style=" stroke:none;fill-rule:nonzero;fill:rgb(95.686275%,50.196078%,12.54902%);fill-opacity:1;" d="M 57.769531 12.457031 L 56.710938 18.160156 L 65.976562 18.160156 L 64.835938 24.589844 L 55.574219 24.589844 L 54.4375 31.023438 L 63.699219 31.023438 L 62.5625 37.457031 L 46.882812 37.457031 L 51.269531 12.378906 L 57.769531 12.378906 Z M 51.429688 11.644531 L 52.570312 5.210938 L 68.25 5.210938 L 67.113281 11.644531 Z M 51.429688 11.644531 "/>
<path style=" stroke:none;fill-rule:nonzero;fill:rgb(95.686275%,50.196078%,12.54902%);fill-opacity:1;" d="M 75.726562 12.457031 L 74.667969 18.160156 L 83.929688 18.160156 L 82.792969 24.589844 L 73.613281 24.589844 L 72.476562 31.023438 L 81.738281 31.023438 L 80.601562 37.457031 L 64.917969 37.457031 L 69.304688 12.378906 L 75.726562 12.378906 Z M 69.386719 11.644531 L 70.523438 5.210938 L 86.207031 5.210938 L 85.070312 11.644531 Z M 69.386719 11.644531 "/>
<path style=" stroke:none;fill-rule:nonzero;fill:rgb(95.686275%,50.196078%,12.54902%);fill-opacity:1;" d="M 90.351562 32.652344 L 89.539062 37.539062 L 83.117188 37.539062 L 88.804688 5.210938 L 95.226562 5.210938 L 93.113281 17.507812 L 101.074219 5.210938 L 108.144531 5.210938 Z M 95.632812 37.457031 L 94.332031 27.765625 L 99.9375 19.054688 L 102.375 37.457031 Z M 95.632812 37.457031 "/>
<path style=" stroke:none;fill-rule:nonzero;fill:rgb(95.686275%,50.196078%,12.54902%);fill-opacity:1;" d="M 120.492188 5.128906 C 121.632812 5.128906 122.605469 5.375 123.5 5.78125 C 124.394531 6.1875 125.125 6.757812 125.773438 7.492188 C 126.34375 8.222656 126.832031 9.121094 127.074219 10.097656 C 127.320312 11.074219 127.320312 12.132812 127.15625 13.273438 L 126.914062 14.902344 L 120.492188 14.902344 C 120.574219 14.574219 120.65625 14.167969 120.738281 13.761719 C 120.820312 13.355469 120.820312 13.027344 120.820312 12.703125 C 120.820312 12.378906 120.65625 12.132812 120.492188 11.886719 C 120.332031 11.726562 119.925781 11.5625 119.4375 11.5625 L 117 11.5625 C 115.945312 11.5625 115.292969 12.132812 115.132812 13.191406 L 114.5625 16.449219 C 114.398438 17.507812 114.804688 18.078125 115.863281 18.078125 L 118.21875 18.078125 C 119.355469 18.078125 120.332031 18.320312 121.226562 18.730469 C 122.117188 19.136719 122.851562 19.707031 123.5 20.4375 C 124.070312 21.171875 124.554688 21.984375 124.800781 22.960938 C 125.042969 23.941406 125.042969 25 124.882812 26.136719 L 124.3125 29.394531 C 124.148438 30.535156 123.742188 31.59375 123.09375 32.570312 C 122.523438 33.546875 121.792969 34.445312 120.898438 35.175781 C 120.007812 35.910156 119.113281 36.480469 118.054688 36.886719 C 117 37.292969 115.945312 37.539062 114.804688 37.539062 L 112.449219 37.539062 C 111.3125 37.539062 110.335938 37.292969 109.445312 36.886719 C 108.550781 36.480469 107.820312 35.910156 107.167969 35.175781 C 106.601562 34.445312 106.113281 33.546875 105.867188 32.570312 C 105.625 31.59375 105.625 30.535156 105.789062 29.394531 L 106.355469 26.136719 L 112.855469 26.136719 L 112.289062 29.394531 C 112.125 30.453125 112.53125 31.023438 113.585938 31.023438 L 115.945312 31.023438 C 117 31.023438 117.648438 30.453125 117.894531 29.394531 L 118.460938 26.136719 C 118.625 25.078125 118.21875 24.511719 117.082031 24.511719 L 114.726562 24.511719 C 113.585938 24.511719 112.613281 24.265625 111.71875 23.859375 C 110.824219 23.453125 110.09375 22.882812 109.445312 22.148438 C 108.875 21.414062 108.46875 20.519531 108.144531 19.542969 C 107.898438 18.566406 107.898438 17.507812 108.0625 16.367188 L 108.632812 13.109375 C 108.792969 11.96875 109.199219 10.910156 109.851562 9.933594 C 110.417969 8.957031 111.148438 8.0625 112.042969 7.328125 C 112.9375 6.597656 113.832031 6.027344 114.886719 5.617188 C 115.945312 5.210938 117 4.96875 118.136719 4.96875 L 120.492188 4.96875 Z M 120.492188 5.128906 "/>
<path style=" stroke:none;fill-rule:nonzero;fill:rgb(95.686275%,50.196078%,12.54902%);fill-opacity:1;" d="M 120.167969 48.207031 L 103.59375 48.207031 C 103.023438 48.207031 102.539062 47.71875 102.699219 47.148438 L 104.164062 39.25 C 104.242188 38.839844 104.648438 38.515625 105.054688 38.515625 L 121.550781 38.515625 C 122.117188 38.515625 122.523438 39.003906 122.445312 39.574219 L 121.0625 47.472656 C 120.980469 47.878906 120.574219 48.207031 120.167969 48.207031 Z M 120.167969 48.207031 "/>
<path style=" stroke:none;fill-rule:nonzero;fill:rgb(100%,100%,100%);fill-opacity:1;" d="M 107.980469 38.921875 C 108.304688 38.921875 108.550781 39.003906 108.792969 39.085938 C 109.039062 39.167969 109.28125 39.328125 109.445312 39.574219 C 109.605469 39.738281 109.769531 39.980469 109.769531 40.308594 C 109.851562 40.550781 109.851562 40.878906 109.769531 41.203125 L 109.6875 42.179688 L 107.898438 42.179688 L 107.980469 41.609375 C 107.980469 41.527344 107.980469 41.445312 108.0625 41.285156 C 108.0625 41.203125 108.0625 41.039062 108.0625 40.957031 C 108.0625 40.878906 108.0625 40.796875 107.980469 40.714844 C 107.980469 40.714844 107.820312 40.714844 107.738281 40.714844 L 107.414062 40.714844 C 107.085938 40.714844 106.925781 40.878906 106.925781 41.121094 L 106.113281 45.601562 C 106.03125 45.925781 106.195312 46.089844 106.4375 46.089844 L 106.761719 46.089844 C 106.925781 46.089844 107.007812 46.089844 107.085938 46.007812 C 107.167969 45.925781 107.25 45.84375 107.25 45.761719 C 107.25 45.679688 107.332031 45.601562 107.332031 45.4375 C 107.332031 45.355469 107.332031 45.191406 107.414062 45.113281 L 107.574219 44.214844 L 109.363281 44.214844 L 109.039062 45.601562 C 108.957031 45.925781 108.875 46.171875 108.710938 46.496094 C 108.550781 46.738281 108.304688 46.984375 108.144531 47.230469 C 107.898438 47.390625 107.65625 47.554688 107.332031 47.71875 C 107.007812 47.796875 106.761719 47.878906 106.4375 47.878906 L 106.113281 47.878906 C 105.789062 47.878906 105.542969 47.796875 105.300781 47.71875 C 105.054688 47.636719 104.8125 47.472656 104.648438 47.230469 C 104.488281 47.066406 104.40625 46.820312 104.324219 46.496094 C 104.242188 46.25 104.242188 45.925781 104.324219 45.601562 L 105.136719 41.121094 C 105.21875 40.796875 105.300781 40.550781 105.460938 40.226562 C 105.625 39.980469 105.789062 39.738281 106.03125 39.492188 C 106.273438 39.328125 106.519531 39.167969 106.84375 39.003906 C 107.167969 38.921875 107.414062 38.839844 107.738281 38.839844 L 107.980469 38.839844 Z M 107.980469 38.921875 "/>
<path style=" stroke:none;fill-rule:nonzero;fill:rgb(100%,100%,100%);fill-opacity:1;" d="M 113.507812 38.921875 C 113.832031 38.921875 114.074219 39.003906 114.320312 39.085938 C 114.5625 39.167969 114.804688 39.328125 114.96875 39.574219 C 115.132812 39.738281 115.210938 39.980469 115.292969 40.308594 C 115.375 40.550781 115.375 40.878906 115.292969 41.203125 L 115.050781 42.503906 C 114.96875 42.832031 114.886719 43.074219 114.726562 43.402344 C 114.5625 43.644531 114.398438 43.890625 114.15625 44.132812 C 113.914062 44.296875 113.667969 44.460938 113.34375 44.621094 C 113.019531 44.703125 112.773438 44.785156 112.449219 44.785156 L 111.394531 44.785156 L 110.824219 47.878906 L 109.039062 47.878906 L 109.929688 42.996094 L 112.695312 42.996094 C 113.019531 42.996094 113.179688 42.832031 113.179688 42.585938 L 113.425781 41.203125 C 113.667969 40.878906 113.507812 40.714844 113.261719 40.714844 L 112.207031 40.714844 L 111.882812 42.75 L 110.09375 42.75 L 110.742188 39.003906 L 113.507812 39.003906 Z M 111.800781 44.949219 C 112.125 44.949219 112.367188 44.949219 112.695312 44.949219 C 113.019531 44.949219 113.261719 44.867188 113.585938 44.785156 L 114.238281 47.878906 L 112.289062 47.878906 Z M 111.800781 44.949219 "/>
<path style=" stroke:none;fill-rule:nonzero;fill:rgb(100%,100%,100%);fill-opacity:1;" d="M 119.113281 38.921875 C 119.4375 38.921875 119.679688 39.003906 119.925781 39.085938 C 120.167969 39.167969 120.414062 39.328125 120.574219 39.574219 C 120.738281 39.738281 120.898438 39.980469 120.898438 40.308594 C 120.980469 40.550781 120.980469 40.878906 120.898438 41.203125 L 120.820312 41.691406 L 119.03125 41.691406 C 119.03125 41.609375 119.03125 41.527344 119.113281 41.367188 C 119.113281 41.285156 119.113281 41.121094 119.113281 41.039062 C 119.113281 40.957031 119.113281 40.878906 119.03125 40.796875 C 119.03125 40.714844 118.949219 40.714844 118.789062 40.714844 L 118.136719 40.714844 C 117.8125 40.714844 117.648438 40.878906 117.648438 41.203125 L 117.488281 42.097656 C 117.40625 42.425781 117.570312 42.585938 117.8125 42.585938 L 118.460938 42.585938 C 118.789062 42.585938 119.03125 42.667969 119.273438 42.75 C 119.519531 42.832031 119.761719 42.996094 119.925781 43.238281 C 120.085938 43.402344 120.25 43.644531 120.25 43.972656 C 120.332031 44.214844 120.332031 44.542969 120.25 44.867188 L 120.167969 45.601562 C 120.085938 45.925781 120.007812 46.171875 119.84375 46.496094 C 119.679688 46.738281 119.4375 46.984375 119.273438 47.230469 C 119.03125 47.390625 118.789062 47.554688 118.460938 47.71875 C 118.136719 47.796875 117.894531 47.878906 117.570312 47.878906 L 116.917969 47.878906 C 116.59375 47.878906 116.351562 47.796875 116.105469 47.71875 C 115.863281 47.636719 115.617188 47.472656 115.457031 47.230469 C 115.292969 47.066406 115.132812 46.820312 115.132812 46.496094 C 115.050781 46.25 115.050781 45.925781 115.132812 45.601562 L 115.292969 44.703125 L 117.082031 44.703125 L 116.835938 45.601562 C 116.757812 45.925781 116.917969 46.007812 117.164062 46.007812 L 117.8125 46.007812 C 118.136719 46.007812 118.300781 45.84375 118.300781 45.601562 L 118.460938 44.703125 C 118.542969 44.378906 118.382812 44.296875 118.054688 44.296875 L 117.40625 44.296875 C 117.082031 44.296875 116.835938 44.214844 116.59375 44.132812 C 116.351562 44.054688 116.105469 43.890625 115.945312 43.644531 C 115.78125 43.484375 115.699219 43.238281 115.617188 42.914062 C 115.539062 42.667969 115.539062 42.34375 115.617188 42.015625 L 115.78125 41.121094 C 115.863281 40.796875 115.945312 40.550781 116.105469 40.226562 C 116.269531 39.980469 116.511719 39.738281 116.675781 39.492188 C 116.917969 39.328125 117.164062 39.167969 117.488281 39.003906 C 117.8125 38.921875 118.054688 38.839844 118.382812 38.839844 L 119.113281 38.839844 Z M 119.113281 38.921875 "/>
</g>
</svg>
