<?xml version="1.0" encoding="utf-8"?>
<!-- Generator: Adobe Illustrator 25.0.0, SVG Export Plug-In . SVG Version: 6.00 Build 0)  -->
<svg version="1.1" id="Layer_1" xmlns="http://www.w3.org/2000/svg" xmlns:xlink="http://www.w3.org/1999/xlink" x="0px" y="0px"
	 viewBox="0 0 16 16" style="enable-background:new 0 0 16 16;" xml:space="preserve">
<style type="text/css">
	.st0{fill:none;stroke:#000000;stroke-width:0.25;stroke-miterlimit:10;}
	.st1{fill:#F77A26;}
</style>
<g>
	<path class="st0" d="M11.26,0.26H4.72c-0.62,0-1.13,0.51-1.13,1.13v13.27c0,0.63,0.5,1.13,1.13,1.13h6.53
		c0.63,0,1.13-0.5,1.13-1.13V1.39C12.39,0.77,11.88,0.26,11.26,0.26L11.26,0.26z M10.51,0.97c0.16,0,0.29,0.13,0.29,0.29
		c0,0.16-0.13,0.29-0.29,0.29c-0.16,0-0.29-0.13-0.29-0.29C10.22,1.1,10.35,0.97,10.51,0.97L10.51,0.97z M6.48,1.08H9.5v0.33H6.48
		V1.08z M7.99,15.09c-0.44,0-0.8-0.36-0.8-0.8c0-0.44,0.36-0.8,0.8-0.8c0.44,0,0.8,0.36,0.8,0.8C8.79,14.74,8.43,15.09,7.99,15.09
		L7.99,15.09z M11.54,12.84H4.44V2.17h7.09V12.84z M11.54,12.84"/>
	<path class="st1" d="M6.66,5.24C6.4,5.57,6.24,5.98,6.24,6.44h3.52c0-0.46-0.16-0.88-0.43-1.21l0.91-0.96
		c0.07-0.08,0.07-0.2,0-0.28c-0.07-0.08-0.19-0.08-0.26,0L9.06,4.97C8.76,4.73,8.4,4.59,8,4.59c-0.4,0-0.77,0.14-1.07,0.38L6,3.99
		c-0.08-0.08-0.19-0.08-0.26,0c-0.07,0.08-0.07,0.2,0,0.28L6.66,5.24z M8.61,5.32c0.18,0,0.33,0.15,0.33,0.35
		c0,0.19-0.15,0.34-0.33,0.34c-0.18,0-0.33-0.16-0.33-0.34C8.28,5.47,8.43,5.32,8.61,5.32L8.61,5.32z M7.37,5.32
		c0.18,0,0.32,0.15,0.32,0.35c0,0.19-0.15,0.34-0.32,0.34c-0.18,0-0.33-0.16-0.33-0.34C7.04,5.47,7.19,5.32,7.37,5.32L7.37,5.32z
		 M7.37,5.32"/>
	<path class="st1" d="M6.23,9.77h0.31v0.91c0,0.28,0.22,0.5,0.5,0.5c0.27,0,0.49-0.22,0.49-0.5V9.77h0.86v0.91
		c0,0.28,0.22,0.5,0.5,0.5s0.5-0.22,0.5-0.5V9.77h0.34V6.64H6.23V9.77z M6.23,9.77"/>
	<path class="st1" d="M10.03,7.14v1.43c0,0.27,0.22,0.5,0.5,0.5c0.27,0,0.5-0.22,0.5-0.5V7.14c0-0.27-0.22-0.5-0.5-0.5
		C10.26,6.64,10.03,6.87,10.03,7.14L10.03,7.14z M10.03,7.14"/>
	<path class="st1" d="M5.45,9.07c0.27,0,0.5-0.22,0.5-0.5V7.14c0-0.27-0.22-0.5-0.5-0.5c-0.27,0-0.5,0.22-0.5,0.5v1.43
		C4.95,8.84,5.18,9.07,5.45,9.07L5.45,9.07z M5.45,9.07"/>
</g>
</svg>
