<?xml version="1.0" encoding="utf-8"?>
<!-- Generator: Adobe Illustrator 25.0.0, SVG Export Plug-In . SVG Version: 6.00 Build 0)  -->
<svg version="1.1" id="Layer_1" xmlns="http://www.w3.org/2000/svg" xmlns:xlink="http://www.w3.org/1999/xlink" x="0px" y="0px"
	 viewBox="0 0 16 16" style="enable-background:new 0 0 16 16;" xml:space="preserve">
<style type="text/css">
	.st0{fill:#F77A26;}
</style>
<g>
	<rect x="0.26" y="1.29" class="st0" width="3.61" height="3.1"/>
	<path class="st0" d="M4.39,11.61h-3.1c-0.29,0-0.52,0.23-0.52,0.52v2.58H4.9v-2.58C4.9,11.84,4.67,11.61,4.39,11.61L4.39,11.61z
		 M4.39,11.61"/>
	<path class="st0" d="M15.74,2.84H11.1V0.77c0-0.29,0.23-0.52,0.52-0.52h3.61c0.29,0,0.52,0.23,0.52,0.52V2.84z M15.74,2.84"/>
	<rect x="12.9" y="12.39" class="st0" width="2.06" height="2.58"/>
	<path d="M0.77,6.71h1.03V8h2.5V7.48H2.32V6.71h1.03c0.43,0,0.77-0.35,0.77-0.77V0.77C4.13,0.35,3.78,0,3.35,0H0.77
		C0.35,0,0,0.35,0,0.77v5.16C0,6.36,0.35,6.71,0.77,6.71L0.77,6.71z M3.35,6.19H0.77c-0.14,0-0.26-0.12-0.26-0.26V4.65h3.1v1.29
		C3.61,6.08,3.5,6.19,3.35,6.19L3.35,6.19z M0.52,4.13V1.55h3.1v2.58H0.52z M0.77,0.52h2.58c0.14,0,0.26,0.12,0.26,0.26v0.26h-3.1
		V0.77C0.52,0.63,0.63,0.52,0.77,0.52L0.77,0.52z M0.77,0.52"/>
	<rect x="1.55" y="5.16" width="1.03" height="0.52"/>
	<path d="M15.23,0h-3.61c-0.43,0-0.77,0.35-0.77,0.77v2.58c0,0.43,0.35,0.77,0.77,0.77h0.77v0.52h-0.52v0.52h1.29v2.58h-1.17v0.52
		h1.69v-3.1h1.29V4.65h-0.52V4.13h0.77c0.43,0,0.77-0.35,0.77-0.77V0.77C16,0.35,15.65,0,15.23,0L15.23,0z M11.61,0.52h3.61
		c0.14,0,0.26,0.12,0.26,0.26v1.81h-4.13V0.77C11.35,0.63,11.47,0.52,11.61,0.52L11.61,0.52z M13.94,4.65H12.9V4.13h1.03V4.65z
		 M15.23,3.61h-3.61c-0.14,0-0.26-0.12-0.26-0.26V3.1h4.13v0.26C15.48,3.5,15.37,3.61,15.23,3.61L15.23,3.61z M15.23,3.61"/>
	<path d="M5.16,12.13c0-0.43-0.35-0.77-0.77-0.77H2.84V9.03h0.77V8.52H2.32v2.84H1.29c-0.43,0-0.77,0.35-0.77,0.77v2.32H0v0.77
		C0,15.65,0.35,16,0.77,16H4.9c0.43,0,0.77-0.35,0.77-0.77v-0.77H5.16V12.13z M1.03,12.13c0-0.14,0.12-0.26,0.26-0.26h3.1
		c0.14,0,0.26,0.12,0.26,0.26v2.32H1.03V12.13z M5.16,15.23c0,0.14-0.12,0.26-0.26,0.26H0.77c-0.14,0-0.26-0.12-0.26-0.26v-0.26
		h4.65V15.23z M5.16,15.23"/>
	<rect x="12.9" y="12.39" width="0.52" height="0.52"/>
	<rect x="14.45" y="14.45" width="0.52" height="0.52"/>
	<rect x="13.94" y="12.39" width="1.03" height="0.52"/>
	<rect x="12.9" y="14.45" width="1.03" height="0.52"/>
	<path d="M14.19,8.77h-1.81v0.52h1.29v2.06h-1.81V16H16v-4.65h-1.81V8.77z M12.39,15.48v-1.55h3.1v1.55H12.39z M15.48,13.42h-3.1
		v-1.55h3.1V13.42z M15.48,13.42"/>
	<path class="st0" d="M10.84,10.84H5.16c-1,0-1.81-0.81-1.81-1.81c0-0.86,0.6-1.59,1.43-1.77c0.3-0.79,1.07-1.33,1.93-1.33
		C7,5.94,7.29,6,7.55,6.12c0.38-0.59,1.03-0.96,1.74-0.96c1.14,0,2.06,0.93,2.06,2.06c0,0.03,0,0.05,0,0.08
		c0.75,0.22,1.29,0.93,1.29,1.73C12.65,10.03,11.83,10.84,10.84,10.84L10.84,10.84z M10.84,10.84"/>
</g>
</svg>
