<?xml version="1.0" encoding="utf-8"?>
<!-- Generator: Adobe Illustrator 25.0.0, SVG Export Plug-In . SVG Version: 6.00 Build 0)  -->
<svg version="1.1" id="Layer_1" xmlns="http://www.w3.org/2000/svg" xmlns:xlink="http://www.w3.org/1999/xlink" x="0px" y="0px"
	 viewBox="0 0 16 16" style="enable-background:new 0 0 16 16;" xml:space="preserve">
<style type="text/css">
	.st0{fill:#F77A26;}
	.st1{fill:#E56E1F;}
</style>
<g>
	<polygon class="st0" points="3.35,12.13 3.35,11.87 4.13,4.65 11.87,4.65 12.65,11.87 12.65,12.13 	"/>
	<g>
		<path d="M11.35,13.94h4.13v0.77c0,0.43-0.35,0.77-0.77,0.77H1.29c-0.43,0-0.77-0.35-0.77-0.77v-0.77h4.13v-0.52H0v1.29
			C0,15.42,0.58,16,1.29,16h13.42c0.71,0,1.29-0.58,1.29-1.29v-1.29h-4.65V13.94z"/>
		<path d="M5.94,14.97h4.13c0.43,0,0.77-0.35,0.77-0.77v-0.77H5.16v0.77C5.16,14.62,5.51,14.97,5.94,14.97z M5.68,13.94h4.65v0.26
			c0,0.14-0.12,0.26-0.26,0.26H5.94c-0.14,0-0.26-0.12-0.26-0.26V13.94z"/>
		<rect x="1.55" y="14.45" width="0.52" height="0.52"/>
		<rect x="2.58" y="14.45" width="0.52" height="0.52"/>
		<rect x="3.61" y="14.45" width="0.52" height="0.52"/>
		<path d="M14.71,2.32h-3.87v0.52h3.87c0.43,0,0.77,0.35,0.77,0.77v9.29H16V3.61C16,2.9,15.42,2.32,14.71,2.32z"/>
		<path d="M0.52,3.61c0-0.43,0.35-0.77,0.77-0.77h3.35V2.32H1.29C0.58,2.32,0,2.9,0,3.61v9.29h0.52V3.61z"/>
		<path d="M14.45,12.9h0.52V3.87c0-0.28-0.23-0.52-0.52-0.52h-3.61v0.52h3.61V12.9z"/>
		<path d="M4.65,3.35h-3.1c-0.28,0-0.52,0.23-0.52,0.52v9.03h0.52V3.87h3.1V3.35z"/>
		<path d="M12.9,11.87l-0.8-7.48H3.9l-0.8,7.46l0,0.54h9.81V11.87z M4.36,4.9h6.96l-0.74,6.94l0,0.03H3.61L4.36,4.9z M11.1,11.87
			l0.64-6.01l0.64,6.01H11.1z"/>
	</g>
	<path class="st1" d="M10.32,5.68H9.81v-3.1c0-1.14-0.93-2.06-2.06-2.06S5.68,1.44,5.68,2.58v3.1H5.16v-3.1C5.16,1.16,6.32,0,7.74,0
		s2.58,1.16,2.58,2.58V5.68z"/>
	<g>
		<path d="M5.42,5.42c-0.43,0-0.77,0.35-0.77,0.77c0,0.43,0.35,0.77,0.77,0.77s0.77-0.35,0.77-0.77C6.19,5.77,5.85,5.42,5.42,5.42z
			 M5.42,6.45c-0.14,0-0.26-0.12-0.26-0.26c0-0.14,0.12-0.26,0.26-0.26s0.26,0.12,0.26,0.26C5.68,6.34,5.56,6.45,5.42,6.45z"/>
		<path d="M10.84,6.19c0-0.43-0.35-0.77-0.77-0.77S9.29,5.77,9.29,6.19c0,0.43,0.35,0.77,0.77,0.77S10.84,6.62,10.84,6.19z
			 M9.81,6.19c0-0.14,0.12-0.26,0.26-0.26s0.26,0.12,0.26,0.26c0,0.14-0.12,0.26-0.26,0.26S9.81,6.34,9.81,6.19z"/>
	</g>
</g>
</svg>
