<?xml version="1.0" encoding="utf-8"?>
<!-- Generator: Adobe Illustrator 25.0.0, SVG Export Plug-In . SVG Version: 6.00 Build 0)  -->
<svg version="1.1" id="Layer_1" xmlns="http://www.w3.org/2000/svg" xmlns:xlink="http://www.w3.org/1999/xlink" x="0px" y="0px"
	 viewBox="0 0 16 16" style="enable-background:new 0 0 16 16;" xml:space="preserve">
<style type="text/css">
	.st0{fill:#F77A26;}
</style>
<g>
	<path class="st0" d="M12.2,8.34V7.61H9.05c0,0.58-0.47,1.05-1.05,1.05c-0.58,0-1.05-0.47-1.05-1.05H3.8v0.73l0.93,0.23
		C4.8,8.8,4.89,9.02,5.01,9.24l-0.49,0.82l1.03,1.03l0.82-0.49c0.21,0.12,0.44,0.21,0.67,0.28l0.23,0.93h1.46l0.23-0.93
		c0.23-0.07,0.46-0.16,0.67-0.28l0.82,0.49l1.03-1.03l-0.49-0.82c0.12-0.21,0.21-0.44,0.28-0.67L12.2,8.34z M12.2,8.34"/>
	<path d="M13.77,5.25h-1.19c-0.29-0.32-0.71-0.52-1.17-0.52c-0.01,0-0.01,0-0.02,0c-0.13-1.03-1.01-1.84-2.08-1.84
		C8.83,2.89,8.37,3.05,8,3.35c-0.37-0.3-0.83-0.46-1.31-0.46c-1.07,0-1.95,0.8-2.08,1.84c-0.01,0-0.01,0-0.02,0
		c-0.46,0-0.88,0.2-1.17,0.52H2.23c-0.43,0-0.79,0.35-0.79,0.79v7.61c0,0.43,0.35,0.79,0.79,0.79h3.15v1.05H4.33V16h7.34v-0.52
		h-1.05v-1.05h3.15c0.43,0,0.79-0.35,0.79-0.79V6.03C14.56,5.6,14.2,5.25,13.77,5.25L13.77,5.25z M4.59,5.25
		c0.07,0,0.14,0.01,0.21,0.02l0.31,0.06V5.01l0-0.03c0-0.87,0.71-1.57,1.57-1.57c0.43,0,0.83,0.17,1.12,0.47L8,4.07l0.19-0.19
		c0.3-0.31,0.7-0.47,1.12-0.47c0.87,0,1.57,0.71,1.57,1.57l0,0.35l0.31-0.06c0.07-0.01,0.14-0.02,0.21-0.02
		c0.58,0,1.05,0.47,1.05,1.05c0,0.58-0.47,1.05-1.05,1.05H8.26v0.52h0.48C8.63,8.17,8.34,8.39,8,8.39c-0.34,0-0.63-0.22-0.74-0.52
		h0.48V7.34H4.59c-0.58,0-1.05-0.47-1.05-1.05C3.54,5.72,4.01,5.25,4.59,5.25L4.59,5.25z M10.1,15.48H5.9v-1.05h4.2V15.48z
		 M14.03,13.64c0,0.14-0.12,0.26-0.26,0.26H2.23c-0.14,0-0.26-0.12-0.26-0.26v-0.79h12.07V13.64z M1.97,12.33v-6.3
		c0-0.14,0.12-0.26,0.26-0.26h0.88C3.05,5.93,3.02,6.11,3.02,6.3c0,0.87,0.71,1.57,1.57,1.57h2.12C6.84,8.47,7.37,8.92,8,8.92
		s1.16-0.45,1.28-1.05h2.12c0.87,0,1.57-0.71,1.57-1.57c0-0.18-0.03-0.36-0.09-0.52h0.88c0.14,0,0.26,0.12,0.26,0.26v6.3H1.97z
		 M1.97,12.33"/>
	<path d="M6.69,4.46V3.93c-0.58,0-1.05,0.47-1.05,1.05h0.52C6.16,4.69,6.4,4.46,6.69,4.46L6.69,4.46z M6.69,4.46"/>
	<rect x="7.74" width="0.52" height="0.52"/>
	<rect x="7.74" y="1.05" width="0.52" height="0.52"/>
	<rect x="7.74" y="2.1" width="0.52" height="0.52"/>
	<rect x="11.93" y="1.57" width="0.52" height="0.52"/>
	<rect x="11.93" y="2.62" width="0.52" height="0.52"/>
	<rect x="11.93" y="3.67" width="0.52" height="0.52"/>
	<rect x="9.84" width="0.52" height="0.52"/>
	<rect x="9.84" y="1.05" width="0.52" height="0.52"/>
	<rect x="9.84" y="2.1" width="0.52" height="0.52"/>
	<rect x="3.54" y="1.57" width="0.52" height="0.52"/>
	<rect x="3.54" y="2.62" width="0.52" height="0.52"/>
	<rect x="3.54" y="3.67" width="0.52" height="0.52"/>
	<rect x="5.64" width="0.52" height="0.52"/>
	<rect x="5.64" y="1.05" width="0.52" height="0.52"/>
	<rect x="5.64" y="2.1" width="0.52" height="0.52"/>
</g>
</svg>
