<?xml version="1.0" encoding="utf-8"?>
<!-- Generator: Adobe Illustrator 25.0.0, SVG Export Plug-In . SVG Version: 6.00 Build 0)  -->
<svg version="1.1" id="Layer_1" xmlns="http://www.w3.org/2000/svg" xmlns:xlink="http://www.w3.org/1999/xlink" x="0px" y="0px"
	 viewBox="0 0 16 16" style="enable-background:new 0 0 16 16;" xml:space="preserve">
<style type="text/css">
	.st0{fill:#E56E1F;}
	.st1{fill:#A7C7D3;}
	.st2{fill:#618AAA;}
	.st3{fill:#F77A26;}
	.st4{fill:#5FC9ED;}
	.st5{clip-path:url(#SVGID_2_);}
</style>
<g>
	<path class="st0" d="M11.98,6.86l-0.62-0.05C11.34,6.7,11.3,6.6,11.24,6.5l0.41-0.47c0.04-0.05,0.04-0.13-0.01-0.17l-0.41-0.41
		c-0.05-0.05-0.12-0.05-0.17-0.01l-0.47,0.4c-0.1-0.05-0.2-0.1-0.31-0.13L10.25,5.1c0-0.07-0.06-0.12-0.13-0.12H9.54
		c-0.07,0-0.12,0.05-0.13,0.12L9.37,5.71C9.25,5.74,9.14,5.79,9.04,5.85l-0.47-0.4C8.52,5.4,8.45,5.41,8.4,5.45L7.99,5.86
		C7.94,5.91,7.94,5.99,7.98,6.04L8.39,6.5C8.34,6.6,8.3,6.7,8.27,6.81L7.65,6.86c-0.07,0-0.12,0.06-0.12,0.13v0.58
		c0,0.07,0.05,0.12,0.12,0.13l0.62,0.04c0.03,0.11,0.08,0.21,0.13,0.31L8,8.51C7.96,8.56,7.96,8.63,8.01,8.68l0.41,0.41
		C8.47,9.14,8.55,9.14,8.6,9.1l0.47-0.41c0.1,0.05,0.2,0.09,0.31,0.13l0.05,0.62c0.01,0.07,0.06,0.12,0.13,0.12h0.58
		c0.07,0,0.12-0.05,0.13-0.12l0.04-0.62c0.1-0.03,0.2-0.07,0.29-0.12l0.47,0.41c0.05,0.04,0.13,0.04,0.17-0.01l0.41-0.41
		c0.05-0.05,0.05-0.12,0.01-0.17l-0.4-0.47c0.05-0.1,0.1-0.2,0.13-0.31l0.62-0.04c0.07,0,0.12-0.06,0.12-0.13V6.99
		C12.1,6.92,12.05,6.86,11.98,6.86L11.98,6.86z M9.82,7.93c-0.37,0-0.67-0.3-0.67-0.67c0-0.37,0.3-0.67,0.67-0.67
		c0.37,0,0.67,0.3,0.67,0.67C10.49,7.63,10.19,7.93,9.82,7.93L9.82,7.93z M9.82,7.93"/>
	<path class="st1" d="M8.83,4.05L8.21,4C8.15,3.76,8.06,3.54,7.94,3.34l0.42-0.47c0.06-0.07,0.06-0.18-0.01-0.25L7.75,2.02
		C7.69,1.95,7.58,1.95,7.51,2.01L7.03,2.42C6.83,2.29,6.61,2.2,6.37,2.14L6.33,1.51c-0.01-0.1-0.09-0.17-0.18-0.17H5.31
		c-0.1,0-0.17,0.07-0.18,0.17L5.08,2.13c-0.25,0.06-0.49,0.16-0.7,0.29L3.91,2.01C3.83,1.95,3.73,1.95,3.66,2.02L3.06,2.61
		C3,2.68,2.99,2.79,3.06,2.86l0.42,0.47C3.36,3.54,3.26,3.76,3.2,4L2.58,4.05c-0.1,0.01-0.17,0.09-0.17,0.18v0.84
		c0,0.1,0.08,0.18,0.17,0.18l0.63,0.04C3.28,5.53,3.37,5.75,3.5,5.95L3.09,6.43C3.03,6.5,3.03,6.61,3.1,6.67l0.59,0.59
		c0.07,0.07,0.18,0.07,0.25,0.01l0.47-0.42c0.21,0.12,0.43,0.21,0.67,0.27l0.05,0.62c0.01,0.1,0.09,0.17,0.18,0.17h0.84
		c0.1,0,0.18-0.08,0.18-0.17l0.04-0.63C6.59,7.06,6.8,6.97,7,6.86l0.47,0.42c0.07,0.06,0.18,0.06,0.25-0.01l0.59-0.59
		C8.38,6.61,8.39,6.5,8.32,6.43L7.92,5.95c0.12-0.2,0.22-0.43,0.28-0.66l0.63-0.04C8.92,5.25,9,5.17,9,5.07V4.23
		C9,4.14,8.92,4.06,8.83,4.05L8.83,4.05z M5.71,6.1c-0.81,0-1.47-0.66-1.47-1.47c0-0.81,0.66-1.47,1.47-1.47s1.47,0.66,1.47,1.47
		C7.18,5.44,6.52,6.1,5.71,6.1L5.71,6.1z M5.71,6.1"/>
	<path class="st2" d="M8.69,6.12"/>
	<path class="st2" d="M9.47,5.07V5c-0.03,0.02-0.05,0.06-0.06,0.1L9.4,5.38C9.45,5.29,9.47,5.18,9.47,5.07L9.47,5.07z M9.47,5.07"/>
	<path class="st3" d="M8.83,4.05L8.21,4C8.15,3.76,8.06,3.54,7.94,3.34l0.42-0.47c0.06-0.07,0.06-0.18-0.01-0.25L7.75,2.02
		C7.69,1.95,7.58,1.95,7.51,2.01L7.03,2.42C6.83,2.29,6.61,2.2,6.37,2.14L6.33,1.51c-0.01-0.1-0.09-0.17-0.18-0.17H5.31
		c-0.1,0-0.17,0.07-0.18,0.17L5.08,2.13c-0.25,0.06-0.49,0.16-0.7,0.29L3.91,2.01C3.83,1.95,3.73,1.95,3.66,2.02L3.06,2.61
		C3,2.68,2.99,2.79,3.06,2.86l0.42,0.47C3.36,3.54,3.26,3.76,3.2,4L2.58,4.05c-0.1,0.01-0.17,0.09-0.17,0.18v0.84
		c0,0.1,0.08,0.18,0.17,0.18l0.63,0.04C3.28,5.53,3.37,5.75,3.5,5.95L3.09,6.43C3.03,6.5,3.03,6.61,3.1,6.67l0.59,0.59
		c0.07,0.07,0.18,0.07,0.25,0.01l0.47-0.42c0.21,0.12,0.43,0.21,0.67,0.27l0.05,0.62c0.01,0.1,0.09,0.17,0.18,0.17h0.84
		c0.1,0,0.18-0.08,0.18-0.17l0.04-0.63C6.59,7.06,6.8,6.97,7,6.86l0.47,0.42c0.07,0.06,0.18,0.06,0.25-0.01l0.59-0.59
		C8.38,6.61,8.39,6.5,8.32,6.43L7.92,5.95c0.12-0.2,0.22-0.43,0.28-0.66l0.63-0.04C8.92,5.25,9,5.17,9,5.07V4.23
		C9,4.14,8.92,4.06,8.83,4.05L8.83,4.05z M5.71,6.1c-0.81,0-1.47-0.66-1.47-1.47c0-0.81,0.66-1.47,1.47-1.47s1.47,0.66,1.47,1.47
		C7.18,5.44,6.52,6.1,5.71,6.1L5.71,6.1z M5.71,6.1"/>
	<path class="st4" d="M13.13,8.04"/>
	<path d="M9.82,6.36c-0.5,0-0.9,0.41-0.9,0.9c0,0.5,0.41,0.9,0.9,0.9c0.5,0,0.9-0.41,0.9-0.9C10.72,6.76,10.32,6.36,9.82,6.36
		L9.82,6.36z M9.82,7.7c-0.24,0-0.44-0.2-0.44-0.44c0-0.24,0.2-0.44,0.44-0.44c0.24,0,0.44,0.2,0.44,0.44
		C10.25,7.5,10.06,7.7,9.82,7.7L9.82,7.7z M9.82,7.7"/>
	<path d="M7.1,4.1C6.97,4.12,6.89,4.25,6.92,4.37c0.02,0.08,0.03,0.17,0.03,0.26c0,0.68-0.56,1.24-1.24,1.24
		c-0.68,0-1.24-0.56-1.24-1.24c0-0.68,0.56-1.24,1.24-1.24c0.28,0,0.55,0.09,0.77,0.27c0.1,0.08,0.25,0.06,0.33-0.04
		c0.08-0.1,0.06-0.25-0.04-0.33c-0.3-0.24-0.68-0.37-1.06-0.37C4.77,2.92,4,3.69,4,4.63c0,0.94,0.77,1.71,1.71,1.71
		c0.94,0,1.71-0.77,1.71-1.71c0-0.12-0.01-0.24-0.04-0.35C7.35,4.15,7.23,4.07,7.1,4.1L7.1,4.1z M7.1,4.1"/>
	<path d="M1.18,15.17H0.23C0.1,15.17,0,15.28,0,15.41s0.1,0.23,0.23,0.23h0.95c0.13,0,0.23-0.1,0.23-0.23S1.31,15.17,1.18,15.17
		L1.18,15.17z M1.18,15.17"/>
	<path d="M3.59,15.17H2.64c-0.13,0-0.23,0.1-0.23,0.23s0.1,0.23,0.23,0.23h0.95c0.13,0,0.23-0.1,0.23-0.23S3.72,15.17,3.59,15.17
		L3.59,15.17z M3.59,15.17"/>
	<path d="M14.87,14.79c0.04,0.05,0.11,0.08,0.18,0.08h0.57c0.08,0,0.16-0.04,0.2-0.11c0.04-0.07,0.04-0.16,0.01-0.23l-0.95-1.81
		c-0.02-0.05-0.03-0.1-0.02-0.15l0.42-1.69c0,0,0,0,0,0l0,0c0,0,0,0,0,0c0-0.01,0-0.01,0-0.02c0,0,0,0,0-0.01c0,0,0,0,0,0
		c0,0,0,0,0,0c0,0,0-0.01,0-0.01c0,0,0,0,0,0c0-0.01,0-0.01,0-0.02v-0.44c0-0.13-0.1-0.23-0.23-0.23c-0.13,0-0.23,0.1-0.23,0.23v0.1
		l-1.02-0.42l0.02-1.33l0.13,0.08c0.11,0.07,0.25,0.03,0.32-0.08c0.07-0.11,0.03-0.25-0.08-0.32l-0.48-0.29c0,0,0,0-0.01,0
		l-1.53-0.93c-0.25-0.15-0.4-0.41-0.42-0.68l2.33,1.26c0.01,0.01,0.03,0.02,0.04,0.02l0.04,0.02l0.33,0.18
		c0.2,0.11,0.32,0.31,0.32,0.54v0.91c0,0.13,0.1,0.23,0.23,0.23c0.13,0,0.23-0.1,0.23-0.23V8.53c0-0.25-0.09-0.5-0.25-0.69
		c0.09-0.06,0.17-0.15,0.22-0.26l0.25-0.49c0.09-0.17,0.1-0.36,0.04-0.53c-0.06-0.18-0.18-0.32-0.35-0.41l-0.19-0.1
		c-0.34-0.18-0.76-0.04-0.94,0.3l-0.25,0.49c-0.03,0.07-0.06,0.14-0.07,0.21l-1.85-1c0.04-0.12,0.01-0.26-0.09-0.36L11.4,5.29
		c-0.13-0.13-0.35-0.14-0.49-0.02l-0.35,0.3c-0.02-0.01-0.03-0.01-0.05-0.02l-0.03-0.47c-0.01-0.19-0.17-0.34-0.36-0.34H9.54
		c-0.13,0-0.25,0.07-0.31,0.18v-0.7c0-0.22-0.17-0.4-0.38-0.41L8.39,3.78C8.34,3.64,8.29,3.5,8.22,3.37l0.31-0.35
		C8.68,2.85,8.67,2.6,8.51,2.45L7.92,1.85C7.77,1.7,7.52,1.69,7.35,1.83L7,2.13C6.87,2.06,6.74,2.01,6.59,1.96L6.57,1.49
		C6.55,1.27,6.37,1.1,6.15,1.1H5.31c-0.22,0-0.4,0.17-0.41,0.38L4.86,1.94C4.7,1.99,4.55,2.06,4.41,2.13l-0.35-0.3
		C3.89,1.69,3.65,1.7,3.49,1.85L2.9,2.45C2.74,2.6,2.74,2.85,2.88,3.02l0.31,0.35C3.12,3.5,3.07,3.64,3.02,3.78L2.56,3.82
		c-0.22,0.02-0.38,0.2-0.38,0.41v0.84c0,0.22,0.17,0.4,0.39,0.42l0.47,0.03c0.05,0.14,0.11,0.28,0.17,0.41l-0.3,0.35
		C2.77,6.44,2.78,6.69,2.93,6.84l0.59,0.59C3.68,7.59,3.93,7.6,4.1,7.45l0.35-0.31c0.13,0.07,0.27,0.12,0.41,0.17L4.9,7.76
		l-1.2,0.13c-0.02,0-0.03,0-0.05-0.01L2.49,7.14C2.61,7.03,2.68,6.88,2.7,6.71l0.05-0.54C2.77,5.98,2.71,5.8,2.59,5.65
		C2.48,5.51,2.31,5.42,2.12,5.4L1.91,5.38C1.72,5.36,1.54,5.42,1.4,5.54C1.25,5.66,1.16,5.83,1.14,6.01L1.09,6.56
		C1.08,6.73,1.12,6.9,1.22,7.03C1.19,7.06,1.16,7.09,1.13,7.12L1.03,7.24c-0.2,0.22-0.31,0.51-0.31,0.81L0.7,9.9l-0.6,4.68
		c-0.01,0.07,0.01,0.13,0.06,0.18c0.04,0.05,0.11,0.08,0.18,0.08h0.6c0.1,0,0.19-0.06,0.22-0.16l1.5-4.35l1.4,1.45
		c0.08,0.08,0.09,0.2,0.03,0.3c-0.01,0.01-0.01,0.02-0.02,0.03l-0.93,2.26H3.02l0.41-1.83c0.04-0.13,0.02-0.26-0.06-0.37
		c-0.01-0.01-0.01-0.02-0.02-0.02l-0.43-0.46c-0.09-0.09-0.24-0.1-0.33-0.01c-0.09,0.09-0.1,0.24-0.01,0.33l0.39,0.42L2.5,14.56
		c-0.02,0.07,0,0.14,0.05,0.2c0.04,0.06,0.11,0.09,0.18,0.09H3.3c0.09,0,0.18-0.06,0.22-0.14L4.5,12.3
		c0.16-0.28,0.11-0.62-0.11-0.85L2.79,9.8l0.01-0.95l0.47,0.26C3.38,9.17,3.5,9.2,3.61,9.18L4.8,9.03c0.48-0.06,0.86-0.42,0.96-0.88
		h0.39c0.22,0,0.4-0.17,0.42-0.39L6.59,7.3C6.72,7.25,6.84,7.2,6.96,7.14l0.34,0.3v0.13c0,0.19,0.15,0.35,0.34,0.36l0.47,0.03
		c0.01,0.02,0.01,0.03,0.02,0.05l-0.3,0.35C7.71,8.5,7.71,8.71,7.85,8.85l0.41,0.41C8.39,9.39,8.61,9.4,8.75,9.27L9.1,8.96
		c0.02,0.01,0.03,0.01,0.05,0.02l0.04,0.46C9.2,9.63,9.36,9.78,9.54,9.78h0.58c0.19,0,0.35-0.15,0.36-0.34l0.03-0.47
		c0.01,0,0.02-0.01,0.02-0.01l0.35,0.31c0.14,0.13,0.36,0.12,0.49-0.01l0.41-0.41c0.13-0.13,0.14-0.35,0.02-0.49l-0.3-0.35
		c0.01-0.02,0.01-0.03,0.02-0.05L12,7.93c0.11-0.01,0.2-0.06,0.26-0.14l1.1,0.67l-0.03,1.69l-1.31,1.82
		c-0.1,0.14-0.15,0.32-0.13,0.49l0.23,2.21c0.01,0.12,0.11,0.21,0.23,0.21h0.54c0.12,0,0.22-0.09,0.23-0.22l0.14-1.76
		c0-0.02,0.01-0.04,0.01-0.06c0.03,0.09,0.08,0.18,0.15,0.26L14.87,14.79z M14.22,7.24c-0.02-0.06-0.01-0.12,0.01-0.18l0.25-0.49
		c0.06-0.11,0.2-0.16,0.31-0.1l0.19,0.1c0.06,0.03,0.1,0.08,0.11,0.13c0.02,0.06,0.01,0.12-0.01,0.18l-0.25,0.49
		c-0.03,0.06-0.08,0.1-0.13,0.11c-0.06,0.02-0.12,0.01-0.18-0.01L14.38,7.4l-0.07-0.04C14.27,7.33,14.24,7.29,14.22,7.24L14.22,7.24
		z M9.17,5.29L9.15,5.54C9.12,5.55,9.1,5.56,9.07,5.57L8.95,5.46C9.04,5.43,9.12,5.37,9.17,5.29L9.17,5.29z M1.69,5.9
		c0.04-0.03,0.09-0.05,0.15-0.05c0.01,0,0.01,0,0.02,0l0.22,0.02C2.14,5.87,2.19,5.9,2.23,5.95C2.27,6,2.29,6.06,2.29,6.12
		L2.23,6.66c-0.01,0.12-0.11,0.2-0.22,0.21C1.91,6.84,1.81,6.83,1.7,6.84C1.61,6.8,1.55,6.7,1.56,6.6l0,0 M0.77,14.37H0.59
		l0.54-4.23l1.09-0.01L0.77,14.37z M1.18,8.06c0-0.19,0.07-0.37,0.19-0.51l0.11-0.12c0.05-0.06,0.12-0.1,0.2-0.12
		c0.01,0,0.03,0,0.04,0.01l0.2,0.02c0.02,0.01,0.03,0.02,0.05,0.03l1.43,0.91c0,0,0,0,0,0c0.1,0.06,0.22,0.09,0.34,0.08l1.52-0.16
		c-0.09,0.2-0.28,0.35-0.51,0.38l0,0L3.55,8.72c-0.02,0-0.03,0-0.05-0.01L2.7,8.26c0,0-0.01,0-0.01,0L2.14,7.95
		C2.02,7.88,1.88,7.92,1.82,8.04C1.76,8.15,1.8,8.29,1.91,8.35L2.34,8.6L2.33,9.66L1.17,9.68 M6.88,6.66
		C6.7,6.76,6.51,6.84,6.31,6.89C6.21,6.92,6.14,7,6.14,7.1L6.1,7.69H5.36L5.31,7.11C5.31,7.01,5.23,6.93,5.14,6.9
		C4.93,6.85,4.72,6.77,4.53,6.66c-0.09-0.05-0.2-0.04-0.27,0.03L3.82,7.07L3.3,6.54l0.38-0.44C3.74,6.03,3.75,5.92,3.7,5.83
		c-0.11-0.19-0.2-0.39-0.25-0.6c-0.03-0.1-0.11-0.17-0.21-0.17L2.65,5.02V4.28l0.57-0.04c0.1-0.01,0.18-0.08,0.21-0.18
		c0.05-0.21,0.14-0.42,0.25-0.61c0.05-0.09,0.04-0.2-0.03-0.27L3.26,2.74l0.53-0.53l0.44,0.38C4.3,2.66,4.41,2.67,4.5,2.62
		C4.7,2.5,4.91,2.41,5.14,2.35c0.1-0.02,0.17-0.11,0.18-0.21l0.04-0.57H6.1l0.04,0.58c0.01,0.1,0.08,0.19,0.17,0.21
		c0.21,0.06,0.41,0.14,0.6,0.25C7,2.67,7.11,2.66,7.19,2.59l0.44-0.38l0.53,0.53L7.76,3.18C7.7,3.26,7.68,3.37,7.74,3.45
		c0.11,0.19,0.19,0.39,0.25,0.61c0.02,0.1,0.11,0.17,0.21,0.18l0.57,0.04v0.74L8.18,5.06C8.08,5.06,8,5.13,7.97,5.23
		c-0.06,0.21-0.14,0.41-0.25,0.6c-0.05,0.09-0.04,0.2,0.02,0.27l0.38,0.44L7.59,7.07L7.15,6.68C7.08,6.62,6.97,6.61,6.88,6.66
		L6.88,6.66z M11.35,7.5c-0.1,0.01-0.18,0.07-0.21,0.16c-0.03,0.09-0.07,0.18-0.11,0.26c-0.05,0.09-0.04,0.19,0.03,0.27l0.34,0.39
		l-0.27,0.27l-0.39-0.35c-0.07-0.06-0.18-0.08-0.27-0.03c-0.08,0.04-0.16,0.08-0.24,0.1c-0.09,0.03-0.16,0.11-0.16,0.21l-0.03,0.52
		H9.64L9.6,8.79C9.6,8.7,9.53,8.61,9.44,8.59C9.34,8.56,9.25,8.52,9.17,8.48C9.09,8.43,8.98,8.45,8.91,8.51L8.52,8.86L8.25,8.59
		l0.34-0.39c0.06-0.07,0.07-0.18,0.03-0.27C8.56,7.84,8.53,7.76,8.5,7.66C8.47,7.57,8.39,7.51,8.29,7.5L7.84,7.47
		c0.02-0.01,0.03-0.02,0.04-0.04c0,0,0.71-0.82,0.72-0.82c0.05-0.09,0.03-0.19-0.03-0.26L8.4,6.16l0,0c0,0,0,0,0,0l0,0L8.23,5.96
		l0.27-0.27l0.39,0.34C8.96,6.09,9.07,6.1,9.15,6.05C9.24,6,9.34,5.96,9.44,5.93C9.53,5.91,9.6,5.82,9.6,5.73l0.04-0.52h0.38
		l0.03,0.52c0.01,0.1,0.07,0.18,0.16,0.21c0.09,0.03,0.18,0.07,0.26,0.11c0.09,0.05,0.19,0.04,0.27-0.03l0.39-0.34l0.27,0.27
		C11.39,5.97,11.37,6,11.35,6.03l-0.28,0.32C11,6.42,10.99,6.53,11.04,6.61c0.04,0.08,0.08,0.17,0.11,0.27
		c0.03,0.09,0.11,0.16,0.21,0.17l0.09,0.01c0.08,0.16,0.2,0.3,0.34,0.42L11.35,7.5z M15.23,14.41h-0.07l-1.39-1.62
		c-0.05-0.06-0.08-0.13-0.07-0.21l0.09-2.02l0.99,0.41l-0.37,1.5c-0.04,0.16-0.02,0.33,0.06,0.48L15.23,14.41z M13.02,12.39
		c-0.13,0.12-0.21,0.29-0.23,0.47l-0.12,1.55h-0.11l-0.21-2c-0.01-0.06,0.01-0.12,0.05-0.17l0.9-1.25l-0.05,1.19L13.02,12.39z
		 M13.02,12.39"/>
	<path d="M15.7,15.17h-0.95c-0.13,0-0.23,0.1-0.23,0.23s0.1,0.23,0.23,0.23h0.95c0.13,0,0.23-0.1,0.23-0.23S15.83,15.17,15.7,15.17
		L15.7,15.17z M15.7,15.17"/>
	<path d="M12.92,15.17h-0.95c-0.13,0-0.23,0.1-0.23,0.23s0.1,0.23,0.23,0.23h0.95c0.13,0,0.23-0.1,0.23-0.23
		S13.05,15.17,12.92,15.17L12.92,15.17z M12.92,15.17"/>
	<g>
		<defs>
			<rect id="SVGID_1_" width="15.94" height="15.66"/>
		</defs>
		<clipPath id="SVGID_2_">
			<use xlink:href="#SVGID_1_"  style="overflow:visible;"/>
		</clipPath>
		<path class="st5" d="M10.21,4.12c0.84,0,1.62,0.38,2.13,1.02L12.16,5.1c-0.13-0.03-0.25,0.05-0.28,0.17
			c-0.03,0.13,0.05,0.25,0.17,0.28l0.73,0.18c0.12,0.04,0.26-0.02,0.3-0.17l0.17-0.69c0.03-0.13-0.05-0.25-0.17-0.28
			c-0.13-0.03-0.25,0.05-0.28,0.17l-0.04,0.15c-0.6-0.79-1.53-1.26-2.54-1.26c-0.13,0-0.23,0.1-0.23,0.23
			C9.98,4.01,10.08,4.12,10.21,4.12L10.21,4.12z M10.21,4.12"/>
		<path class="st5" d="M1.18,2.9C1.2,3.03,1.37,3.13,1.5,3.08L2.27,2.8c0.12-0.04,0.18-0.18,0.14-0.3c-0.04-0.12-0.18-0.18-0.3-0.14
			L1.88,2.45C2.6,1.23,3.9,0.47,5.34,0.47c0.13,0,0.23-0.1,0.23-0.23C5.58,0.1,5.47,0,5.34,0c-1.63,0-3.1,0.87-3.89,2.26L1.36,2.01
			c-0.04-0.12-0.18-0.18-0.3-0.14c-0.12,0.04-0.18,0.18-0.14,0.3L1.18,2.9z M1.18,2.9"/>
	</g>
</g>
</svg>
