<?xml version="1.0" encoding="utf-8"?>
<!-- Generator: Adobe Illustrator 25.0.0, SVG Export Plug-In . SVG Version: 6.00 Build 0)  -->
<svg version="1.1" id="Layer_1" xmlns="http://www.w3.org/2000/svg" xmlns:xlink="http://www.w3.org/1999/xlink" x="0px" y="0px"
	 viewBox="0 0 16 16" style="enable-background:new 0 0 16 16;" xml:space="preserve">
<style type="text/css">
	.st0{fill:#F77A26;}
</style>
<g>
	<path d="M5.93,1.65c0-0.39-0.32-0.7-0.7-0.7c-0.39,0-0.7,0.32-0.7,0.7c0,0.39,0.32,0.7,0.7,0.7C5.61,2.35,5.93,2.04,5.93,1.65
		L5.93,1.65z M4.99,1.65c0-0.13,0.11-0.23,0.23-0.23c0.13,0,0.23,0.11,0.23,0.23c0,0.13-0.11,0.23-0.23,0.23
		C5.1,1.88,4.99,1.78,4.99,1.65L4.99,1.65z M4.99,1.65"/>
	<path d="M4.52,15.06h1.41v-1.41H4.52V15.06z M4.99,14.12h0.47v0.47H4.99V14.12z M4.99,14.12"/>
	<rect x="6.4" y="14.12" width="0.47" height="0.47"/>
	<rect x="7.34" y="14.12" width="0.47" height="0.47"/>
	<rect x="2.64" y="14.12" width="0.47" height="0.47"/>
	<rect x="3.58" y="14.12" width="0.47" height="0.47"/>
	<path d="M10.52,11l0.19,0.43c0.15-0.07,0.31-0.14,0.45-0.23l-0.24-0.4C10.78,10.88,10.65,10.94,10.52,11L10.52,11z M10.52,11"/>
	<path d="M9.45,4.24V1.17C9.45,0.53,8.93,0,8.28,0H3.57v0.47h4.71c0.39,0,0.7,0.32,0.7,0.7v3.06C7.02,4.36,5.46,5.99,5.46,7.98
		c0,1.99,1.56,3.63,3.52,3.75v3.09c0,0.19-0.07,0.37-0.21,0.5c-0.13,0.13-0.31,0.21-0.5,0.21h0l-6.1,0c-0.39,0-0.7-0.32-0.7-0.7
		V1.17c0-0.39,0.32-0.7,0.7-0.7H3.1V0H2.17C1.53,0,1,0.53,1,1.17v13.65C1,15.47,1.53,16,2.17,16l6.1,0h0c0.31,0,0.61-0.12,0.83-0.34
		c0.22-0.22,0.34-0.52,0.34-0.83v-3.09c0.25-0.02,0.5-0.06,0.75-0.12l-0.12-0.45c-0.28,0.08-0.57,0.11-0.86,0.11
		c-1.81,0-3.29-1.47-3.29-3.29c0-1.81,1.47-3.29,3.29-3.29c1.81,0,3.29,1.47,3.29,3.29c0,1-0.45,1.93-1.23,2.56l0.29,0.37
		c0.89-0.72,1.4-1.78,1.4-2.93C12.97,5.99,11.41,4.36,9.45,4.24L9.45,4.24z M9.45,4.24"/>
	<path class="st0" d="M12.24,4.38c-0.53-0.44-1.13-0.76-1.79-0.94L10.32,3.9c0.59,0.16,1.14,0.44,1.61,0.84
		c0.48,0.4,0.85,0.89,1.11,1.45l0.43-0.2C13.18,5.37,12.77,4.83,12.24,4.38L12.24,4.38z M12.24,4.38"/>
	<path class="st0" d="M12.82,3.68c-0.22-0.19-0.46-0.36-0.71-0.51l-0.24,0.4c0.23,0.14,0.45,0.3,0.65,0.47
		c0.6,0.51,1.07,1.12,1.39,1.83l0.43-0.19C13.99,4.91,13.48,4.24,12.82,3.68L12.82,3.68z M12.82,3.68"/>
	<path class="st0" d="M11.65,2.92c-0.34-0.16-0.7-0.29-1.06-0.38L10.48,3c0.33,0.08,0.66,0.2,0.97,0.35L11.65,2.92z M11.65,2.92"/>
	<path d="M10.15,7.98c0-0.52-0.42-0.94-0.94-0.94c-0.52,0-0.94,0.42-0.94,0.94c0,0.52,0.42,0.94,0.94,0.94
		C9.73,8.92,10.15,8.5,10.15,7.98L10.15,7.98z M8.75,7.98c0-0.26,0.21-0.47,0.47-0.47c0.26,0,0.47,0.21,0.47,0.47
		c0,0.26-0.21,0.47-0.47,0.47C8.96,8.45,8.75,8.24,8.75,7.98L8.75,7.98z M8.75,7.98"/>
	<path class="st0" d="M9.45,10.8v-0.48c1.11-0.11,1.99-0.99,2.1-2.1h0.48V7.75h-0.48c-0.11-1.11-0.99-1.99-2.1-2.1V5.17H8.98v0.48
		c-1.11,0.11-1.99,0.99-2.1,2.1H6.4v0.47h0.48c0.11,1.11,0.99,1.99,2.1,2.1v0.48H9.45z M7.34,7.98c0-1.03,0.84-1.88,1.88-1.88
		s1.88,0.84,1.88,1.88c0,1.03-0.84,1.88-1.88,1.88S7.34,9.02,7.34,7.98L7.34,7.98z M7.34,7.98"/>
	<rect x="1.92" y="2.82" width="0.47" height="0.47"/>
	<rect x="1.92" y="3.76" width="0.47" height="0.47"/>
</g>
</svg>
