<?xml version="1.0" encoding="utf-8"?>
<!-- Generator: Adobe Illustrator 25.0.0, SVG Export Plug-In . SVG Version: 6.00 Build 0)  -->
<svg version="1.1" id="Layer_1" xmlns="http://www.w3.org/2000/svg" xmlns:xlink="http://www.w3.org/1999/xlink" x="0px" y="0px"
	 viewBox="0 0 16 16" style="enable-background:new 0 0 16 16;" xml:space="preserve">
<style type="text/css">
	.st0{fill:#B8AFB8;}
	.st1{fill:#F77A26;}
	.st2{fill:#DB5E09;}
</style>
<g>
	<path class="st0" d="M10.04,11.87"/>
	<path class="st1" d="M9.18,6.18H6.82V5.2c0-0.55,0.45-1,1-1h0.36c0.55,0,1,0.45,1,1V6.18z M9.18,6.18"/>
	<path class="st2" d="M9.17,5.09H7.74c-0.2,0-0.34-0.21-0.26-0.4c0.1-0.22,0.27-0.39,0.48-0.5H7.82c-0.55,0-1,0.45-1,1v0.98h2.36
		V5.2C9.18,5.16,9.18,5.12,9.17,5.09L9.17,5.09z M9.17,5.09"/>
	<path class="st1" d="M8.01,9.36c-0.88,0-1.59-0.71-1.59-1.59V5.8c0-0.13,0.11-0.24,0.24-0.24h2.69c0.13,0,0.24,0.11,0.24,0.24v1.97
		C9.6,8.65,8.89,9.36,8.01,9.36L8.01,9.36z M8.01,9.36"/>
	<path class="st2" d="M8.66,9.02c-0.88,0-1.59-0.71-1.59-1.59V5.56H6.67c-0.13,0-0.24,0.11-0.24,0.24v1.97
		c0,0.88,0.71,1.59,1.59,1.59c0.4,0,0.76-0.14,1.03-0.38C8.93,9.01,8.8,9.02,8.66,9.02L8.66,9.02z M8.66,9.02"/>
	<path d="M14.53,1.07H5.2c-0.13,0-0.23,0.1-0.23,0.23c0,0.13,0.1,0.23,0.23,0.23h9.33c0.53,0,0.97,0.43,0.97,0.97v8.59H0.47V2.5
		c0-0.53,0.43-0.97,0.97-0.97H4.2c0.13,0,0.23-0.1,0.23-0.23c0-0.13-0.1-0.23-0.23-0.23H1.43C0.64,1.07,0,1.71,0,2.5v9.25
		c0,0.79,0.64,1.44,1.43,1.44h4.34v0.98l-0.84,0.82H4.58c-0.13,0-0.23,0.1-0.23,0.23c0,0.13,0.1,0.23,0.23,0.23h6.83
		c0.13,0,0.23-0.1,0.23-0.23c0-0.13-0.1-0.23-0.23-0.23h-0.32l-0.84-0.82v-0.98h2.12c0.13,0,0.23-0.1,0.23-0.23
		c0-0.13-0.1-0.23-0.23-0.23H1.43c-0.53,0-0.97-0.43-0.97-0.97v-0.19H15.5v0.19c0,0.53-0.43,0.97-0.97,0.97h-1.16
		c-0.13,0-0.23,0.1-0.23,0.23c0,0.13,0.1,0.23,0.23,0.23h1.16c0.79,0,1.43-0.64,1.43-1.44V2.5C15.97,1.71,15.32,1.07,14.53,1.07
		L14.53,1.07z M9.86,14.43l0.57,0.55H5.61l0.57-0.55c0.05-0.04,0.07-0.1,0.07-0.17v-1.08h3.54v1.08
		C9.78,14.33,9.81,14.39,9.86,14.43L9.86,14.43z M9.86,14.43"/>
	<path d="M7.76,12.02v0.1c0,0.13,0.1,0.23,0.23,0.23c0.13,0,0.23-0.1,0.23-0.23v-0.1c0-0.13-0.1-0.23-0.23-0.23
		C7.87,11.79,7.76,11.89,7.76,12.02L7.76,12.02z M7.76,12.02"/>
	<path d="M8.25,8.41V8.27c0-0.13-0.1-0.23-0.23-0.23c-0.13,0-0.23,0.1-0.23,0.23v0.14c0,0.13,0.1,0.23,0.23,0.23
		C8.14,8.64,8.25,8.54,8.25,8.41L8.25,8.41z M8.25,8.41"/>
	<path d="M5.51,8.12L5.15,9.03H4.7c-0.13,0-0.23,0.1-0.23,0.23c0,0.13,0.1,0.23,0.23,0.23h0.61c0.1,0,0.18-0.06,0.22-0.15l0.36-0.91
		h0.43C6.4,8.64,6.52,8.83,6.67,9C6.76,9.1,6.91,9.1,7,9.02c0.1-0.09,0.1-0.24,0.01-0.33C6.79,8.43,6.66,8.11,6.66,7.77V5.8
		c0,0,0-0.01,0.01-0.01h1.11v1.48c0,0.13,0.1,0.23,0.23,0.23c0.13,0,0.23-0.1,0.23-0.23V5.79h1.11c0,0,0.01,0,0.01,0.01v1.97
		c0,0.75-0.61,1.35-1.35,1.35c-0.08,0-0.17-0.01-0.25-0.02C7.63,9.08,7.51,9.16,7.49,9.29C7.46,9.41,7.55,9.54,7.67,9.56
		C7.79,9.58,7.9,9.59,8.01,9.59c0.77,0,1.43-0.48,1.69-1.16h0.43l0.36,0.91c0.04,0.09,0.12,0.15,0.22,0.15h0.61
		c0.13,0,0.23-0.1,0.23-0.23c0-0.13-0.1-0.23-0.23-0.23h-0.45l-0.36-0.91c-0.04-0.09-0.12-0.15-0.22-0.15H9.82
		C9.83,7.9,9.83,7.84,9.83,7.77V7.35h1.06c0.13,0,0.23-0.1,0.23-0.23c0-0.13-0.1-0.23-0.23-0.23H9.83V6.27h0.47
		c0.1,0,0.18-0.06,0.22-0.15l0.36-0.91h0.45c0.13,0,0.23-0.1,0.23-0.23c0-0.13-0.1-0.23-0.23-0.23h-0.61c-0.1,0-0.18,0.06-0.22,0.15
		L10.14,5.8H9.83V5.8c0-0.24-0.18-0.45-0.42-0.47V5.2c0-0.4-0.19-0.75-0.49-0.98l0.43-0.58h0.47c0.13,0,0.23-0.1,0.23-0.23
		c0-0.13-0.1-0.23-0.23-0.23H9.24c-0.07,0-0.14,0.04-0.19,0.09L8.5,4C8.4,3.98,8.29,3.96,8.18,3.96H7.82C7.71,3.96,7.6,3.98,7.5,4
		L6.95,3.26C6.9,3.2,6.83,3.17,6.76,3.17H6.17c-0.13,0-0.23,0.1-0.23,0.23c0,0.13,0.1,0.23,0.23,0.23h0.47l0.43,0.58
		C6.78,4.44,6.58,4.8,6.58,5.2v0.13C6.36,5.37,6.19,5.57,6.19,5.8V5.8H5.89L5.53,4.89C5.49,4.8,5.4,4.74,5.31,4.74H4.7
		c-0.13,0-0.23,0.1-0.23,0.23c0,0.13,0.1,0.23,0.23,0.23h0.45l0.36,0.91c0.04,0.09,0.12,0.15,0.22,0.15h0.47v0.61H5.13
		C5,6.89,4.9,6.99,4.9,7.12c0,0.13,0.1,0.23,0.23,0.23h1.06v0.42c0,0.07,0,0.13,0.01,0.19H5.73C5.63,7.97,5.55,8.03,5.51,8.12
		L5.51,8.12z M7.05,5.2c0-0.42,0.34-0.77,0.77-0.77h0.36c0.42,0,0.77,0.34,0.77,0.77v0.13H7.05V5.2z M7.05,5.2"/>
</g>
</svg>
