<?xml version="1.0" encoding="utf-8"?>
<!-- Generator: Adobe Illustrator 25.0.0, SVG Export Plug-In . SVG Version: 6.00 Build 0)  -->
<svg version="1.1" id="Layer_1" xmlns="http://www.w3.org/2000/svg" xmlns:xlink="http://www.w3.org/1999/xlink" x="0px" y="0px"
	 viewBox="0 0 30 10.04" style="enable-background:new 0 0 30 10.04;" xml:space="preserve">
<style type="text/css">
	.st0{fill:#FFFFFF;}
</style>
<g>
	<path class="st0" d="M2.35,1.6c0.63,0,0.96,0.05,1.55,0.2l-0.1,0.62c-0.17-0.02-0.85-0.1-1.37-0.1c-0.45,0-0.81,0.13-1.02,1.44
		c-0.15,0.95-0.08,1.4,0.51,1.4c0.41,0,0.76-0.29,0.76-0.29l0.13-0.74h-0.6L2.3,3.62c0.27-0.1,0.61-0.14,1.04-0.14
		c0.12,0,0.25,0,0.39,0.01l-0.38,2.4H2.77L2.59,5.58c-0.19,0.2-0.47,0.32-0.92,0.34C0.51,5.97,0.4,4.73,0.6,3.62
		C0.85,2.27,1.2,1.6,2.35,1.6z"/>
	<path class="st0" d="M5.86,1.65h0.92l0.71,4.24H6.66L6.49,4.95H5.12L4.65,5.89h-0.9L5.86,1.65z M6.41,4.23L6.17,2.69L5.44,4.23
		H6.41z"/>
	<path class="st0" d="M8.88,1.65h1.11l0.26,2.9l1.15-2.9h1.14l-0.27,4.24h-0.81l0.2-2.84l-1.15,2.84H9.6L9.33,3.06L8.65,5.89H7.83
		L8.88,1.65z"/>
	<path class="st0" d="M13.4,1.65h0.81l-0.67,4.24h-0.81L13.4,1.65z"/>
	<path class="st0" d="M14.86,1.65h0.81l1.21,2.76l0.43-2.76h0.81l-0.67,4.24h-0.8l-1.22-2.73l-0.43,2.73h-0.82L14.86,1.65z"/>
	<path class="st0" d="M20.07,1.6c0.63,0,0.96,0.05,1.55,0.2l-0.1,0.62c-0.17-0.02-0.85-0.1-1.37-0.1c-0.45,0-0.81,0.13-1.01,1.44
		c-0.15,0.95-0.08,1.4,0.51,1.4c0.41,0,0.76-0.29,0.76-0.29l0.13-0.74h-0.6l0.08-0.52c0.27-0.1,0.62-0.14,1.04-0.14
		c0.12,0,0.25,0,0.39,0.01l-0.38,2.4h-0.59L20.3,5.58c-0.19,0.2-0.47,0.32-0.92,0.34c-1.15,0.04-1.26-1.19-1.06-2.3
		C18.57,2.27,18.92,1.6,20.07,1.6z"/>
	<path class="st0" d="M23.73,1.65h1.77c0.53,0,1.14,0.3,0.97,1.4c-0.2,1.34-0.91,1.29-1.39,1.28c-0.23-0.01-0.92-0.09-0.95-0.11
		l-0.27,1.68h-0.81L23.73,1.65z M25.13,3.61c0.25,0,0.45-0.13,0.53-0.64c0.08-0.5-0.12-0.6-0.33-0.6h-0.9l-0.2,1.24H25.13z"/>
	<path class="st0" d="M28.55,1.6c0.6,0,1.01,0.07,1.45,0.21l-0.1,0.63c-0.06-0.01-0.69-0.1-1.27-0.09c-0.41,0-0.82-0.02-1.05,1.42
		c-0.16,0.94-0.04,1.39,0.59,1.41c0.45,0.01,0.95-0.02,1.32-0.05l-0.1,0.64c-0.44,0.15-0.86,0.17-1.51,0.16
		c-1.08-0.01-1.3-1.04-1.11-2.27C26.99,2.31,27.39,1.6,28.55,1.6z"/>
</g>
<g>
	<g>
		<path class="st0" d="M0.23,7.55c0.03-0.2,0.16-0.24,0.29-0.23c0,0,0.39,0.01,0.49,0.03L0.99,7.53H0.54c-0.08,0-0.09,0.05-0.1,0.09
			L0.42,7.79l0.45,0.02L0.84,7.99L0.39,8.01L0.36,8.19C0.34,8.28,0.4,8.27,0.44,8.27h0.43L0.84,8.46C0.75,8.47,0.36,8.48,0.36,8.48
			c-0.11,0-0.26-0.04-0.23-0.24L0.23,7.55z"/>
		<path class="st0" d="M1.35,7.32l0.12,0.87l0.41-0.87h0.25L1.55,8.48H1.29L1.11,7.32H1.35z"/>
		<path class="st0" d="M2.18,7.55c0.03-0.2,0.16-0.24,0.29-0.23c0,0,0.39,0.01,0.49,0.03L2.94,7.53H2.49c-0.08,0-0.09,0.05-0.1,0.09
			L2.37,7.79l0.45,0.02L2.79,7.99L2.34,8.01L2.31,8.19C2.29,8.28,2.35,8.27,2.39,8.27h0.43L2.79,8.46C2.7,8.47,2.31,8.48,2.31,8.48
			c-0.11,0-0.26-0.04-0.23-0.24L2.18,7.55z"/>
		<path class="st0" d="M3.12,7.32h0.49c0.17,0,0.3,0.11,0.26,0.38C3.83,7.99,3.69,8.01,3.63,8.02l0.17,0.46H3.54L3.41,8.03
			L3.23,8.02L3.16,8.48H2.93L3.12,7.32z M3.5,7.85c0.08,0,0.13-0.05,0.14-0.17c0.01-0.13-0.01-0.17-0.09-0.17H3.31L3.26,7.85H3.5z"
			/>
		<path class="st0" d="M4.03,7.32h0.86l-0.03,0.2H4.53L4.38,8.48H4.16l0.15-0.96H4L4.03,7.32z"/>
		<path class="st0" d="M5.02,7.32h0.22l-0.08,0.5h0.4l0.08-0.5h0.22L5.68,8.48H5.46l0.07-0.46h-0.4L5.06,8.48H4.84L5.02,7.32z"/>
		<path class="st0" d="M6.04,7.32h0.22L6.08,8.48H5.85L6.04,7.32z"/>
		<path class="st0" d="M6.44,7.32h0.22l0.33,0.75l0.12-0.75h0.22L7.15,8.48H6.93L6.6,7.73L6.48,8.48H6.26L6.44,7.32z"/>
		<path class="st0" d="M7.87,7.3c0.17,0,0.26,0.01,0.42,0.06L8.27,7.53C8.22,7.52,8.03,7.5,7.89,7.5c-0.12,0-0.22,0.04-0.28,0.39
			C7.57,8.16,7.59,8.28,7.75,8.28c0.11,0,0.21-0.08,0.21-0.08L8,8H7.83l0.02-0.14c0.07-0.03,0.17-0.04,0.28-0.04
			c0.03,0,0.07,0,0.11,0l-0.1,0.66H7.98L7.93,8.39C7.88,8.45,7.8,8.48,7.68,8.49C7.36,8.5,7.33,8.16,7.39,7.86
			C7.46,7.49,7.55,7.3,7.87,7.3z"/>
		<path class="st0" d="M9.06,7.32l0.13,0.55l0.33-0.55h0.25l-0.51,0.8L9.21,8.48H8.99l0.06-0.36l-0.23-0.8H9.06z"/>
		<path class="st0" d="M10.29,7.31c0.28,0,0.46,0.08,0.38,0.62c-0.08,0.51-0.27,0.56-0.55,0.56c-0.27,0-0.47-0.07-0.38-0.6
			C9.82,7.34,10.02,7.31,10.29,7.31z M10.14,8.28c0.18,0,0.25-0.06,0.3-0.38c0.06-0.36-0.01-0.39-0.18-0.39
			c-0.17,0-0.25,0.02-0.31,0.39C9.91,8.22,9.95,8.28,10.14,8.28z"/>
		<path class="st0" d="M10.91,7.32h0.22l-0.1,0.67c-0.03,0.22,0,0.3,0.17,0.3c0.17,0,0.23-0.09,0.26-0.3l0.11-0.67h0.22l-0.1,0.69
			c-0.06,0.38-0.24,0.48-0.52,0.48c-0.24,0-0.43-0.08-0.36-0.53L10.91,7.32z"/>
		<path class="st0" d="M12.35,7.32h0.22l0.33,0.75l0.12-0.75h0.22l-0.18,1.16h-0.22l-0.33-0.75l-0.12,0.75h-0.22L12.35,7.32z"/>
		<path class="st0" d="M13.37,7.55c0.03-0.2,0.16-0.24,0.29-0.23c0,0,0.39,0.01,0.49,0.03l-0.03,0.18h-0.44
			c-0.08,0-0.09,0.05-0.1,0.09l-0.03,0.18L14,7.81l-0.03,0.18l-0.45,0.02l-0.03,0.18c-0.01,0.08,0.04,0.08,0.09,0.08H14l-0.03,0.18
			c-0.09,0.01-0.48,0.03-0.48,0.03c-0.11,0-0.26-0.04-0.23-0.24L13.37,7.55z"/>
		<path class="st0" d="M14.26,7.55c0.03-0.2,0.16-0.24,0.29-0.23c0,0,0.39,0.01,0.49,0.03l-0.03,0.18h-0.44
			c-0.08,0-0.09,0.05-0.1,0.09l-0.03,0.18l0.45,0.02l-0.03,0.18l-0.45,0.02l-0.03,0.18c-0.01,0.08,0.04,0.08,0.09,0.08h0.43
			l-0.03,0.18c-0.09,0.01-0.48,0.03-0.48,0.03c-0.11,0-0.26-0.04-0.23-0.24L14.26,7.55z"/>
		<path class="st0" d="M15.2,7.32c0,0,0.43,0,0.47,0c0.33,0,0.36,0.33,0.32,0.61c-0.06,0.4-0.2,0.55-0.49,0.55h-0.49L15.2,7.32z
			 M15.5,8.28c0.15,0,0.23-0.15,0.26-0.38c0.05-0.3-0.01-0.39-0.15-0.39h-0.22l-0.12,0.77H15.5z"/>
		<path class="st0" d="M16.58,7.32h0.86l-0.03,0.2h-0.32l-0.15,0.96h-0.22l0.15-0.96h-0.31L16.58,7.32z"/>
		<path class="st0" d="M17.99,7.31c0.28,0,0.46,0.08,0.38,0.62c-0.08,0.51-0.27,0.56-0.55,0.56c-0.27,0-0.47-0.07-0.38-0.6
			C17.52,7.34,17.72,7.31,17.99,7.31z M17.85,8.28c0.18,0,0.25-0.06,0.3-0.38c0.06-0.36-0.01-0.39-0.18-0.39
			c-0.17,0-0.25,0.02-0.31,0.39C17.61,8.22,17.65,8.28,17.85,8.28z"/>
		<path class="st0" d="M18.87,8.27c0.07,0.01,0.24,0.02,0.39,0.02c0.07,0,0.15-0.01,0.16-0.1l0.01-0.06c0.01-0.07,0-0.11-0.09-0.11
			h-0.16c-0.28,0-0.28-0.22-0.26-0.31l0.02-0.12c0.04-0.24,0.19-0.28,0.36-0.28c0.17,0,0.33,0.02,0.43,0.05l-0.03,0.17
			c-0.09-0.01-0.32-0.02-0.38-0.02c-0.1,0-0.15,0.01-0.17,0.11l-0.01,0.06c-0.02,0.1,0.02,0.11,0.11,0.11h0.17
			c0.22,0,0.25,0.18,0.23,0.31l-0.01,0.11c-0.02,0.27-0.24,0.29-0.38,0.29c-0.18,0-0.31-0.01-0.42-0.05L18.87,8.27z"/>
		<path class="st0" d="M19.85,7.32h0.86l-0.03,0.2h-0.32L20.2,8.48h-0.22l0.15-0.96h-0.31L19.85,7.32z"/>
		<path class="st0" d="M20.97,7.32h0.25l0.19,1.16h-0.23l-0.05-0.26h-0.38l-0.13,0.26H20.4L20.97,7.32z M21.13,8.02L21.06,7.6
			l-0.2,0.42H21.13z"/>
		<path class="st0" d="M21.72,7.32h0.49c0.17,0,0.3,0.11,0.26,0.38c-0.04,0.29-0.18,0.31-0.24,0.32l0.17,0.46h-0.25L22,8.03
			l-0.18-0.01l-0.07,0.46h-0.22L21.72,7.32z M22.1,7.85c0.08,0,0.13-0.05,0.14-0.17c0.01-0.13-0.01-0.17-0.09-0.17h-0.25l-0.05,0.33
			H22.1z"/>
		<path class="st0" d="M22.63,7.32h0.86l-0.03,0.2h-0.32l-0.15,0.96h-0.22l0.15-0.96h-0.31L22.63,7.32z"/>
		<path class="st0" d="M24.38,7.3c0.17,0,0.26,0.01,0.42,0.06l-0.03,0.17C24.73,7.52,24.54,7.5,24.4,7.5
			c-0.12,0-0.22,0.04-0.28,0.39c-0.04,0.26-0.02,0.38,0.14,0.38c0.11,0,0.21-0.08,0.21-0.08L24.5,8h-0.16l0.02-0.14
			c0.07-0.03,0.17-0.04,0.28-0.04c0.03,0,0.07,0,0.11,0l-0.11,0.66h-0.16l-0.05-0.08c-0.05,0.05-0.13,0.09-0.25,0.09
			c-0.32,0.01-0.35-0.33-0.29-0.63C23.97,7.49,24.06,7.3,24.38,7.3z"/>
		<path class="st0" d="M25.34,7.32h0.25l0.19,1.16h-0.23l-0.05-0.26h-0.38l-0.13,0.26h-0.25L25.34,7.32z M25.49,8.02L25.42,7.6
			l-0.2,0.42H25.49z"/>
		<path class="st0" d="M26.17,7.32h0.3l0.07,0.79l0.32-0.79h0.31L27.1,8.48h-0.22l0.06-0.78l-0.31,0.78h-0.25L26.29,7.7l-0.19,0.78
			h-0.22L26.17,7.32z"/>
		<path class="st0" d="M27.41,7.32h0.22l-0.18,1.16h-0.22L27.41,7.32z"/>
		<path class="st0" d="M27.81,7.32h0.22l0.33,0.75l0.12-0.75h0.22l-0.18,1.16H28.3l-0.33-0.75l-0.12,0.75h-0.22L27.81,7.32z"/>
		<path class="st0" d="M29.24,7.3c0.17,0,0.26,0.01,0.42,0.06l-0.03,0.17C29.59,7.52,29.4,7.5,29.26,7.5
			c-0.12,0-0.22,0.04-0.28,0.39c-0.04,0.26-0.02,0.38,0.14,0.38c0.11,0,0.21-0.08,0.21-0.08L29.36,8H29.2l0.02-0.14
			c0.07-0.03,0.17-0.04,0.28-0.04c0.03,0,0.07,0,0.11,0l-0.11,0.66h-0.16L29.3,8.39c-0.05,0.05-0.13,0.09-0.25,0.09
			c-0.32,0.01-0.35-0.33-0.29-0.63C28.83,7.49,28.92,7.3,29.24,7.3z"/>
	</g>
</g>
</svg>
