<?xml version="1.0" encoding="utf-8"?>
<!-- Generator: Adobe Illustrator 25.0.0, SVG Export Plug-In . SVG Version: 6.00 Build 0)  -->
<svg version="1.1" id="Layer_1" xmlns="http://www.w3.org/2000/svg" xmlns:xlink="http://www.w3.org/1999/xlink" x="0px" y="0px"
	 viewBox="0 0 16 16" style="enable-background:new 0 0 16 16;" xml:space="preserve">
<style type="text/css">
	.st0{fill:#FFFFE6;}
	.st1{fill:#00B29B;}
	.st2{fill:#008A74;}
	.st3{fill:#36CCBA;}
	.st4{fill:#00C4A9;}
	.st5{fill:#146C61;}
	.st6{fill:#00947E;}
	.st7{fill:#007A70;}
	.st8{fill:#FF4929;}
	.st9{fill:#B31100;}
	.st10{fill:#FFF3B7;}
	.st11{fill:#F98200;}
	.st12{fill:#E5730C;}
	.st13{fill:#EAB624;}
	.st14{fill:#FFC306;}
	.st15{fill:#FFE12D;}
	.st16{fill:#E0A603;}
	.st17{fill:#C95F09;}
	.st18{opacity:0.47;fill:#66EEC1;}
	.st19{opacity:0.58;}
	.st20{fill:#FFCBA4;}
	.st21{fill:#0B86D5;}
	.st22{fill:#0979B8;}
	.st23{fill:#0077BA;}
	.st24{fill:#036C9A;}
	.st25{fill:#1788E6;}
	.st26{fill:#FF6843;}
	.st27{fill:#FB1A00;}
	.st28{fill:#FF755C;}
	.st29{fill:#2BACFF;}
	.st30{fill:#FFC30A;}
	.st31{fill:#F1B407;}
	.st32{fill:#FDCB28;}
	.st33{fill:#FFDD5A;}
	.st34{fill:#FFFFEB;}
</style>
<path class="st0" d="M4,12.21c0,0-4.13-1.31-4-4.93S4,1.48,6.78,1.45s7.65-0.02,8.58,4.85S7.18,13.38,4,12.21z"/>
<g>
	<path class="st1" d="M5.6,9.19c-0.07,0.38-0.32,0.5-0.64,0.49C4.44,9.67,3.75,9.33,3.31,9.26C3.25,9.25,3.19,9.25,3.12,9.24
		C2.93,9.22,2.73,9.21,2.55,9.19C2.16,9.14,1.8,9.02,1.54,8.55c0.03-0.01,0.06-0.02,0.1-0.03c0.23-0.05,0.77,0,1.03-0.1
		c0.26-0.1,0.16-0.37-0.07-0.4C2.4,8.01,1.77,8.33,1.45,8.36C1.34,8.1,1.27,7.8,1.23,7.49c-0.03-0.32-0.03-0.64,0-0.94
		c0.02,0,0.04,0.01,0.07,0.01c0.15,0.02,0.53,0.34,0.7,0.46c0.17,0.12,0.43-0.05,0.34-0.24C2.26,6.58,1.78,6.6,1.54,6.36
		C1.45,6.28,1.39,6.16,1.34,6.03c0.08-0.25,0.18-0.45,0.31-0.55C1.7,5.45,1.75,5.42,1.81,5.4c0.16-0.05,0.37-0.07,0.62-0.05
		C2.47,5.38,2.5,5.4,2.52,5.43c0.21,0.22,0.17,0.66,0.29,0.88c0.12,0.22,0.35,0.18,0.33-0.05C3.12,6.03,2.89,5.9,2.84,5.65
		C2.83,5.58,2.82,5.49,2.82,5.39c0.15,0.02,0.3,0.05,0.45,0.09c0.28,0.07,0.56,0.16,0.8,0.28c0,0.17,0,0.33-0.01,0.42
		C4.05,6.42,3.61,6.85,3.78,7.07c0.18,0.22,0.49,0.01,0.67-0.26C4.56,6.65,4.6,6.33,4.61,6.09c0.08,0.06,0.14,0.13,0.2,0.2
		c0.22,0.27,0.38,0.71,0.5,1.16C5.17,7.51,4.86,7.66,4.64,7.71C4.35,7.78,4.43,8.09,4.59,8.15c0.08,0.03,0.43-0.23,0.77-0.49
		C5.54,8.41,5.61,9.15,5.6,9.19z"/>
	<path class="st2" d="M4.96,9.68C4.44,9.67,3.75,9.33,3.31,9.26C3.25,9.25,3.19,9.25,3.12,9.24C2.93,9.22,2.73,9.21,2.55,9.19
		C2.16,9.14,1.8,9.02,1.54,8.55c0.03-0.01,0.06-0.02,0.1-0.03c0.23-0.05,0.77,0,1.03-0.1c0.26-0.1,0.16-0.37-0.07-0.4
		C2.4,8.01,1.77,8.33,1.45,8.36C1.34,8.1,1.27,7.8,1.23,7.49c0.11,0.17,0.24,0.32,0.38,0.37c0.37,0.11,1.42-0.54,2.19,0.29
		c0.77,0.83,0.66,1.09,1.02,1.37C4.9,9.56,4.94,9.62,4.96,9.68z"/>
	<path class="st3" d="M1.68,5.62c0,0,1.77,1.97,2.21,2.77c0.43,0.81,0.7,1.69,0.7,1.69l0.2-0.09c0,0-0.26-1-0.65-1.6
		C3.75,7.8,1.68,5.62,1.68,5.62z"/>
	<path class="st3" d="M1.62,7.46c0,0,0.57,0.18,1.02,0.16C3.07,7.6,3.3,7.54,3.3,7.54L3.25,7.43c0,0-0.57,0.1-0.89,0.1
		S1.62,7.46,1.62,7.46z"/>
	<path class="st3" d="M1.92,8.77c0,0,0.77,0.18,1.37,0.16c0.59-0.02,0.9-0.08,0.9-0.08L4.09,8.69c0,0-0.74,0.14-1.17,0.15
		C2.48,8.85,1.92,8.77,1.92,8.77z"/>
	<path class="st3" d="M3.41,5.78c0,0,0.1,0.62,0.04,0.87C3.38,6.9,3.17,7.23,3.17,7.23L3.23,7.3c0,0,0.21-0.33,0.28-0.67
		C3.58,6.29,3.41,5.78,3.41,5.78z"/>
	<path class="st3" d="M3.7,7.89c0,0,0.81-0.47,0.96-0.66C4.8,7.05,4.83,6.95,4.83,6.95s-0.1,0.39-0.52,0.64
		C3.88,7.83,3.74,7.98,3.74,7.98L3.7,7.89z"/>
	<path class="st3" d="M4.4,9.05c0.01-0.01,0.52-0.17,0.66-0.46C5.2,8.3,5.22,8.14,5.22,8.14S5.22,8.61,5.03,8.8
		C4.84,9,4.48,9.21,4.48,9.21L4.4,9.05z"/>
	<path class="st4" d="M3.17,6.63C2.96,6.57,2.52,6.21,2.35,5.91C2.19,5.6,1.92,5.53,1.92,5.53L1.81,5.4
		c0.16-0.05,0.37-0.07,0.62-0.05C2.47,5.38,2.5,5.4,2.52,5.43c0.21,0.22,0.17,0.66,0.29,0.88c0.12,0.22,0.35,0.18,0.33-0.05
		C3.12,6.03,2.89,5.9,2.84,5.65C2.83,5.58,2.82,5.49,2.82,5.39c0.15,0.02,0.3,0.05,0.45,0.09C3.25,5.63,3.25,5.8,3.29,5.92
		C3.39,6.21,3.38,6.69,3.17,6.63z"/>
</g>
<path class="st5" d="M3.92,10.06c-0.33,0.15-0.69-0.4-0.76,0.37c-0.21-0.02-0.41-0.03-0.61-0.05c0.11-0.13,0.24-0.24,0.44-0.31
	c0.6-0.2,0.82-0.5,0.96-0.5C4.1,9.57,4.28,9.89,3.92,10.06z"/>
<path class="st3" d="M4.58,13.68c0,0-0.02,0.01-0.01,0L4.58,13.68z"/>
<g>
	<path class="st6" d="M4.23,10.31c-0.02,0.02-0.09,0.08-0.2,0.17c-0.12,0.09-0.27,0.21-0.45,0.34c-0.07-0.14-0.06-0.26-0.13-0.34
		c-0.1-0.11-0.07-0.03-0.16,0.15c-0.05,0.11,0.03,0.23,0.11,0.31c-0.19,0.12-0.39,0.24-0.59,0.32c-0.17-0.03-0.33-0.13-0.35-0.16
		c-0.04-0.05,0.06-0.25,0.1-0.46c0.04-0.21-0.16-0.14-0.24,0.01c-0.07,0.15-0.05,0.44,0.09,0.6c0.05,0.05,0.08,0.09,0.11,0.12
		c-0.02,0.01-0.04,0.01-0.07,0.02c-0.24,0.06-0.51,0.04-0.78-0.01c-0.07-0.06-0.13-0.15-0.16-0.26c-0.07-0.26,0.2-0.86,0.24-0.99
		c0.05-0.13,0.02-0.27-0.1-0.19c-0.12,0.08-0.13,0.61-0.16,0.89c-0.03,0.26-0.09,0.3-0.19,0.43c-0.39-0.14-0.74-0.36-0.94-0.55
		c0.01-0.03,0.04-0.06,0.07-0.09c0.14-0.12,0.48-0.29,0.56-0.33c0.07-0.04,0.21-0.24,0.13-0.26c-0.08-0.02-0.28,0.2-0.39,0.34
		c-0.1,0.14-0.42,0.2-0.5,0.16c-0.05-0.11-0.08-0.24-0.08-0.38c0.02-0.3,0.2-0.62,0.66-0.83c0,0,0.01,0,0.01-0.01
		c0.03,0.01,0.05,0.02,0.07,0.03C1.02,9.45,0.95,9.49,1.2,9.5c0.19,0-0.03-0.12-0.08-0.24C1.36,9.2,1.65,9.19,1.93,9.2
		C1.98,9.31,2,9.45,2.1,9.44c0.08-0.01,0.08-0.13,0.07-0.22C2.7,9.27,3.15,9.38,3.15,9.38C3.82,9.55,4.3,10.25,4.23,10.31z"/>
	<path class="st7" d="M4.04,10.48c-0.12,0.09-0.27,0.21-0.45,0.34c-0.07-0.14-0.06-0.26-0.13-0.34c-0.1-0.11-0.07-0.03-0.16,0.15
		c-0.05,0.11,0.03,0.23,0.11,0.31c-0.19,0.12-0.39,0.24-0.59,0.32c-0.17-0.03-0.33-0.13-0.35-0.16c-0.04-0.05,0.06-0.25,0.1-0.46
		c0.04-0.21-0.16-0.14-0.24,0.01c-0.07,0.15-0.05,0.44,0.09,0.6c0.05,0.05,0.08,0.09,0.11,0.12c-0.02,0.01-0.04,0.01-0.07,0.02
		c-0.24,0.06-0.51,0.04-0.78-0.01c-0.07-0.06-0.13-0.15-0.16-0.26c-0.07-0.26,0.2-0.86,0.24-0.99c0.05-0.13,0.02-0.27-0.1-0.19
		c-0.12,0.08-0.13,0.61-0.16,0.89c-0.03,0.26-0.09,0.3-0.19,0.43c-0.39-0.14-0.74-0.36-0.94-0.55c0.01-0.03,0.04-0.06,0.07-0.09
		c0.14-0.12,0.48-0.29,0.56-0.33c0.07-0.04,0.21-0.24,0.13-0.26c-0.08-0.02-0.28,0.2-0.39,0.34c-0.1,0.14-0.42,0.2-0.5,0.16
		c-0.05-0.11-0.08-0.24-0.08-0.38c0.1-0.16,0.92-0.56,1.67-0.53C3.14,9.71,3.5,10.22,4.04,10.48z"/>
	<path class="st3" d="M4.5,10.45c0,0-1.23-0.71-2.36-0.82c-1.13-0.11-1.87,0.43-1.87,0.43s1.02-0.52,1.9-0.38
		c0.88,0.14,2.29,0.86,2.29,0.86L4.5,10.45z"/>
	<path class="st3" d="M1.16,10.93c0,0,0-0.37,0.12-0.73C1.4,9.86,1.54,9.69,1.54,9.69L1.4,9.71c0,0-0.17,0.37-0.21,0.52
		C1.15,10.38,1.16,10.93,1.16,10.93z"/>
	<path class="st3" d="M2.37,9.71c0,0-0.29,0.41-0.41,0.74c-0.12,0.33-0.12,0.59-0.12,0.59s0.13-0.65,0.36-0.91
		C2.42,9.85,2.5,9.75,2.5,9.75L2.37,9.71z"/>
	<path class="st3" d="M2.42,9.37c0,0,0.44,0.11,0.54,0.24c0.1,0.13,0.17,0.24,0.17,0.24l0.19,0.06c0,0-0.25-0.31-0.35-0.37
		C2.87,9.48,2.42,9.37,2.42,9.37z"/>
	<path class="st3" d="M3.39,10.01c0,0-0.47,0.29-0.54,0.51c-0.07,0.22-0.13,0.39-0.13,0.39s0.17-0.46,0.43-0.63
		c0.26-0.16,0.37-0.21,0.37-0.21L3.39,10.01z"/>
</g>
<g>
	<path class="st8" d="M7.37,4.11L5.11,5.63c-0.1,0.07-0.24,0.04-0.3-0.06L3.92,4.25c-0.07-0.1-0.04-0.24,0.06-0.3l2.26-1.52
		c0.1-0.07,0.24-0.04,0.3,0.06L7.43,3.8C7.5,3.9,7.47,4.04,7.37,4.11z"/>
	<rect x="4.18" y="3.88" transform="matrix(0.8293 -0.5588 0.5588 0.8293 -1.4545 3.254)" class="st9" width="0.84" height="0.25"/>
	<g>
		
			<rect x="5.43" y="3.93" transform="matrix(0.8293 -0.5588 0.5588 0.8293 -1.3283 3.7641)" class="st9" width="0.14" height="0.25"/>
		
			<rect x="5.58" y="3.83" transform="matrix(0.8293 -0.5588 0.5588 0.8293 -1.2438 3.8327)" class="st9" width="0.14" height="0.25"/>
		
			<rect x="5.74" y="3.72" transform="matrix(0.8293 -0.5588 0.5588 0.8293 -1.1593 3.9012)" class="st9" width="0.14" height="0.25"/>
	</g>
	<g>
		
			<rect x="5.92" y="3.6" transform="matrix(0.8293 -0.5588 0.5588 0.8293 -1.0611 3.9808)" class="st9" width="0.14" height="0.25"/>
		
			<rect x="6.07" y="3.5" transform="matrix(0.8293 -0.5588 0.5588 0.8293 -0.9766 4.0493)" class="st9" width="0.14" height="0.25"/>
		
			<rect x="6.23" y="3.39" transform="matrix(0.8293 -0.5588 0.5588 0.8293 -0.8921 4.1178)" class="st9" width="0.14" height="0.25"/>
	</g>
	<g>
		<rect x="6.4" y="3.27" transform="matrix(0.8293 -0.5588 0.5588 0.8293 -0.794 4.1974)" class="st9" width="0.14" height="0.25"/>
		
			<rect x="6.56" y="3.17" transform="matrix(0.8293 -0.5588 0.5588 0.8293 -0.7095 4.2659)" class="st9" width="0.14" height="0.25"/>
		
			<rect x="6.71" y="3.06" transform="matrix(0.8293 -0.5588 0.5588 0.8293 -0.625 4.3344)" class="st9" width="0.14" height="0.25"/>
	</g>
	
		<rect x="4.79" y="4.77" transform="matrix(0.8293 -0.5588 0.5588 0.8293 -1.8301 3.7935)" class="st9" width="1.01" height="0.25"/>
	
		<rect x="5.76" y="3.99" transform="matrix(0.8293 -0.5588 0.5588 0.8293 -1.2017 4.3031)" class="st9" width="1.37" height="0.25"/>
</g>
<path class="st10" d="M9.6,10.99l-0.65,0.92c0,0-8.65,1.74-4.68,1.93c3,0.14,2.52,0.86,2.52,0.86l5.62-0.95l-0.65-0.34l4.11-1.23
	c0,0-2.86-0.77-3.29-1.07C12.16,10.82,9.6,10.99,9.6,10.99z"/>
<g>
	<g>
		<g>
			<path class="st11" d="M11.6,7.94l-0.09,5.14c0,0-0.03-0.01-0.08-0.02c-2.89-0.75-1.88-0.47-4.34-1.09
				C6.2,7.32,6.07,6.63,6.07,6.62C11.54,7.92,5.77,6.55,11.6,7.94z"/>
		</g>
		<g>
			<path class="st12" d="M16,6.62c0,0.01-0.12,0.64-1.03,5.49c-0.18,0.05-1.82,0.51-3.46,0.96l0.09-5.14
				C14.66,7.02,15.99,6.62,16,6.62z"/>
		</g>
		<g>
			<polygon class="st12" points="10.76,5.74 6.07,6.62 11.6,7.94 16,6.62 			"/>
		</g>
	</g>
	<path class="st13" d="M14.26,7.3c-0.65,4.12-0.48,3-0.83,5.25c-0.52,0.14-0.42,0.11-0.53,0.15c0.18-1.52,0.05-0.42,0.63-5.23
		c-0.22-0.07,0.09,0.01-1.76-0.43c0,0-0.64,0.06-0.85-0.01c-0.21-0.07-0.67-0.53-0.67-0.53c-0.01,0-1.83-0.3-1.91-0.31
		c0.05-0.01,0.61-0.08,0.77-0.1c0.42,0.08,1.9,0.34,2,0.37C11.37,6.52,13.53,7.1,14.26,7.3z"/>
	<path class="st14" d="M14.36,7.2c-0.66,4.17-0.48,3-0.84,5.32c-0.12,0.03-0.02,0.01-0.53,0.15c0.19-1.6,0.06-0.49,0.64-5.3
		c-0.09-0.03-2.53-0.82-2.64-0.86c-0.13-0.02-2.64-0.32-2.64-0.32C8.37,6.18,9.1,6.01,9.2,5.99c1.81,0.33,1.81,0.33,1.94,0.35
		C11.15,6.34,14.17,7.15,14.36,7.2z"/>
	<polygon class="st13" points="8.84,12.39 7.83,7.07 12.51,5.99 13.05,6.09 8.69,7.36 9.07,12.46 	"/>
	<polygon class="st14" points="8.56,12.33 7.74,7.07 12.42,5.99 12.96,6.09 8.6,7.36 9.07,12.46 	"/>
	<path class="st15" d="M10.37,5.86c-0.05-0.03-0.16-0.08-0.28-0.15c-0.45-0.25-0.91-0.63-1.13-1.1C8.9,4.46,8.84,4.23,8.82,4.1
		C8.71,4.08,8.61,4.08,8.53,4.1c0,0.01,0,0.03-0.01,0.04c-0.02,0.19,0.04,0.43,0.1,0.61c0.26,0.77,1.16,1.3,1.91,1.6
		c0.01,0,0.01,0,0.02,0.01c0.01,0,0.01,0,0.02,0.01C10.56,6.31,10.43,5.99,10.37,5.86z"/>
	<path class="st15" d="M8.82,4.1c-0.1-0.02-0.34,0.05-0.45,0.07C8.49,4.07,8.67,4.07,8.82,4.1z"/>
	<g>
		<path class="st14" d="M10.69,6.74c-0.06-0.15-0.25-0.7-0.32-0.88C10.13,5.29,9.79,4.64,9.45,4.4c-0.2-0.14-0.43-0.25-0.63-0.3
			C8.67,4.07,8.49,4.07,8.38,4.18c0,0,0,0,0,0C8.4,4,9.51,3.49,9.99,3.83c0.63,0.44,1.25,2.32,1.27,2.38
			C11.24,6.21,10.92,6.83,10.69,6.74z"/>
		<path class="st16" d="M10.72,6.78c-0.06-0.02-1.94-0.56-2.35-1.75C8.34,4.93,8.31,4.83,8.29,4.74C8.18,4.21,8.41,4.02,8.82,4.11
			c0.01,0.11,0.06,0.25,0.09,0.36c0.22,0.65,0.89,1.11,1.46,1.39c0.08,0.18,0.15,0.36,0.2,0.5C10.66,6.6,10.72,6.77,10.72,6.78z"/>
		<path class="st14" d="M10.72,6.78c-0.06-0.02-1.94-0.56-2.35-1.75C8.25,4.68,8.16,4.19,8.53,4.1c0.08-0.02,0.18-0.02,0.29,0.01
			c0,0.02-0.24,0.59,0.52,1.52c0.71,0.86,1.17,0.59,1.23,0.73C10.66,6.6,10.72,6.77,10.72,6.78z"/>
	</g>
	<g>
		<path class="st14" d="M11.84,6.74c0.06-0.15,0.25-0.7,0.32-0.88c0.24-0.57,0.58-1.22,0.92-1.46c0.21-0.14,0.43-0.25,0.64-0.3
			c0.15-0.03,0.33-0.04,0.45,0.07c0,0,0,0,0,0C14.13,4,13.02,3.49,12.54,3.83c-0.63,0.44-1.25,2.33-1.27,2.39
			C11.29,6.21,11.61,6.83,11.84,6.74z"/>
		<path class="st14" d="M14.17,5.04c-0.41,1.19-2.3,1.73-2.36,1.75c0-0.02,0.06-0.19,0.15-0.43c0.06-0.15,0.13-0.32,0.2-0.5
			c0.57-0.28,1.24-0.74,1.46-1.39c0.04-0.11,0.08-0.26,0.09-0.36c0.16-0.03,0.33-0.03,0.45,0.07C14.36,4.36,14.25,4.78,14.17,5.04z"
			/>
		<path class="st16" d="M13.82,4.79c-0.28,0.81-1.47,1.78-2.08,2.03c0.06-0.15,0.34-0.78,0.42-0.96c0.57-0.28,1.24-0.74,1.46-1.39
			c0.04-0.11,0.08-0.26,0.09-0.36c0.07-0.01,0.13-0.02,0.19-0.02C13.97,4.29,13.89,4.58,13.82,4.79z"/>
	</g>
	<path class="st16" d="M11.96,6.6c0,0.18-0.27,0.35-0.69,0.35c-0.42,0-0.85-0.27-0.7-0.38c0.18-0.13,0.28-0.55,0.7-0.55
		c0.26,0,0.47,0.16,0.59,0.32C11.92,6.43,11.96,6.53,11.96,6.6z"/>
	<path class="st13" d="M11.84,6.33c-0.07,0.14-0.32,0.25-0.67,0.25c-0.19,0-0.38-0.06-0.52-0.13c0.13-0.17,0.27-0.45,0.61-0.45
		C11.52,6.01,11.73,6.17,11.84,6.33z"/>
	<path class="st13" d="M9.69,3.77c0,0-0.41-0.02-0.36,0.07c0.05,0.1,0.48,0.29,0.53,0.41c0.05,0.12,0.26,0.02,0.26-0.05
		C10.12,4.13,9.88,3.84,9.69,3.77z"/>
	<path class="st13" d="M12.19,4.44c0,0,0.38-0.55,0.62-0.57c0.24-0.02,0.57-0.05,0.41,0.12c-0.17,0.17-0.6,0.38-0.6,0.38L12.19,4.44
		z"/>
	<g>
		<path class="st17" d="M7.08,6.61c0,0,1.15-0.31,1.65-0.31s1,0.19,1,0.19S8.08,6.88,7.98,6.88C7.89,6.88,7.08,6.61,7.08,6.61z"/>
	</g>
	<g>
		<path class="st17" d="M9.58,7.28c0,0,1.21,0.12,1.73,0.1c0.39-0.02,1.83-0.07,1.66,0.02c-0.17,0.1-1.22,0.36-1.29,0.36
			C11.61,7.76,9.58,7.28,9.58,7.28z"/>
	</g>
	<path class="st17" d="M16,6.62l-1.02,5.49c-0.73,0.2-2.74,0.76-3.46,0.96c0.99-0.91,2.88-2.83,3.45-4.06
		C15.67,7.5,15.98,6.67,16,6.62z"/>
	<path class="st18" d="M11.43,13.05c-2.89-0.73-1.88-0.47-4.34-1.09L6.07,6.62c0.03,0.11,0.99,3.41,2.34,4.74
		c0.11,0.11,0.18,0.17,0.28,0.25C9.52,12.28,10.59,12.82,11.43,13.05z"/>
	<g class="st19">
		<path class="st20" d="M6.07,6.62c0,0,1.32,0.44,2.02,0.66C8.8,7.5,11.6,7.94,11.6,7.94S6.32,6.62,6.07,6.62z"/>
	</g>
	<g class="st19">
		<path class="st20" d="M11.6,7.94c7.74-2.31,2.99-0.92,2.63-0.69C14.06,7.36,11.7,7.96,11.6,7.94z"/>
	</g>
</g>
<g>
	<g>
		<g>
			<g>
				<path class="st21" d="M6.84,10.97L6.79,14.7c-4.11-1.18-1.96-0.56-4.2-1.2c-0.28-1.54-0.26-3.78-0.26-3.78
					C5.29,10.54,6.83,10.97,6.84,10.97C6.84,10.97,6.84,10.97,6.84,10.97z"/>
			</g>
			<path class="st22" d="M6.79,14.7c-2.06-0.59-2.55-0.73-4.2-1.2L2.33,9.72c0.03,0.02,0.82,0.72,1.12,0.92
				C4.1,11.07,6.09,14.38,6.79,14.7z"/>
			<g>
				<path class="st23" d="M10.67,9.53l-0.23,3.83c-2.27,0.84-0.63,0.23-3.65,1.35l0.05-3.73C6.84,10.97,10.66,9.53,10.67,9.53z"/>
			</g>
			<path class="st24" d="M10.67,9.53l-0.23,3.83c-2.27,0.84-0.63,0.23-3.65,1.35c0.07-0.04,1.94-1.03,2.01-1.06
				C8.96,13.49,10.66,9.53,10.67,9.53z"/>
			<g>
				<path class="st25" d="M10.67,9.53c0,0-3.82,1.44-3.83,1.44c0,0-4.51-1.25-4.51-1.25c0.01,0,4.09-1.05,4.21-1.08
					C7.12,8.77,10.67,9.53,10.67,9.53z"/>
			</g>
		</g>
		<path class="st22" d="M9.24,10.12c-0.03,0.28-0.11,3.51-0.14,3.73c-0.35,0.13-0.35,0.13-0.37,0.14c0.07-1.34,0.07-3.7,0.08-3.78
			C6.07,9.52,6.8,9.7,6.49,9.62C6.45,9.62,3.82,9.34,3.82,9.34c0.09-0.02-0.09,0.02,0.89-0.19C7.85,9.79,5.68,9.34,9.24,10.12z"/>
		<g>
			<path class="st26" d="M9.3,10.06c-0.06,0.57-0.13,3.66-0.14,3.77c-0.07,0.03,0.01,0-0.37,0.14c0.09-1.58,0.08-3.75,0.08-3.81
				C6.13,9.46,6.7,9.61,6.55,9.57C6.42,9.56,3.94,9.33,3.86,9.32c0.71-0.18,0.75-0.19,0.9-0.23C7.77,9.71,5.78,9.3,9.3,10.06z"/>
		</g>
		<path class="st22" d="M8.54,9.07c0,0-3.98,1.41-3.98,1.41c-0.07,0.9-0.05,2.98-0.1,3.56c-0.08-0.02,0,0-0.4-0.12
			c0-0.73,0-2.78,0-3.61c0.03-0.01,3.43-1.07,4.19-1.31C8.44,9.05,8.38,9.04,8.54,9.07z"/>
		<g>
			<path class="st26" d="M8.41,9.04c-0.93,0.33-3.67,1.3-3.91,1.38c-0.08,0.94-0.05,3-0.1,3.6c-0.39-0.11-0.32-0.09-0.4-0.11
				c0-0.01,0-3.53,0-3.65c0.51-0.16,4.08-1.27,4.11-1.28C8.12,8.98,8.41,9.04,8.41,9.04z"/>
		</g>
		<g>
			<g>
				<g>
					<path class="st27" d="M6.41,9.24c-0.01,0-0.02-0.01-0.03-0.02C6.36,9.21,6.33,9.2,6.31,9.19c-0.17-0.09-0.35-0.21-0.5-0.36
						c-0.15-0.15-0.23-0.3-0.27-0.47C5.53,8.32,5.52,8.27,5.51,8.24c-0.06-0.01-0.12-0.02-0.17,0c0,0,0,0,0,0c0,0.01,0,0.02,0,0.02
						c0,0.05,0,0.11,0.01,0.18C5.4,8.63,5.46,8.77,5.56,8.89C5.79,9.18,6.19,9.4,6.53,9.53C6.53,9.53,6.47,9.38,6.41,9.24z"/>
				</g>
				<g>
					<path class="st28" d="M6.67,9.5L6.52,9.55c0,0-0.39-0.72-0.69-0.97C5.54,8.33,5.35,8.23,5.35,8.23s0.26-0.11,0.72,0.2
						C6.52,8.73,6.67,9.5,6.67,9.5z"/>
				</g>
			</g>
			<g>
				<g>
					<path class="st27" d="M6.4,8.67C6.32,8.38,6.34,8.17,6.41,7.97c0.01-0.04,0.03-0.08,0.05-0.11c-0.04-0.05-0.09-0.08-0.14-0.1
						c-0.01,0-0.01,0.01-0.02,0.02C6.23,7.86,6.18,7.99,6.15,8.1C6.03,8.51,6.23,9,6.47,9.37c0,0.01,0.04,0.07,0.08,0.12
						c0-0.01,0.02-0.09,0.07-0.3C6.53,9.03,6.45,8.85,6.4,8.67z"/>
				</g>
				<g>
					<path class="st28" d="M6.67,9.54L6.53,9.5c0,0,0.09-0.81-0.01-1.18c-0.1-0.37-0.2-0.56-0.2-0.56S6.6,7.82,6.8,8.32
						C7,8.83,6.67,9.54,6.67,9.54z"/>
				</g>
			</g>
			<g>
				<g>
					<path class="st27" d="M7.39,7.91C7.39,7.91,7.39,7.91,7.39,7.91c-0.01,0-0.02,0-0.03,0C7.26,7.94,7.14,8.02,7.06,8.1
						C6.88,8.24,6.77,8.46,6.7,8.67C6.62,8.91,6.58,9.22,6.58,9.46c0.03-0.03,0.19-0.17,0.23-0.21c0.04-0.38,0.16-0.82,0.46-1.06
						c0.06-0.05,0.11-0.08,0.18-0.12C7.44,8.01,7.42,7.95,7.39,7.91z"/>
				</g>
				<g>
					<path class="st28" d="M6.66,9.58L6.56,9.46c0,0,0.54-0.62,0.67-0.97c0.13-0.36,0.16-0.58,0.16-0.58s0.2,0.21,0.07,0.74
						C7.33,9.18,6.66,9.58,6.66,9.58z"/>
				</g>
			</g>
			<g>
				<g>
					<path class="st27" d="M7.8,8.61C7.37,8.64,6.98,9,6.71,9.34c0,0,0,0,0,0C6.67,9.4,6.63,9.46,6.62,9.46
						c0.06-0.01,0.23-0.03,0.29-0.04c0.02,0,0.01,0,0.02-0.01c0.25-0.29,0.6-0.58,0.99-0.61c0.07-0.01,0.15-0.01,0.22,0
						c0.03-0.06,0.04-0.11,0.05-0.16C8.08,8.6,7.92,8.6,7.8,8.61z"/>
				</g>
				<g>
					<path class="st28" d="M6.62,9.6L6.61,9.45c0,0,0.8-0.2,1.12-0.42s0.46-0.39,0.46-0.39s0.04,0.28-0.37,0.64
						C7.41,9.65,6.62,9.6,6.62,9.6z"/>
				</g>
			</g>
		</g>
		<g>
			<circle class="st27" cx="6.55" cy="9.54" r="0.16"/>
		</g>
	</g>
	<g>
		<path class="st29" d="M2.68,9.71c0,0,1.14,0.22,1.29,0.22c0.15,0,1.46-0.27,1.46-0.27L3.71,9.5L2.68,9.71z"/>
	</g>
	<g>
		<path class="st29" d="M5.5,10.41c0,0,1,0.33,1.29,0.33s1.47-0.49,1.47-0.49S6.9,9.95,6.72,10.01S5.5,10.41,5.5,10.41z"/>
	</g>
	<g>
		<path class="st29" d="M8.1,9.55c0,0,0.81,0.36,1.16,0.27c0.35-0.09,0.88-0.27,0.88-0.27l-1.2-0.26C8.95,9.29,8.54,9.55,8.1,9.55z"
			/>
	</g>
	<g>
		<path class="st29" d="M2.33,9.72l4.51,1.25c0,0-2.23-0.51-2.91-0.71C3.25,10.05,2.33,9.72,2.33,9.72z"/>
	</g>
	<g>
		<path class="st29" d="M10.67,9.53c0,0-1.67,0.71-2.13,0.88s-1.7,0.56-1.7,0.56L10.67,9.53z"/>
	</g>
</g>
<g>
	<g id="Axo_cap_10_">
		<path class="st30" d="M15.05,5.69c-0.1-0.12-0.13-0.29-0.07-0.44c0.09-0.23,0.34-0.35,0.57-0.26c0.08,0.03,0.14,0.08,0.19,0.13
			c0.1,0.12,0.13,0.29,0.07,0.44c-0.09,0.23-0.34,0.35-0.57,0.26C15.16,5.79,15.1,5.75,15.05,5.69C14.95,5.57,15.1,5.75,15.05,5.69z
			"/>
	</g>
	<g id="Axo_Extrusion_12_">
		<polygon id="Axo_panel_9_" class="st31" points="15.03,5.39 15.28,5.48 15.36,5.58 15.11,5.48 		"/>
		<polygon id="Axo_panel_7_" class="st32" points="15.44,5.27 15.3,5.05 15.37,5.15 15.52,5.37 		"/>
		<polygon id="Axo_panel_x2A__6_" class="st31" points="15.53,5.41 15.7,5.2 15.78,5.3 15.61,5.51 		"/>
		<polygon id="Axo_panel_6_" class="st31" points="15.43,5.54 15.68,5.63 15.76,5.73 15.51,5.63 		"/>
		<polygon id="Axo_panel_xB0__4_" class="st32" points="15.27,5.75 15.43,5.54 15.51,5.63 15.34,5.84 		"/>
		<polygon id="Axo_panel_4_" class="st32" points="15.68,5.63 15.53,5.41 15.61,5.51 15.76,5.73 		"/>
		<g id="Axo_cap_8_">
			<polygon id="Axo_base_6_" class="st33" points="15.27,5.75 15.28,5.48 15.03,5.39 15.28,5.32 15.3,5.05 15.44,5.27 15.7,5.2 
				15.53,5.41 15.68,5.63 15.43,5.54 15.27,5.75 			"/>
		</g>
	</g>
	<g id="Axo_Extrusion_10_">
		<path id="Axo_panel_x2A__5_" class="st34" d="M15.05,5.69c0.05,0.06,0.11,0.11,0.19,0.13c0.23,0.09,0.49-0.03,0.57-0.26
			c0.06-0.15,0.02-0.32-0.07-0.44l0.08,0.1c0.1,0.12,0.13,0.29,0.07,0.44C15.8,5.89,15.55,6,15.32,5.92
			c-0.08-0.03-0.14-0.08-0.19-0.13L15.05,5.69z"/>
	</g>
	<g id="Axo_Compound_Extrusion_4_">
		<g id="Axo_Extrusion_2_">
			<g id="Axo_Inversion_2_">
				<path class="st32" d="M15.74,5.12c-0.05-0.06-0.11-0.11-0.19-0.13c-0.23-0.09-0.49,0.03-0.57,0.26
					c-0.06,0.15-0.02,0.32,0.07,0.44l0.08,0.1C15.03,5.67,15,5.5,15.05,5.34C15.14,5.11,15.4,5,15.63,5.08
					c0.08,0.03,0.14,0.08,0.19,0.13L15.74,5.12z"/>
			</g>
			<g id="Axo_panel_x2A__3_">
				<path class="st32" d="M14.99,5.74c0.06,0.07,0.13,0.12,0.22,0.16c0.27,0.1,0.58-0.04,0.68-0.31c0.07-0.18,0.03-0.38-0.09-0.52
					l0.08,0.1c0.12,0.14,0.16,0.34,0.09,0.52C15.86,5.96,15.56,6.1,15.29,6c-0.09-0.03-0.17-0.09-0.22-0.16L14.99,5.74z"/>
			</g>
		</g>
		<g id="Axo_compound_cap_4_">
			<path class="st33" d="M15.55,4.99c0.23,0.09,0.35,0.34,0.26,0.57c-0.09,0.23-0.34,0.35-0.57,0.26c-0.23-0.09-0.35-0.34-0.26-0.57
				C15.06,5.02,15.32,4.9,15.55,4.99z M15.21,5.9c0.27,0.1,0.58-0.04,0.68-0.31c0.1-0.27-0.04-0.58-0.31-0.68
				C15.3,4.81,15,4.95,14.9,5.22C14.8,5.49,14.94,5.8,15.21,5.9z"/>
		</g>
	</g>
</g>
<g>
	<g id="Axo_cap_9_">
		<path class="st30" d="M1.69,11.94c0.15,0.03,0.28,0.14,0.34,0.29c0.08,0.23-0.05,0.49-0.28,0.57c-0.08,0.03-0.16,0.03-0.23,0.02
			c-0.15-0.03-0.28-0.14-0.34-0.29c-0.08-0.23,0.05-0.49,0.28-0.57C1.54,11.92,1.62,11.92,1.69,11.94
			C1.84,11.97,1.62,11.92,1.69,11.94z"/>
	</g>
	<g id="Axo_Extrusion_11_">
		<polygon id="Axo_panel_17_" class="st31" points="1.9,12.15 1.65,12.24 1.52,12.22 1.78,12.13 		"/>
		<polygon id="Axo_panel_15_" class="st32" points="1.65,12.5 1.9,12.58 1.78,12.56 1.53,12.48 		"/>
		<polygon id="Axo_panel_x2A__13_" class="st31" points="1.49,12.46 1.5,12.72 1.37,12.7 1.37,12.43 		"/>
		<polygon id="Axo_panel_14_" class="st31" points="1.49,12.29 1.24,12.38 1.12,12.35 1.37,12.27 		"/>
		<polygon id="Axo_panel_xB0__3_" class="st32" points="1.49,12.03 1.49,12.29 1.37,12.27 1.37,12 		"/>
		<polygon id="Axo_panel_1_" class="st32" points="1.24,12.38 1.49,12.46 1.37,12.43 1.12,12.35 		"/>
		<g id="Axo_cap_4_">
			<polygon id="Axo_base_4_" class="st33" points="1.49,12.03 1.65,12.24 1.9,12.15 1.74,12.37 1.9,12.58 1.65,12.5 1.5,12.72 
				1.49,12.46 1.24,12.38 1.49,12.29 1.49,12.03 			"/>
		</g>
	</g>
	<g id="Axo_Extrusion_9_">
		<path id="Axo_panel_x2A__10_" class="st34" d="M1.69,11.94c-0.07-0.01-0.15-0.01-0.23,0.02c-0.23,0.08-0.36,0.33-0.28,0.57
			c0.05,0.16,0.18,0.26,0.34,0.29L1.4,12.79c-0.15-0.03-0.28-0.14-0.34-0.29c-0.08-0.23,0.05-0.49,0.28-0.57
			c0.08-0.03,0.16-0.03,0.23-0.02L1.69,11.94z"/>
	</g>
	<g id="Axo_Compound_Extrusion_3_">
		<g id="Axo_Extrusion_1_">
			<g id="Axo_Inversion_3_">
				<path class="st32" d="M1.52,12.81c0.07,0.01,0.15,0.01,0.23-0.02c0.23-0.08,0.36-0.33,0.28-0.57c-0.05-0.16-0.18-0.26-0.34-0.29
					l-0.12-0.02c0.15,0.03,0.28,0.14,0.34,0.29c0.08,0.23-0.05,0.49-0.28,0.57C1.55,12.8,1.47,12.8,1.4,12.79L1.52,12.81z"/>
			</g>
			<g id="Axo_panel_x2A__1_">
				<path class="st32" d="M1.71,11.85c-0.09-0.02-0.18-0.01-0.27,0.02c-0.28,0.09-0.42,0.39-0.33,0.67c0.06,0.19,0.22,0.31,0.4,0.35
					l-0.12-0.02c-0.18-0.04-0.33-0.16-0.4-0.35c-0.09-0.28,0.05-0.58,0.33-0.67c0.09-0.03,0.18-0.04,0.27-0.02L1.71,11.85z"/>
			</g>
		</g>
		<g id="Axo_compound_cap_3_">
			<path class="st33" d="M1.75,12.8c-0.23,0.08-0.49-0.05-0.57-0.28c-0.08-0.23,0.05-0.49,0.28-0.57S1.95,12,2.03,12.23
				C2.11,12.46,1.98,12.72,1.75,12.8z M1.43,11.87c-0.28,0.09-0.42,0.39-0.33,0.67c0.09,0.28,0.39,0.42,0.67,0.33
				c0.28-0.09,0.42-0.39,0.33-0.67C2.01,11.93,1.71,11.78,1.43,11.87z"/>
		</g>
	</g>
</g>
<g>
	<g id="Axo_cap_12_">
		<path class="st30" d="M10.29,2.79c-0.18-0.22-0.24-0.52-0.14-0.81c0.16-0.42,0.63-0.64,1.05-0.48c0.14,0.05,0.26,0.14,0.34,0.25
			c0.18,0.22,0.24,0.52,0.14,0.81c-0.16,0.42-0.63,0.64-1.05,0.48C10.49,2.98,10.37,2.89,10.29,2.79
			C10.11,2.57,10.37,2.89,10.29,2.79z"/>
	</g>
	<g id="Axo_Extrusion_15_">
		<polygon id="Axo_panel_19_" class="st31" points="10.25,2.24 10.7,2.41 10.85,2.58 10.39,2.41 		"/>
		<polygon id="Axo_panel_16_" class="st32" points="11.01,2.03 10.74,1.62 10.88,1.8 11.15,2.2 		"/>
		<polygon id="Axo_panel_x2A__16_" class="st31" points="11.17,2.28 11.47,1.9 11.62,2.07 11.32,2.45 		"/>
		<polygon id="Axo_panel_13_" class="st31" points="10.98,2.51 11.44,2.68 11.58,2.86 11.13,2.69 		"/>
		<polygon id="Axo_panel_xB0__5_" class="st32" points="10.68,2.89 10.98,2.51 11.13,2.69 10.83,3.07 		"/>
		<polygon id="Axo_panel_12_" class="st32" points="11.44,2.68 11.17,2.28 11.32,2.45 11.58,2.86 		"/>
		<g id="Axo_cap_11_">
			<polygon id="Axo_base_8_" class="st33" points="10.68,2.89 10.7,2.41 10.25,2.24 10.72,2.11 10.74,1.62 11.01,2.03 11.47,1.9 
				11.17,2.28 11.44,2.68 10.98,2.51 10.68,2.89 			"/>
		</g>
	</g>
	<g id="Axo_Extrusion_14_">
		<path id="Axo_panel_x2A__15_" class="st34" d="M10.29,2.79c0.09,0.11,0.21,0.19,0.34,0.25c0.42,0.16,0.89-0.06,1.05-0.48
			c0.11-0.28,0.04-0.59-0.14-0.81l0.14,0.17c0.18,0.22,0.24,0.52,0.14,0.81c-0.16,0.42-0.63,0.64-1.05,0.48
			c-0.14-0.05-0.26-0.14-0.34-0.25L10.29,2.79z"/>
	</g>
	<g id="Axo_Compound_Extrusion_5_">
		<g id="Axo_Extrusion_13_">
			<g id="Axo_Inversion_5_">
				<path class="st32" d="M11.55,1.74c-0.09-0.11-0.21-0.19-0.34-0.25c-0.42-0.16-0.89,0.06-1.05,0.48
					c-0.11,0.28-0.04,0.59,0.14,0.81l0.14,0.17c-0.18-0.22-0.24-0.52-0.14-0.81c0.16-0.42,0.63-0.64,1.05-0.48
					c0.14,0.05,0.26,0.14,0.34,0.25L11.55,1.74z"/>
			</g>
			<g id="Axo_panel_x2A__7_">
				<path class="st32" d="M10.17,2.88c0.1,0.13,0.24,0.23,0.41,0.29c0.5,0.19,1.06-0.07,1.25-0.57c0.13-0.34,0.05-0.7-0.16-0.96
					l0.14,0.17c0.21,0.26,0.29,0.62,0.16,0.96c-0.19,0.5-0.74,0.76-1.25,0.57c-0.16-0.06-0.3-0.16-0.41-0.29L10.17,2.88z"/>
			</g>
		</g>
		<g id="Axo_compound_cap_5_">
			<path class="st33" d="M11.2,1.5c0.42,0.16,0.64,0.63,0.48,1.05c-0.16,0.42-0.63,0.64-1.05,0.48c-0.42-0.16-0.64-0.63-0.48-1.05
				C10.31,1.56,10.78,1.34,11.2,1.5z M10.58,3.17c0.5,0.19,1.06-0.07,1.25-0.57c0.19-0.5-0.07-1.06-0.57-1.25
				c-0.5-0.19-1.06,0.07-1.25,0.57C9.82,2.43,10.08,2.99,10.58,3.17z"/>
		</g>
	</g>
</g>
</svg>
