<?xml version="1.0" encoding="utf-8"?>
<!-- Generator: Adobe Illustrator 25.0.0, SVG Export Plug-In . SVG Version: 6.00 Build 0)  -->
<svg version="1.1" xmlns="http://www.w3.org/2000/svg" xmlns:xlink="http://www.w3.org/1999/xlink" x="0px" y="0px"
	 viewBox="0 0 16 16" style="enable-background:new 0 0 16 16;" xml:space="preserve">
<style type="text/css">
	.st0{fill:#FFFFE6;}
	.st1{fill:#BFC6D1;}
	.st2{fill:#D8DEE8;}
	.st3{fill:#353535;}
	.st4{fill:#FFFFFF;}
	.st5{fill:url(#SVGID_1_);}
	.st6{fill:url(#SVGID_2_);}
	.st7{fill:#F9F298;}
	.st8{opacity:0.48;}
	.st9{fill:url(#SVGID_3_);}
	.st10{fill:#FCDAC8;}
	.st11{fill:url(#SVGID_4_);}
	.st12{fill:url(#SVGID_5_);}
	.st13{fill:url(#SVGID_6_);}
	.st14{fill:url(#SVGID_7_);}
	.st15{opacity:0.1;}
	.st16{fill:#97A6B7;}
	.st17{fill:url(#SVGID_8_);}
	.st18{fill:url(#SVGID_9_);}
	.st19{fill:url(#SVGID_10_);}
	.st20{opacity:0.3;}
	.st21{fill:url(#SVGID_11_);}
	.st22{fill:url(#SVGID_12_);}
	.st23{fill:url(#SVGID_13_);}
	.st24{fill:url(#SVGID_14_);}
	.st25{fill:url(#SVGID_15_);}
	.st26{fill:#FFC306;}
	.st27{opacity:0.3;fill:url(#SVGID_16_);}
	.st28{fill:url(#SVGID_17_);}
	.st29{fill:url(#SVGID_18_);}
	.st30{opacity:0.3;fill:url(#SVGID_19_);}
</style>
<g id="BACKGROUND">
</g>
<g id="OBJECTS">
	<g>
		<path class="st0" d="M4,1.06C3.47,1.82,4.09,3.04,3.31,3.6C2.55,4.15,1.61,3.25,0.9,3.72c-1.06,0.7-0.87,3.92,0.68,5.92
			c0.47,0.6,0.86,0.84,1.03,1.52c0.37,1.46-0.93,2.33-0.68,3.05c0.56,1.63,9.15,2.99,12.59-1.9c1.61-2.28,1.85-5.58,0.41-8.08
			C12.34-0.29,5.18-0.63,4,1.06z"/>
		<g>
			<path class="st1" d="M14.87,10.33c0.25,0.02,0.46-0.18,0.49-0.45c0.02-0.27-0.16-0.5-0.41-0.52c-0.01,0-0.03,0-0.04,0
				c-0.01-0.14-0.03-0.27-0.06-0.4c0.01,0,0.02-0.01,0.03-0.02c0.22-0.12,0.32-0.4,0.22-0.65c-0.1-0.24-0.37-0.34-0.59-0.23
				c-0.01,0.01-0.02,0.01-0.03,0.02c-0.07-0.11-0.15-0.21-0.24-0.31c0.01-0.01,0.02-0.02,0.02-0.03c0.14-0.22,0.09-0.52-0.11-0.67
				c-0.2-0.15-0.48-0.1-0.62,0.13c-0.01,0.01-0.01,0.02-0.02,0.03c-0.11-0.06-0.23-0.1-0.36-0.14c0-0.01,0-0.03,0.01-0.04
				c0.02-0.27,0.07-0.57-0.18-0.58c-0.57-0.04-0.69,0.24-0.72,0.51c0,0.01,0,0.03,0,0.04c-0.13,0.01-0.25,0.04-0.37,0.07
				c0-0.01-0.01-0.03-0.01-0.04c-0.1-0.24-0.08-0.4-0.32-0.31c-0.51,0.2-0.6,0.49-0.49,0.73c0.01,0.01,0.01,0.02,0.02,0.04
				c-0.1,0.08-0.2,0.17-0.29,0.27c-0.01-0.01-0.02-0.02-0.03-0.03c-0.2-0.15-0.48-0.1-0.62,0.13C9.99,8.1,10.04,8.4,10.24,8.55
				c0.01,0.01,0.02,0.01,0.03,0.02c-0.05,0.12-0.1,0.25-0.13,0.39c-0.01,0-0.02,0-0.04-0.01C9.86,8.93,9.64,9.13,9.62,9.4
				c-0.02,0.27,0.16,0.5,0.41,0.52c0.01,0,0.03,0,0.04,0c0.01,0.14,0.03,0.27,0.06,0.4c-0.01,0-0.02,0.01-0.03,0.02
				c-0.22,0.12-0.32,0.4-0.22,0.65c0.1,0.24,0.37,0.34,0.59,0.23c0.01-0.01,0.02-0.01,0.03-0.02c0.07,0.11,0.15,0.21,0.24,0.31
				c-0.01,0.01-0.02,0.02-0.02,0.03c-0.14,0.22-0.09,0.52,0.11,0.67c0.2,0.15,0.64,0.08,0.78-0.14c0.01-0.01-0.14-0.01-0.14-0.02
				c0.11,0.06,0.23,0.1,0.36,0.14c0,0.01,0,0.03-0.01,0.04c-0.02,0.27,0.16,0.5,0.41,0.52c0.25,0.02,0.46-0.18,0.49-0.45
				c0-0.01,0-0.03,0-0.04c0.13-0.01,0.25-0.04,0.37-0.07c0,0.01,0.01,0.03,0.01,0.04c0.1,0.24,0.37,0.34,0.59,0.23
				c0.22-0.12,0.32-0.4,0.22-0.65c-0.01-0.01-0.01-0.02-0.02-0.04c0.1-0.08,0.2-0.17,0.29-0.27c0.01,0.01,0.02,0.02,0.03,0.03
				c0.2,0.15,0.48,0.1,0.62-0.13c0.14-0.22,0.09-0.52-0.11-0.67c-0.01-0.01-0.02-0.01-0.03-0.02c0.05-0.12,0.1-0.25,0.13-0.39
				C14.85,10.32,14.86,10.33,14.87,10.33z M12.34,11.39c-0.89-0.08-1.55-0.92-1.47-1.89c0.08-0.97,0.87-1.69,1.77-1.62
				c0.89,0.08,1.55,0.92,1.47,1.89C14.03,10.74,13.24,11.47,12.34,11.39z"/>
			<path class="st1" d="M14.89,8.94c0.22-0.12,0.32-0.4,0.22-0.65c-0.1-0.24-0.37-0.34-0.59-0.23c-0.01,0.01-0.02,0.01-0.03,0.02
				c-0.07-0.11-0.15-0.21-0.24-0.31c0.01-0.01,0.02-0.02,0.02-0.03c0.14-0.22,0.25-0.66,0.04-0.79c-0.41-0.25-0.62,0.02-0.77,0.24
				c-0.01,0.01-0.01,0.02-0.02,0.03c-0.11-0.06-0.23-0.1-0.36-0.14c0-0.01,0-0.03,0.01-0.04c0.01-0.15-0.04-0.28-0.12-0.38
				c-0.05,0.42-0.11,0.83-0.15,1.25c0.77,0.19,1.3,0.97,1.23,1.85c-0.06,0.74-0.54,1.34-1.17,1.55c0,0.08,0,0.16,0,0.24
				c0,0.22-0.02,0.44-0.03,0.66c0.06-0.01,0.12-0.03,0.18-0.04c0,0.01,0.01,0.03,0.01,0.04c0.1,0.24,0.34,0.39,0.75,0.19
				c0.23-0.11,0.17-0.37,0.06-0.61c-0.01-0.01-0.01-0.02-0.02-0.04c0.1-0.08,0.2-0.17,0.29-0.27c0.01,0.01,0.02,0.02,0.03,0.03
				c0.2,0.15,0.66,0.07,0.8-0.15c0.14-0.22-0.08-0.49-0.28-0.64c-0.01-0.01-0.02-0.01-0.03-0.02c0.05-0.12,0.1-0.25,0.13-0.39
				c0.01,0,0.02,0,0.04,0.01c0.25,0.02,0.46-0.18,0.49-0.45c0.02-0.27-0.16-0.5-0.41-0.52c-0.01,0-0.03,0-0.04,0
				c-0.01-0.14-0.03-0.27-0.06-0.4C14.86,8.95,14.88,8.95,14.89,8.94z"/>
			<path class="st2" d="M15.1,10.26c0.25,0.02,0.46-0.18,0.49-0.45c0.02-0.27-0.16-0.5-0.41-0.52c-0.01,0-0.03,0-0.04,0
				c-0.01-0.14-0.03-0.27-0.06-0.4c0.01,0,0.02-0.01,0.03-0.02c0.22-0.12,0.32-0.4,0.22-0.65c-0.1-0.24-0.37-0.34-0.59-0.23
				c-0.01,0.01-0.02,0.01-0.03,0.02c-0.07-0.11-0.15-0.21-0.24-0.31c0.01-0.01,0.02-0.02,0.02-0.03c0.14-0.22,0.09-0.52-0.11-0.67
				c-0.2-0.15-0.48-0.1-0.62,0.13c-0.01,0.01-0.01,0.02-0.02,0.03c-0.11-0.06-0.23-0.1-0.36-0.14c0-0.01,0-0.03,0.01-0.04
				c0.02-0.27-0.16-0.5-0.41-0.52c-0.25-0.02-0.46,0.18-0.49,0.45c0,0.01,0,0.03,0,0.04c-0.13,0.01-0.25,0.04-0.37,0.07
				c0-0.01-0.01-0.03-0.01-0.04c-0.1-0.24-0.37-0.34-0.59-0.23c-0.22,0.12-0.32,0.4-0.22,0.65c0.01,0.01,0.01,0.02,0.02,0.04
				c-0.1,0.08-0.2,0.17-0.29,0.27C11.01,7.7,11,7.69,10.99,7.69c-0.2-0.15-0.48-0.1-0.62,0.13c-0.14,0.22-0.09,0.52,0.11,0.67
				c0.01,0.01,0.02,0.01,0.03,0.02c-0.05,0.12-0.1,0.25-0.13,0.39c-0.01,0-0.02,0-0.04-0.01c-0.25-0.02-0.46,0.18-0.49,0.45
				c-0.02,0.27,0.16,0.5,0.41,0.52c0.01,0,0.03,0,0.04,0c0.01,0.14,0.03,0.27,0.06,0.4c-0.01,0-0.02,0.01-0.03,0.02
				c-0.22,0.12-0.32,0.4-0.22,0.65c0.1,0.24,0.37,0.34,0.59,0.23c0.01-0.01,0.02-0.01,0.03-0.02c0.07,0.11,0.15,0.21,0.24,0.31
				c-0.01,0.01-0.02,0.02-0.02,0.03c-0.14,0.22-0.09,0.52,0.11,0.67c0.2,0.15,0.48,0.1,0.62-0.13c0.01-0.01,0.01-0.02,0.02-0.03
				c0.11,0.06,0.23,0.1,0.36,0.14c0,0.01,0,0.03-0.01,0.04c-0.02,0.27,0.16,0.5,0.41,0.52c0.25,0.02,0.46-0.18,0.49-0.45
				c0-0.01,0-0.03,0-0.04c0.13-0.01,0.25-0.04,0.37-0.07c0,0.01,0.01,0.03,0.01,0.04c0.1,0.24,0.37,0.34,0.59,0.23
				c0.22-0.12,0.32-0.4,0.22-0.65c-0.01-0.01-0.01-0.02-0.02-0.04c0.1-0.08,0.2-0.17,0.29-0.27c0.01,0.01,0.02,0.02,0.03,0.03
				c0.2,0.15,0.48,0.1,0.62-0.13c0.14-0.22,0.09-0.52-0.11-0.67c-0.01-0.01-0.02-0.01-0.03-0.02c0.05-0.12,0.1-0.25,0.13-0.39
				C15.08,10.26,15.09,10.26,15.1,10.26z M12.57,11.33c-0.89-0.08-1.55-0.92-1.47-1.89c0.08-0.97,0.87-1.69,1.77-1.62
				c0.89,0.08,1.55,0.92,1.47,1.89C14.26,10.68,13.46,11.4,12.57,11.33z"/>
		</g>
		<g>
			<g>
				<g>
					<g>
						<path class="st3" d="M8.33,0.97L9.36,12.6c0.02,0.18-0.11,0.33-0.27,0.35l-5.61,0.58c-0.34,0.02-0.51-0.16-0.53-0.35
							L1.96,1.11C1.95,0.93,2.11,0.76,2.45,0.75L8,0.67C8.16,0.66,8.31,0.8,8.33,0.97z"/>
						<path d="M8.58,0.94l1.05,11.7c0.02,0.18-0.11,0.33-0.27,0.35l-5.82,0.54c-0.18,0.02-0.34-0.12-0.35-0.3l-1-12.15
							C2.17,0.9,2.3,0.75,2.48,0.75l5.78-0.11C8.42,0.63,8.57,0.77,8.58,0.94z"/>
						<path class="st4" d="M8.45,1.59l0.97,10.84c0.01,0.17-0.1,0.31-0.26,0.33l-5.47,0.5c-0.17,0.02-0.31-0.11-0.33-0.28L2.44,1.74
							C2.42,1.57,2.55,1.43,2.71,1.43L8.15,1.3C8.3,1.3,8.44,1.43,8.45,1.59z"/>
						<g>
							<linearGradient id="SVGID_1_" gradientUnits="userSpaceOnUse" x1="2.4349" y1="2.3243" x2="8.5958" y2="2.3243">
								<stop  offset="0" style="stop-color:#FFC444"/>
								<stop  offset="0.9964" style="stop-color:#F36F56"/>
							</linearGradient>
							<path class="st5" d="M8.45,1.59C8.44,1.43,8.3,1.3,8.15,1.3L2.71,1.43c-0.16,0-0.29,0.14-0.27,0.31l0.13,1.61L8.6,3.2
								L8.45,1.59z"/>
						</g>
					</g>
					
						<linearGradient id="SVGID_2_" gradientUnits="userSpaceOnUse" x1="221.5159" y1="-43.1684" x2="214.8704" y2="-25.1702" gradientTransform="matrix(0.9993 0.0372 -0.0372 0.9993 -217.3418 35.5022)">
						<stop  offset="0" style="stop-color:#FFC444"/>
						<stop  offset="0.9964" style="stop-color:#F36F56"/>
					</linearGradient>
					<path class="st6" d="M5.55,1.04c0.01,0.06-0.04,0.11-0.1,0.11c-0.06,0-0.11-0.05-0.12-0.11c-0.01-0.06,0.04-0.11,0.1-0.11
						C5.49,0.93,5.55,0.98,5.55,1.04z"/>
				</g>
			</g>
			<g>
				<g>
					<polygon class="st7" points="6.3,7.65 3.58,7.79 3.21,3.94 5.94,3.87 					"/>
					<polygon class="st7" points="8.32,7.55 6.72,7.63 6.36,3.86 7.97,3.82 					"/>
					<polygon class="st7" points="8.6,10.56 3.89,10.88 3.63,8.29 8.36,8.04 					"/>
					<polygon class="st7" points="8.75,12.13 4.04,12.5 3.93,11.34 8.64,11 					"/>
				</g>
			</g>
			<g class="st8">
				<path class="st4" d="M7.1,8.84C6.54,6.87,4.89,7.07,4.4,5.29C4,3.82,4.93,3.05,4.36,1.83C4.1,1.25,3.63,0.86,3.15,0.6L2.39,0.61
					c-0.18,0-0.31,0.15-0.3,0.33l1,12.15c0.02,0.18,0.17,0.32,0.35,0.3l4.77-0.44c-0.3-0.39-0.59-0.86-0.8-1.43
					C7,10.32,7.41,9.93,7.1,8.84z"/>
			</g>
		</g>
		<g>
			<g>
				<linearGradient id="SVGID_3_" gradientUnits="userSpaceOnUse" x1="10.6978" y1="4.2994" x2="14.1061" y2="4.2994">
					<stop  offset="0" style="stop-color:#444B8C"/>
					<stop  offset="0.9964" style="stop-color:#26264F"/>
				</linearGradient>
				<path class="st9" d="M14.11,5.7c0.02,0.14-0.3,0.38-0.59,0.36c-0.4-0.03-0.73-0.56-0.76-0.98c-0.01-0.09,0-0.18-0.02-0.18
					c-0.05-0.01-0.16,0.54-0.26,1c-0.07,0.03-0.19,0.06-0.32,0.04c-0.21-0.03-0.24-0.17-0.47-0.25c-0.14-0.05-0.27-0.05-0.54-0.05
					c-0.31,0-0.31,0.04-0.37,0.01c0,0-0.01-0.01-0.03-0.02c-0.22-0.16,0.41-1.34,0.23-2.44c-0.02-0.12-0.05-0.25,0.02-0.37
					c0.18-0.32,0.87-0.36,1.3-0.15c0.12,0.06,0.32,0.18,0.49,0.31c0.07,0.05,0.14,0.11,0.22,0.18c0.24,0.21,0.39,0.4,0.42,0.43
					c0.41,0.51-0.2,1.47,0.22,1.87C13.83,5.63,14.09,5.58,14.11,5.7z"/>
				<path class="st10" d="M12.82,2.55c0,0-0.11,0.13-0.23,0.19c-0.11,0.06-0.35-0.04-0.4-0.05c-0.06-0.01,0.01,0.14,0.12,0.24
					c0.1,0.1,0.45,0.34,0.54,0.34c0.09,0-0.02-0.08-0.07-0.17c-0.06-0.1,0.02-0.29,0.1-0.35C12.94,2.69,12.82,2.55,12.82,2.55z"/>
				<g>
					<path d="M13.08,2.65c0.13-0.01,0.26-0.17,0.23-0.23C13.3,2.4,13.29,2.4,13.04,2.35c-0.12-0.02-0.18-0.03-0.23,0.01
						c-0.03,0.02-0.05,0.06-0.05,0.09c0,0.02,0,0.04,0,0.09c0,0.04,0,0.04,0,0.05c0,0.03,0.01,0.09,0.04,0.16
						c0.01-0.01,0.03-0.03,0.05-0.05c0.01-0.01,0.04-0.03,0.08-0.05C12.99,2.64,13.04,2.66,13.08,2.65z"/>
					<path class="st10" d="M12.76,2.68c0,0,0.01,0.12,0.12,0.17c0.1,0.05,0.24-0.17,0.2-0.25c-0.01-0.03-0.05-0.06-0.09-0.07
						c-0.02-0.01-0.03,0-0.07-0.01c-0.04-0.01-0.04-0.02-0.06-0.01c-0.02,0-0.04,0.02-0.05,0.1c-0.01-0.03-0.03-0.05-0.05-0.05
						c0,0-0.01,0-0.02,0.01C12.71,2.58,12.71,2.63,12.76,2.68z"/>
				</g>
				<linearGradient id="SVGID_4_" gradientUnits="userSpaceOnUse" x1="9.3303" y1="3.8336" x2="12.0485" y2="3.8336">
					<stop  offset="0" style="stop-color:#444B8C"/>
					<stop  offset="0.9964" style="stop-color:#26264F"/>
				</linearGradient>
				<path class="st11" d="M10.02,5.13c-0.17-0.08-0.54-0.3-0.66-0.7C9.17,3.77,9.85,3.14,10.2,2.91c0.4-0.27,0.8-0.31,1.04-0.34
					c0.3-0.03,0.49-0.05,0.63,0.06c0.36,0.29,0.14,1.26-0.21,1.36c-0.12,0.03-0.16-0.05-0.4-0.11c-0.08-0.02-0.67-0.16-0.98,0.15
					c-0.22,0.22-0.24,0.61-0.09,0.98C10.13,5.05,10.07,5.09,10.02,5.13z"/>
			</g>
			<g>
				<path d="M14,5.62L1.89,5.92C1.28,5.94,0.78,6.46,0.78,7.08v2.36c0,0.62,0.5,1.09,1.11,1.04L14,9.52c0.44-0.04,0.79-0.48,0.79-1
					V6.54C14.8,6.02,14.45,5.61,14,5.62z"/>
				<linearGradient id="SVGID_5_" gradientUnits="userSpaceOnUse" x1="3.9351" y1="13.675" x2="10.2768" y2="4.0518">
					<stop  offset="3.597120e-03" style="stop-color:#EBEFF2"/>
					<stop  offset="1" style="stop-color:#FFFFFF"/>
				</linearGradient>
				<path class="st12" d="M1.89,10.33c-0.53,0.04-0.96-0.36-0.96-0.9V7.07c0-0.54,0.43-0.99,0.96-1L14,5.75
					c0.38-0.01,0.69,0.35,0.69,0.8v1.97c0,0.45-0.31,0.84-0.69,0.87L1.89,10.33z"/>
				<g>
					<path class="st2" d="M3.38,6.93L3.71,7.6c0.01,0.02,0.04,0.04,0.06,0.04l0.71,0.07c0.07,0.01,0.09,0.09,0.04,0.14L4.01,8.41
						C3.99,8.43,3.98,8.46,3.99,8.48l0.12,0.73c0.01,0.07-0.06,0.13-0.12,0.1L3.35,9.01C3.32,8.99,3.29,9,3.27,9.01l-0.66,0.4
						C2.55,9.44,2.48,9.4,2.49,9.32l0.13-0.76c0-0.03,0-0.06-0.02-0.07L2.05,7.98C2,7.93,2.03,7.84,2.1,7.83l0.74-0.15
						c0.03-0.01,0.05-0.02,0.06-0.05l0.33-0.7C3.26,6.87,3.35,6.87,3.38,6.93z"/>
					<linearGradient id="SVGID_6_" gradientUnits="userSpaceOnUse" x1="7.8706" y1="6.2326" x2="4.3612" y2="9.813">
						<stop  offset="0" style="stop-color:#FFC444"/>
						<stop  offset="0.9964" style="stop-color:#F36F56"/>
					</linearGradient>
					<path class="st13" d="M6.02,6.83l0.3,0.64C6.33,7.5,6.35,7.52,6.38,7.52l0.67,0.07C7.11,7.6,7.13,7.68,7.09,7.73L6.61,8.26
						C6.59,8.28,6.58,8.31,6.58,8.34L6.7,9.05c0.01,0.07-0.05,0.12-0.11,0.09l-0.6-0.3c-0.02-0.01-0.05-0.01-0.07,0L5.3,9.23
						C5.24,9.26,5.17,9.22,5.18,9.15L5.3,8.41c0-0.03,0-0.05-0.02-0.07L4.77,7.84C4.72,7.8,4.75,7.71,4.82,7.7l0.7-0.14
						c0.03-0.01,0.05-0.02,0.06-0.05l0.31-0.67C5.91,6.78,5.99,6.77,6.02,6.83z"/>
					<linearGradient id="SVGID_7_" gradientUnits="userSpaceOnUse" x1="9.1101" y1="7.3645" x2="5.5772" y2="10.9689">
						<stop  offset="0" style="stop-color:#FFC444"/>
						<stop  offset="0.9964" style="stop-color:#F36F56"/>
					</linearGradient>
					<path class="st14" d="M8.49,6.74l0.28,0.62C8.78,7.39,8.8,7.4,8.83,7.41l0.63,0.07c0.06,0.01,0.08,0.09,0.04,0.13L9.04,8.13
						C9.02,8.14,9.02,8.17,9.02,8.2l0.11,0.69C9.14,8.95,9.08,9,9.02,8.98L8.46,8.68c-0.02-0.01-0.05-0.01-0.07,0L7.81,9.06
						C7.76,9.09,7.69,9.05,7.7,8.98l0.11-0.71c0-0.03,0-0.05-0.02-0.07L7.32,7.72C7.28,7.67,7.3,7.59,7.36,7.58l0.65-0.13
						c0.02,0,0.04-0.02,0.06-0.05l0.29-0.65C8.38,6.68,8.46,6.68,8.49,6.74z"/>
					<path class="st2" d="M10.81,6.65l0.27,0.61c0.01,0.02,0.03,0.04,0.05,0.04l0.59,0.07c0.05,0.01,0.08,0.08,0.04,0.13L11.33,8
						c-0.02,0.02-0.02,0.04-0.02,0.07l0.1,0.67c0.01,0.06-0.05,0.11-0.1,0.09l-0.53-0.28c-0.02-0.01-0.04-0.01-0.06,0L10.17,8.9
						c-0.05,0.03-0.11-0.01-0.1-0.08l0.1-0.69c0-0.03,0-0.05-0.02-0.07L9.71,7.6C9.67,7.56,9.69,7.48,9.75,7.46l0.61-0.13
						c0.02,0,0.04-0.02,0.05-0.05l0.27-0.63C10.71,6.6,10.78,6.6,10.81,6.65z"/>
					<path class="st2" d="M12.99,6.57l0.25,0.59c0.01,0.02,0.03,0.04,0.05,0.04l0.56,0.07c0.05,0.01,0.07,0.08,0.03,0.13l-0.4,0.48
						c-0.01,0.02-0.02,0.04-0.02,0.07l0.1,0.65c0.01,0.06-0.05,0.11-0.09,0.08l-0.5-0.28c-0.02-0.01-0.04-0.01-0.06,0l-0.51,0.35
						c-0.05,0.03-0.1-0.01-0.1-0.07L12.4,8c0-0.02,0-0.05-0.02-0.07l-0.42-0.45C11.92,7.45,11.94,7.37,12,7.36l0.58-0.12
						c0.02,0,0.04-0.02,0.05-0.04l0.25-0.61C12.9,6.52,12.97,6.52,12.99,6.57z"/>
				</g>
				<g class="st15">
					<path class="st16" d="M12.19,7.85C10.6,7.5,9.54,9.66,7.72,9.28C6.15,8.95,6.1,7.22,4.25,6.09C4.12,6.01,3.99,5.94,3.86,5.88
						L1.89,5.92C1.28,5.94,0.78,6.46,0.78,7.08v2.36c0,0.62,0.5,1.09,1.11,1.04l12.03-0.96C13.33,8.36,12.71,7.96,12.19,7.85z"/>
				</g>
				<linearGradient id="SVGID_8_" gradientUnits="userSpaceOnUse" x1="3.6898" y1="6.7344" x2="1.4968" y2="13.2303">
					<stop  offset="0" style="stop-color:#FFC444"/>
					<stop  offset="0.9964" style="stop-color:#F36F56"/>
				</linearGradient>
				<path class="st17" d="M3.38,6.93L3.71,7.6c0.01,0.02,0.04,0.04,0.06,0.04l0.71,0.07c0.07,0.01,0.09,0.09,0.04,0.14L4.01,8.41
					C3.99,8.43,3.98,8.46,3.99,8.48l0.12,0.73c0.01,0.07-0.06,0.13-0.12,0.1L3.35,9.01C3.32,8.99,3.29,9,3.27,9.01l-0.66,0.4
					C2.55,9.44,2.48,9.4,2.49,9.32l0.13-0.76c0-0.03,0-0.06-0.02-0.07L2.05,7.98C2,7.93,2.03,7.84,2.1,7.83l0.74-0.15
					c0.03-0.01,0.05-0.02,0.06-0.05l0.33-0.7C3.26,6.87,3.35,6.87,3.38,6.93z"/>
			</g>
			<g>
				<linearGradient id="SVGID_9_" gradientUnits="userSpaceOnUse" x1="15.1962" y1="7.7022" x2="14.2781" y2="7.1691">
					<stop  offset="0" style="stop-color:#FFC444"/>
					<stop  offset="0.9964" style="stop-color:#F36F56"/>
				</linearGradient>
				<path class="st18" d="M12.47,3.62l0.58,1.17c0.02,0.04,0.06,0.07,0.11,0.08l1.29,0.19c0.12,0.02,0.17,0.16,0.08,0.25l-0.93,0.91
					c-0.03,0.03-0.05,0.08-0.04,0.13l0.22,1.28c0.02,0.12-0.1,0.21-0.21,0.15l-1.15-0.6c-0.04-0.02-0.09-0.02-0.14,0l-1.15,0.6
					c-0.11,0.06-0.23-0.03-0.21-0.15l0.22-1.28c0.01-0.05-0.01-0.1-0.04-0.13L10.15,5.3c-0.09-0.08-0.04-0.23,0.08-0.25l1.29-0.19
					c0.05-0.01,0.09-0.04,0.11-0.08l0.58-1.17C12.26,3.51,12.41,3.51,12.47,3.62z"/>
				<linearGradient id="SVGID_10_" gradientUnits="userSpaceOnUse" x1="13.7136" y1="3.3743" x2="9.3127" y2="11.1758">
					<stop  offset="0" style="stop-color:#FFC444"/>
					<stop  offset="0.9964" style="stop-color:#F36F56"/>
				</linearGradient>
				<path class="st19" d="M12.52,3.62l0.58,1.17c0.02,0.04,0.06,0.07,0.11,0.08l1.29,0.19c0.12,0.02,0.17,0.16,0.08,0.25l-0.93,0.91
					c-0.03,0.03-0.05,0.08-0.04,0.13l0.22,1.28c0.02,0.12-0.1,0.21-0.21,0.15l-1.15-0.6c-0.04-0.02-0.09-0.02-0.14,0l-1.15,0.6
					c-0.11,0.06-0.23-0.03-0.21-0.15l0.22-1.28c0.01-0.05-0.01-0.1-0.04-0.13L10.21,5.3c-0.09-0.08-0.04-0.23,0.08-0.25l1.29-0.19
					c0.05-0.01,0.09-0.04,0.11-0.08l0.58-1.17C12.31,3.51,12.47,3.51,12.52,3.62z"/>
				<g class="st20">
					<linearGradient id="SVGID_11_" gradientUnits="userSpaceOnUse" x1="13.7114" y1="3.3731" x2="9.3105" y2="11.1746">
						<stop  offset="0" style="stop-color:#FFC444"/>
						<stop  offset="0.9964" style="stop-color:#F36F56"/>
					</linearGradient>
					<path class="st21" d="M13.3,6.89c-0.44-0.42-0.94-0.4-1.14-0.88c-0.22-0.54,0.25-0.92,0.17-1.59
						c-0.02-0.16-0.07-0.35-0.19-0.55l-0.45,0.92c-0.02,0.04-0.06,0.07-0.11,0.08l-1.29,0.19c-0.12,0.02-0.17,0.16-0.08,0.25
						l0.93,0.91c0.03,0.03,0.05,0.08,0.04,0.13l-0.22,1.28c-0.02,0.12,0.1,0.21,0.21,0.15l1.15-0.6c0.04-0.02,0.09-0.02,0.14,0
						l1.15,0.6c0.06,0.03,0.13,0.02,0.17-0.03C13.67,7.33,13.48,7.07,13.3,6.89z"/>
				</g>
			</g>
			<linearGradient id="SVGID_12_" gradientUnits="userSpaceOnUse" x1="14.4139" y1="6.0317" x2="14.2378" y2="5.7366">
				<stop  offset="0" style="stop-color:#FFC444"/>
				<stop  offset="0.9964" style="stop-color:#F36F56"/>
			</linearGradient>
			<path class="st22" d="M14.02,5.8c0,0,0.12-0.13,0.17-0.23c0.05-0.1,0.14-0.1,0.17-0.06c0.02,0.04-0.07,0.2-0.12,0.25
				C14.19,5.8,14.02,5.8,14.02,5.8z"/>
			<path class="st10" d="M10.05,5.1l0.09-0.07c0,0,0.06,0.04,0.13,0.03c0.04,0,0.09,0.02,0.1,0.03c0.01,0.01,0.06,0.04-0.01,0.03
				c-0.08-0.01-0.09,0.01-0.08,0.05c0.01,0.04,0.07,0.14,0.11,0.17c0.03,0.02-0.06,0.04-0.1,0.02c-0.04-0.01-0.1-0.04-0.14-0.12
				C10.13,5.22,10.05,5.1,10.05,5.1z"/>
		</g>
		<g>
			<g>
				<linearGradient id="SVGID_13_" gradientUnits="userSpaceOnUse" x1="13.4379" y1="10.7303" x2="12.5198" y2="10.1972">
					<stop  offset="0" style="stop-color:#FFC444"/>
					<stop  offset="0.9964" style="stop-color:#F36F56"/>
				</linearGradient>
				<path class="st23" d="M9.78,5.93l0.62,1.25c0.02,0.05,0.07,0.08,0.12,0.09l1.38,0.2c0.13,0.02,0.18,0.18,0.09,0.27l-1,0.97
					c-0.04,0.04-0.05,0.09-0.05,0.14l0.24,1.38c0.02,0.13-0.11,0.23-0.23,0.17L9.71,9.74c-0.05-0.02-0.1-0.02-0.15,0l-1.24,0.65
					c-0.12,0.06-0.25-0.04-0.23-0.17l0.24-1.38c0.01-0.05-0.01-0.1-0.05-0.14l-1-0.97C7.2,7.64,7.25,7.48,7.38,7.47l1.38-0.2
					c0.05-0.01,0.1-0.04,0.12-0.09L9.5,5.93C9.55,5.81,9.72,5.81,9.78,5.93z"/>
				<linearGradient id="SVGID_14_" gradientUnits="userSpaceOnUse" x1="11.1185" y1="5.661" x2="6.3933" y2="14.0376">
					<stop  offset="0" style="stop-color:#FFC444"/>
					<stop  offset="0.9964" style="stop-color:#F36F56"/>
				</linearGradient>
				<path class="st24" d="M9.84,5.93l0.62,1.25c0.02,0.05,0.07,0.08,0.12,0.09l1.38,0.2c0.13,0.02,0.18,0.18,0.09,0.27l-1,0.97
					C11.01,8.74,10.99,8.8,11,8.85l0.24,1.38c0.02,0.13-0.11,0.23-0.23,0.17L9.77,9.74c-0.05-0.02-0.1-0.02-0.15,0l-1.24,0.65
					c-0.12,0.06-0.25-0.04-0.23-0.17L8.4,8.85c0.01-0.05-0.01-0.1-0.05-0.14l-1-0.97C7.26,7.64,7.31,7.48,7.44,7.47l1.38-0.2
					c0.05-0.01,0.1-0.04,0.12-0.09l0.62-1.25C9.62,5.81,9.78,5.81,9.84,5.93z"/>
				<g class="st20">
					<linearGradient id="SVGID_15_" gradientUnits="userSpaceOnUse" x1="11.1162" y1="5.6597" x2="6.3909" y2="14.0363">
						<stop  offset="0" style="stop-color:#FFC444"/>
						<stop  offset="0.9964" style="stop-color:#F36F56"/>
					</linearGradient>
					<path class="st25" d="M10.67,9.44C10.2,8.98,9.66,9.01,9.45,8.49C9.21,7.91,9.72,7.5,9.63,6.78C9.61,6.61,9.55,6.41,9.43,6.19
						L8.94,7.18C8.92,7.23,8.87,7.26,8.82,7.26l-1.38,0.2C7.31,7.48,7.26,7.64,7.35,7.73l1,0.97C8.39,8.74,8.41,8.8,8.4,8.85
						l-0.24,1.38c-0.02,0.13,0.11,0.23,0.23,0.17l1.24-0.65c0.05-0.02,0.1-0.02,0.15,0l1.24,0.65c0.07,0.04,0.14,0.02,0.19-0.03
						C11.07,9.91,10.87,9.62,10.67,9.44z"/>
				</g>
			</g>
			<g>
				<path d="M7.12,15.15c-0.07,0.07-0.1,0.15-0.07,0.19c0.02,0.03,0.06,0.04,0.1,0.05c0.07,0.01,0.14,0.01,0.28-0.03
					c0.14-0.04,0.22-0.06,0.22-0.09c0-0.03-0.07-0.05-0.13-0.08c-0.09-0.03-0.16-0.04-0.21-0.04C7.24,15.15,7.18,15.15,7.12,15.15z"
					/>
				<path d="M9.23,14c-0.03,0.01-0.07,0.04-0.08,0.08c-0.02,0.06,0.05,0.13,0.16,0.23c0.08,0.08,0.19,0.18,0.23,0.15
					c0.02-0.02,0.01-0.07,0-0.13c-0.02-0.06-0.05-0.16-0.13-0.27C9.4,14.06,9.4,14.06,9.23,14z"/>
				<path class="st10" d="M7.28,15l-0.15,0.17c-0.02,0.02-0.01,0.05,0.01,0.05c0.03,0.01,0.08,0.02,0.12,0
					c0.01,0,0.02-0.01,0.02-0.02l0.15-0.15L7.28,15z"/>
				<path class="st10" d="M9.32,13.9l-0.08,0.12c-0.01,0.02-0.01,0.04,0.01,0.05c0.01,0.01,0.03,0.01,0.04,0.02
					c0.02,0.01,0.05,0,0.07-0.02l0.09-0.1L9.32,13.9z"/>
				<path class="st26" d="M7.84,11.42c0.08,0.16,0.17,0.4,0.23,0.69c0.02,0.12,0.14,0.75-0.1,1.5c-0.22,0.7-0.64,1.14-0.86,1.35
					c0.03,0.03,0.07,0.06,0.13,0.08c0.09,0.04,0.17,0.05,0.22,0.05c0.67-0.48,1-1.02,1.14-1.32c0.5-1,0.37-1.97,0.16-2.39
					c-0.07-0.14-0.15-0.21-0.24-0.24C8.23,11.04,7.89,11.38,7.84,11.42z"/>
				<linearGradient id="SVGID_16_" gradientUnits="userSpaceOnUse" x1="9.3736" y1="14.5871" x2="7.8139" y2="13.0275">
					<stop  offset="0" style="stop-color:#AB316D"/>
					<stop  offset="1" style="stop-color:#792D3D"/>
				</linearGradient>
				<path class="st27" d="M8.76,11.39c-0.07-0.14-0.15-0.21-0.24-0.24c-0.29-0.11-0.63,0.23-0.68,0.28
					c0.08,0.16,0.17,0.39,0.23,0.68c0.21,0.05,0.49,0.16,0.63,0.43c0.23,0.44-0.1,0.96-0.17,1.07c-0.15,0.24-0.24,0.22-0.46,0.56
					c-0.17,0.26-0.18,0.37-0.32,0.5c-0.17,0.15-0.38,0.19-0.55,0.2c-0.03,0.03-0.06,0.06-0.09,0.09c0.03,0.03,0.07,0.06,0.13,0.08
					c0.09,0.04,0.17,0.05,0.22,0.05c0.67-0.48,1-1.02,1.14-1.32C9.11,12.78,8.98,11.8,8.76,11.39z"/>
				<path class="st26" d="M8.22,11.39c0.04,0.07,0.1,0.18,0.2,0.29c0.26,0.27,0.51,0.25,0.79,0.47c0.03,0.03,0.28,0.23,0.37,0.53
					c0.18,0.58-0.33,1.14-0.39,1.2c0.03,0.03,0.08,0.07,0.15,0.1c0.06,0.03,0.12,0.04,0.16,0.05c0.73-0.67,1.09-1.48,0.85-2.01
					c-0.13-0.29-0.45-0.5-0.68-0.65c-0.38-0.25-0.74-0.37-0.98-0.42C8.54,11.1,8.38,11.25,8.22,11.39z"/>
				<linearGradient id="SVGID_17_" gradientUnits="userSpaceOnUse" x1="7.8757" y1="9.5311" x2="7.668" y2="11.7121">
					<stop  offset="0" style="stop-color:#444B8C"/>
					<stop  offset="0.9964" style="stop-color:#26264F"/>
				</linearGradient>
				<path class="st28" d="M8.66,9.86c0.01,0.32-0.06,0.49,0.04,0.76c0.08,0.19,0.2,0.32,0.3,0.4c-0.05,0.1-0.18,0.31-0.43,0.47
					c-0.3,0.2-0.59,0.21-0.71,0.21c-0.25-0.13-0.62-0.36-0.92-0.79c-0.2-0.29-0.43-0.6-0.37-1.01c0.07-0.51,0.55-0.78,0.68-0.86
					c0.09-0.05,0.7-0.4,1.07-0.14C8.63,9.1,8.65,9.62,8.66,9.86z"/>
				<path class="st10" d="M10.7,10.23c0.01-0.05,0.05-0.09,0.07-0.11c0.02-0.03,0.03-0.02,0.05-0.04c0.04-0.05,0.03-0.1,0.05-0.11
					c0.01,0,0.04,0.04,0.04,0.08c0,0.04-0.03,0.06-0.03,0.08c0.01,0.03,0.09,0.06,0.15,0.05c0.08-0.01,0.12-0.08,0.15-0.06
					c0.02,0.01,0.02,0.05,0.02,0.06c0,0.08-0.11,0.16-0.21,0.17c-0.06,0.01-0.08-0.02-0.15,0c-0.05,0.01-0.06,0.03-0.09,0.02
					C10.71,10.34,10.69,10.28,10.7,10.23z"/>
				<linearGradient id="SVGID_18_" gradientUnits="userSpaceOnUse" x1="9.297" y1="9.6665" x2="9.0893" y2="11.8475">
					<stop  offset="0" style="stop-color:#444B8C"/>
					<stop  offset="0.9964" style="stop-color:#26264F"/>
				</linearGradient>
				<path class="st29" d="M10.71,10.2c-0.63,0.04-1.01-0.12-1.23-0.28C8.96,9.57,8.86,9,8.26,8.85c-0.11-0.03-0.3-0.08-0.4,0.02
					c-0.22,0.2,0.04,0.94,0.49,1.39c0.1,0.1,0.45,0.45,1.04,0.53c0.75,0.1,1.29-0.32,1.38-0.4c0.03-0.03,0.04-0.08,0.02-0.12
					C10.77,10.21,10.72,10.2,10.71,10.2z"/>
				<linearGradient id="SVGID_19_" gradientUnits="userSpaceOnUse" x1="6.5695" y1="10.5772" x2="8.8333" y2="10.5772">
					<stop  offset="0" style="stop-color:#444B8C"/>
					<stop  offset="0.9964" style="stop-color:#26264F"/>
				</linearGradient>
				<path class="st30" d="M7.59,11.19c-0.18-0.17-0.09-0.27-0.31-0.61C7.06,10.24,6.9,10.23,6.8,10C6.74,9.88,6.71,9.71,6.77,9.46
					C6.68,9.58,6.6,9.73,6.58,9.9c-0.06,0.4,0.16,0.72,0.37,1.01c0.3,0.42,0.67,0.66,0.92,0.79c0.12,0,0.41-0.01,0.71-0.21
					c0.11-0.07,0.2-0.15,0.26-0.23c-0.09,0.05-0.2,0.09-0.32,0.12C8.46,11.39,7.92,11.5,7.59,11.19z"/>
				<path class="st10" d="M7.43,8.69L7.38,8.86C7.36,8.92,7.33,8.97,7.28,9L7.15,9.11c0,0,0.42-0.07,0.61-0.26L7.64,8.81
					c-0.01,0-0.02-0.02-0.02-0.03V8.65L7.43,8.69z"/>
				<g>
					<g>
						<path class="st10" d="M7.58,8.78c0.02,0,0.16,0.02,0.2-0.05c0.06-0.09,0-0.24-0.01-0.27c-0.02-0.1-0.03-0.11-0.05-0.13
							L7.7,8.3c0,0,0,0,0,0C7.68,8.29,7.62,8.27,7.6,8.27c-0.05,0-0.14,0.16-0.19,0.41c0,0.01-0.01,0.02-0.01,0.03
							C7.39,8.73,7.58,8.79,7.58,8.78z"/>
						<path d="M7.81,8.26C7.79,8.33,7.73,8.4,7.71,8.41c0,0-0.02,0.01-0.04,0.02c0,0,0,0-0.01,0.01C7.64,8.49,7.7,8.57,7.68,8.58
							C7.66,8.6,7.62,8.56,7.61,8.57C7.6,8.58,7.63,8.62,7.62,8.64C7.62,8.65,7.59,8.63,7.57,8.64C7.56,8.65,7.56,8.66,7.54,8.68
							C7.53,8.69,7.52,8.71,7.52,8.72C7.48,8.75,7.4,8.75,7.39,8.73c0-0.01,0-0.01,0-0.03c0,0,0-0.02-0.01-0.04
							c-0.01-0.03-0.04-0.06-0.07-0.1C7.26,8.5,7.25,8.45,7.25,8.44c0-0.01,0-0.01,0-0.01c0-0.06,0.02-0.14,0.06-0.19
							c0.07-0.07,0.15-0.01,0.25-0.07c0.12-0.07,0.1-0.22,0.15-0.22C7.77,7.94,7.85,8.11,7.81,8.26z"/>
						<path class="st10" d="M7.66,8.56C7.64,8.53,7.6,8.54,7.6,8.58C7.59,8.61,7.61,8.65,7.64,8.65C7.68,8.66,7.67,8.6,7.66,8.56z"
							/>
					</g>
				</g>
			</g>
		</g>
	</g>
</g>
<g id="DESIGNED_BY_FREEPIK">
</g>
</svg>
