<?xml version="1.0" encoding="utf-8"?>
<!-- Generator: Adobe Illustrator 25.0.0, SVG Export Plug-In . SVG Version: 6.00 Build 0)  -->
<svg version="1.1" xmlns="http://www.w3.org/2000/svg" xmlns:xlink="http://www.w3.org/1999/xlink" x="0px" y="0px"
	 viewBox="0 0 16 16" style="enable-background:new 0 0 16 16;" xml:space="preserve">
<style type="text/css">
	.st0{fill:#1D9898;}
	.st1{opacity:0.2;fill:#FFFFFF;}
	.st2{fill:#137F7C;}
	.st3{fill:#F9F8D7;}
	.st4{fill:#FFFFE6;}
	.st5{fill:#FFFFFF;}
	.st6{opacity:0.3;fill:#C1C4C6;}
	.st7{fill:#FFC306;}
	.st8{fill:#D39B0F;}
	.st9{fill:#333333;}
	.st10{opacity:0.5;fill:#FFFFFF;}
	.st11{opacity:0.3;fill:#137F7C;}
	.st12{fill:#EFB207;}
	.st13{fill:#FFEE9C;}
	.st14{fill:#FCDAC8;}
	.st15{fill:#F7BBA6;}
	.st16{fill:#F13C0C;}
	.st17{fill:#D8D6D6;}
	.st18{fill:#FBF8F8;}
	.st19{fill:#B9B7B7;}
	.st20{fill:#FF5A21;}
	.st21{fill:#FF7357;}
	.st22{opacity:0.3;fill:#FFFFFF;}
	.st23{fill:#036C9A;}
	.st24{fill:#0077BA;}
	.st25{fill:#2BACFF;}
	.st26{opacity:0.3;}
	.st27{fill:#26204E;}
	.st28{opacity:0.2;fill:#137F7C;}
	.st29{fill:#E5730C;}
	.st30{fill:#F98200;}
	.st31{fill:#C95F09;}
	.st32{fill:#FFDC96;}
	.st33{fill:#353535;}
	.st34{fill:#E7976F;}
	.st35{fill:none;stroke:#FFC306;stroke-width:0.25;stroke-linecap:round;stroke-linejoin:round;stroke-miterlimit:10;}
	.st36{fill:#0B86D5;}
	.st37{fill:none;stroke:#FFC306;stroke-width:0.25;stroke-miterlimit:10;}
</style>
<g id="BACKGROUND">
</g>
<g id="OBJECTS">
	<g>
		<path class="st0" d="M5.18,9.11C4.87,9.04,4.61,8.85,4.44,8.53C4.34,8.35,4.26,8.15,4.12,8c-0.27-0.3-0.67-0.27-1-0.44
			c-0.16-0.08-0.27-0.25-0.36-0.4C2.65,6.97,2.47,6.38,2.63,6.34c0.2-0.05,0.58,0.43,0.77,0.52c0.46,0.21,1.1-0.33,1.43,0.22
			C5,7.35,5.18,7.59,5.45,7.76c0.27,0.16,0.63,0.26,0.82,0.52c0.27,0.35-0.13,0.71-0.46,0.8C5.6,9.15,5.38,9.15,5.18,9.11z"/>
		<path class="st1" d="M3.43,7.12c0.19,0.05,0.4,0.04,0.59-0.01c0.39-0.04,0.41,0.25,0.65,0.2c0.14-0.05,0.16-0.16,0.11-0.29
			C4.45,6.57,3.84,7.06,3.4,6.86C3.22,6.77,2.86,6.32,2.65,6.33C2.66,6.7,3.09,6.99,3.43,7.12z"/>
		<path class="st2" d="M5.9,8.7C5.63,8.65,5.37,8.54,5.15,8.38c0,0,0,0,0-0.01C5.14,8.14,5.18,7.91,5.25,7.69
			c0-0.01,0-0.01-0.01-0.01c-0.01,0-0.01,0-0.01,0.01C5.15,7.89,5.11,8.12,5.11,8.34C5.08,8.31,5.05,8.29,5.02,8.26
			C4.82,8.07,4.72,7.8,4.56,7.57c0-0.12-0.02-0.24-0.05-0.35C4.47,7.11,4.42,7,4.37,6.89c0,0-0.01-0.01-0.01,0
			c-0.01,0-0.01,0.01,0,0.01c0.05,0.1,0.1,0.21,0.12,0.33c0.02,0.09,0.04,0.19,0.04,0.28C4.49,7.49,4.46,7.46,4.44,7.43
			C4.38,7.38,4.31,7.32,4.23,7.28C4.15,7.25,4.06,7.24,3.97,7.24c-0.09,0-0.17,0.01-0.25,0.01c-0.08,0-0.17,0-0.25-0.02
			c-0.01,0-0.01,0-0.02,0c0-0.06-0.01-0.12-0.02-0.18C3.42,7,3.4,6.94,3.38,6.89c0-0.01-0.01-0.01-0.01-0.01
			c-0.01,0-0.01,0.01-0.01,0.01c0.01,0.06,0.03,0.11,0.04,0.17c0.01,0.05,0.02,0.11,0.01,0.16C3.33,7.2,3.25,7.16,3.17,7.11
			c0-0.01-0.01-0.01-0.02-0.01C2.98,6.97,2.85,6.79,2.8,6.58c0,0-0.01-0.01-0.01-0.01c0,0-0.01,0.01-0.01,0.01
			C2.82,6.75,2.9,6.9,3.02,7.03c0.03,0.03,0.06,0.06,0.09,0.08C3.01,7.13,2.89,7.12,2.79,7.08c-0.01,0-0.01,0-0.01,0.01
			c0,0.01,0,0.01,0.01,0.01C2.9,7.15,3.03,7.17,3.16,7.14c0,0,0,0,0,0c0.09,0.06,0.2,0.11,0.31,0.13C3.55,7.29,3.64,7.3,3.72,7.3
			c0.03,0,0.07,0,0.1,0C3.67,7.41,3.49,7.5,3.3,7.54c-0.01,0-0.01,0.01-0.01,0.01c0,0.01,0.01,0.01,0.01,0.01
			c0.21-0.05,0.42-0.14,0.59-0.27c0,0,0,0,0,0c0,0,0,0,0-0.01c0.02,0,0.05,0,0.07,0c0.08,0,0.17,0,0.24,0.04
			c0.07,0.03,0.14,0.09,0.2,0.14c0.12,0.11,0.2,0.26,0.29,0.4c0.04,0.07,0.08,0.14,0.13,0.21C4.64,8,4.43,7.98,4.23,8.03
			c-0.01,0-0.01,0.01-0.01,0.01c0,0.01,0.01,0.01,0.01,0.01c0.22-0.04,0.44,0,0.63,0.1c0,0,0,0,0,0c0,0,0,0,0.01,0
			C4.91,8.2,4.95,8.24,4.99,8.28c0.12,0.12,0.25,0.21,0.4,0.28C5.16,8.63,4.92,8.68,4.68,8.69c-0.01,0-0.01,0-0.01,0.01
			c0,0.01,0,0.01,0.01,0.01c0.26,0,0.51-0.05,0.76-0.11c0,0,0,0,0,0c0,0,0.01,0,0.01-0.01c0.06,0.03,0.13,0.05,0.2,0.07
			C5.73,8.68,5.81,8.7,5.89,8.72c0,0,0.01,0,0.01-0.01C5.91,8.7,5.9,8.7,5.9,8.7z"/>
	</g>
	<g>
		<path class="st0" d="M11.74,13.24c0.32,0.01,0.63-0.11,0.86-0.37c0.14-0.15,0.27-0.32,0.44-0.44c0.33-0.22,0.71-0.1,1.08-0.17
			c0.17-0.04,0.33-0.18,0.45-0.3c0.15-0.15,0.48-0.68,0.33-0.76c-0.18-0.1-0.67,0.28-0.87,0.31c-0.5,0.09-0.99-0.59-1.44-0.14
			c-0.22,0.22-0.46,0.41-0.77,0.5c-0.3,0.09-0.67,0.1-0.93,0.3c-0.34,0.27-0.05,0.72,0.25,0.89C11.33,13.17,11.54,13.23,11.74,13.24
			z"/>
		<path class="st1" d="M13.94,11.74c-0.2,0-0.4-0.06-0.57-0.16c-0.37-0.13-0.46,0.14-0.68,0.03c-0.12-0.09-0.11-0.2-0.04-0.31
			c0.44-0.35,0.91,0.28,1.39,0.19c0.2-0.04,0.66-0.39,0.86-0.32C14.78,11.53,14.3,11.7,13.94,11.74z"/>
		<path class="st2" d="M11.15,12.66c0.27,0.02,0.55-0.02,0.8-0.13c0,0,0,0,0-0.01c0.07-0.22,0.1-0.45,0.08-0.68
			c0-0.01,0-0.01,0.01-0.01c0.01,0,0.01,0,0.01,0.01c0.03,0.22,0.01,0.45-0.05,0.67c0.04-0.02,0.08-0.04,0.11-0.06
			c0.24-0.13,0.4-0.37,0.62-0.55c0.03-0.11,0.08-0.22,0.14-0.32c0.06-0.1,0.13-0.2,0.21-0.29c0,0,0.01,0,0.01,0c0,0,0,0.01,0,0.01
			c-0.08,0.09-0.15,0.18-0.2,0.29c-0.04,0.08-0.08,0.17-0.11,0.26c0.03-0.02,0.06-0.04,0.09-0.06c0.07-0.04,0.15-0.08,0.24-0.1
			c0.09-0.01,0.18,0,0.26,0.03c0.08,0.02,0.16,0.06,0.24,0.08c0.08,0.02,0.16,0.04,0.24,0.04c0.01,0,0.01,0,0.02,0
			c0.01-0.06,0.03-0.12,0.06-0.17c0.03-0.05,0.06-0.1,0.09-0.15c0,0,0.01-0.01,0.01,0c0.01,0,0.01,0.01,0,0.01
			c-0.03,0.05-0.06,0.1-0.08,0.15c-0.02,0.05-0.04,0.1-0.05,0.15c0.09,0,0.18-0.02,0.26-0.05c0.01-0.01,0.01-0.01,0.02-0.01
			c0.2-0.08,0.37-0.22,0.48-0.41c0,0,0.01-0.01,0.01,0c0,0,0.01,0.01,0,0.01c-0.08,0.15-0.2,0.28-0.35,0.37
			c-0.03,0.02-0.07,0.04-0.11,0.06c0.1,0.05,0.21,0.07,0.32,0.06c0.01,0,0.01,0,0.01,0.01c0,0.01,0,0.01-0.01,0.01
			c-0.13,0.02-0.26,0-0.38-0.06c0,0,0,0,0,0c-0.11,0.04-0.22,0.06-0.33,0.05c-0.09,0-0.17-0.02-0.25-0.04
			c-0.03-0.01-0.07-0.02-0.1-0.03c0.12,0.15,0.27,0.28,0.45,0.37c0,0,0.01,0.01,0,0.01c0,0.01-0.01,0.01-0.01,0
			c-0.19-0.1-0.37-0.24-0.51-0.41c0,0,0,0,0,0c0,0,0,0,0-0.01c-0.02-0.01-0.05-0.02-0.07-0.02c-0.08-0.02-0.16-0.04-0.24-0.02
			c-0.08,0.01-0.15,0.05-0.22,0.09c-0.14,0.08-0.26,0.2-0.38,0.32c-0.06,0.06-0.11,0.12-0.18,0.17c0.2-0.03,0.41,0.01,0.59,0.09
			c0.01,0,0.01,0.01,0,0.01c0,0.01-0.01,0.01-0.01,0.01c-0.2-0.09-0.43-0.11-0.64-0.06c0,0,0,0,0,0c0,0,0,0-0.01,0
			c-0.05,0.04-0.09,0.07-0.15,0.1c-0.14,0.08-0.3,0.14-0.46,0.17c0.21,0.13,0.43,0.23,0.66,0.3c0.01,0,0.01,0.01,0.01,0.01
			c0,0.01-0.01,0.01-0.01,0.01c-0.25-0.06-0.49-0.17-0.71-0.3c0,0,0,0,0,0c0,0-0.01-0.01-0.01-0.01c-0.07,0.01-0.14,0.02-0.21,0.02
			c-0.08,0-0.17,0-0.25-0.01C11.15,12.68,11.15,12.68,11.15,12.66C11.15,12.67,11.15,12.66,11.15,12.66z"/>
	</g>
	<g>
		<path class="st3" d="M0.79,11.3c0.06-0.45,0.35-0.81,0.69-1.04c0.34-0.22,0.72-0.32,1.1-0.43s0.76-0.22,1.08-0.47
			c0.46-0.35,0.76-0.93,1.03-1.5C4.96,7.3,5.23,6.71,5.66,6.3c0.43-0.41,1.08-0.57,1.54-0.21c0.4,0.32,0.54,0.93,0.64,1.5
			c0.1,0.56,0.2,1.17,0.58,1.54c0.34,0.33,0.81,0.37,1.25,0.32s0.87-0.17,1.31-0.11c0.47,0.06,0.91,0.35,1.19,0.8
			c0.27,0.45,0.35,1.06,0.16,1.57c-0.19,0.52-0.63,0.88-1.1,1.04c-0.47,0.17-0.96,0.17-1.45,0.17c-2.14,0.01-4.27,0.03-6.41,0.04
			c-0.64,0-1.28-0.03-1.87-0.35C1.08,12.4,0.72,11.84,0.79,11.3z"/>
		<path class="st4" d="M11.23,10.08c-0.19-0.19-0.64-0.23-0.84-0.09c-0.62,0.27-2.3,0.66-2.83-0.45C7.19,8.73,7.3,7.74,6.39,7.31
			c-0.43-0.24-0.82,0.38-1.1,0.77c-0.38,0.72-0.46,1.66-1.2,1.97c-3.28,1.38-1.37,2.92-0.73,2.92c2.14-0.01,4.27-0.03,6.41-0.04
			c0.16,0,0.32,0,0.48-0.01c0.22-0.12,0.42-0.25,0.6-0.42C11.48,11.96,11.91,10.65,11.23,10.08z"/>
		<g>
			<g>
				<g>
					<g>
						<path class="st5" d="M7.17,6.45C7.18,6.46,7.19,6.47,7.2,6.48C7.21,6.5,7.22,6.51,7.23,6.53c0,0.02-0.01,0.04-0.02,0.04
							c-0.01,0-0.01,0-0.02-0.01C7.17,6.55,7.16,6.54,7.15,6.53C7.14,6.52,7.13,6.5,7.12,6.49c-0.01-0.02,0-0.04,0.02-0.04
							C7.15,6.45,7.16,6.45,7.17,6.45z"/>
					</g>
					<g>
						<path class="st5" d="M7.28,6.6C7.29,6.61,7.3,6.62,7.31,6.64c0.01,0.01,0.01,0.03,0.02,0.05c0,0.02-0.01,0.04-0.03,0.03
							c-0.01,0-0.01,0-0.02-0.01C7.26,6.7,7.26,6.69,7.25,6.67C7.24,6.66,7.23,6.65,7.23,6.63c0-0.02,0.01-0.04,0.03-0.04
							C7.26,6.59,7.27,6.6,7.28,6.6z"/>
					</g>
					<g>
						<path class="st5" d="M7.37,6.76C7.38,6.77,7.39,6.79,7.39,6.8C7.4,6.82,7.4,6.83,7.4,6.85c0,0.02-0.01,0.03-0.03,0.03
							c-0.01,0-0.01,0-0.02-0.01C7.34,6.86,7.33,6.85,7.33,6.83C7.32,6.82,7.32,6.8,7.31,6.79c0-0.02,0.01-0.03,0.03-0.03
							C7.35,6.75,7.36,6.76,7.37,6.76z"/>
					</g>
					<g>
						<path class="st5" d="M7.48,7.07C7.49,7.08,7.49,7.1,7.5,7.11c0,0.02,0.01,0.03,0,0.05c0,0.02-0.02,0.03-0.04,0.03
							c-0.01,0-0.01-0.01-0.02-0.01C7.44,7.16,7.44,7.15,7.43,7.13c0-0.02-0.01-0.03-0.01-0.05c0-0.02,0.02-0.03,0.04-0.03
							C7.47,7.06,7.47,7.06,7.48,7.07z"/>
					</g>
					<g>
						<path class="st5" d="M7.53,7.29C7.54,7.3,7.55,7.31,7.55,7.32c0,0.01,0,0.02,0,0.03C7.54,7.37,7.52,7.38,7.5,7.37
							c0,0,0,0-0.01,0C7.48,7.35,7.48,7.34,7.48,7.34c0-0.01,0-0.02,0-0.03C7.49,7.29,7.51,7.28,7.53,7.29
							C7.53,7.29,7.53,7.29,7.53,7.29z"/>
					</g>
					<g>
						<path class="st5" d="M7.57,7.49C7.58,7.5,7.58,7.51,7.58,7.51c0,0.01,0,0.02,0,0.03C7.57,7.56,7.55,7.57,7.53,7.56
							c0,0,0,0-0.01-0.01C7.51,7.54,7.51,7.53,7.51,7.53c0-0.01,0-0.02,0-0.03C7.52,7.48,7.54,7.47,7.57,7.49
							C7.56,7.48,7.57,7.49,7.57,7.49z"/>
					</g>
				</g>
				<g>
					<g>
						<path class="st5" d="M5.65,6.6c0.09-0.1,0.18-0.2,0.29-0.28c0.11-0.08,0.23-0.15,0.37-0.18c0.07-0.01,0.14-0.02,0.21-0.01
							c0.07,0.01,0.14,0.02,0.2,0.04c0.13,0.04,0.25,0.11,0.35,0.21c0.01,0.01,0.02,0.03,0,0.04c-0.01,0.01-0.03,0.01-0.04,0
							c-0.1-0.09-0.21-0.15-0.34-0.18C6.65,6.21,6.58,6.2,6.52,6.2c-0.06,0-0.13,0-0.19,0.01C6.21,6.23,6.09,6.29,5.98,6.37
							c-0.11,0.08-0.2,0.17-0.29,0.27C5.68,6.65,5.66,6.65,5.65,6.64C5.64,6.63,5.64,6.61,5.65,6.6z"/>
					</g>
					<g>
						<path class="st5" d="M5.63,6.7c0,0.01-0.01,0.03-0.02,0.04C5.6,6.75,5.59,6.76,5.58,6.76c-0.02,0.01-0.04,0-0.04-0.02
							c0-0.01,0-0.01,0-0.02c0-0.01,0.01-0.03,0.02-0.04c0.01-0.01,0.02-0.02,0.03-0.03c0.02-0.01,0.04,0,0.04,0.02
							C5.63,6.69,5.63,6.69,5.63,6.7z"/>
					</g>
					<g>
						<path class="st5" d="M5.54,6.82c0,0.01-0.01,0.03-0.02,0.04C5.51,6.87,5.5,6.88,5.49,6.89c-0.02,0.01-0.04,0-0.04-0.01
							c0-0.01,0-0.01,0-0.02c0-0.01,0.01-0.03,0.02-0.04C5.47,6.81,5.48,6.8,5.49,6.79c0.02-0.01,0.04,0,0.04,0.01
							C5.54,6.81,5.54,6.82,5.54,6.82z"/>
					</g>
					<g>
						<path class="st5" d="M5.45,6.95C5.43,7,5.4,7.04,5.37,7.09C5.34,7.13,5.31,7.18,5.28,7.23C5.27,7.24,5.25,7.24,5.24,7.24
							C5.23,7.23,5.23,7.21,5.23,7.2c0.02-0.05,0.05-0.1,0.08-0.15C5.34,7,5.37,6.96,5.4,6.92C5.42,6.9,5.43,6.9,5.45,6.91
							C5.46,6.92,5.46,6.93,5.45,6.95z"/>
					</g>
					<g>
						<path class="st5" d="M5.22,7.35c0,0.01,0,0.02,0,0.03c0,0.01-0.01,0.01-0.02,0.02c-0.02,0.01-0.04,0-0.05-0.02l0,0
							c0-0.01,0-0.02,0-0.03c0-0.01,0.01-0.01,0.02-0.02C5.19,7.31,5.21,7.32,5.22,7.35L5.22,7.35z"/>
					</g>
					<g>
						<path class="st5" d="M5.15,7.49c0,0.01,0,0.02,0,0.03c0,0.01-0.01,0.01-0.02,0.02c-0.02,0.01-0.04,0-0.05-0.02l0,0
							c0-0.01,0-0.02,0-0.03c0-0.01,0.01-0.01,0.02-0.02C5.12,7.46,5.14,7.47,5.15,7.49L5.15,7.49z"/>
					</g>
				</g>
			</g>
			<g>
				<g>
					<g>
						<path class="st5" d="M8.96,9.69c0.02,0,0.03,0,0.05,0c0.02,0,0.03,0.01,0.05,0.02c0.02,0.01,0.02,0.03,0.01,0.04
							c0,0.01-0.01,0.01-0.02,0.01c-0.02,0-0.03,0-0.05,0c-0.02,0-0.03-0.01-0.05-0.02C8.93,9.73,8.93,9.71,8.94,9.7
							C8.94,9.69,8.95,9.69,8.96,9.69z"/>
					</g>
					<g>
						<path class="st5" d="M9.13,9.71c0.02,0,0.03,0,0.05,0c0.02,0,0.03,0,0.05,0.01c0.02,0.01,0.02,0.03,0.01,0.04
							c0,0.01-0.01,0.01-0.02,0.01c-0.02,0.01-0.03,0.01-0.05,0c-0.02,0-0.03-0.01-0.05-0.01C9.11,9.76,9.1,9.74,9.12,9.73
							C9.12,9.72,9.13,9.72,9.13,9.71z"/>
					</g>
					<g>
						<path class="st5" d="M9.31,9.73c0.02-0.01,0.03-0.01,0.05-0.01c0.02,0,0.03,0,0.05,0.01c0.02,0.01,0.03,0.03,0.02,0.04
							c0,0.01-0.01,0.01-0.02,0.01C9.39,9.79,9.37,9.79,9.36,9.79c-0.02,0-0.03,0-0.05-0.01C9.29,9.78,9.29,9.76,9.3,9.74
							C9.3,9.74,9.31,9.73,9.31,9.73z"/>
					</g>
					<g>
						<path class="st5" d="M9.63,9.73c0.02-0.01,0.03-0.01,0.05-0.01c0.02,0,0.03,0,0.05,0.01c0.02,0.01,0.03,0.02,0.02,0.04
							c0,0.01-0.01,0.01-0.02,0.01C9.71,9.79,9.7,9.79,9.68,9.79c-0.02,0-0.03,0-0.05-0.01C9.62,9.78,9.61,9.76,9.62,9.75
							C9.62,9.74,9.63,9.74,9.63,9.73z"/>
					</g>
					<g>
						<path class="st5" d="M9.86,9.72c0.01-0.01,0.02-0.01,0.03-0.01c0.01,0,0.02,0,0.03,0.01c0.02,0.01,0.02,0.03,0.01,0.05
							c0,0,0,0-0.01,0.01C9.91,9.78,9.9,9.78,9.89,9.78c-0.01,0-0.02,0-0.03-0.01C9.85,9.77,9.84,9.74,9.86,9.72
							C9.86,9.72,9.86,9.72,9.86,9.72z"/>
					</g>
					<g>
						<path class="st5" d="M10.05,9.71c0.01-0.01,0.02-0.01,0.03-0.01c0.01,0,0.02,0,0.03,0c0.02,0.01,0.03,0.03,0.01,0.05
							c0,0,0,0-0.01,0.01c-0.01,0.01-0.02,0.01-0.03,0.01c-0.01,0-0.02,0-0.03,0C10.04,9.75,10.03,9.73,10.05,9.71
							C10.05,9.71,10.05,9.71,10.05,9.71z"/>
					</g>
				</g>
				<g>
					<g>
						<path class="st5" d="M7.76,8.63c0.04,0.12,0.1,0.24,0.17,0.36C8,9.1,8.08,9.21,8.17,9.3c0.09,0.1,0.2,0.17,0.31,0.23
							c0.12,0.06,0.24,0.1,0.37,0.14c0.02,0,0.03,0.02,0.03,0.04c0,0.01-0.02,0.02-0.04,0.02C8.7,9.7,8.57,9.66,8.45,9.6
							C8.33,9.53,8.21,9.46,8.11,9.35c-0.09-0.1-0.17-0.21-0.24-0.33C7.8,8.9,7.75,8.78,7.71,8.65c-0.01-0.02,0-0.04,0.02-0.04
							C7.74,8.6,7.76,8.61,7.76,8.63z"/>
					</g>
					<g>
						<path class="st5" d="M7.69,8.56C7.68,8.55,7.67,8.53,7.67,8.52c0-0.01-0.01-0.03,0-0.04c0-0.02,0.02-0.03,0.04-0.02
							c0.01,0,0.01,0.01,0.01,0.01C7.73,8.48,7.73,8.49,7.74,8.5c0,0.01,0.01,0.03,0,0.04c0,0.02-0.02,0.03-0.04,0.03
							C7.7,8.56,7.69,8.56,7.69,8.56z"/>
					</g>
					<g>
						<path class="st5" d="M7.65,8.41C7.64,8.39,7.64,8.38,7.63,8.37c0-0.01,0-0.03,0-0.04C7.64,8.31,7.66,8.3,7.67,8.3
							c0.01,0,0.01,0.01,0.01,0.01C7.7,8.33,7.7,8.34,7.7,8.35c0,0.01,0,0.03,0,0.04c0,0.02-0.02,0.03-0.04,0.02
							C7.66,8.42,7.65,8.41,7.65,8.41z"/>
					</g>
					<g>
						<path class="st5" d="M7.62,8.26C7.6,8.2,7.59,8.15,7.59,8.09C7.58,8.04,7.57,7.99,7.57,7.93c0-0.02,0.01-0.03,0.03-0.03
							c0.01,0,0.02,0.01,0.03,0.03c0.01,0.05,0.02,0.11,0.03,0.16c0.01,0.05,0.02,0.11,0.02,0.16c0,0.02-0.01,0.03-0.03,0.03
							C7.63,8.28,7.62,8.27,7.62,8.26z"/>
					</g>
					<g>
						<path class="st5" d="M7.55,7.79C7.55,7.79,7.55,7.78,7.54,7.77c0-0.01,0-0.02,0-0.03C7.56,7.72,7.59,7.72,7.6,7.74l0,0
							c0.01,0.01,0.01,0.02,0.01,0.02c0,0.01,0,0.02,0,0.03C7.6,7.81,7.57,7.81,7.55,7.79L7.55,7.79z"/>
					</g>
					<g>
						<path class="st5" d="M7.53,7.63C7.53,7.62,7.52,7.62,7.52,7.61c0-0.01,0-0.02,0-0.03c0.01-0.02,0.04-0.02,0.05-0.01l0,0
							C7.59,7.58,7.59,7.59,7.59,7.6c0,0.01,0,0.02,0,0.03C7.58,7.64,7.55,7.65,7.53,7.63L7.53,7.63z"/>
					</g>
				</g>
			</g>
		</g>
		<g>
			<path class="st3" d="M9.83,8.27c-0.57-0.3-1.03-0.78-1.32-1.36C8.34,6.56,8.23,6.17,8.26,5.77c0.07-1.01,1.27-1.82,2.05-0.9
				c0.35,0.42,0.44,0.98,0.62,1.48c0.13,0.34,0.31,0.66,0.62,0.87c0.32,0.22,0.99,0.35,0.98,0.85C12.5,9.14,10.28,8.51,9.83,8.27z"
				/>
			<g>
				<g>
					<g>
						<path class="st5" d="M10.38,5.5c0.01,0.01,0.02,0.02,0.03,0.04c0.01,0.01,0.01,0.03,0.01,0.04c0,0.02-0.01,0.03-0.03,0.03
							c-0.01,0-0.01,0-0.02-0.01c-0.01-0.01-0.02-0.02-0.02-0.03c-0.01-0.01-0.01-0.03-0.01-0.04c0-0.02,0.01-0.03,0.03-0.03
							C10.37,5.49,10.37,5.5,10.38,5.5z"/>
					</g>
					<g>
						<path class="st5" d="M10.45,5.65c0.01,0.01,0.02,0.02,0.02,0.04c0,0.01,0.01,0.03,0.01,0.04c0,0.02-0.02,0.03-0.03,0.03
							c-0.01,0-0.01,0-0.02-0.01c-0.01-0.01-0.02-0.02-0.02-0.04c0-0.01-0.01-0.03-0.01-0.04c0-0.02,0.01-0.03,0.03-0.03
							C10.43,5.64,10.44,5.64,10.45,5.65z"/>
					</g>
					<g>
						<path class="st5" d="M10.51,5.8c0.01,0.01,0.02,0.02,0.02,0.04c0,0.01,0.01,0.03,0.01,0.04c0,0.02-0.02,0.03-0.03,0.03
							c-0.01,0-0.01,0-0.02-0.01c-0.01-0.01-0.02-0.02-0.02-0.04c0-0.01-0.01-0.03-0.01-0.04c0-0.02,0.02-0.03,0.03-0.03
							C10.5,5.79,10.5,5.79,10.51,5.8z"/>
					</g>
					<g>
						<path class="st5" d="M10.61,6.07c0.01,0.01,0.02,0.02,0.02,0.04c0,0.01,0.01,0.03,0.01,0.04c0,0.02-0.02,0.03-0.04,0.03
							c-0.01,0-0.01,0-0.02-0.01c-0.01-0.01-0.02-0.02-0.02-0.04c0-0.01-0.01-0.03-0.01-0.04c0-0.02,0.02-0.03,0.03-0.03
							C10.6,6.06,10.6,6.06,10.61,6.07z"/>
					</g>
					<g>
						<path class="st5" d="M10.67,6.26c0.01,0.01,0.01,0.01,0.02,0.02c0,0.01,0,0.02,0,0.03c-0.01,0.02-0.03,0.03-0.05,0.02
							c0,0,0,0-0.01,0c-0.01-0.01-0.01-0.01-0.01-0.02c0-0.01,0-0.02,0-0.03C10.63,6.26,10.65,6.25,10.67,6.26
							C10.67,6.26,10.67,6.26,10.67,6.26z"/>
					</g>
					<g>
						<path class="st5" d="M10.72,6.43c0.01,0.01,0.01,0.01,0.01,0.02c0,0.01,0,0.02,0,0.03c-0.01,0.02-0.03,0.03-0.05,0.02
							c0,0,0,0-0.01,0c-0.01-0.01-0.01-0.01-0.01-0.02c0-0.01,0-0.02,0-0.03C10.67,6.42,10.69,6.41,10.72,6.43
							C10.71,6.42,10.72,6.42,10.72,6.43z"/>
					</g>
				</g>
				<g>
					<g>
						<path class="st5" d="M9.23,4.68c0.12-0.04,0.25-0.05,0.36-0.02c0.12,0.02,0.23,0.09,0.32,0.17c0.09,0.08,0.17,0.18,0.24,0.27
							c0.07,0.1,0.13,0.2,0.18,0.31c0.01,0.01,0,0.03-0.01,0.04c-0.01,0.01-0.03,0-0.04-0.01c-0.06-0.1-0.12-0.2-0.18-0.3
							c-0.07-0.1-0.14-0.18-0.23-0.26C9.78,4.81,9.69,4.75,9.58,4.72C9.47,4.7,9.35,4.7,9.25,4.73c-0.01,0-0.03,0-0.04-0.02
							C9.2,4.7,9.21,4.68,9.23,4.68z"/>
					</g>
					<g>
						<path class="st5" d="M9.17,4.76C9.16,4.77,9.15,4.77,9.14,4.78c-0.01,0-0.02,0.01-0.03,0.01c-0.02,0-0.03-0.01-0.03-0.03
							c0-0.01,0-0.01,0-0.02C9.09,4.73,9.1,4.72,9.11,4.72C9.12,4.71,9.13,4.7,9.15,4.7c0.02,0,0.03,0.02,0.03,0.03
							C9.18,4.74,9.17,4.75,9.17,4.76z"/>
					</g>
					<g>
						<path class="st5" d="M9.06,4.82C9.05,4.84,9.05,4.84,9.04,4.85C9.03,4.86,9.02,4.86,9.01,4.87c-0.02,0-0.04-0.01-0.04-0.02
							c0-0.01,0-0.01,0-0.02c0-0.01,0.01-0.02,0.02-0.03C9,4.79,9.01,4.78,9.03,4.78c0.02,0,0.04,0.01,0.04,0.03
							C9.06,4.81,9.06,4.82,9.06,4.82z"/>
					</g>
					<g>
						<path class="st5" d="M8.96,4.91C8.93,4.95,8.9,4.99,8.88,5.02C8.85,5.06,8.82,5.1,8.79,5.14C8.78,5.15,8.76,5.15,8.75,5.14
							C8.74,5.13,8.74,5.12,8.74,5.11c0.02-0.05,0.05-0.09,0.08-0.13c0.03-0.04,0.06-0.08,0.1-0.11c0.01-0.01,0.03-0.01,0.04,0
							C8.97,4.89,8.97,4.9,8.96,4.91z"/>
					</g>
					<g>
						<path class="st5" d="M8.73,5.24c0,0.01,0,0.02,0,0.02c0,0.01-0.01,0.01-0.02,0.02c-0.02,0.01-0.04,0-0.05-0.02l0,0
							c0-0.01,0-0.02,0-0.02c0-0.01,0.01-0.01,0.02-0.02C8.7,5.21,8.73,5.22,8.73,5.24L8.73,5.24z"/>
					</g>
					<g>
						<path class="st5" d="M8.68,5.37c0,0.01,0,0.02,0,0.02c0,0.01-0.01,0.01-0.01,0.02c-0.02,0.01-0.04,0-0.05-0.02l0,0
							c0-0.01,0-0.02,0-0.02c0-0.01,0.01-0.01,0.02-0.02C8.64,5.34,8.67,5.35,8.68,5.37L8.68,5.37z"/>
					</g>
				</g>
			</g>
		</g>
	</g>
	<path class="st6" d="M15.92,13.23c0,0.66-3.55,1.19-7.92,1.19s-7.92-0.53-7.92-1.19S15.92,12.57,15.92,13.23z"/>
	<path class="st6" d="M9.9,13.71c0,0.01,0,0.02,0,0.03l-4.7-0.24c0.02-0.01,0.05-0.03,0.07-0.05c0.55-0.4-0.75-0.42-1.32-0.35
		c-0.58,0.07-2,0.1-2,0.1s-1.16,0-0.95,0.21c0.21,0.2,0.42,0.22,0.78,0.21c0.35-0.01,0.76-0.14,1.46-0.15l1.36,0.54H9.7l0.25-0.13
		c0.2,0.26,0.87,0.43,1.65,0.39c0.93-0.05,1.66-0.37,1.64-0.72C13.23,13.17,9.88,13.36,9.9,13.71z"/>
	<g>
		<g>
			<g>
				<g>
					<path class="st7" d="M12.47,12.72c0,0-0.03,0.13-0.31,0.19c0,0,0.01,0.24-0.06,0.35c-0.25,0.36-0.33,0.37-0.31,0.43
						c0.02,0.07,0.27,0.03,0.49-0.08c0.22-0.11,0.28-0.32,0.28-0.32l0.04,0.02c0,0,0.13-0.1,0.17-0.18
						C12.79,13.03,12.47,12.72,12.47,12.72z"/>
					<path class="st8" d="M12.24,13.38c-0.14,0.12-0.28,0.21-0.44,0.25c0.04-0.05,0.13-0.13,0.29-0.37
						c0.08-0.11,0.06-0.35,0.06-0.35c0.08-0.02,0.14-0.04,0.18-0.07C12.39,13.03,12.39,13.23,12.24,13.38z"/>
				</g>
				<path class="st9" d="M12.57,12.75l-0.11-0.25c-0.48-0.91-0.7-1.05-0.93-1.28c0.23-0.54,0.87-1.47,0.88-1.49
					c0.41-0.73-0.42-1.2-0.98-0.46c-0.34,0.46-0.66,1.34-0.71,2.04c-0.01,0.06,0.01,0.11,0.06,0.15c0.32,0.32,0.57,0.51,0.73,0.68
					c0.42,0.45,0.6,0.91,0.6,0.91C12.21,13.16,12.66,12.85,12.57,12.75z"/>
			</g>
			<path class="st10" d="M12.52,12.88c0-0.01-0.42-0.79-0.61-1.05c-0.17-0.24-0.41-0.47-0.57-0.62c0.16-0.44,0.78-1.42,0.79-1.44
				c0-0.01,0-0.01-0.01-0.02c-0.01,0-0.01,0-0.02,0c-0.03,0.04-0.62,0.97-0.79,1.42c0,0,0,0,0,0c-0.01,0.03,0,0.03,0.01,0.04
				c0.16,0.15,0.39,0.37,0.56,0.61c0.18,0.26,0.6,1.04,0.61,1.04c0,0.01,0.01,0.01,0.02,0.01c0,0,0,0,0,0
				C12.52,12.89,12.53,12.89,12.52,12.88z"/>
		</g>
		<g>
			<g>
				<path class="st7" d="M12.52,13.36c0,0-0.09,0.12-0.35,0.06c0,0-0.09,0.25-0.2,0.32c-0.37,0.25-0.44,0.23-0.45,0.3
					c-0.01,0.07,0.22,0.14,0.46,0.12c0.24-0.02,0.38-0.2,0.38-0.2L12.38,14c0,0,0.16-0.04,0.22-0.11
					C12.67,13.82,12.52,13.36,12.52,13.36z"/>
				<path class="st8" d="M12.04,13.94C11.87,14,11.71,14.03,11.55,14c0.05-0.03,0.16-0.08,0.41-0.25c0.11-0.08,0.2-0.32,0.2-0.32
					c0.08,0.02,0.14,0.02,0.18,0.01C12.32,13.64,12.23,13.84,12.04,13.94z"/>
			</g>
			<g>
				<path d="M12.5,9.57c0,0.03-0.31,1.46-0.21,1.91c0.1,0.45,0.3,0.49,0.31,1.72l-0.01,0.27c0.03,0.13-0.52,0.24-0.55,0.11
					c0,0,0.04-0.49-0.13-1.05c-0.06-0.22-0.21-0.5-0.35-0.92c-0.23-0.67-0.29-1.6-0.15-2.14C11.63,8.58,12.59,8.76,12.5,9.57z"/>
				<g>
					<path class="st10" d="M12.47,13.58c0.01,0,0.01-0.01,0.01-0.01c0-0.01-0.02-0.88-0.07-1.18c-0.06-0.38-0.24-0.79-0.29-0.93
						c-0.11-0.29,0.14-1.73,0.14-1.74c0-0.01,0-0.01-0.01-0.01c-0.01,0-0.01,0-0.01,0.01c-0.01,0.06-0.25,1.46-0.14,1.75
						c0.05,0.14,0.23,0.55,0.29,0.93c0.05,0.3,0.07,1.17,0.07,1.18C12.45,13.58,12.46,13.58,12.47,13.58
						C12.47,13.58,12.47,13.58,12.47,13.58z"/>
				</g>
			</g>
		</g>
		<path class="st11" d="M11.29,9.48c0,0-0.13,0.25,0.05,0.35c0.18,0.1,1.1,0.26,1.14-0.15C12.52,9.26,11.29,9.48,11.29,9.48"/>
		<g>
			<g>
				<path class="st7" d="M12.6,6.79c0,0,0.39,0.25,0.46,0.4c0.07,0.15,0.06,0.45-0.06,0.74c-0.13,0.29-0.41,0.84-0.41,0.84
					s0.03,0.53-0.02,0.86c-0.04,0.28-1.35,0.11-1.34-0.15c0-0.23,0.25-0.85,0.27-0.85c0,0,0.06-0.78,0.1-0.95
					c0.05-0.17,0.22-0.56,0.35-0.66C12.07,6.93,12.6,6.79,12.6,6.79z"/>
				<path class="st12" d="M12.24,7.01c0,0-0.24,2.4-0.32,2.51c-0.08,0.11-0.6-0.22-0.6-0.22L12.24,7.01z"/>
			</g>
			<path class="st13" d="M12.12,7.12c0.04,0.08,0.21,0.09,0.37,0.01s0.26-0.21,0.22-0.3c-0.04-0.08-0.21-0.09-0.37-0.01
				C12.18,6.9,12.08,7.03,12.12,7.12z"/>
			<g>
				<path class="st14" d="M12.69,6.52c0,0.01,0,0.34,0,0.4c-0.07,0.04-0.09,0.05-0.17,0.11c-0.12,0.06-0.27,0.12-0.36,0.07
					l0.07-0.45L12.69,6.52z"/>
				<g>
					<path d="M12.65,6.72c0,0,0.14-0.11,0.28-0.31c0.15-0.2,0.16-0.53-0.1-0.73c-0.26-0.2-0.57-0.13-0.7,0.09
						C12.01,5.98,12.14,6.34,12.65,6.72z"/>
					<path class="st15" d="M12.65,6.52c0,0-0.11,0.34-0.35,0.35c-0.19,0.01-0.07-0.33-0.07-0.33S12.25,6.31,12.65,6.52z"/>
					<g>
						<path class="st14" d="M12.65,5.71c0,0-0.26-0.11-0.44,0.06c-0.18,0.17-0.14,0.31-0.16,0.37s-0.18,0.49,0.02,0.56
							c0.22,0.08,0.46-0.02,0.55-0.16c0,0,0.16,0.05,0.23-0.06c0.07-0.12-0.02-0.25-0.13-0.14C12.71,6.34,12.99,5.89,12.65,5.71z"/>
						<path class="st15" d="M12.71,6.47c0,0,0.01-0.14,0.08-0.12c0.07,0.02,0.03,0.17-0.07,0.17l0.02-0.05L12.71,6.47z"/>
					</g>
					<g>
						<path d="M12.08,6.38c0,0-0.01,0.05-0.04,0.04c-0.03-0.01-0.06-0.04-0.07-0.04c-0.01,0.01-0.02,0-0.02-0.02
							C11.96,6.35,11.96,6.28,12.08,6.38z"/>
						<path d="M12.08,6.38c0,0,0.13,0,0.2,0.01c0.06,0.01,0.11,0.03,0.12,0.16c0.01,0.12-0.04,0.02-0.04,0.02s-0.02-0.08-0.05-0.11
							c-0.04-0.02-0.18,0.01-0.21-0.01C12.06,6.42,12.08,6.38,12.08,6.38z"/>
					</g>
					<path d="M12.71,6.34c0,0-0.03,0.05-0.03,0.07c-0.01,0.02-0.05-0.01,0-0.12c0.05-0.11-0.02-0.15-0.01-0.22
						c0.01-0.07,0.05-0.11,0.06-0.14c0,0,0.04-0.08-0.16-0.1c-0.2-0.02-0.31-0.04-0.33-0.1c-0.03-0.06-0.02-0.28,0.36-0.2
						C12.95,5.62,12.97,6.06,12.71,6.34z"/>
					<g>
						<g>
							<path d="M12.24,6.18c-0.01,0.02,0,0.05,0.02,0.05c0.02,0,0.04-0.01,0.04-0.04c0.01-0.02,0-0.05-0.02-0.05
								C12.27,6.14,12.25,6.16,12.24,6.18z"/>
							<path d="M12.39,6.15c0,0-0.04-0.05-0.08-0.07c-0.04-0.02-0.06-0.01-0.06-0.01l-0.01-0.05c0,0,0.06,0,0.1,0.03
								c0.05,0.03,0.06,0.07,0.06,0.07L12.39,6.15z"/>
						</g>
						<g>
							<path d="M12.06,6.14c-0.01,0.02,0,0.05,0.01,0.05c0.01,0,0.03-0.01,0.04-0.04c0.01-0.02,0-0.05-0.01-0.05
								C12.08,6.1,12.06,6.12,12.06,6.14z"/>
							<path d="M12.17,6l-0.02,0.05c0,0-0.02-0.01-0.06,0c-0.01,0-0.02,0.01-0.03,0.01c-0.01,0,0-0.04,0.01-0.05
								C12.12,5.99,12.17,6,12.17,6z"/>
						</g>
						<path class="st15" d="M12.15,6.05c0,0,0.01,0.06,0,0.08c-0.01,0.03-0.11,0.12-0.12,0.15c-0.01,0.03,0.07,0.1,0.07,0.1
							s-0.11-0.04-0.1-0.1c0.01-0.04,0.13-0.14,0.13-0.15C12.15,6.11,12.15,6.05,12.15,6.05z"/>
						<g>
							<path class="st15" d="M12.29,6.46c-0.06,0.01-0.11,0.01-0.17,0.01c-0.03,0-0.05-0.01-0.08-0.02C12.02,6.43,12,6.42,11.99,6.4
								l0,0c0,0,0,0-0.01,0c0,0,0,0,0,0.01c0.01,0.03,0.04,0.05,0.06,0.06c0.03,0.02,0.06,0.02,0.08,0.03c0.03,0,0.06,0,0.09,0
								C12.24,6.48,12.27,6.48,12.29,6.46C12.3,6.47,12.3,6.46,12.29,6.46C12.3,6.46,12.29,6.46,12.29,6.46z"/>
							<path class="st15" d="M12.29,6.49c0.01-0.01,0.01-0.01,0.02-0.03c0-0.01,0-0.01-0.01-0.02c0,0-0.01,0-0.01-0.01c0,0,0,0,0,0
								c0,0,0,0,0,0c0.01,0.01,0.01,0.01,0.01,0.02C12.29,6.47,12.29,6.48,12.29,6.49L12.29,6.49C12.28,6.49,12.28,6.49,12.29,6.49
								C12.29,6.49,12.29,6.49,12.29,6.49z"/>
						</g>
					</g>
					<path d="M12.67,6.41c0,0-0.05,0.52-0.61,0.38c-0.12-0.03-0.2-0.12-0.18-0.27c0.03-0.18,0.11-0.17,0.11-0.17l-0.02,0.1
						c0,0-0.02,0.05,0.09,0.09c0.11,0.04,0.45,0.06,0.59-0.15L12.67,6.41z"/>
				</g>
			</g>
		</g>
		<g>
			<path class="st16" d="M9.26,9.06c0.05,0,2.45,0.33,2.45,0.33l0.53-2.38L9.77,6.58L9.26,9.06z"/>
			<g>
				<g>
					<circle class="st17" cx="9.9" cy="6.75" r="0.06"/>
					<circle class="st18" cx="9.9" cy="6.74" r="0.05"/>
					<rect x="9.89" y="6.71" class="st19" width="0.02" height="0.09"/>
					
						<rect x="9.89" y="6.71" transform="matrix(-1.836970e-16 1 -1 -1.836970e-16 16.654 -3.1469)" class="st19" width="0.02" height="0.09"/>
				</g>
				<g>
					<path class="st17" d="M9.47,8.96c0,0.03-0.03,0.06-0.06,0.06S9.35,8.99,9.35,8.96c0-0.03,0.03-0.06,0.06-0.06
						S9.47,8.92,9.47,8.96z"/>
					<circle class="st18" cx="9.41" cy="8.95" r="0.05"/>
					<rect x="9.4" y="8.91" class="st19" width="0.02" height="0.09"/>
					
						<rect x="9.4" y="8.91" transform="matrix(-1.836970e-16 1 -1 -1.836970e-16 18.3711 -0.4528)" class="st19" width="0.02" height="0.09"/>
				</g>
				<g>
					<path class="st17" d="M12.14,7.11c0,0.03-0.03,0.06-0.06,0.06c-0.03,0-0.06-0.03-0.06-0.06c0-0.03,0.03-0.06,0.06-0.06
						C12.12,7.05,12.14,7.08,12.14,7.11z"/>
					<circle class="st18" cx="12.08" cy="7.1" r="0.05"/>
					<rect x="12.07" y="7.07" class="st19" width="0.02" height="0.09"/>
					
						<rect x="12.07" y="7.07" transform="matrix(-1.836970e-16 1 -1 -1.836970e-16 19.1926 -4.973)" class="st19" width="0.02" height="0.09"/>
				</g>
			</g>
			<g>
				<path class="st17" d="M11.66,9.26c0,0.03-0.03,0.06-0.06,0.06c-0.03,0-0.06-0.03-0.06-0.06c0-0.03,0.03-0.06,0.06-0.06
					C11.64,9.19,11.66,9.22,11.66,9.26z"/>
				<circle class="st18" cx="11.6" cy="9.25" r="0.05"/>
				<rect x="11.59" y="9.21" class="st19" width="0.02" height="0.09"/>
				
					<rect x="11.59" y="9.21" transform="matrix(-1.836970e-16 1 -1 -1.836970e-16 20.8592 -2.347)" class="st19" width="0.02" height="0.09"/>
			</g>
			<polygon class="st20" points="9.26,9.06 8.83,8.39 9.27,6.04 9.77,6.58 			"/>
			<polygon class="st21" points="12.24,7.01 11.53,6.45 9.27,6.04 9.77,6.58 			"/>
			<path class="st22" d="M12.24,7c-0.41-0.08-0.82-0.15-1.23-0.22c-0.41-0.07-0.82-0.14-1.23-0.2c0,0,0,0,0,0
				c-0.17-0.18-0.33-0.35-0.5-0.53c0,0-0.01,0-0.01,0c0,0,0,0.01,0,0.01C9.43,6.23,9.59,6.4,9.76,6.58C9.67,6.99,9.58,7.4,9.5,7.82
				C9.42,8.23,9.33,8.64,9.25,9.06c0,0,0,0.01,0,0.01c0,0,0.01,0,0.01,0c0.09-0.41,0.18-0.83,0.26-1.24C9.62,7.41,9.7,7,9.78,6.59
				C10.19,6.66,10.6,6.73,11,6.81c0.41,0.07,0.82,0.14,1.24,0.21C12.25,7.01,12.25,7.01,12.24,7C12.25,7.01,12.25,7,12.24,7z"/>
		</g>
		<g>
			<path class="st14" d="M11.92,9.1l-0.14-0.35l-0.68,0.2c0,0-0.01-0.01-0.01-0.01c-0.17-0.1-0.23-0.11-0.3-0.16
				c-0.06-0.04-0.27,0.07-0.27,0.07s0,0.05,0.02,0.08c0.02,0.02,0.14-0.02,0.14-0.02l0.06,0.07c0,0-0.3,0.3-0.26,0.34
				c0.04,0.04,0.06,0.01,0.07,0.03c0.01,0.01,0.01,0.07,0.03,0.08c0.02,0.01,0.06-0.01,0.08,0c0.02,0.01,0.01,0.04,0.03,0.05
				c0.02,0.01,0.04-0.01,0.06-0.01c0.02,0.01,0.02,0.03,0.04,0.03c0.02,0,0.04,0,0.08-0.02s0.31-0.23,0.31-0.23c0,0,0,0,0,0
				L11.92,9.1z"/>
			<path class="st8" d="M12.79,7.14c0.03-0.01,0.37-0.03,0.37,0.32c0,0.36-0.62,1.49-0.76,1.54c-0.26,0.1-0.52,0.13-0.52,0.13
				c-0.1,0.03-0.21-0.4-0.11-0.43c0,0,0.2-0.12,0.26-0.15c0.09-0.03,0.4-1.11,0.47-1.2C12.52,7.35,12.67,7.16,12.79,7.14z"/>
			<path class="st12" d="M12.06,8.56c0.04,0.03,0.08,0.05,0.11,0.09c0.04,0.03,0.07,0.07,0.1,0.1c0,0,0.01,0,0.01,0c0,0,0,0,0-0.01
				c-0.02-0.05-0.05-0.08-0.09-0.12c-0.04-0.03-0.08-0.06-0.13-0.07C12.07,8.55,12.06,8.55,12.06,8.56
				C12.06,8.56,12.06,8.56,12.06,8.56z"/>
			<path class="st12" d="M12.05,8.59c0.01,0.05,0.04,0.09,0.06,0.13c0.02,0.04,0.04,0.08,0.07,0.12c0,0,0.01,0,0.01,0
				c0,0,0,0,0-0.01c-0.01-0.05-0.04-0.09-0.06-0.13c-0.02-0.04-0.04-0.08-0.07-0.12C12.06,8.58,12.05,8.58,12.05,8.59
				C12.05,8.58,12.05,8.59,12.05,8.59z"/>
		</g>
	</g>
	<g>
		<polygon class="st23" points="7.42,13.74 6.64,13.42 6.63,10.75 7.42,10.99 		"/>
		<rect x="7.42" y="10.99" class="st24" width="2.75" height="2.75"/>
		<g>
			<g>
				<path class="st17" d="M7.62,11.14c0,0.03-0.03,0.06-0.06,0.06c-0.03,0-0.06-0.03-0.06-0.06s0.03-0.06,0.06-0.06
					C7.6,11.09,7.62,11.11,7.62,11.14z"/>
				<circle class="st18" cx="7.56" cy="11.14" r="0.05"/>
				<rect x="7.56" y="11.1" class="st19" width="0.02" height="0.08"/>
				
					<rect x="7.56" y="11.1" transform="matrix(-1.836970e-16 1 -1 -1.836970e-16 18.7085 3.5807)" class="st19" width="0.02" height="0.08"/>
			</g>
			<g>
				<path class="st17" d="M7.61,13.61c0,0.03-0.03,0.06-0.06,0.06S7.5,13.64,7.5,13.61s0.03-0.06,0.06-0.06S7.61,13.57,7.61,13.61z"
					/>
				<circle class="st18" cx="7.56" cy="13.6" r="0.05"/>
				<rect x="7.55" y="13.56" class="st19" width="0.02" height="0.08"/>
				
					<rect x="7.55" y="13.56" transform="matrix(-1.836970e-16 1 -1 -1.836970e-16 21.1611 6.0506)" class="st19" width="0.02" height="0.08"/>
			</g>
			<g>
				<path class="st17" d="M10.08,13.61c0,0.03-0.03,0.06-0.06,0.06s-0.06-0.03-0.06-0.06s0.03-0.06,0.06-0.06
					S10.08,13.57,10.08,13.61z"/>
				<circle class="st18" cx="10.02" cy="13.6" r="0.05"/>
				<rect x="10.01" y="13.56" class="st19" width="0.02" height="0.08"/>
				
					<rect x="10.01" y="13.56" transform="matrix(-1.836970e-16 1 -1 -1.836970e-16 23.6248 3.5875)" class="st19" width="0.02" height="0.08"/>
			</g>
			<g>
				<path class="st17" d="M10.07,11.13c0,0.03-0.03,0.06-0.06,0.06s-0.06-0.03-0.06-0.06c0-0.03,0.03-0.06,0.06-0.06
					S10.07,11.1,10.07,11.13z"/>
				<circle class="st18" cx="10.01" cy="11.13" r="0.05"/>
				<rect x="10" y="11.09" class="st19" width="0.02" height="0.08"/>
				
					<rect x="10" y="11.09" transform="matrix(-1.836970e-16 1 -1 -1.836970e-16 21.1455 1.1249)" class="st19" width="0.02" height="0.08"/>
			</g>
		</g>
		<polygon class="st25" points="10.17,10.99 9.09,10.75 6.63,10.75 7.42,10.99 		"/>
		<path class="st22" d="M10.17,11c-0.23,0-0.46,0.01-0.69,0.01l-0.69,0c-0.23,0-0.46,0-0.69,0l-0.69,0l0,0l0,0l-0.39-0.12
			l-0.39-0.13l0-0.02l0.4,0.11l0.4,0.12l0,0l0.69,0c0.23,0,0.46,0,0.69,0l0.69,0c0.23,0,0.46,0,0.69,0.01V11z"/>
		<g class="st26">
			<path class="st5" d="M7.41,13.74c-0.01-0.46-0.01-0.92-0.01-1.37c0-0.46,0-0.92,0.01-1.37h0.01c0.01,0.46,0.01,0.92,0.01,1.37
				c0,0.46,0,0.92-0.01,1.37H7.41z"/>
		</g>
	</g>
	<path class="st27" d="M3.38,12.67c0,0-0.05,0.22-0.1,0.31s-0.05,0.21-0.04,0.26s0.25,0.07,0.33,0.04c0.08-0.02,0.26,0.08,0.41,0.09
		c0.15,0.02,0.31-0.02,0.32-0.05c0.01-0.02,0.02-0.13-0.17-0.17c-0.19-0.04-0.37-0.19-0.43-0.33C3.64,12.69,3.38,12.67,3.38,12.67z"
		/>
	<path class="st9" d="M3.82,12.38c0.13-0.42,0.39-1.05,0.33-1.24C4.12,11,4.09,10.93,4.03,10.89c-0.07-0.05-0.14-0.07-0.5-0.1
		c-0.51-0.04-0.96-0.04-0.96-0.04s-0.98-0.33-1.04-0.06c-0.15,0.66,0.42,0.89,0.81,0.88c0.24,0,0.78-0.03,1.18-0.05
		c-0.02,0.06-0.04,0.14-0.04,0.22c-0.02,0.24-0.06,0.74-0.14,1.01c0,0,0.14,0.22,0.49,0.14C3.82,12.9,3.69,12.8,3.82,12.38z"/>
	<path class="st28" d="M2.57,10.76c0,0-0.98-0.33-1.04-0.06c-0.15,0.66,0.42,0.89,0.81,0.88c0.03,0,0.07,0,0.11,0
		c-0.04-0.19,0.05-0.36,0.2-0.48c0.35-0.21,0.8-0.2,1.21-0.27c-0.07-0.01-0.17-0.02-0.33-0.03C3.02,10.76,2.57,10.76,2.57,10.76z"/>
	<g>
		<polygon class="st20" points="4.61,13.74 3.83,13.42 3.82,10.75 4.61,10.99 		"/>
		<rect x="4.61" y="10.99" class="st16" width="2.75" height="2.75"/>
		<g>
			<g>
				<path class="st17" d="M4.79,11.12c0,0.03-0.03,0.06-0.06,0.06s-0.06-0.03-0.06-0.06c0-0.03,0.03-0.06,0.06-0.06
					S4.79,11.09,4.79,11.12z"/>
				<circle class="st18" cx="4.73" cy="11.12" r="0.05"/>
				<rect x="4.72" y="11.08" class="st19" width="0.02" height="0.08"/>
				
					<rect x="4.72" y="11.08" transform="matrix(-1.836970e-16 1 -1 -1.836970e-16 15.8549 6.395)" class="st19" width="0.02" height="0.08"/>
			</g>
			<g>
				<path class="st17" d="M7.28,11.14c0,0.03-0.03,0.06-0.06,0.06c-0.03,0-0.06-0.03-0.06-0.06c0-0.03,0.03-0.06,0.06-0.06
					C7.26,11.09,7.28,11.11,7.28,11.14z"/>
				<path class="st18" d="M7.27,11.13c0,0.03-0.02,0.05-0.05,0.05c-0.03,0-0.05-0.02-0.05-0.05c0-0.03,0.02-0.05,0.05-0.05
					C7.25,11.09,7.27,11.11,7.27,11.13z"/>
				<rect x="7.22" y="11.1" class="st19" width="0.02" height="0.08"/>
				
					<rect x="7.22" y="11.1" transform="matrix(-1.836970e-16 1 -1 -1.836970e-16 18.3676 3.9176)" class="st19" width="0.02" height="0.08"/>
			</g>
			<g>
				<path class="st17" d="M7.28,13.61c0,0.03-0.03,0.06-0.06,0.06c-0.03,0-0.06-0.03-0.06-0.06c0-0.03,0.03-0.06,0.06-0.06
					C7.26,13.56,7.28,13.58,7.28,13.61z"/>
				<circle class="st18" cx="7.23" cy="13.61" r="0.05"/>
				<rect x="7.22" y="13.57" class="st19" width="0.02" height="0.08"/>
				
					<rect x="7.22" y="13.57" transform="matrix(-1.836970e-16 1 -1 -1.836970e-16 20.8394 6.3894)" class="st19" width="0.02" height="0.08"/>
			</g>
			<g>
				<path class="st17" d="M4.81,13.61c0,0.03-0.03,0.06-0.06,0.06s-0.06-0.03-0.06-0.06s0.03-0.06,0.06-0.06S4.81,13.58,4.81,13.61z
					"/>
				<circle class="st18" cx="4.75" cy="13.61" r="0.05"/>
				<rect x="4.74" y="13.57" class="st19" width="0.02" height="0.08"/>
				
					<rect x="4.74" y="13.57" transform="matrix(-1.836970e-16 1 -1 -1.836970e-16 18.3632 8.8638)" class="st19" width="0.02" height="0.08"/>
			</g>
		</g>
		<polygon class="st21" points="7.36,10.99 6.28,10.75 3.82,10.75 4.61,10.99 		"/>
		<path class="st22" d="M7.36,11c-0.23,0-0.46,0.01-0.69,0.01l-0.69,0c-0.23,0-0.46,0-0.69,0l-0.69,0l0,0l0,0l-0.39-0.12l-0.39-0.13
			l0-0.02l0.4,0.11l0.4,0.12l0,0l0.69,0c0.23,0,0.46,0,0.69,0l0.69,0c0.23,0,0.46,0,0.69,0.01V11z"/>
		<g class="st26">
			<path class="st5" d="M4.61,13.74C4.6,13.29,4.6,12.83,4.6,12.37c0-0.46,0-0.92,0.01-1.37h0.01c0.01,0.46,0.01,0.92,0.01,1.37
				c0,0.46,0,0.92-0.01,1.37H4.61z"/>
		</g>
	</g>
	<g>
		<polygon class="st29" points="3.36,15.84 2.58,15.51 2.57,12.85 3.36,13.09 		"/>
		<rect x="3.36" y="13.09" class="st30" width="2.75" height="2.75"/>
		<g>
			<g>
				<path class="st17" d="M3.57,13.24c0,0.03-0.03,0.06-0.06,0.06c-0.03,0-0.06-0.03-0.06-0.06s0.03-0.06,0.06-0.06
					C3.54,13.18,3.57,13.21,3.57,13.24z"/>
				<circle class="st18" cx="3.51" cy="13.23" r="0.05"/>
				<rect x="3.5" y="13.2" class="st19" width="0.02" height="0.08"/>
				
					<rect x="3.5" y="13.2" transform="matrix(-1.836970e-16 1 -1 -1.836970e-16 16.7489 9.7321)" class="st19" width="0.02" height="0.08"/>
			</g>
			<g>
				<path class="st17" d="M3.56,15.7c0,0.03-0.03,0.06-0.06,0.06c-0.03,0-0.06-0.03-0.06-0.06c0-0.03,0.03-0.06,0.06-0.06
					C3.53,15.64,3.56,15.67,3.56,15.7z"/>
				<path class="st18" d="M3.55,15.69c0,0.03-0.02,0.05-0.05,0.05c-0.03,0-0.05-0.02-0.05-0.05c0-0.03,0.02-0.05,0.05-0.05
					C3.53,15.65,3.55,15.67,3.55,15.69z"/>
				<rect x="3.49" y="15.66" class="st19" width="0.02" height="0.08"/>
				
					<rect x="3.49" y="15.66" transform="matrix(-1.836970e-16 1 -1 -1.836970e-16 19.2015 12.2021)" class="st19" width="0.02" height="0.08"/>
			</g>
			<g>
				<path class="st17" d="M6.02,15.7c0,0.03-0.03,0.06-0.06,0.06s-0.06-0.03-0.06-0.06c0-0.03,0.03-0.06,0.06-0.06
					S6.02,15.67,6.02,15.7z"/>
				<path class="st18" d="M6.01,15.69c0,0.03-0.02,0.05-0.05,0.05s-0.05-0.02-0.05-0.05c0-0.03,0.02-0.05,0.05-0.05
					S6.01,15.67,6.01,15.69z"/>
				<rect x="5.95" y="15.66" class="st19" width="0.02" height="0.08"/>
				
					<rect x="5.95" y="15.66" transform="matrix(-1.836970e-16 1 -1 -1.836970e-16 21.6652 9.739)" class="st19" width="0.02" height="0.08"/>
			</g>
			<g>
				<path class="st17" d="M6.01,13.23c0,0.03-0.03,0.06-0.06,0.06c-0.03,0-0.06-0.03-0.06-0.06s0.03-0.06,0.06-0.06
					C5.99,13.17,6.01,13.2,6.01,13.23z"/>
				<circle class="st18" cx="5.95" cy="13.22" r="0.05"/>
				<rect x="5.95" y="13.19" class="st19" width="0.02" height="0.08"/>
				
					<rect x="5.95" y="13.19" transform="matrix(-1.836970e-16 1 -1 -1.836970e-16 19.1859 7.2764)" class="st19" width="0.02" height="0.08"/>
			</g>
		</g>
		<polygon class="st31" points="6.11,13.09 5.03,12.85 2.57,12.85 3.36,13.09 		"/>
		<path class="st22" d="M6.11,13.1c-0.23,0-0.46,0.01-0.69,0.01l-0.69,0c-0.23,0-0.46,0-0.69,0l-0.69,0l0,0l0,0l-0.39-0.12
			l-0.39-0.13l0-0.02l0.4,0.11l0.4,0.12l0,0l0.69,0c0.23,0,0.46,0,0.69,0l0.69,0c0.23,0,0.46,0,0.69,0.01V13.1z"/>
		<g class="st26">
			<path class="st5" d="M3.36,15.84c-0.01-0.46-0.01-0.92-0.01-1.37c0-0.46,0-0.92,0.01-1.37h0.01c0.01,0.46,0.01,0.92,0.01,1.37
				c0,0.46,0,0.92-0.01,1.37H3.36z"/>
		</g>
	</g>
	<g>
		<path class="st32" d="M3.8,10.07c0,0,0.19-0.13,0.24-0.15C4.09,9.89,4.2,9.88,4.22,9.87c0.02,0,0.11-0.01,0.13,0.03
			c0.01,0.03-0.05,0.08-0.1,0.07c-0.05,0-0.1,0.03-0.1,0.03s-0.01,0.05,0.07,0.04c0.08-0.01,0.15-0.03,0.15-0.03
			s0.01-0.05,0.03-0.06c0.03-0.01,0.07,0.03,0.04,0.1c0,0,0.06,0.03,0.01,0.11c0,0,0.01,0.06-0.04,0.09
			c-0.04,0.03-0.08,0.02-0.08,0.02s0.03,0.03-0.01,0.05c-0.04,0.03-0.1,0.03-0.14,0.03c-0.04,0-0.3-0.04-0.3-0.04
			S3.59,10.23,3.8,10.07z"/>
		<path class="st8" d="M2.66,10.12L3.85,10c0,0,0.05,0.24,0.01,0.32c-0.04,0.08-1.36,0.3-1.36,0.3L2.66,10.12z"/>
	</g>
	<g>
		<polygon class="st20" points="4.61,10.82 3.84,10.55 3.99,7.89 4.77,8.07 		"/>
		
			<rect x="4.69" y="8.15" transform="matrix(0.9984 0.0569 -0.0569 0.9984 0.5521 -0.3299)" class="st16" width="2.75" height="2.75"/>
		<g>
			<g>
				<path class="st17" d="M4.95,8.21c0,0.03-0.03,0.06-0.06,0.06c-0.03,0-0.06-0.03-0.06-0.06c0-0.03,0.03-0.06,0.06-0.06
					C4.93,8.15,4.95,8.18,4.95,8.21z"/>
				<path class="st18" d="M4.94,8.2c0,0.03-0.02,0.05-0.05,0.05c-0.03,0-0.05-0.02-0.05-0.05c0-0.03,0.02-0.05,0.05-0.05
					C4.92,8.16,4.94,8.18,4.94,8.2z"/>
				<rect x="4.89" y="8.17" class="st19" width="0.02" height="0.08"/>
				
					<rect x="4.89" y="8.17" transform="matrix(-1.836970e-16 1 -1 -1.836970e-16 13.1072 3.3177)" class="st19" width="0.02" height="0.08"/>
			</g>
			<g>
				<path class="st17" d="M7.42,8.36c0,0.03-0.03,0.06-0.06,0.06c-0.03,0-0.06-0.03-0.06-0.06S7.33,8.3,7.36,8.3
					C7.39,8.3,7.42,8.33,7.42,8.36z"/>
				<path class="st18" d="M7.41,8.35c0,0.03-0.02,0.05-0.05,0.05c-0.03,0-0.05-0.02-0.05-0.05c0-0.03,0.02-0.05,0.05-0.05
					C7.39,8.31,7.41,8.33,7.41,8.35z"/>
				<rect x="7.35" y="8.32" class="st19" width="0.02" height="0.08"/>
				
					<rect x="7.35" y="8.32" transform="matrix(-1.836970e-16 1 -1 -1.836970e-16 15.7197 0.9992)" class="st19" width="0.02" height="0.08"/>
			</g>
			<g>
				<path class="st17" d="M7.27,10.82c0,0.03-0.03,0.06-0.06,0.06s-0.06-0.03-0.06-0.06s0.03-0.06,0.06-0.06S7.27,10.79,7.27,10.82z
					"/>
				<path class="st18" d="M7.26,10.81c0,0.03-0.02,0.05-0.05,0.05c-0.03,0-0.05-0.02-0.05-0.05c0-0.03,0.02-0.05,0.05-0.05
					C7.24,10.77,7.26,10.79,7.26,10.81z"/>
				<rect x="7.21" y="10.78" class="st19" width="0.02" height="0.08"/>
				
					<rect x="7.21" y="10.78" transform="matrix(-1.836970e-16 1 -1 -1.836970e-16 18.0362 3.6029)" class="st19" width="0.02" height="0.08"/>
			</g>
			<g>
				<path class="st17" d="M4.83,10.66c0,0.03-0.03,0.06-0.06,0.06c-0.03,0-0.06-0.03-0.06-0.06c0-0.03,0.03-0.06,0.06-0.06
					C4.8,10.6,4.83,10.63,4.83,10.66z"/>
				<path class="st18" d="M4.82,10.65c0,0.03-0.02,0.05-0.05,0.05c-0.03,0-0.05-0.02-0.05-0.05c0-0.03,0.02-0.05,0.05-0.05
					C4.8,10.61,4.82,10.63,4.82,10.65z"/>
				<rect x="4.76" y="10.62" class="st19" width="0.02" height="0.08"/>
				
					<rect x="4.76" y="10.62" transform="matrix(-1.836970e-16 1 -1 -1.836970e-16 15.432 5.8894)" class="st19" width="0.02" height="0.08"/>
			</g>
		</g>
		<polygon class="st21" points="7.52,8.23 6.45,8.04 3.99,7.89 4.77,8.07 		"/>
		<path class="st22" d="M7.52,8.24C7.29,8.23,7.06,8.22,6.83,8.21L6.14,8.17C5.91,8.16,5.69,8.15,5.46,8.13L4.77,8.09l0,0l0,0
			L3.99,7.9l0.01-0.02l0.78,0.17l0,0l0.69,0.04C5.69,8.1,5.92,8.12,6.15,8.13l0.69,0.04c0.23,0.01,0.46,0.03,0.69,0.05L7.52,8.24z"
			/>
		<g class="st26">
			<path class="st5" d="M4.61,10.82c0.02-0.46,0.05-0.92,0.07-1.37c0.03-0.46,0.05-0.92,0.09-1.37l0.01,0
				C4.76,8.53,4.73,8.99,4.71,9.45c-0.03,0.46-0.05,0.92-0.09,1.37L4.61,10.82z"/>
		</g>
	</g>
	<g>
		<g>
			<path d="M2.43,8.22c0.04-0.15,0.12-0.32,0.26-0.4c0.24-0.15,0.62-0.08,0.83,0.1c0.15,0.12,0.22,0.32,0.19,0.51
				C3.69,8.54,3.63,8.65,3.58,8.76C3.54,8.87,3.5,8.99,3.53,9.11c0.02,0.1,0.09,0.18,0.12,0.27c0.05,0.18-0.11,0.71-0.28,0.78
				c-0.17,0.07-0.4-0.09-0.52-0.34c-0.08-0.16-0.2-0.35-0.25-0.52C2.53,9.11,2.54,8.92,2.51,8.73C2.5,8.65,2.45,8.58,2.43,8.5
				C2.41,8.41,2.41,8.31,2.43,8.22z"/>
			<g>
				<g>
					<path class="st7" d="M1.94,12.3c0,0-0.21-0.01-0.33,0.06c-0.11,0.07-0.04,0.37-0.04,0.37s-0.04,0.39,0.02,0.48
						c0.05,0.09,0.26,0.28,0.47,0.24c0.21-0.04-0.02-0.33-0.02-0.33s-0.06-0.31,0.05-0.52C2.2,12.38,1.94,12.3,1.94,12.3z"/>
					<path d="M3.84,11.72c-0.09,0.39-0.91,0.51-1.19,0.65c-0.27,0.13-0.42,0.27-0.54,0.31c-0.12,0.04-0.32-0.39-0.15-0.44
						c0.17-0.05,0.58-0.32,0.58-0.32c-0.67-0.04-0.92-0.14-1.05-0.41c-0.12-0.26,0.02-0.58,0.02-0.58s0.03,0,0.23,0.02
						c0.11,0.01,0.28,0.03,0.52,0.06c0.03,0,0.05,0.01,0.08,0.01c0.42,0.06,0.92,0.17,1.23,0.34C3.77,11.46,3.88,11.58,3.84,11.72z"
						/>
					<path class="st33" d="M2.71,11.78l-0.17,0.14c-0.67-0.04-0.92-0.14-1.05-0.41c-0.12-0.26,0.02-0.58,0.02-0.58s0.03,0,0.23,0.02
						c-0.05,0.13-0.13,0.39,0.03,0.54C2,11.68,2.71,11.78,2.71,11.78z"/>
					<path class="st33" d="M2.8,11.76c0.07-0.04,0.12-0.05,0.12-0.07c0-0.02-0.15,0.05-0.2,0.08c-0.11,0.07-0.17,0.14-0.17,0.14
						c0,0,0,0,0,0c0,0,0,0,0,0c0.09-0.04,0.18-0.09,0.27-0.12c0.15-0.06,0.27-0.08,0.27-0.1C3.08,11.67,2.88,11.73,2.8,11.76z"/>
				</g>
				<g>
					<path class="st28" d="M1.71,10.83c0,0-0.24,0.08-0.18,0.24c0.06,0.16,1.08,0.26,1.2,0.15c0.11-0.11-0.07-0.46-0.07-0.46
						L1.71,10.83z"/>
					<g>
						<path class="st7" d="M2.42,8.85c0,0-0.18,0-0.34,0.18c-0.26,0.29-0.27,0.9-0.38,1.37c-0.03,0.12-0.16,0.26-0.18,0.33
							c-0.11,0.29,0.06,0.33,0.28,0.36c0.94,0.13,0.89-0.01,0.88-0.22l-0.01-0.11c0,0,0.11-0.5,0.18-0.57
							c0.07-0.07,0.2-0.19,0.22-0.35c0.02-0.17-0.21-0.82-0.31-0.89C2.65,8.86,2.58,8.84,2.42,8.85z"/>
						<path class="st8" d="M2.05,9.44c0,0,0.27,1.01,0.54,1.06C2.86,10.54,2.79,9.85,2.05,9.44z"/>
						<path class="st5" d="M2.44,8.96C2.34,8.98,2.26,9.04,2.2,9.12C2.14,9.19,2.1,9.28,2.07,9.38C2.01,9.56,2,9.76,1.98,9.96
							c-0.01,0.1-0.01,0.2-0.02,0.29c-0.01,0.05-0.01,0.1-0.02,0.15c-0.01,0.05-0.03,0.1-0.05,0.14c-0.06,0.08-0.12,0.16-0.16,0.25
							c-0.02,0.04-0.04,0.09-0.05,0.14c-0.01,0.05,0,0.1,0.01,0.14c0,0,0,0.01,0,0.01c0,0-0.01,0-0.01,0
							c-0.02-0.05-0.02-0.1-0.02-0.15c0.01-0.05,0.02-0.1,0.04-0.14c0.04-0.09,0.1-0.17,0.16-0.25c0.03-0.04,0.04-0.09,0.05-0.13
							c0.01-0.05,0.02-0.1,0.02-0.14c0.01-0.1,0.01-0.2,0.02-0.29c0.01-0.2,0.03-0.39,0.09-0.58c0.03-0.09,0.07-0.19,0.14-0.26
							C2.25,9.03,2.34,8.97,2.44,8.96C2.44,8.95,2.44,8.95,2.44,8.96C2.44,8.96,2.44,8.96,2.44,8.96L2.44,8.96z"/>
					</g>
				</g>
				<g>
					<path class="st14" d="M4.56,10.8c-0.02-0.01-0.11-0.04-0.11-0.04s-0.05-0.04-0.1-0.08c-0.05-0.05-0.01-0.07-0.01-0.07
						s0.05,0.02,0.08,0.05c0.03,0.04,0.09,0.05,0.1,0.03c0.01-0.03-0.04-0.09-0.05-0.1c-0.01-0.01-0.08-0.08-0.12-0.1
						c-0.04-0.02-0.29-0.08-0.29-0.08l-0.54-0.14l-0.08,0.33l0.52,0.07C4,10.7,4.09,10.8,4.11,10.82c0.02,0.02,0.05,0.06,0.1,0.08
						c0.04,0.02,0.04-0.02,0.04-0.02s0.01,0.03,0.06,0.04c0.04,0.02,0.08-0.02,0.08-0.02c0.08,0,0.07-0.06,0.07-0.06
						C4.54,10.85,4.58,10.81,4.56,10.8z"/>
					<path class="st12" d="M2.07,9.51c0.2,0.38,0.73,0.96,0.88,1.02c0.15,0.06,0.31,0.11,0.56,0.12c0.11,0,0.2-0.33,0.18-0.37
						s-0.54-0.17-0.54-0.17S2.74,9.36,2.55,9.13C2.26,8.81,1.87,9.13,2.07,9.51z"/>
					<path class="st5" d="M3.02,10.26c0,0,0.02-0.08,0.14-0.14c0,0-0.01,0.24-0.05,0.25c-0.03,0.02,0.02-0.21,0.02-0.21
						s-0.03,0.04-0.06,0.09c-0.02,0.04-0.04,0.1-0.06,0.1C2.97,10.36,3.02,10.26,3.02,10.26z"/>
				</g>
				<path class="st14" d="M2.91,8.88L2.67,8.49c0,0.01-0.12,0.26-0.28,0.38c0,0,0,0,0,0C2.47,9.04,2.6,9.17,2.75,9.24
					C2.77,9.2,2.78,9.17,2.79,9.16C2.82,9.01,2.91,8.88,2.91,8.88z"/>
				<path class="st15" d="M2.67,8.49c0,0-0.09,0.36,0.1,0.47c0.11,0.06,0.2-0.2,0.2-0.2S3.07,8.54,2.67,8.49z"/>
				<g>
					<path class="st14" d="M3.19,7.94c0,0,0.26,0.09,0.28,0.32C3.49,8.5,3.36,8.58,3.35,8.63C3.34,8.72,3.18,9.1,2.99,9.03
						c-0.21-0.08-0.32-0.35-0.3-0.5c0,0-0.13-0.02-0.13-0.15c0-0.17,0.15-0.22,0.22-0.07C2.78,8.31,2.83,7.86,3.19,7.94z"/>
					<path class="st15" d="M3.32,8.74C3.31,8.75,3.28,8.76,3.27,8.75C3.25,8.75,3.24,8.72,3.25,8.7C3.26,8.68,3.29,8.68,3.3,8.68
						C3.32,8.69,3.33,8.72,3.32,8.74z"/>
					<path class="st15" d="M2.7,8.42c0,0,0.06-0.15-0.02-0.16C2.6,8.25,2.55,8.4,2.64,8.46l0.02-0.04L2.7,8.42z"/>
				</g>
				<path d="M3.51,8.19c-0.15,0.1-0.35,0.14-0.53,0.12C3.07,8.3,3.16,8.26,3.22,8.2C3.1,8.26,2.96,8.29,2.83,8.28
					C2.84,8.3,2.83,8.33,2.81,8.35C2.79,8.36,2.78,8.38,2.76,8.4C2.74,8.42,2.73,8.44,2.73,8.47C2.72,8.41,2.76,8.36,2.77,8.3
					c0-0.05-0.02-0.09-0.02-0.13c0-0.05,0.02-0.09,0.04-0.13C2.85,7.97,2.92,7.92,3,7.9c0.08-0.02,0.17-0.02,0.25,0.01
					C3.38,7.96,3.48,8.06,3.51,8.19z"/>
				<g>
					<g>
						<path d="M3.19,8.54C3.18,8.56,3.16,8.57,3.14,8.56C3.13,8.56,3.12,8.53,3.13,8.51c0.01-0.02,0.03-0.03,0.04-0.03
							C3.19,8.49,3.2,8.51,3.19,8.54z"/>
						<path d="M3.08,8.4c0,0,0.07-0.01,0.11,0.01c0.04,0.02,0.06,0.03,0.06,0.03l0.03-0.03c0,0-0.03-0.03-0.09-0.05
							C3.13,8.35,3.08,8.39,3.08,8.39L3.08,8.4z"/>
					</g>
					<g>
						<path d="M3.35,8.62C3.34,8.64,3.32,8.65,3.31,8.65C3.3,8.64,3.29,8.62,3.3,8.6c0.01-0.02,0.03-0.03,0.04-0.03
							C3.36,8.58,3.36,8.6,3.35,8.62z"/>
						<path d="M3.35,8.46L3.34,8.5c0,0,0.02,0,0.05,0.04C3.39,8.54,3.4,8.55,3.4,8.56c0.01,0,0.01,0,0.01-0.02
							C3.42,8.49,3.35,8.46,3.35,8.46z"/>
					</g>
					<path class="st15" d="M3.34,8.49c0,0-0.05,0.03-0.06,0.05C3.26,8.57,3.24,8.73,3.22,8.75c-0.02,0.02-0.1-0.02-0.1-0.02
						s0.08,0.08,0.12,0.04c0.02-0.03,0.04-0.21,0.05-0.22C3.29,8.54,3.34,8.49,3.34,8.49z"/>
					<g>
						<path class="st15" d="M2.99,8.71C3.01,8.75,3.04,8.78,3.07,8.8c0.02,0.01,0.03,0.02,0.05,0.03c0.02,0.01,0.04,0.01,0.06,0.01
							l0,0c0,0,0,0,0,0c0,0,0,0,0,0c-0.02,0.01-0.04,0.01-0.06,0c-0.02,0-0.04-0.02-0.06-0.03C3.04,8.8,3.03,8.79,3.02,8.77
							C3,8.75,2.99,8.74,2.99,8.71C2.98,8.72,2.98,8.71,2.99,8.71C2.98,8.71,2.99,8.71,2.99,8.71z"/>
						<path class="st34" d="M2.98,8.73c0-0.01,0-0.01,0.01-0.02c0,0,0.01,0,0.01,0c0,0,0,0,0,0c0,0,0,0,0,0c0,0-0.01,0-0.01,0
							c0,0-0.01,0-0.01,0.01C2.97,8.72,2.97,8.73,2.98,8.73C2.97,8.73,2.97,8.73,2.98,8.73C2.98,8.73,2.98,8.73,2.98,8.73L2.98,8.73
							z"/>
					</g>
				</g>
				
					<ellipse transform="matrix(0.5653 -0.8249 0.8249 0.5653 -5.7676 6.2645)" class="st15" cx="3.06" cy="8.6" rx="0.04" ry="0.08"/>
				<path class="st8" d="M1.72,13.09c0,0,0.22,0.03,0.26,0c0.03-0.03,0.13,0.19,0.1,0.21C2.04,13.32,1.84,13.38,1.72,13.09z"/>
			</g>
		</g>
	</g>
	<g>
		<g>
			<polyline class="st35" points="8.13,3.15 6.96,1.42 6.45,3.05 			"/>
			<g>
				<polygon class="st23" points="6,6.04 5.22,5.72 5.2,3.05 5.99,3.29 				"/>
				
					<rect x="6" y="3.29" transform="matrix(1 -2.028479e-03 2.028479e-03 1 -9.448067e-03 0.015)" class="st36" width="2.75" height="2.75"/>
				<g>
					<g>
						<path class="st17" d="M6.2,3.44c0,0.03-0.03,0.06-0.06,0.06c-0.03,0-0.06-0.03-0.06-0.06c0-0.03,0.03-0.06,0.06-0.06
							C6.17,3.39,6.2,3.41,6.2,3.44z"/>
						<path class="st18" d="M6.19,3.43c0,0.03-0.02,0.05-0.05,0.05S6.09,3.46,6.09,3.43c0-0.03,0.02-0.05,0.05-0.05
							C6.17,3.39,6.19,3.41,6.19,3.43z"/>
						
							<rect x="6.13" y="3.4" transform="matrix(1 -2.251613e-03 2.251613e-03 1 -7.736991e-03 0.0138)" class="st19" width="0.02" height="0.08"/>
						
							<rect x="6.13" y="3.4" transform="matrix(1.962223e-03 1 -1 1.962223e-03 9.5717 -2.7043)" class="st19" width="0.02" height="0.08"/>
					</g>
					<g>
						<path class="st17" d="M6.19,5.9c0,0.03-0.03,0.06-0.06,0.06c-0.03,0-0.06-0.03-0.06-0.06s0.03-0.06,0.06-0.06
							C6.17,5.85,6.19,5.87,6.19,5.9z"/>
						<path class="st18" d="M6.18,5.9c0,0.03-0.02,0.05-0.05,0.05c-0.03,0-0.05-0.02-0.05-0.05c0-0.03,0.02-0.05,0.05-0.05
							C6.16,5.85,6.18,5.87,6.18,5.9z"/>
						
							<rect x="6.13" y="5.86" transform="matrix(1 -1.969608e-03 1.969608e-03 1 -0.0116 0.0121)" class="st19" width="0.02" height="0.08"/>
						
							<rect x="6.13" y="5.86" transform="matrix(1.962781e-03 1 -1 1.962781e-03 12.0293 -0.2442)" class="st19" width="0.02" height="0.08"/>
					</g>
					<g>
						<path class="st17" d="M8.66,5.9c0,0.03-0.03,0.06-0.06,0.06c-0.03,0-0.06-0.03-0.06-0.06c0-0.03,0.03-0.06,0.06-0.06
							C8.63,5.84,8.66,5.87,8.66,5.9z"/>
						<path class="st18" d="M8.65,5.89c0,0.03-0.02,0.05-0.05,0.05c-0.03,0-0.05-0.02-0.05-0.05c0-0.03,0.02-0.05,0.05-0.05
							C8.63,5.85,8.65,5.87,8.65,5.89z"/>
						
							<rect x="8.59" y="5.86" transform="matrix(1 -2.250979e-03 2.250979e-03 1 -0.0133 0.0194)" class="st19" width="0.02" height="0.08"/>
						
							<rect x="8.59" y="5.86" transform="matrix(1.969608e-03 1 -1 1.969608e-03 14.4831 -2.7123)" class="st19" width="0.02" height="0.08"/>
					</g>
					<g>
						<path class="st17" d="M8.64,3.43c0,0.03-0.03,0.06-0.06,0.06c-0.03,0-0.06-0.03-0.06-0.06c0-0.03,0.03-0.06,0.06-0.06
							C8.62,3.37,8.64,3.4,8.64,3.43z"/>
						<path class="st18" d="M8.63,3.42c0,0.03-0.02,0.05-0.05,0.05c-0.03,0-0.05-0.02-0.05-0.05c0-0.03,0.02-0.05,0.05-0.05
							C8.61,3.37,8.63,3.39,8.63,3.42z"/>
						
							<rect x="8.58" y="3.39" transform="matrix(1 -1.970162e-03 1.970162e-03 1 -6.738611e-03 0.0169)" class="st19" width="0.02" height="0.08"/>
						
							<rect x="8.58" y="3.39" transform="matrix(2.251612e-03 1 -1 2.251612e-03 11.9965 -5.1659)" class="st19" width="0.02" height="0.08"/>
					</g>
				</g>
				<polygon class="st25" points="8.74,3.29 7.67,3.05 5.2,3.05 5.99,3.29 				"/>
				<path class="st22" d="M8.74,3.3C8.51,3.3,8.28,3.3,8.06,3.3l-0.69,0c-0.23,0-0.46,0-0.69,0l-0.69,0l0,0l0,0L5.59,3.19L5.2,3.06
					l0-0.02l0.4,0.11L6,3.28l0,0l0.69,0c0.23,0,0.46,0,0.69,0l0.69,0c0.23,0,0.46,0,0.69,0.01L8.74,3.3z"/>
				<g class="st26">
					<path class="st5" d="M5.99,6.04C5.98,5.58,5.99,5.13,5.98,4.67c0-0.46,0-0.92,0.01-1.37l0.01,0c0.01,0.46,0.01,0.92,0.01,1.37
						c0,0.46,0,0.92-0.01,1.37L5.99,6.04z"/>
				</g>
			</g>
			<path class="st35" d="M5.53,5.74C5.48,5.72,5.6,3.16,5.6,3.16l1.36-1.74l0.41,1.89L7.34,6.03"/>
			<line class="st35" x1="6.96" y1="1.42" x2="6.96" y2="0.11"/>
		</g>
		<polyline class="st37" points="5.25,4.43 5.98,4.67 8.75,4.69 		"/>
	</g>
</g>
<g id="DESIGNED_BY_FREEPIK">
</g>
</svg>
