<?xml version="1.0" encoding="utf-8"?>
<!-- Generator: Adobe Illustrator 25.0.0, SVG Export Plug-In . SVG Version: 6.00 Build 0)  -->
<svg version="1.1" id="Layer_1" xmlns="http://www.w3.org/2000/svg" xmlns:xlink="http://www.w3.org/1999/xlink" x="0px" y="0px"
	 viewBox="0 0 16 16" style="enable-background:new 0 0 16 16;" xml:space="preserve">
<style type="text/css">
	.st0{fill:#F77A26;}
</style>
<g>
	<path class="st0" d="M2.58,7.74H1.03l0.02-0.28c0.26-3.39,3.01-6.15,6.41-6.41l0.28-0.02v1.55L7.51,2.6C4.9,2.84,2.84,4.9,2.6,7.51
		L2.58,7.74z M2.58,7.74"/>
	<path class="st0" d="M7.74,14.96l-0.28-0.02c-3.39-0.26-6.15-3.01-6.41-6.41L1.03,8.26h1.55L2.6,8.49c0.23,2.61,2.3,4.67,4.9,4.9
		l0.23,0.02V14.96z M7.74,14.96"/>
	<path class="st0" d="M8.26,14.96v-1.55l0.23-0.02c2.61-0.23,4.67-2.3,4.9-4.9l0.02-0.23h1.55l-0.02,0.28
		c-0.26,3.39-3.01,6.15-6.41,6.41L8.26,14.96z M8.26,14.96"/>
	<path class="st0" d="M14.96,7.74h-1.55l-0.02-0.23c-0.23-2.61-2.3-4.67-4.9-4.9L8.26,2.58V1.03l0.28,0.02
		c3.39,0.26,6.15,3.01,6.41,6.41L14.96,7.74z M14.96,7.74"/>
	<path d="M8.77,0H7.22v3.35h1.55V0z M8.26,2.84H7.74V0.52h0.52V2.84z M8.26,2.84"/>
	<path d="M0,8.77h3.35V7.22H0V8.77z M0.52,7.74h2.32v0.52H0.52V7.74z M0.52,7.74"/>
	<path d="M7.22,16h1.55v-3.35H7.22V16z M7.74,13.16h0.52v2.32H7.74V13.16z M7.74,13.16"/>
	<path d="M12.64,7.22v1.55H16V7.22H12.64z M15.48,8.26h-2.32V7.74h2.32V8.26z M15.48,8.26"/>
	<path d="M10.58,7.22H9.8V6.71H9.29V6.45c0-0.55-0.35-1.02-0.83-1.2c0.37-0.43,0.86-0.73,1.41-0.87l-0.13-0.5
		C9.06,4.05,8.44,4.45,8,5C7.56,4.45,6.94,4.05,6.25,3.88l-0.13,0.5c0.55,0.14,1.04,0.44,1.41,0.87C7.05,5.43,6.71,5.9,6.71,6.45
		v0.26H6.19v0.52H5.42V6.45H4.9v1.29h1.29v0.52H4.9v0.52H6.2c0,0.17,0.02,0.35,0.05,0.52H4.9v1.29h0.52V9.8h0.94
		c0.25,0.82,0.77,1.53,1.5,2.02L8,11.92l0.14-0.1c0.73-0.49,1.25-1.2,1.5-2.02h0.94v0.77h0.52V9.29H9.76
		C9.78,9.12,9.8,8.95,9.8,8.77h1.29V8.26H9.8V7.74h1.29V6.45h-0.52V7.22z M7.22,6.45c0-0.43,0.35-0.77,0.77-0.77
		c0.43,0,0.77,0.35,0.77,0.77v0.26H7.22V6.45z M8,7.63L7.59,7.22h0.82L8,7.63z M6.71,8.72V7.22h0.15l0.88,0.88v2.97
		C7.09,10.47,6.71,9.62,6.71,8.72L6.71,8.72z M9.29,8.72c0,0.91-0.38,1.76-1.03,2.36V8.11l0.88-0.88h0.15V8.72z M9.29,8.72"/>
	<rect x="10.58" y="5.42" width="0.52" height="0.52"/>
	<rect x="4.9" y="5.42" width="0.52" height="0.52"/>
	<rect x="3.87" y="8.26" width="0.52" height="0.52"/>
	<rect x="4.9" y="11.09" width="0.52" height="0.52"/>
	<rect x="11.61" y="8.26" width="0.52" height="0.52"/>
	<rect x="10.58" y="11.09" width="0.52" height="0.52"/>
</g>
</svg>
