<?xml version="1.0" encoding="utf-8"?>
<!-- Generator: Adobe Illustrator 25.0.0, SVG Export Plug-In . SVG Version: 6.00 Build 0)  -->
<svg version="1.1" id="Layer_1" xmlns="http://www.w3.org/2000/svg" xmlns:xlink="http://www.w3.org/1999/xlink" x="0px" y="0px"
	 viewBox="0 0 16 16" style="enable-background:new 0 0 16 16;" xml:space="preserve">
<style type="text/css">
	.st0{fill:#F77A26;}
</style>
<g>
	<path class="st0" d="M15.46,11.65c-0.08-0.03-0.14-0.08-0.17-0.15c-0.01-0.03-0.03-0.07-0.04-0.1c-0.03-0.07-0.03-0.15,0.01-0.22
		c0.15-0.3,0.1-0.67-0.15-0.91l-0.18-0.18c-0.24-0.24-0.61-0.3-0.91-0.15c-0.07,0.04-0.15,0.04-0.22,0.01
		c-0.03-0.01-0.07-0.03-0.1-0.04c-0.07-0.03-0.13-0.09-0.15-0.17C13.44,9.42,13.14,9.2,12.8,9.2h-0.25c-0.34,0-0.64,0.22-0.75,0.54
		c-0.03,0.08-0.08,0.14-0.15,0.17c-0.03,0.01-0.07,0.03-0.1,0.04c-0.07,0.03-0.15,0.03-0.22-0.01c-0.3-0.15-0.67-0.1-0.91,0.15
		l-0.18,0.18c-0.24,0.24-0.3,0.61-0.15,0.91c0.04,0.07,0.04,0.15,0.01,0.22c-0.01,0.03-0.03,0.07-0.04,0.1
		c-0.03,0.07-0.09,0.13-0.17,0.15c-0.32,0.11-0.54,0.41-0.54,0.75v0.25c0,0.34,0.22,0.64,0.54,0.75c0.08,0.03,0.14,0.08,0.17,0.15
		c0.01,0.03,0.03,0.07,0.04,0.1c0.03,0.07,0.03,0.15-0.01,0.22c-0.15,0.3-0.1,0.67,0.15,0.91l0.18,0.18
		c0.24,0.24,0.61,0.3,0.91,0.15c0.07-0.04,0.15-0.04,0.22-0.01c0.03,0.01,0.07,0.03,0.1,0.04c0.07,0.03,0.13,0.09,0.15,0.17
		c0.11,0.32,0.41,0.54,0.75,0.54h0.25c0.34,0,0.64-0.22,0.75-0.54c0.03-0.08,0.08-0.14,0.15-0.17c0.03-0.01,0.07-0.03,0.1-0.04
		c0.07-0.03,0.15-0.03,0.22,0.01c0.3,0.15,0.67,0.1,0.91-0.15l0.18-0.18c0.24-0.24,0.3-0.61,0.15-0.91
		c-0.04-0.07-0.04-0.15-0.01-0.22c0.01-0.03,0.03-0.07,0.04-0.1c0.03-0.07,0.09-0.13,0.17-0.15c0.32-0.11,0.54-0.41,0.54-0.75V12.4
		C16,12.06,15.78,11.76,15.46,11.65L15.46,11.65z M12.68,14.06c-0.85,0-1.53-0.69-1.53-1.53c0-0.85,0.69-1.53,1.53-1.53
		s1.53,0.69,1.53,1.53C14.21,13.37,13.52,14.06,12.68,14.06L12.68,14.06z M12.68,14.06"/>
	<path class="st0" d="M8.59,8.18c-0.05,0-0.09-0.01-0.13-0.04C8.38,8.09,8.33,8.01,8.33,7.92V5.88c0-0.09,0.05-0.17,0.12-0.22
		C8.53,5.61,8.62,5.61,8.7,5.65l2.04,1.02c0.09,0.04,0.14,0.13,0.14,0.23c0,0.1-0.05,0.19-0.14,0.23L8.7,8.15
		C8.67,8.17,8.63,8.18,8.59,8.18L8.59,8.18z M8.59,8.18"/>
	<path d="M12.68,11.76c-0.42,0-0.77,0.34-0.77,0.77c0,0.42,0.34,0.77,0.77,0.77c0.42,0,0.77-0.34,0.77-0.77
		C13.44,12.1,13.1,11.76,12.68,11.76L12.68,11.76z M12.68,12.78c-0.14,0-0.26-0.11-0.26-0.26c0-0.14,0.11-0.26,0.26-0.26
		c0.14,0,0.26,0.11,0.26,0.26C12.93,12.66,12.82,12.78,12.68,12.78L12.68,12.78z M12.68,12.78"/>
	<path d="M7.31,9.2h0.51V8.94c0.43,0.32,0.96,0.52,1.53,0.52c1.32,0,2.41-1.01,2.54-2.3h0.52v2.06c0.04-0.01,0.08-0.01,0.13-0.01
		h0.25c0.04,0,0.09,0,0.13,0.01V7.16h1.28c0.99,0,1.79-0.8,1.79-1.79s-0.8-1.79-1.79-1.79l0,0c-0.15,0-0.3,0.02-0.45,0.06
		c-0.39-0.95-1.33-1.59-2.37-1.59c-0.11,0-0.22,0.01-0.34,0.02C10.48,0.81,9.23,0,7.82,0c-1.6,0-2.98,1.04-3.43,2.56
		c-1.22,0.05-2.2,1.06-2.2,2.3c0,0.27,0.05,0.53,0.13,0.77H0.92c-0.42,0-0.77,0.34-0.77,0.77v8.69c0,0.42,0.34,0.77,0.77,0.77h11.63
		c-0.33,0-0.62-0.2-0.73-0.51H0.92c-0.14,0-0.26-0.11-0.26-0.26v-6.9h6.48c0.11,0.19,0.24,0.36,0.39,0.51H6.29V9.2H6.8v2.04H6.29
		v0.51h1.53v-0.51H7.31 M0.66,7.67V6.39c0-0.14,0.11-0.26,0.26-0.26h1.67C3,6.75,3.7,7.16,4.5,7.16h2.31
		c0.02,0.18,0.05,0.35,0.1,0.51H0.66z M9.35,8.95c-1.13,0-2.04-0.92-2.04-2.04s0.92-2.04,2.04-2.04S11.4,5.77,11.4,6.9
		S10.48,8.95,9.35,8.95L9.35,8.95z M14.21,6.65H11.9c-0.13-1.29-1.22-2.3-2.54-2.3s-2.41,1.01-2.54,2.3H4.5
		c-0.99,0-1.79-0.8-1.79-1.79s0.8-1.79,1.79-1.79c0.01,0,0.03,0,0.04,0l0.25,0.01l0.05-0.21c0.33-1.39,1.55-2.36,2.98-2.36
		c1.17,0,2.22,0.65,2.74,1.68c-0.51,0.18-0.96,0.52-1.28,0.98L9.7,3.46c0.38-0.56,1.02-0.9,1.7-0.9c0.9,0,1.71,0.61,1.96,1.47
		l0.08,0.28l0.27-0.11c0.16-0.07,0.33-0.1,0.5-0.1c0.7,0,1.28,0.57,1.28,1.28S14.92,6.65,14.21,6.65L14.21,6.65z M14.21,6.65"/>
	<path d="M12.68,10.73c-0.99,0-1.79,0.8-1.79,1.79s0.8,1.79,1.79,1.79s1.79-0.8,1.79-1.79S13.66,10.73,12.68,10.73L12.68,10.73z
		 M12.68,13.8c-0.7,0-1.28-0.57-1.28-1.28c0-0.7,0.57-1.28,1.28-1.28c0.7,0,1.28,0.57,1.28,1.28C13.96,13.23,13.38,13.8,12.68,13.8
		L12.68,13.8z M12.68,13.8"/>
	<rect x="2.2" y="6.65" width="0.51" height="0.51"/>
	<rect x="1.18" y="6.65" width="0.51" height="0.51"/>
	<path d="M1.69,10.22"/>
	<path d="M1.18,14.82h2.56v-2.56H1.18V14.82z M1.69,12.78h1.53v1.53H1.69V12.78z M1.69,12.78"/>
	<rect x="4.24" y="12.27" width="0.51" height="0.51"/>
	<rect x="5.27" y="12.27" width="3.58" height="0.51"/>
	<rect x="4.24" y="13.29" width="4.6" height="0.51"/>
	<rect x="4.24" y="14.31" width="3.07" height="0.51"/>
	<rect x="7.82" y="14.31" width="1.02" height="0.51"/>
	<path d="M5.55,2.41L6,2.64c0.08-0.15,0.18-0.3,0.29-0.43L5.92,1.87C5.77,2.04,5.65,2.21,5.55,2.41L5.55,2.41z M5.55,2.41"/>
	<path d="M9.73,1.87c-0.48-0.54-1.18-0.85-1.9-0.85c-0.51,0-1,0.15-1.42,0.43l0.28,0.42c0.34-0.23,0.73-0.34,1.14-0.34
		c0.58,0,1.14,0.25,1.52,0.68L9.73,1.87z M9.73,1.87"/>
	<path d="M3.73,4.86H3.22c0,0.7,0.57,1.28,1.28,1.28h0.51V5.62H4.5C4.08,5.62,3.73,5.28,3.73,4.86L3.73,4.86z M3.73,4.86"/>
	<rect x="5.52" y="5.62" width="0.51" height="0.51"/>
</g>
</svg>
