<?xml version="1.0" encoding="utf-8"?>
<!-- Generator: Adobe Illustrator 25.0.0, SVG Export Plug-In . SVG Version: 6.00 Build 0)  -->
<svg version="1.1" id="Layer_1" xmlns="http://www.w3.org/2000/svg" xmlns:xlink="http://www.w3.org/1999/xlink" x="0px" y="0px"
	 viewBox="0 0 16 16" style="enable-background:new 0 0 16 16;" xml:space="preserve">
<style type="text/css">
	.st0{fill:#F77A26;}
</style>
<g>
	<path class="st0" d="M5.42,15.74H0.77c-0.29,0-0.52-0.23-0.52-0.52V12.9h5.68v2.32C5.94,15.51,5.7,15.74,5.42,15.74L5.42,15.74z
		 M5.42,15.74"/>
	<path class="st0" d="M15.23,15.74h-4.65c-0.29,0-0.52-0.23-0.52-0.52V12.9h5.68v2.32C15.74,15.51,15.51,15.74,15.23,15.74
		L15.23,15.74z M15.23,15.74"/>
	<path class="st0" d="M12.13,1.81c-0.2,0-0.4,0.02-0.6,0.07C10.97,0.73,9.81,0,8.52,0C7.48,0,6.5,0.48,5.87,1.3
		C5.8,1.29,5.74,1.29,5.68,1.29c-0.75,0-1.43,0.41-1.8,1.05C3.79,2.33,3.7,2.32,3.61,2.32c-1.28,0-2.32,1.04-2.32,2.32
		s1.04,2.32,2.32,2.32h1.81V6.45c0-0.29,0.23-0.52,0.52-0.52V4.9c-0.29,0-0.52-0.23-0.52-0.52V3.87c0-0.29,0.23-0.52,0.52-0.52h4.13
		c0.29,0,0.52,0.23,0.52,0.52v0.52c0,0.29-0.23,0.52-0.52,0.52v1.03c0.29,0,0.52,0.23,0.52,0.52v0.52h1.55
		c1.42,0,2.58-1.16,2.58-2.58S13.55,1.81,12.13,1.81L12.13,1.81z M12.13,1.81"/>
	<rect x="3.61" y="11.87" width="1.55" height="0.52"/>
	<path d="M15.23,10.84h-1.85c-0.21,0-0.4,0.08-0.55,0.23l-0.81,0.81h-1.44c-0.43,0-0.77,0.35-0.77,0.77v1.03H8.73
		c-0.08-0.22-0.25-0.39-0.47-0.47v-2.89h1.81c0.43,0,0.77-0.35,0.77-0.77V9.03c0-0.34-0.22-0.62-0.52-0.73V7.69
		c0.3-0.11,0.52-0.39,0.52-0.73V6.45c0-0.34-0.22-0.62-0.52-0.73V5.11c0.3-0.11,0.52-0.39,0.52-0.73V3.87
		c0-0.43-0.35-0.77-0.77-0.77H5.94c-0.43,0-0.77,0.35-0.77,0.77v0.52c0,0.34,0.22,0.62,0.52,0.73v0.61
		c-0.3,0.11-0.52,0.39-0.52,0.73v0.52c0,0.34,0.22,0.62,0.52,0.73v0.61C5.38,8.41,5.16,8.7,5.16,9.03v0.52
		c0,0.43,0.35,0.77,0.77,0.77h1.81v2.89c-0.22,0.08-0.39,0.25-0.47,0.47H6.19v-2.06c0-0.43-0.35-0.77-0.77-0.77H3.57
		c-0.21,0-0.4,0.08-0.55,0.23l-0.81,0.81H0.77C0.35,11.87,0,12.22,0,12.65v2.58C0,15.65,0.35,16,0.77,16h4.65
		c0.43,0,0.77-0.35,0.77-0.77v-1.03h1.08c0.11,0.3,0.39,0.52,0.73,0.52c0.34,0,0.62-0.22,0.73-0.52h1.08v1.03
		c0,0.43,0.35,0.77,0.77,0.77h4.65c0.43,0,0.77-0.35,0.77-0.77v-3.61C16,11.19,15.65,10.84,15.23,10.84L15.23,10.84z M9.81,7.74
		v0.52H6.19V7.74H9.81z M9.81,5.16v0.52H6.19V5.16H9.81z M5.68,3.87c0-0.14,0.12-0.26,0.26-0.26h4.13c0.14,0,0.26,0.12,0.26,0.26
		v0.52c0,0.14-0.12,0.26-0.26,0.26H5.94c-0.14,0-0.26-0.12-0.26-0.26V3.87z M5.68,6.45c0-0.14,0.12-0.26,0.26-0.26h4.13
		c0.14,0,0.26,0.12,0.26,0.26v0.52c0,0.14-0.12,0.26-0.26,0.26H5.94c-0.14,0-0.26-0.12-0.26-0.26V6.45z M5.68,9.55V9.03
		c0-0.14,0.12-0.26,0.26-0.26h4.13c0.14,0,0.26,0.12,0.26,0.26v0.52c0,0.14-0.12,0.26-0.26,0.26H5.94C5.79,9.81,5.68,9.69,5.68,9.55
		L5.68,9.55z M5.68,15.23c0,0.14-0.12,0.26-0.26,0.26H0.77c-0.14,0-0.26-0.12-0.26-0.26v-2.58c0-0.14,0.12-0.26,0.26-0.26h1.66
		l0.96-0.96c0.05-0.05,0.11-0.08,0.18-0.08h1.85c0.14,0,0.26,0.12,0.26,0.26V15.23z M8,14.19c-0.14,0-0.26-0.12-0.26-0.26
		c0-0.14,0.12-0.26,0.26-0.26c0.14,0,0.26,0.12,0.26,0.26C8.26,14.08,8.14,14.19,8,14.19L8,14.19z M15.48,15.23
		c0,0.14-0.12,0.26-0.26,0.26h-4.65c-0.14,0-0.26-0.12-0.26-0.26v-2.58c0-0.14,0.12-0.26,0.26-0.26h1.66l0.96-0.96
		c0.05-0.05,0.11-0.08,0.18-0.08h1.85c0.14,0,0.26,0.12,0.26,0.26V15.23z M15.48,15.23"/>
	<rect x="13.42" y="11.87" width="1.55" height="0.52"/>
	<path d="M13.68,4.39c0-0.85-0.69-1.55-1.55-1.55v0.52c0.57,0,1.03,0.46,1.03,1.03c0,0.57-0.46,1.03-1.03,1.03v0.52
		C12.98,5.94,13.68,5.24,13.68,4.39L13.68,4.39z M13.68,4.39"/>
	<path d="M3.61,3.87V3.35c-0.71,0-1.29,0.58-1.29,1.29h0.52C2.84,4.22,3.19,3.87,3.61,3.87L3.61,3.87z M3.61,3.87"/>
	<path d="M8.52,1.55c0.48,0,0.94,0.19,1.28,0.53l0.36-0.36C9.72,1.27,9.14,1.03,8.52,1.03c-0.62,0-1.2,0.24-1.64,0.68l0.36,0.36
		C7.58,1.74,8.03,1.55,8.52,1.55L8.52,1.55z M8.52,1.55"/>
	<path d="M1.03,7.59v2.47h0.52V7.59l0.59,0.59l0.36-0.36L1.29,6.6L0.08,7.82l0.36,0.36L1.03,7.59z M1.03,7.59"/>
	<rect x="1.03" y="10.58" width="0.52" height="0.52"/>
	<path d="M13.49,9.21l1.21,1.21l1.21-1.21l-0.36-0.36l-0.59,0.59V6.97h-0.52v2.47l-0.59-0.59L13.49,9.21z M13.49,9.21"/>
	<rect x="14.45" y="5.94" width="0.52" height="0.52"/>
</g>
</svg>
