<?xml version="1.0" encoding="utf-8"?>
<!-- Generator: Adobe Illustrator 25.0.0, SVG Export Plug-In . SVG Version: 6.00 Build 0)  -->
<svg version="1.1" id="Layer_1" xmlns="http://www.w3.org/2000/svg" xmlns:xlink="http://www.w3.org/1999/xlink" x="0px" y="0px"
	 viewBox="0 0 16 16" style="enable-background:new 0 0 16 16;" xml:space="preserve">
<style type="text/css">
	.st0{fill:#F77A26;}
</style>
<g>
	<path d="M15.99,6.15c0-0.02-0.01-0.03-0.02-0.05c-0.01-0.01-0.02-0.03-0.03-0.04c-0.01-0.02-0.02-0.03-0.04-0.04
		c0,0-0.01-0.01-0.01-0.01l-2.56-1.99V1.95c0-0.44-0.36-0.8-0.8-0.8H9.64l-1.16-0.9c-0.29-0.22-0.69-0.22-0.97,0l-1.16,0.9H3.47
		c-0.44,0-0.8,0.36-0.8,0.8v2.06L0.1,6.01c0,0-0.01,0.01-0.01,0.01C0.08,6.03,0.07,6.05,0.06,6.06C0.05,6.08,0.04,6.09,0.03,6.1
		C0.02,6.12,0.02,6.13,0.01,6.15C0.01,6.17,0,6.19,0,6.2c0,0.01,0,0.01,0,0.02v9.07c0,0.17,0.06,0.33,0.16,0.47c0,0,0,0.01,0,0.01
		c0,0,0.01,0,0.01,0.01c0.15,0.2,0.38,0.31,0.63,0.31h14.4c0.25,0,0.48-0.12,0.63-0.32c0,0,0.01,0,0.01-0.01c0,0,0-0.01,0-0.01
		c0.1-0.14,0.16-0.3,0.16-0.47V6.22c0-0.01,0-0.01,0-0.02C16,6.19,15.99,6.17,15.99,6.15z M7.84,0.68c0.09-0.07,0.23-0.07,0.32,0
		l0.62,0.48H7.23L7.84,0.68z M2.93,7.02c0.15,0,0.27-0.12,0.27-0.27v-4.8c0-0.15,0.12-0.27,0.27-0.27h9.07
		c0.15,0,0.27,0.12,0.27,0.27v4.8c0,0.15,0.12,0.27,0.27,0.27c0.15,0,0.27-0.12,0.27-0.27V4.69l1.88,1.46L10.76,9.6
		c-0.08,0.06-0.12,0.15-0.1,0.25c0.01,0.1,0.08,0.18,0.16,0.21c0.09,0.04,0.19,0.02,0.27-0.04l4.38-3.4v8.51L8.49,9.72
		c-0.29-0.22-0.69-0.22-0.97,0l-6.98,5.42V6.63l4.37,3.39c0.12,0.09,0.28,0.07,0.37-0.05C5.37,9.86,5.35,9.69,5.23,9.6L0.79,6.15
		l1.88-1.46v2.06C2.67,6.9,2.79,7.02,2.93,7.02z M15.13,15.55H0.87l6.97-5.42c0.09-0.07,0.22-0.07,0.32,0L15.13,15.55z"/>
	<path class="st0" d="M8,8.62c0.15,0,0.27-0.12,0.27-0.27c0-0.15-0.12-0.27-0.27-0.27c-1.47,0-2.67-1.19-2.67-2.67S6.53,2.75,8,2.75
		s2.67,1.19,2.67,2.67v1.07c0,0.29-0.24,0.53-0.53,0.53c-0.29,0-0.53-0.24-0.53-0.53V5.42c0-0.15-0.12-0.27-0.27-0.27
		c-0.15,0-0.27,0.12-0.27,0.27c0,0.59-0.48,1.07-1.07,1.07S6.93,6.01,6.93,5.42S7.41,4.35,8,4.35c0.15,0,0.27-0.12,0.27-0.27
		S8.15,3.82,8,3.82c-0.72,0-1.35,0.47-1.54,1.16c-0.2,0.69,0.09,1.42,0.7,1.8c0.61,0.38,1.39,0.3,1.92-0.18
		c0.06,0.56,0.55,0.98,1.11,0.95c0.57-0.03,1.01-0.5,1.01-1.07V5.42c0-1.77-1.43-3.2-3.2-3.2s-3.2,1.43-3.2,3.2S6.23,8.62,8,8.62z"
		/>
</g>
</svg>
