<?xml version="1.0" encoding="utf-8"?>
<!-- Generator: Adobe Illustrator 25.0.0, SVG Export Plug-In . SVG Version: 6.00 Build 0)  -->
<svg version="1.1" id="Layer_1" xmlns="http://www.w3.org/2000/svg" xmlns:xlink="http://www.w3.org/1999/xlink" x="0px" y="0px"
	 viewBox="0 0 16 16" style="enable-background:new 0 0 16 16;" xml:space="preserve">
<style type="text/css">
	.st0{fill:#F77A26;}
</style>
<g>
	<path d="M11.34,9.04V7.73c0-0.46-0.06-0.92-0.19-1.36l-0.5,0.14c0.11,0.39,0.17,0.8,0.17,1.22v1.29H9.79v4.64h0.49
		c-0.12,0.59-0.64,1.03-1.26,1.03H7.69c-0.12-0.44-0.52-0.77-0.99-0.77H5.67c-0.57,0-1.03,0.46-1.03,1.03
		c0,0.57,0.46,1.03,1.03,1.03H6.7c0.48,0,0.88-0.33,0.99-0.77h1.33c0.91,0,1.66-0.67,1.78-1.55h0.28c0.99,0,1.8-0.81,1.8-1.8v-1.03
		C12.88,9.92,12.21,9.17,11.34,9.04L11.34,9.04z M12.37,11.85c0,0.62-0.44,1.14-1.03,1.26v-3.07h-0.52v3.09h-0.52V9.53h0.77
		c0.71,0,1.29,0.58,1.29,1.29V11.85z M6.7,15.46H5.67c-0.28,0-0.52-0.23-0.52-0.52c0-0.28,0.23-0.52,0.52-0.52H6.7
		c0.28,0,0.52,0.23,0.52,0.52C7.22,15.23,6.98,15.46,6.7,15.46L6.7,15.46z M6.7,15.46"/>
	<path d="M7.99,3.35V2.83H4.9c-0.36,0-0.66,0.25-0.74,0.58C2.54,4.27,1.55,5.91,1.55,7.73v1.31C0.67,9.17,0,9.92,0,10.82v1.03
		c0,0.99,0.81,1.8,1.8,1.8h1.29V9.02H2.06V7.73c0-1.56,0.82-2.98,2.15-3.77C4.34,4.21,4.6,4.38,4.9,4.38h3.09V3.87H6.7V3.35H7.99z
		 M2.58,13.14H2.06v-3.09H1.55v3.07C0.96,13,0.52,12.48,0.52,11.85v-1.03c0-0.71,0.58-1.29,1.29-1.29h0.77V13.14z M5.15,3.87H4.9
		c-0.14,0-0.26-0.12-0.26-0.26c0-0.14,0.12-0.26,0.26-0.26h0.26V3.87z M6.18,3.87H5.67V3.35h0.52V3.87z M6.18,3.87"/>
	<path class="st0" d="M11.85,8.2V6.7H8.5c-0.43,0-0.77-0.35-0.77-0.77V0.77C7.73,0.35,8.08,0,8.5,0h6.7c0.43,0,0.77,0.35,0.77,0.77
		v5.15c0,0.43-0.35,0.77-0.77,0.77h-0.96L11.85,8.2z M11.85,8.2"/>
	<path d="M13.06,5.67c-0.15,0-0.3-0.03-0.44-0.09L12.1,5.34c-1.12-0.5-2-1.39-2.48-2.51C9.56,2.7,9.53,2.55,9.53,2.41
		c0-0.29,0.11-0.57,0.32-0.77l0.35-0.35c0.33-0.33,0.91-0.33,1.24,0l0.47,0.47c0.12,0.12,0.19,0.29,0.19,0.47
		c0,0.2-0.09,0.39-0.25,0.52l-0.15,0.12c-0.08,0.06-0.12,0.15-0.12,0.25c0,0.08,0.03,0.16,0.09,0.23l0.18,0.18
		c0.06,0.06,0.14,0.09,0.23,0.09h0.04c0.08,0,0.16-0.03,0.22-0.09l0.16-0.16c0.33-0.33,0.91-0.33,1.24,0l0.41,0.41
		c0.17,0.17,0.26,0.39,0.26,0.62c0,0.24-0.09,0.46-0.26,0.62l-0.35,0.35C13.62,5.56,13.35,5.67,13.06,5.67L13.06,5.67z M10.82,1.55
		c-0.1,0-0.19,0.04-0.26,0.11L10.22,2c-0.11,0.11-0.17,0.25-0.17,0.4c0,0.08,0.02,0.16,0.05,0.23c0.43,1,1.22,1.8,2.21,2.24
		l0.52,0.23c0.21,0.09,0.47,0.05,0.63-0.12l0.35-0.35c0.07-0.07,0.11-0.16,0.11-0.26c0-0.1-0.04-0.19-0.11-0.26L13.4,3.71
		c-0.14-0.14-0.38-0.14-0.52,0l-0.16,0.16c-0.16,0.16-0.37,0.24-0.59,0.24h-0.04c-0.22,0-0.43-0.09-0.59-0.24L11.32,3.7
		c-0.16-0.16-0.24-0.37-0.24-0.59c0-0.25,0.11-0.49,0.31-0.65l0.15-0.12c0.03-0.03,0.05-0.07,0.05-0.11c0-0.04-0.02-0.08-0.04-0.1
		l-0.47-0.47C11.01,1.58,10.92,1.55,10.82,1.55L10.82,1.55z M10.82,1.55"/>
	<path class="st0" d="M9.53,11.02V9.6L8.86,9.41C8.84,9.35,8.81,9.29,8.78,9.23l0.35-0.61L8.13,7.62L7.52,7.97
		C7.46,7.94,7.4,7.91,7.34,7.89L7.15,7.22H5.73L5.55,7.89C5.49,7.91,5.43,7.94,5.37,7.97L4.76,7.62L3.75,8.62L4.1,9.23
		C4.07,9.29,4.05,9.35,4.03,9.41L3.35,9.6v1.42l0.68,0.18c0.02,0.06,0.05,0.12,0.07,0.18l-0.35,0.61L4.76,13l0.61-0.35
		c0.06,0.03,0.12,0.05,0.18,0.07l0.18,0.68h1.42l0.18-0.68c0.06-0.02,0.12-0.05,0.18-0.07L8.12,13l1.01-1.01l-0.35-0.61
		c0.03-0.06,0.05-0.12,0.07-0.18L9.53,11.02z M6.44,11.6c-0.71,0-1.29-0.58-1.29-1.29c0-0.71,0.58-1.29,1.29-1.29
		c0.71,0,1.29,0.58,1.29,1.29C7.73,11.02,7.15,11.6,6.44,11.6L6.44,11.6z M6.44,11.6"/>
	<path d="M6.44,11.85c-0.85,0-1.55-0.69-1.55-1.55c0-0.85,0.69-1.55,1.55-1.55c0.85,0,1.55,0.69,1.55,1.55
		C7.99,11.16,7.29,11.85,6.44,11.85L6.44,11.85z M6.44,9.28c-0.57,0-1.03,0.46-1.03,1.03s0.46,1.03,1.03,1.03
		c0.57,0,1.03-0.46,1.03-1.03S7.01,9.28,6.44,9.28L6.44,9.28z M6.44,9.28"/>
</g>
</svg>
