<?xml version="1.0" encoding="utf-8"?>
<!-- Generator: Adobe Illustrator 25.0.0, SVG Export Plug-In . SVG Version: 6.00 Build 0)  -->
<svg version="1.1" id="Layer_1" xmlns="http://www.w3.org/2000/svg" xmlns:xlink="http://www.w3.org/1999/xlink" x="0px" y="0px"
	 viewBox="0 0 16 16" style="enable-background:new 0 0 16 16;" xml:space="preserve">
<style type="text/css">
	.st0{fill:#F77A26;}
	.st1{fill:#FFFFFF;}
</style>
<g>
	<rect x="4.49" y="4.52" class="st0" width="7.01" height="7.01"/>
	<path class="st1" d="M9.5,7.52c0,0.28-0.22,0.5-0.5,0.5S8.5,7.8,8.5,7.52c0-0.28,0.22-0.5,0.5-0.5S9.5,7.25,9.5,7.52L9.5,7.52z
		 M9.5,7.52"/>
	<path class="st1" d="M7.5,8.52c0,0.28-0.22,0.5-0.5,0.5S6.5,8.8,6.5,8.52c0-0.28,0.22-0.5,0.5-0.5S7.5,8.25,7.5,8.52L7.5,8.52z
		 M7.5,8.52"/>
	<path d="M10.74,3.25h1.57c0.1,0.29,0.37,0.5,0.7,0.5c0.41,0,0.74-0.33,0.74-0.74c0-0.41-0.33-0.74-0.74-0.74
		c-0.32,0-0.6,0.21-0.7,0.5h-2.04v0.99h0.47V3.25z M13.01,2.75c0.15,0,0.27,0.12,0.27,0.27c0,0.15-0.12,0.27-0.27,0.27
		c-0.15,0-0.27-0.12-0.27-0.27C12.74,2.87,12.86,2.75,13.01,2.75L13.01,2.75z M13.01,2.75"/>
	<path d="M15.26,8.79c-0.32,0-0.6,0.21-0.7,0.5H13.5v-1h-1.75V6.76h2.07c0.1,0.29,0.37,0.5,0.7,0.5c0.41,0,0.74-0.33,0.74-0.74
		c0-0.41-0.33-0.74-0.74-0.74c-0.32,0-0.6,0.21-0.7,0.5h-2.07v-2H4.26v1.99h0.47V4.75h6.54v6.54H4.73V6.77H4.26v1.02H1.81
		c-0.1-0.29-0.37-0.5-0.7-0.5c-0.41,0-0.74,0.33-0.74,0.74c0,0.41,0.33,0.74,0.74,0.74c0.32,0,0.6-0.21,0.7-0.5h2.45v3.51h2.5v1.03
		H5.19c-0.1-0.29-0.37-0.5-0.7-0.5c-0.41,0-0.74,0.33-0.74,0.74c0,0.41,0.33,0.74,0.74,0.74c0.32,0,0.6-0.21,0.7-0.5h2.04v-1.5h4.51
		V8.76h1.28v1h1.54c0.1,0.29,0.37,0.5,0.7,0.5c0.41,0,0.74-0.33,0.74-0.74C16,9.12,15.67,8.79,15.26,8.79L15.26,8.79z M14.51,6.25
		c0.15,0,0.27,0.12,0.27,0.27c0,0.15-0.12,0.27-0.27,0.27c-0.15,0-0.27-0.12-0.27-0.27C14.25,6.37,14.37,6.25,14.51,6.25L14.51,6.25
		z M1.11,8.29c-0.15,0-0.27-0.12-0.27-0.27c0-0.15,0.12-0.27,0.27-0.27c0.15,0,0.27,0.12,0.27,0.27C1.38,8.17,1.26,8.29,1.11,8.29
		L1.11,8.29z M4.49,13.3c-0.15,0-0.27-0.12-0.27-0.27c0-0.15,0.12-0.27,0.27-0.27c0.15,0,0.27,0.12,0.27,0.27
		C4.76,13.18,4.64,13.3,4.49,13.3L4.49,13.3z M15.26,9.79C15.12,9.79,15,9.67,15,9.53c0-0.15,0.12-0.27,0.27-0.27
		c0.15,0,0.27,0.12,0.27,0.27C15.53,9.67,15.41,9.79,15.26,9.79L15.26,9.79z M15.26,9.79"/>
	<path d="M1.25,11.83c-0.29,0.1-0.5,0.37-0.5,0.7c0,0.41,0.33,0.74,0.74,0.74c0.41,0,0.74-0.33,0.74-0.74c0-0.32-0.21-0.6-0.5-0.7
		V9.76h2.02V9.29H1.25V11.83z M1.49,12.8c-0.15,0-0.27-0.12-0.27-0.27c0-0.15,0.12-0.27,0.27-0.27c0.15,0,0.27,0.12,0.27,0.27
		C1.75,12.68,1.63,12.8,1.49,12.8L1.49,12.8z M1.49,12.8"/>
	<path d="M14,12.34v-1.54h-1.74v0.47h1.27v1.07c-0.29,0.1-0.5,0.37-0.5,0.7c0,0.41,0.33,0.74,0.74,0.74c0.41,0,0.74-0.33,0.74-0.74
		C14.5,12.71,14.29,12.43,14,12.34L14,12.34z M13.76,13.3c-0.15,0-0.27-0.12-0.27-0.27c0-0.15,0.12-0.27,0.27-0.27
		c0.15,0,0.27,0.12,0.27,0.27C14.03,13.18,13.91,13.3,13.76,13.3L13.76,13.3z M13.76,13.3"/>
	<path d="M9,10.29v0.47h1.74V5.28H7.9L6.76,6.42v1.4c-0.29,0.1-0.5,0.37-0.5,0.7c0,0.41,0.33,0.74,0.74,0.74
		c0.41,0,0.74-0.33,0.74-0.74c0-0.32-0.21-0.6-0.5-0.7V6.62L8.1,5.75h2.17v4.54H9z M7,8.79c-0.15,0-0.27-0.12-0.27-0.27
		c0-0.15,0.12-0.27,0.27-0.27c0.15,0,0.27,0.12,0.27,0.27C7.26,8.67,7.14,8.79,7,8.79L7,8.79z M7,8.79"/>
	<path d="M5.26,10.76H8.1l1.14-1.14v-1.4c0.29-0.1,0.5-0.37,0.5-0.7c0-0.41-0.33-0.74-0.74-0.74S8.27,7.12,8.27,7.52
		c0,0.32,0.21,0.6,0.5,0.7v1.21L7.9,10.29H5.73V5.75H7V5.28H5.26V10.76z M9,7.26c0.15,0,0.27,0.12,0.27,0.27
		c0,0.15-0.12,0.27-0.27,0.27c-0.15,0-0.27-0.12-0.27-0.27C8.74,7.38,8.86,7.26,9,7.26L9,7.26z M9,7.26"/>
	<path d="M0.5,5.75h3.24V5.28H0.97V3.71c0.29-0.1,0.5-0.37,0.5-0.7c0-0.41-0.33-0.74-0.74-0.74C0.33,2.28,0,2.61,0,3.01
		c0,0.32,0.21,0.6,0.5,0.7V5.75z M0.74,2.75C0.88,2.75,1,2.87,1,3.01c0,0.15-0.12,0.27-0.27,0.27c-0.15,0-0.27-0.12-0.27-0.27
		C0.47,2.87,0.59,2.75,0.74,2.75L0.74,2.75z M0.74,2.75"/>
	<rect x="6" y="6.04" class="st1" width="0.5" height="0.47"/>
	<rect x="9.5" y="6.04" class="st1" width="0.5" height="0.47"/>
	<rect x="9.5" y="9.54" class="st1" width="0.5" height="0.47"/>
	<rect x="6" y="9.54" class="st1" width="0.5" height="0.47"/>
</g>
</svg>
