<?xml version="1.0" encoding="utf-8"?>
<!-- Generator: Adobe Illustrator 25.0.0, SVG Export Plug-In . SVG Version: 6.00 Build 0)  -->
<svg version="1.1" id="Layer_1" xmlns="http://www.w3.org/2000/svg" xmlns:xlink="http://www.w3.org/1999/xlink" x="0px" y="0px"
	 viewBox="0 0 16 16" style="enable-background:new 0 0 16 16;" xml:space="preserve">
<style type="text/css">
	.st0{fill:#01C0FA;}
	.st1{fill:#FAC600;}
	.st2{fill:#EF4424;}
	.st3{fill:#FFFFFF;}
	.st4{fill:#EEF5F6;}
	.st5{fill:#F77A26;}
</style>
<g>
	<path class="st0" d="M10.02,9.83"/>
	<path class="st1" d="M12.13,5.99"/>
	<path class="st2" d="M5.84,3"/>
	<path class="st3" d="M12.82,3.93c0,0.36-0.29,0.65-0.65,0.65c-0.36,0-0.65-0.29-0.65-0.65c0-0.36,0.29-0.65,0.65-0.65
		C12.53,3.27,12.82,3.57,12.82,3.93L12.82,3.93z M12.82,3.93"/>
	<path class="st3" d="M14.82,1.86c0,0.36-0.29,0.65-0.65,0.65c-0.36,0-0.65-0.29-0.65-0.65c0-0.36,0.29-0.65,0.65-0.65
		C14.53,1.21,14.82,1.5,14.82,1.86L14.82,1.86z M14.82,1.86"/>
	<path class="st3" d="M6.75,6.77C6.76,6.88,6.77,7,6.77,7.11c0,0.12-0.01,0.24-0.02,0.36C6.74,7.56,6.66,7.62,6.58,7.62H5.97
		c-0.07,0-0.14,0.05-0.16,0.12C5.77,7.87,5.72,7.98,5.67,8.1C5.63,8.16,5.64,8.24,5.69,8.3l0.43,0.43c0.06,0.06,0.07,0.16,0.01,0.22
		C5.99,9.14,5.82,9.31,5.62,9.46C5.56,9.51,5.46,9.5,5.4,9.44L4.97,9.02c-0.05-0.05-0.13-0.06-0.2-0.03
		C4.66,9.05,4.54,9.09,4.42,9.13C4.35,9.16,4.3,9.22,4.3,9.29V9.9c0,0.08-0.06,0.16-0.15,0.17c-0.12,0.01-0.24,0.02-0.36,0.02
		c-0.12,0-0.24-0.01-0.36-0.02C3.35,10.06,3.28,9.98,3.28,9.9V9.29c0-0.07-0.05-0.14-0.12-0.16C3.04,9.09,2.92,9.05,2.81,8.99
		c-0.07-0.03-0.15-0.02-0.2,0.03L2.18,9.44C2.12,9.5,2.03,9.51,1.96,9.46c-0.12-0.09-0.23-0.19-0.33-0.3
		c-0.31,0.61-0.48,1.3-0.48,2.03c0,2.51,2.03,4.54,4.54,4.54c2.51,0,4.54-2.03,4.54-4.54C10.23,9.04,8.75,7.25,6.75,6.77L6.75,6.77z
		 M6.75,6.77"/>
	<path class="st3" d="M5.85,7.68C5.83,7.7,5.82,7.72,5.81,7.74C5.77,7.87,5.72,7.98,5.67,8.1C5.63,8.16,5.64,8.24,5.69,8.3
		l0.43,0.43c0.06,0.06,0.07,0.16,0.01,0.22C5.99,9.14,5.82,9.31,5.62,9.46C5.56,9.51,5.46,9.5,5.4,9.44L4.97,9.02
		c-0.05-0.05-0.13-0.06-0.2-0.03C4.66,9.05,4.54,9.09,4.42,9.13C4.35,9.16,4.3,9.22,4.3,9.29V9.9c0,0.08-0.06,0.16-0.15,0.17
		c-0.12,0.01-0.24,0.02-0.36,0.02c-0.12,0-0.24-0.01-0.36-0.02C3.35,10.06,3.28,9.98,3.28,9.9V9.29c0-0.07-0.05-0.14-0.12-0.16
		c-0.09-0.03-0.17-0.06-0.25-0.1c-0.46,0.59-0.73,1.34-0.73,2.15c0,1.94,1.57,3.51,3.51,3.51c1.94,0,3.51-1.57,3.51-3.51
		C9.21,9.3,7.72,7.76,5.85,7.68L5.85,7.68z M5.85,7.68"/>
	<path class="st4" d="M3.49,11.19c0-0.38,0.06-0.75,0.18-1.1c-0.08,0-0.16-0.01-0.24-0.02C3.35,10.06,3.28,9.98,3.28,9.9V9.29
		c0-0.07-0.05-0.14-0.12-0.16c-0.09-0.03-0.17-0.06-0.25-0.1c-0.46,0.59-0.73,1.34-0.73,2.15c0,1.94,1.57,3.51,3.51,3.51
		c0.22,0,0.44-0.02,0.66-0.06C4.72,14.33,3.49,12.9,3.49,11.19L3.49,11.19z M3.49,11.19"/>
	<path class="st5" d="M5.69,5.93L6.12,5.5c0.06-0.06,0.07-0.16,0.01-0.22C5.99,5.09,5.82,4.92,5.62,4.77
		C5.56,4.72,5.46,4.72,5.4,4.78L4.97,5.21c-0.05,0.05-0.13,0.06-0.2,0.03C4.66,5.18,4.54,5.13,4.42,5.09
		C4.35,5.07,4.3,5.01,4.3,4.93V4.33c0-0.08-0.06-0.16-0.15-0.17C4.04,4.14,3.91,4.14,3.79,4.14c-0.12,0-0.24,0.01-0.36,0.02
		C3.35,4.17,3.28,4.24,3.28,4.33v0.61c0,0.07-0.05,0.14-0.12,0.16C3.04,5.13,2.92,5.18,2.81,5.24c-0.07,0.03-0.15,0.02-0.2-0.03
		L2.18,4.78C2.12,4.72,2.03,4.72,1.96,4.77C1.77,4.92,1.6,5.09,1.45,5.28C1.39,5.35,1.4,5.44,1.46,5.5l0.43,0.43
		c0.05,0.05,0.06,0.13,0.03,0.2C1.86,6.24,1.81,6.36,1.77,6.48C1.75,6.55,1.69,6.6,1.61,6.6H1.01c-0.08,0-0.16,0.06-0.17,0.15
		C0.82,6.87,0.82,6.99,0.82,7.11c0,0.12,0.01,0.24,0.02,0.36c0.01,0.08,0.08,0.15,0.17,0.15h0.61c0.07,0,0.14,0.05,0.16,0.12
		C1.81,7.87,1.86,7.98,1.92,8.1c0.03,0.07,0.02,0.15-0.03,0.2L1.46,8.72C1.4,8.78,1.39,8.88,1.45,8.95C1.6,9.14,1.77,9.31,1.96,9.46
		C2.03,9.51,2.12,9.5,2.18,9.44l0.43-0.43c0.05-0.05,0.13-0.06,0.2-0.03c0.11,0.06,0.23,0.11,0.35,0.15
		c0.07,0.02,0.12,0.09,0.12,0.16V9.9c0,0.08,0.06,0.16,0.15,0.17c0.12,0.01,0.24,0.02,0.36,0.02c0.12,0,0.24-0.01,0.36-0.02
		C4.24,10.06,4.3,9.98,4.3,9.9V9.29c0-0.07,0.05-0.14,0.12-0.16c0.12-0.04,0.24-0.09,0.35-0.15c0.07-0.03,0.15-0.02,0.2,0.03
		L5.4,9.44C5.46,9.5,5.56,9.51,5.62,9.46c0.19-0.15,0.36-0.32,0.51-0.51c0.05-0.07,0.05-0.16-0.01-0.22L5.69,8.3
		C5.64,8.24,5.63,8.16,5.66,8.1c0.06-0.11,0.11-0.23,0.15-0.35C5.83,7.67,5.9,7.62,5.97,7.62h0.61c0.08,0,0.16-0.06,0.17-0.15
		c0.01-0.12,0.02-0.24,0.02-0.36c0-0.12-0.01-0.24-0.02-0.36C6.74,6.67,6.66,6.6,6.58,6.6H5.97c-0.07,0-0.14-0.05-0.16-0.12
		C5.77,6.36,5.72,6.24,5.66,6.13C5.63,6.06,5.64,5.98,5.69,5.93L5.69,5.93z M5.69,5.93"/>
	<path class="st5" d="M2.51,8.01c-0.18-0.25-0.28-0.56-0.28-0.9c0-0.33,0.11-0.64,0.28-0.9C2.8,5.44,3.48,4.85,4.3,4.67V4.33
		c0-0.08-0.06-0.16-0.15-0.17C4.04,4.14,3.91,4.14,3.79,4.14c-0.12,0-0.24,0.01-0.36,0.02C3.35,4.17,3.28,4.24,3.28,4.33v0.61
		c0,0.07-0.05,0.14-0.12,0.16C3.04,5.13,2.92,5.18,2.81,5.24c-0.07,0.03-0.15,0.02-0.2-0.03L2.18,4.78
		C2.12,4.72,2.03,4.72,1.96,4.77C1.77,4.92,1.6,5.09,1.45,5.28C1.39,5.35,1.4,5.44,1.46,5.5l0.43,0.43c0.05,0.05,0.06,0.13,0.03,0.2
		C1.86,6.24,1.81,6.36,1.77,6.48C1.75,6.55,1.69,6.6,1.61,6.6H1.01c-0.08,0-0.16,0.06-0.17,0.15C0.82,6.87,0.82,6.99,0.82,7.11
		c0,0.12,0.01,0.24,0.02,0.36c0.01,0.08,0.08,0.15,0.17,0.15h0.61c0.07,0,0.14,0.05,0.16,0.12C1.81,7.87,1.86,7.98,1.92,8.1
		c0.03,0.07,0.02,0.15-0.03,0.2L1.46,8.72C1.4,8.78,1.39,8.88,1.45,8.95C1.6,9.14,1.77,9.31,1.96,9.46C2.03,9.51,2.12,9.5,2.18,9.44
		l0.43-0.43c0.05-0.05,0.13-0.06,0.2-0.03c0.11,0.06,0.23,0.11,0.35,0.15c0.07,0.02,0.12,0.09,0.12,0.16V9.9
		c0,0.08,0.06,0.16,0.15,0.17c0.12,0.01,0.24,0.02,0.36,0.02c0.12,0,0.24-0.01,0.36-0.02C4.24,10.06,4.3,9.98,4.3,9.9V9.55
		C3.48,9.37,2.8,8.78,2.51,8.01L2.51,8.01z M2.51,8.01"/>
	<path class="st3" d="M5.13,7.11c0,0.74-0.6,1.33-1.33,1.33c-0.74,0-1.33-0.6-1.33-1.33c0-0.74,0.6-1.33,1.33-1.33
		c0.35,0,0.69,0.14,0.94,0.39C4.99,6.42,5.13,6.76,5.13,7.11L5.13,7.11z M5.13,7.11"/>
	<path class="st3" d="M4.25,7.11c0,0.26-0.21,0.46-0.46,0.46S3.33,7.37,3.33,7.11c0-0.26,0.21-0.46,0.46-0.46S4.25,6.86,4.25,7.11
		L4.25,7.11z M4.25,7.11"/>
	<path d="M5.96,3.89c0.49,0,0.89-0.4,0.89-0.89c0-0.16-0.04-0.3-0.11-0.43l0.98-0.95c0.13,0.08,0.29,0.12,0.45,0.12
		c0.2,0,0.39-0.07,0.54-0.18l2.64,2.03c-0.04,0.1-0.07,0.22-0.07,0.34c0,0.49,0.4,0.89,0.89,0.89c0.49,0,0.89-0.4,0.89-0.89
		c0-0.17-0.05-0.32-0.12-0.45l0.8-0.83c0.13,0.07,0.27,0.11,0.43,0.11c0.49,0,0.89-0.4,0.89-0.89c0-0.49-0.4-0.89-0.89-0.89
		c-0.49,0-0.89,0.4-0.89,0.89c0,0.17,0.05,0.32,0.12,0.45l-0.8,0.83c-0.13-0.07-0.27-0.11-0.43-0.11c-0.2,0-0.39,0.07-0.54,0.18
		L9,1.19c0.04-0.1,0.07-0.22,0.07-0.34c0-0.49-0.4-0.89-0.89-0.89c-0.49,0-0.89,0.4-0.89,0.89c0,0.15,0.04,0.3,0.11,0.43L6.41,2.23
		C6.28,2.15,6.12,2.11,5.96,2.11c-0.49,0-0.89,0.4-0.89,0.89C5.07,3.49,5.47,3.89,5.96,3.89L5.96,3.89z M14.17,1.44
		c0.23,0,0.42,0.19,0.42,0.42c0,0.23-0.19,0.42-0.42,0.42c-0.23,0-0.42-0.19-0.42-0.42C13.75,1.63,13.93,1.44,14.17,1.44L14.17,1.44
		z M12.17,3.51c0.23,0,0.42,0.19,0.42,0.42c0,0.23-0.19,0.42-0.42,0.42c-0.23,0-0.42-0.19-0.42-0.42
		C11.75,3.7,11.94,3.51,12.17,3.51L12.17,3.51z M8.17,0.43c0.23,0,0.42,0.19,0.42,0.42c0,0.23-0.19,0.42-0.42,0.42
		c-0.23,0-0.42-0.19-0.42-0.42C7.75,0.62,7.94,0.43,8.17,0.43L8.17,0.43z M5.96,2.58c0.23,0,0.42,0.19,0.42,0.42
		c0,0.23-0.19,0.42-0.42,0.42C5.73,3.42,5.54,3.23,5.54,3C5.54,2.76,5.73,2.58,5.96,2.58L5.96,2.58z M5.96,2.58"/>
	<path d="M15.48,11.06h-0.42V9.15c0-0.13-0.1-0.23-0.23-0.23c-0.13,0-0.23,0.1-0.23,0.23v1.91h-0.84V4.78h0.84v3.27
		c0,0.13,0.1,0.23,0.23,0.23c0.13,0,0.23-0.11,0.23-0.23v-3.4c0-0.19-0.15-0.34-0.34-0.34h-1.1c-0.19,0-0.34,0.15-0.34,0.34v6.4
		h-0.22V6.1c0-0.19-0.15-0.34-0.34-0.34h-1.1c-0.19,0-0.34,0.15-0.34,0.34v4.96h-0.22V4.82c0-0.19-0.15-0.34-0.34-0.34h-1.1
		c-0.19,0-0.34,0.15-0.34,0.34v3.23C9.21,7.96,9.14,7.89,9.06,7.81V5.65c0-0.13-0.1-0.23-0.23-0.23c-0.13,0-0.23,0.11-0.23,0.23V7.4
		C8.33,7.2,8.05,7.03,7.75,6.88V3.83h0.84v0.72c0,0.13,0.11,0.23,0.23,0.23c0.13,0,0.23-0.1,0.23-0.23V3.71
		c0-0.19-0.15-0.34-0.34-0.34h-1.1c-0.19,0-0.34,0.15-0.34,0.34v2.98C7.17,6.65,7.05,6.61,6.93,6.58c-0.07-0.12-0.2-0.21-0.35-0.21
		H6.02c-0.04-0.1-0.08-0.21-0.13-0.31l0.39-0.39C6.43,5.52,6.45,5.3,6.32,5.14C6.16,4.93,5.97,4.74,5.77,4.58
		C5.61,4.46,5.38,4.47,5.24,4.62L4.84,5.01c-0.1-0.05-0.2-0.09-0.31-0.13V4.33c0-0.2-0.15-0.38-0.35-0.4C3.92,3.9,3.66,3.9,3.4,3.93
		c-0.2,0.02-0.35,0.2-0.35,0.4v0.56c-0.1,0.03-0.21,0.08-0.31,0.13L2.35,4.62C2.2,4.47,1.97,4.46,1.81,4.58
		C1.61,4.74,1.42,4.93,1.26,5.14C1.14,5.3,1.15,5.52,1.3,5.67l0.39,0.39c-0.05,0.1-0.09,0.2-0.13,0.31H1.01
		c-0.2,0-0.38,0.15-0.4,0.35C0.59,6.85,0.58,6.98,0.58,7.11c0,0.13,0.01,0.26,0.02,0.39c0.02,0.2,0.2,0.35,0.4,0.35h0.56
		C1.6,7.96,1.64,8.06,1.69,8.16L1.3,8.56C1.15,8.7,1.14,8.93,1.26,9.09C1.29,9.13,1.32,9.16,1.35,9.2
		c-0.28,0.61-0.43,1.28-0.43,1.99c0,2.63,2.14,4.77,4.77,4.77c1.05,0,2.05-0.34,2.88-0.97c0.1-0.08,0.12-0.23,0.04-0.33
		c-0.08-0.1-0.23-0.12-0.33-0.04c-0.75,0.57-1.65,0.87-2.6,0.87c-2.37,0-4.3-1.93-4.3-4.3c0-0.58,0.11-1.13,0.32-1.63
		c0.03,0.03,0.07,0.06,0.11,0.09c0.13,0.1,0.31,0.11,0.45,0.03c-0.21,0.46-0.32,0.97-0.32,1.51c0,2.07,1.68,3.75,3.75,3.75
		c2.07,0,3.75-1.68,3.75-3.75c0-1.63-1.05-3.02-2.51-3.54C6.96,7.61,6.97,7.56,6.98,7.5C6.99,7.37,7,7.24,7,7.11C7,7.1,7,7.1,7,7.09
		C8.74,7.64,10,9.27,10,11.19c0,0.98-0.34,1.94-0.96,2.71c-0.08,0.1-0.07,0.25,0.03,0.33c0.1,0.08,0.25,0.07,0.33-0.03
		c0.61-0.76,0.98-1.69,1.05-2.66h5.02c0.13,0,0.23-0.1,0.23-0.23C15.71,11.16,15.61,11.06,15.48,11.06L15.48,11.06z M2.06,9.24
		C1.91,9.12,1.78,8.99,1.67,8.85l0.39-0.39c0.13-0.13,0.15-0.32,0.07-0.47C2.07,7.89,2.03,7.78,2,7.67C1.94,7.5,1.79,7.39,1.61,7.39
		H1.06C1.05,7.3,1.05,7.2,1.05,7.11c0-0.09,0-0.18,0.01-0.27h0.55c0.18,0,0.33-0.11,0.39-0.29c0.03-0.11,0.08-0.21,0.13-0.31
		c0.08-0.16,0.05-0.35-0.07-0.47L1.67,5.38c0.12-0.14,0.25-0.27,0.39-0.39l0.39,0.39C2.57,5.5,2.76,5.53,2.92,5.45
		c0.1-0.05,0.21-0.1,0.31-0.13C3.4,5.26,3.52,5.11,3.52,4.93V4.39c0.18-0.02,0.37-0.02,0.55,0v0.55c0,0.18,0.11,0.33,0.28,0.39
		c0.11,0.03,0.21,0.08,0.31,0.13C4.82,5.53,5.01,5.5,5.14,5.38l0.39-0.39C5.67,5.11,5.8,5.24,5.92,5.38L5.53,5.77
		C5.4,5.89,5.37,6.08,5.46,6.24c0.05,0.1,0.1,0.21,0.13,0.31C5.64,6.72,5.8,6.84,5.97,6.84h0.55c0.01,0.09,0.01,0.18,0.01,0.27
		c0,0.09,0,0.18-0.01,0.28H5.97c-0.18,0-0.33,0.11-0.39,0.29C5.55,7.78,5.51,7.89,5.46,7.99C5.37,8.15,5.4,8.34,5.53,8.46l0.39,0.39
		C5.8,8.99,5.67,9.12,5.53,9.24L5.14,8.85C5.01,8.72,4.82,8.7,4.67,8.78c-0.1,0.05-0.21,0.1-0.31,0.13
		C4.18,8.96,4.07,9.12,4.07,9.29v0.55c-0.18,0.02-0.37,0.02-0.55,0V9.29c0-0.18-0.11-0.33-0.28-0.39C3.12,8.88,3.02,8.83,2.92,8.78
		C2.76,8.7,2.57,8.72,2.44,8.85L2.06,9.24z M7.12,8.24L7.11,8.26C7.05,8.37,7.09,8.51,7.2,8.58C7.23,8.6,7.28,8.61,7.31,8.61
		c0.08,0,0.16-0.04,0.2-0.12l0.01-0.02C7.87,8.71,8.17,9,8.41,9.35L8.39,9.36C8.27,9.43,8.24,9.57,8.3,9.68
		C8.34,9.76,8.42,9.8,8.5,9.8c0.04,0,0.08-0.01,0.12-0.03l0.02-0.01c0.18,0.37,0.29,0.77,0.32,1.2H8.33c-0.13,0-0.23,0.1-0.23,0.23
		c0,0.13,0.1,0.23,0.23,0.23h0.63c-0.03,0.43-0.14,0.83-0.32,1.2l-0.02-0.01c-0.11-0.06-0.26-0.03-0.32,0.09
		c-0.06,0.11-0.03,0.26,0.09,0.32l0.02,0.01c-0.23,0.34-0.53,0.64-0.88,0.88l-0.01-0.02c-0.06-0.11-0.21-0.15-0.32-0.09
		C7.09,13.86,7.05,14,7.11,14.12l0.01,0.02c-0.37,0.18-0.77,0.29-1.2,0.32v-0.62c0-0.13-0.1-0.23-0.23-0.23
		c-0.13,0-0.23,0.1-0.23,0.23v0.62c-0.43-0.03-0.83-0.14-1.2-0.32l0.01-0.02C4.34,14,4.3,13.86,4.19,13.8
		c-0.11-0.06-0.26-0.03-0.32,0.09L3.85,13.9c-0.34-0.23-0.64-0.53-0.88-0.88L3,13.01c0.11-0.06,0.15-0.21,0.09-0.32
		c-0.06-0.11-0.21-0.15-0.32-0.09l-0.02,0.01c-0.18-0.37-0.29-0.77-0.32-1.2h0.63c0.13,0,0.23-0.1,0.23-0.23
		c0-0.13-0.1-0.23-0.23-0.23H2.42c0.04-0.6,0.25-1.16,0.57-1.63c0.02,0.01,0.04,0.01,0.05,0.02V9.9c0,0.2,0.15,0.38,0.35,0.4
		c0.13,0.02,0.26,0.02,0.39,0.02c0.13,0,0.26-0.01,0.39-0.02c0.2-0.02,0.35-0.2,0.35-0.4V9.34c0.1-0.03,0.21-0.08,0.31-0.13
		l0.39,0.39c0.14,0.14,0.37,0.16,0.53,0.03C5.97,9.48,6.16,9.3,6.32,9.09C6.45,8.93,6.43,8.7,6.29,8.56L5.89,8.16
		C5.93,8.09,5.97,8,6,7.92C6.4,7.96,6.78,8.07,7.12,8.24L7.12,8.24z M10.59,11.06h-0.13c-0.02-0.87-0.28-1.68-0.71-2.38V4.95h0.84
		V11.06z M12.59,11.06h-0.84V6.23h0.84V11.06z M12.59,11.06"/>
	<path d="M5.49,11.07l-0.97,1.64c-0.07,0.11-0.03,0.26,0.08,0.32c0.04,0.02,0.08,0.03,0.12,0.03c0.08,0,0.16-0.04,0.2-0.11
		l0.86-1.44l0.99,0.57c0.11,0.06,0.26,0.03,0.32-0.09c0.06-0.11,0.03-0.26-0.09-0.32l-1.19-0.69C5.7,10.92,5.56,10.96,5.49,11.07
		L5.49,11.07z M5.49,11.07"/>
	<path d="M3.79,8.68c0.87,0,1.57-0.7,1.57-1.57s-0.7-1.57-1.57-1.57c-0.86,0-1.57,0.7-1.57,1.57S2.93,8.68,3.79,8.68L3.79,8.68z
		 M3.79,6.01c0.61,0,1.1,0.49,1.1,1.1c0,0.61-0.49,1.1-1.1,1.1c-0.61,0-1.1-0.49-1.1-1.1C2.69,6.51,3.19,6.01,3.79,6.01L3.79,6.01z
		 M3.79,6.01"/>
	<path d="M3.79,7.81c0.38,0,0.7-0.31,0.7-0.7c0-0.38-0.31-0.7-0.7-0.7c-0.38,0-0.7,0.31-0.7,0.7C3.09,7.5,3.41,7.81,3.79,7.81
		L3.79,7.81z M3.79,6.88c0.13,0,0.23,0.1,0.23,0.23c0,0.13-0.1,0.23-0.23,0.23c-0.13,0-0.23-0.1-0.23-0.23
		C3.56,6.99,3.67,6.88,3.79,6.88L3.79,6.88z M3.79,6.88"/>
	<path class="st5" d="M11.45,12.06c-0.09-0.09-0.24-0.09-0.33,0c-0.09,0.09-0.09,0.24,0,0.33l0.6,0.6l-0.6,0.6
		c-0.09,0.09-0.09,0.24,0,0.33c0.05,0.05,0.11,0.07,0.17,0.07c0.06,0,0.12-0.02,0.17-0.07l0.77-0.77c0.09-0.09,0.09-0.24,0-0.33
		L11.45,12.06z M11.45,12.06"/>
	<path class="st5" d="M13.08,12.06c-0.09-0.09-0.24-0.09-0.33,0c-0.09,0.09-0.09,0.24,0,0.33l0.6,0.6l-0.6,0.6
		c-0.09,0.09-0.09,0.24,0,0.33C12.8,13.98,12.86,14,12.92,14c0.06,0,0.12-0.02,0.17-0.07l0.77-0.77c0.09-0.09,0.09-0.24,0-0.33
		L13.08,12.06z M13.08,12.06"/>
	<path class="st5" d="M14.71,12.06c-0.09-0.09-0.24-0.09-0.33,0c-0.09,0.09-0.09,0.24,0,0.33l0.6,0.6l-0.6,0.6
		c-0.09,0.09-0.09,0.24,0,0.33c0.05,0.05,0.11,0.07,0.17,0.07c0.06,0,0.12-0.02,0.17-0.07l0.77-0.77c0.09-0.09,0.09-0.24,0-0.33
		L14.71,12.06z M14.71,12.06"/>
</g>
</svg>
