<?xml version="1.0" encoding="UTF-8"?>
<svg xmlns="http://www.w3.org/2000/svg" xmlns:xlink="http://www.w3.org/1999/xlink" width="37pt" height="25pt" viewBox="0 0 37 25" version="1.1">
<g id="surface1">
<path style=" stroke:none;fill-rule:nonzero;fill:rgb(100%,100%,100%);fill-opacity:1;" d="M 36.277344 15.105469 C 36.253906 15.152344 36.207031 15.199219 36.136719 15.25 C 36.089844 15.273438 36.019531 15.296875 35.953125 15.296875 C 35.878906 15.296875 35.835938 15.273438 35.789062 15.25 C 35.738281 15.222656 35.695312 15.179688 35.644531 15.105469 C 35.621094 15.054688 35.601562 14.980469 35.601562 14.90625 C 35.601562 14.835938 35.621094 14.785156 35.644531 14.710938 C 35.671875 14.660156 35.71875 14.617188 35.789062 14.566406 C 35.835938 14.542969 35.902344 14.515625 35.953125 14.515625 C 36.019531 14.515625 36.066406 14.542969 36.113281 14.566406 C 36.160156 14.589844 36.207031 14.640625 36.253906 14.710938 C 36.277344 14.761719 36.300781 14.835938 36.300781 14.90625 C 36.324219 14.980469 36.324219 15.054688 36.277344 15.105469 Z M 33.964844 15.273438 L 34.011719 14.835938 C 34.011719 14.835938 33.613281 15.347656 32.914062 15.347656 C 31.933594 15.347656 31.46875 14.367188 31.46875 13.371094 C 31.46875 11.804688 32.355469 10.460938 33.429688 10.460938 C 34.128906 10.460938 34.546875 11.09375 34.546875 11.09375 L 34.808594 9.457031 L 35.972656 9.457031 L 35.085938 15.273438 Z M 30.390625 15.273438 L 29.199219 15.273438 L 29.921875 10.535156 L 31.023438 10.535156 L 30.929688 11.21875 C 30.929688 11.21875 31.324219 10.460938 31.839844 10.460938 C 32.003906 10.460938 32.074219 10.480469 32.074219 10.480469 C 31.910156 10.824219 31.773438 11.121094 31.632812 11.902344 C 30.789062 11.605469 30.71875 13.269531 30.390625 15.273438 Z M 27.964844 15.273438 L 28.007812 14.8125 C 27.988281 14.8125 27.636719 15.375 26.820312 15.375 C 26.375 15.375 25.695312 15.128906 25.695312 14.054688 C 25.695312 12.683594 26.773438 12.246094 27.777344 12.246094 C 27.941406 12.246094 28.292969 12.269531 28.292969 12.269531 C 28.292969 12.269531 28.339844 12.195312 28.339844 11.949219 C 28.339844 11.582031 28.007812 11.535156 27.585938 11.535156 C 26.820312 11.535156 26.308594 11.757812 26.308594 11.757812 L 26.46875 10.707031 C 26.46875 10.707031 27.078125 10.4375 27.890625 10.4375 C 28.3125 10.4375 29.503906 10.480469 29.503906 11.902344 L 29.035156 15.273438 C 28.988281 15.273438 27.964844 15.273438 27.964844 15.273438 Z M 25.136719 15.199219 C 25.136719 15.199219 24.507812 15.375 24.109375 15.375 C 22.710938 15.375 22.007812 14.367188 22.007812 12.832031 C 22.007812 10.535156 23.316406 9.3125 24.667969 9.3125 C 25.28125 9.3125 25.976562 9.605469 25.976562 9.605469 L 25.792969 10.898438 C 25.792969 10.898438 25.324219 10.558594 24.714844 10.558594 C 23.921875 10.558594 23.199219 11.367188 23.199219 12.808594 C 23.199219 13.515625 23.523438 14.171875 24.367188 14.171875 C 24.761719 14.171875 25.324219 13.878906 25.324219 13.878906 Z M 20.5625 15.273438 L 19.367188 15.273438 L 20.089844 10.535156 L 21.191406 10.535156 L 21.074219 11.21875 C 21.074219 11.21875 21.472656 10.460938 21.988281 10.460938 C 22.148438 10.460938 22.21875 10.480469 22.21875 10.480469 C 22.054688 10.824219 21.914062 11.121094 21.773438 11.925781 C 20.960938 11.605469 20.910156 13.269531 20.5625 15.273438 Z M 20.816406 18.429688 L 16.914062 18.429688 C 16.683594 18.035156 16.449219 17.625 16.261719 17.207031 L 21.449219 17.207031 C 21.285156 17.625 21.050781 18.035156 20.816406 18.429688 Z M 17.734375 10.410156 C 19.019531 10.410156 19.394531 11.386719 19.394531 12.195312 C 19.394531 12.511719 19.230469 13.320312 19.230469 13.320312 L 16.871094 13.320312 C 16.871094 13.320312 16.660156 14.296875 17.898438 14.296875 C 18.480469 14.296875 19.132812 14.007812 19.132812 14.007812 L 18.929688 15.179688 C 18.929688 15.179688 18.550781 15.375 17.6875 15.375 C 16.753906 15.375 15.65625 14.957031 15.65625 13.222656 C 15.679688 11.730469 16.542969 10.410156 17.734375 10.410156 Z M 15.140625 14.199219 C 15.234375 14.199219 15.351562 14.152344 15.445312 14.152344 L 15.304688 15.199219 C 15.1875 15.25 14.863281 15.375 14.445312 15.375 C 13.90625 15.375 13.507812 15.054688 13.507812 14.34375 C 13.507812 13.855469 14.160156 9.847656 14.210938 9.828125 L 15.375 9.828125 L 15.234375 10.535156 L 15.820312 10.535156 L 15.679688 11.683594 L 15.050781 11.683594 L 14.722656 13.808594 C 14.699219 13.980469 14.746094 14.199219 15.140625 14.199219 Z M 13.34375 13.785156 C 13.34375 15.421875 11.824219 15.347656 11.570312 15.347656 C 10.589844 15.347656 10.285156 15.199219 10.261719 15.199219 L 10.425781 14.125 C 10.425781 14.125 10.914062 14.324219 11.476562 14.324219 C 11.800781 14.324219 12.199219 14.296875 12.199219 13.90625 C 12.199219 13.320312 10.730469 13.464844 10.730469 12.050781 C 10.730469 10.800781 11.617188 10.460938 12.476562 10.460938 C 13.15625 10.460938 13.554688 10.558594 13.554688 10.558594 L 13.390625 11.605469 C 13.390625 11.605469 12.761719 11.5625 12.597656 11.5625 C 12.175781 11.5625 11.941406 11.65625 11.941406 11.949219 C 11.941406 12.5625 13.34375 12.269531 13.34375 13.785156 Z M 9 15.273438 L 9.046875 14.8125 C 9.023438 14.8125 8.671875 15.375 7.855469 15.375 C 7.414062 15.375 6.734375 15.128906 6.734375 14.054688 C 6.710938 12.683594 7.761719 12.21875 8.765625 12.21875 C 8.929688 12.21875 9.28125 12.269531 9.28125 12.269531 C 9.28125 12.269531 9.328125 12.195312 9.328125 11.949219 C 9.328125 11.582031 9 11.535156 8.578125 11.535156 C 7.808594 11.535156 7.296875 11.757812 7.296875 11.757812 L 7.460938 10.707031 C 7.460938 10.707031 8.066406 10.4375 8.882812 10.4375 C 9.300781 10.4375 10.496094 10.480469 10.496094 11.902344 L 10.023438 15.273438 Z M 5.007812 15.273438 L 5.6875 10.878906 L 4.191406 15.273438 L 3.351562 15.273438 L 3.253906 10.878906 L 2.554688 15.273438 L 1.410156 15.273438 L 2.34375 9.433594 L 4.046875 9.433594 L 4.121094 13 L 5.265625 9.433594 L 7.109375 9.433594 L 6.175781 15.273438 Z M 16.429688 7.453125 L 21.425781 7.453125 C 21.609375 7.84375 21.75 8.257812 21.890625 8.675781 L 15.820312 8.675781 C 15.910156 8.550781 16.125 8.089844 16.429688 7.453125 Z M 17.875 5.011719 L 19.953125 5.011719 C 20.257812 5.402344 20.539062 5.816406 20.816406 6.230469 L 17.082031 6.230469 C 17.316406 5.816406 17.59375 5.402344 17.875 5.011719 Z M 26.234375 0.855469 C 23.40625 0.855469 20.816406 1.980469 18.855469 3.835938 C 16.914062 1.980469 14.328125 0.855469 11.5 0.855469 C 11.476562 0.855469 11.453125 0.855469 11.429688 0.855469 C 5.402344 0.878906 0.523438 6.035156 0.523438 12.34375 C 0.523438 18.695312 5.449219 23.828125 11.5 23.828125 C 14.328125 23.828125 16.914062 22.703125 18.855469 20.84375 C 18.460938 20.480469 18.085938 20.066406 17.734375 19.628906 L 20 19.628906 C 19.671875 20.066406 19.300781 20.480469 18.902344 20.84375 C 18.902344 20.84375 18.878906 20.871094 18.878906 20.871094 C 20.816406 22.726562 23.40625 23.851562 26.234375 23.851562 C 32.308594 23.851562 37.210938 18.695312 37.210938 12.34375 C 37.234375 5.988281 32.308594 0.855469 26.234375 0.855469 Z M 26.234375 0.855469 "/>
</g>
</svg>
