<?xml version="1.0" encoding="UTF-8"?>
<svg xmlns="http://www.w3.org/2000/svg" xmlns:xlink="http://www.w3.org/1999/xlink" width="70pt" height="22pt" viewBox="0 0 70 22" version="1.1">
<g id="surface1">
<path style=" stroke:none;fill-rule:nonzero;fill:rgb(100%,100%,100%);fill-opacity:1;" d="M 8.632812 8.207031 C 8.070312 8.644531 7.296875 8.820312 6.257812 8.820312 L 5.78125 8.820312 C 5.394531 8.820312 5.132812 8.511719 5.214844 8.074219 L 5.78125 5.617188 C 5.871094 5.222656 6.257812 4.863281 6.691406 4.914062 L 7.296875 4.914062 C 8.03125 4.914062 8.546875 5.046875 8.929688 5.265625 C 9.277344 5.484375 9.496094 5.878906 9.496094 6.40625 C 9.457031 7.195312 9.191406 7.808594 8.632812 8.207031 Z M 12.648438 4.429688 C 12.429688 3.945312 12.082031 3.550781 11.609375 3.292969 C 11.175781 2.984375 10.617188 2.804688 10.007812 2.675781 C 9.371094 2.546875 8.632812 2.5 7.808594 2.5 L 3.882812 2.5 C 3.496094 2.5 3.066406 2.804688 2.980469 3.242188 L 0.34375 14.871094 C 0.261719 15.269531 0.519531 15.617188 0.90625 15.617188 L 2.761719 15.617188 C 3.152344 15.617188 3.578125 15.3125 3.671875 14.914062 L 4.3125 12.066406 C 4.402344 11.671875 4.835938 11.320312 5.214844 11.320312 L 5.738281 11.320312 C 8.03125 11.320312 9.792969 10.835938 11.089844 9.871094 C 12.382812 8.910156 12.992188 7.683594 12.992188 6.101562 C 12.992188 5.445312 12.90625 4.863281 12.648438 4.429688 Z M 12.648438 4.429688 "/>
<path style=" stroke:none;fill-rule:nonzero;fill:rgb(100%,100%,100%);fill-opacity:1;" d="M 65.984375 3.421875 L 65.898438 3.46875 L 65.550781 3.46875 L 65.429688 3.339844 L 65.378906 3.203125 L 65.378906 2.101562 L 66.027344 2.101562 L 66.027344 1.839844 L 65.378906 1.839844 L 65.378906 1.316406 L 65.074219 1.316406 L 65.074219 1.839844 L 64.867188 1.839844 L 64.867188 2.101562 L 65.074219 2.101562 L 65.074219 3.117188 L 65.210938 3.597656 L 65.640625 3.730469 L 65.8125 3.730469 L 66.027344 3.6875 L 66.027344 3.421875 Z M 65.984375 3.421875 "/>
<path style=" stroke:none;fill-rule:nonzero;fill:rgb(100%,100%,100%);fill-opacity:1;" d="M 68.925781 1.980469 L 68.449219 1.796875 L 68.144531 1.882812 L 67.800781 2.101562 L 67.585938 1.882812 L 67.277344 1.796875 L 66.976562 1.882812 L 66.679688 2.0625 L 66.679688 1.839844 L 66.375 1.839844 L 66.375 3.730469 L 66.679688 3.730469 L 66.679688 2.320312 L 66.933594 2.144531 L 67.195312 2.101562 L 67.410156 2.144531 L 67.496094 2.238281 L 67.539062 2.417969 L 67.585938 2.632812 L 67.585938 3.730469 L 67.886719 3.730469 L 67.886719 2.417969 L 67.84375 2.320312 L 68.101562 2.144531 L 68.355469 2.101562 L 68.574219 2.144531 L 68.707031 2.238281 L 68.707031 2.417969 L 68.75 2.632812 L 68.75 3.730469 L 69.050781 3.730469 L 69.050781 2.5 Z M 68.925781 1.980469 "/>
<path style=" stroke:none;fill-rule:nonzero;fill:rgb(100%,100%,100%);fill-opacity:1;" d="M 18.640625 12.8125 L 18.382812 13.203125 L 17.609375 13.601562 C 17.261719 13.734375 16.960938 13.820312 16.660156 13.820312 C 16.183594 13.820312 15.84375 13.734375 15.578125 13.601562 L 15.230469 12.898438 C 15.230469 12.507812 15.320312 12.195312 15.492188 11.976562 L 16.273438 11.40625 C 16.621094 11.320312 17.046875 11.1875 17.519531 11.148438 C 17.960938 11.101562 18.816406 11.011719 18.902344 10.96875 L 19.035156 11.1875 C 19.035156 11.363281 18.773438 12.375 18.640625 12.8125 Z M 21.664062 6.054688 C 20.972656 5.660156 19.855469 5.484375 18.339844 5.484375 C 17.609375 5.484375 16.828125 5.527344 16.097656 5.660156 C 15.492188 5.746094 15.445312 5.746094 15.105469 5.835938 C 14.414062 6.007812 14.28125 6.707031 14.28125 6.707031 L 14.070312 7.683594 C 13.941406 8.289062 14.28125 8.246094 14.414062 8.207031 C 14.71875 8.117188 14.886719 8.03125 15.535156 7.851562 C 16.144531 7.722656 16.785156 7.589844 17.308594 7.632812 C 18.042969 7.632812 18.640625 7.722656 18.988281 7.902344 C 19.378906 8.074219 19.546875 8.332031 19.546875 8.773438 L 19.507812 8.992188 L 19.246094 9.167969 C 18.167969 9.253906 17.433594 9.34375 16.480469 9.46875 C 15.578125 9.605469 14.757812 9.832031 14.109375 10.132812 C 13.421875 10.445312 12.863281 10.878906 12.515625 11.449219 C 12.171875 11.976562 11.953125 12.636719 11.953125 13.429688 C 11.953125 14.171875 12.210938 14.785156 12.734375 15.226562 C 13.242188 15.664062 13.898438 15.929688 14.71875 15.929688 C 15.230469 15.929688 15.621094 15.886719 15.886719 15.789062 L 16.785156 15.484375 L 17.5625 15.050781 L 18.257812 14.566406 L 18.214844 14.914062 C 18.125 15.269531 18.339844 15.574219 18.683594 15.617188 L 20.457031 15.617188 C 20.84375 15.574219 21.195312 15.269531 21.277344 14.914062 L 22.660156 8.910156 L 22.742188 8.421875 L 22.785156 7.984375 C 22.742188 7.105469 22.394531 6.492188 21.664062 6.054688 Z M 21.664062 6.054688 "/>
<path style=" stroke:none;fill-rule:nonzero;fill:rgb(100%,100%,100%);fill-opacity:1;" d="M 52.652344 12.851562 L 52.351562 13.25 L 51.613281 13.648438 C 51.269531 13.773438 50.925781 13.863281 50.625 13.863281 C 50.148438 13.863281 49.800781 13.773438 49.546875 13.648438 L 49.195312 12.945312 C 49.195312 12.550781 49.289062 12.242188 49.457031 12.023438 C 49.628906 11.800781 49.929688 11.628906 50.273438 11.492188 C 50.625 11.363281 51.011719 11.273438 51.527344 11.230469 C 51.960938 11.1875 52.777344 11.054688 52.90625 11.054688 L 53.039062 11.273438 C 52.996094 11.363281 52.777344 12.375 52.652344 12.851562 Z M 55.667969 6.101562 C 54.980469 5.699219 53.863281 5.484375 52.351562 5.484375 C 51.613281 5.484375 50.839844 5.527344 50.101562 5.660156 C 49.546875 5.746094 49.5 5.746094 49.152344 5.835938 C 48.464844 6.007812 48.335938 6.707031 48.335938 6.707031 L 48.117188 7.683594 C 47.988281 8.289062 48.335938 8.246094 48.511719 8.207031 C 48.808594 8.117188 48.988281 8.03125 49.628906 7.851562 C 50.234375 7.722656 50.886719 7.632812 51.402344 7.632812 C 52.132812 7.632812 52.742188 7.722656 53.082031 7.902344 C 53.472656 8.074219 53.644531 8.332031 53.644531 8.773438 L 53.511719 8.992188 L 53.253906 9.167969 C 52.175781 9.210938 51.402344 9.34375 50.492188 9.46875 C 49.589844 9.605469 48.761719 9.832031 48.117188 10.132812 C 47.429688 10.445312 46.867188 10.878906 46.515625 11.449219 C 46.179688 11.976562 46.011719 12.675781 46.011719 13.429688 C 46.011719 14.171875 46.265625 14.785156 46.777344 15.226562 C 47.300781 15.664062 47.949219 15.929688 48.761719 15.929688 C 49.289062 15.929688 49.671875 15.886719 49.929688 15.789062 L 50.839844 15.484375 L 51.613281 15.050781 L 52.304688 14.566406 L 52.222656 14.914062 C 52.132812 15.269531 52.351562 15.574219 52.742188 15.617188 L 52.777344 15.617188 C 52.996094 15.617188 53.816406 15.617188 54.199219 15.617188 L 54.503906 15.617188 C 54.898438 15.574219 55.242188 15.269531 55.285156 14.914062 L 56.664062 8.910156 L 56.75 8.421875 L 56.796875 7.984375 C 56.75 7.105469 56.363281 6.492188 55.667969 6.101562 Z M 55.667969 6.101562 "/>
<path style=" stroke:none;fill-rule:nonzero;fill:rgb(100%,100%,100%);fill-opacity:1;" d="M 42.597656 8.246094 C 42.035156 8.6875 41.257812 8.910156 40.222656 8.910156 L 39.796875 8.910156 C 39.402344 8.910156 39.140625 8.601562 39.222656 8.160156 L 39.796875 5.699219 C 39.875 5.308594 40.261719 4.957031 40.699219 5.003906 L 41.296875 5.003906 C 42.035156 5.003906 42.554688 5.132812 42.9375 5.351562 C 43.28125 5.617188 43.5 5.96875 43.5 6.492188 C 43.457031 7.238281 43.15625 7.851562 42.597656 8.246094 Z M 46.652344 4.476562 C 46.4375 3.984375 46.050781 3.640625 45.613281 3.339844 C 45.140625 3.023438 44.625 2.851562 43.976562 2.71875 C 43.371094 2.589844 42.636719 2.546875 41.777344 2.546875 L 37.847656 2.546875 C 37.460938 2.546875 37.023438 2.851562 36.9375 3.242188 L 34.351562 14.914062 C 34.265625 15.3125 34.527344 15.664062 34.90625 15.664062 L 36.769531 15.664062 C 37.160156 15.664062 37.585938 15.355469 37.679688 14.960938 L 38.324219 12.152344 C 38.40625 11.714844 38.800781 11.363281 39.222656 11.363281 L 39.75 11.363281 C 42.035156 11.363281 43.800781 10.878906 45.097656 9.917969 C 46.351562 8.949219 46.996094 7.683594 46.996094 6.140625 C 46.996094 5.484375 46.867188 4.914062 46.652344 4.476562 Z M 46.652344 4.476562 "/>
<path style=" stroke:none;fill-rule:nonzero;fill:rgb(100%,100%,100%);fill-opacity:1;" d="M 62.703125 3.382812 C 62.792969 2.984375 62.535156 2.675781 62.144531 2.675781 L 60.464844 2.675781 C 60.117188 2.675781 59.816406 2.9375 59.640625 3.242188 L 59.554688 3.382812 L 59.46875 3.777344 L 57.140625 14.613281 L 57.054688 14.960938 C 56.964844 15.3125 57.183594 15.574219 57.527344 15.617188 L 57.566406 15.664062 L 59.292969 15.664062 C 59.640625 15.664062 59.941406 15.402344 60.117188 15.089844 L 60.199219 14.960938 Z M 62.703125 3.382812 "/>
<path style=" stroke:none;fill-rule:nonzero;fill:rgb(100%,100%,100%);fill-opacity:1;" d="M 34.402344 5.617188 C 33.964844 5.617188 32.152344 5.617188 32.152344 5.617188 C 31.765625 5.617188 31.246094 5.96875 30.988281 6.367188 C 30.988281 6.367188 28.308594 11.054688 28.054688 11.492188 L 27.75 11.492188 L 26.886719 6.367188 C 26.796875 5.96875 26.371094 5.617188 25.851562 5.617188 L 24.171875 5.617188 C 23.777344 5.617188 23.519531 5.925781 23.609375 6.367188 C 23.609375 6.367188 24.902344 13.734375 25.113281 15.449219 C 25.25 16.410156 25.113281 16.585938 25.113281 16.585938 L 23.480469 19.519531 C 23.261719 19.917969 23.390625 20.226562 23.777344 20.226562 L 25.722656 20.226562 C 26.109375 20.226562 26.675781 19.917969 26.886719 19.519531 L 34.351562 6.707031 C 34.351562 6.707031 35.042969 5.617188 34.402344 5.617188 Z M 34.402344 5.617188 "/>
</g>
</svg>
