<?xml version="1.0" encoding="utf-8"?>
<!-- Generator: Adobe Illustrator 25.0.0, SVG Export Plug-In . SVG Version: 6.00 Build 0)  -->
<svg version="1.1" id="Layer_1" xmlns="http://www.w3.org/2000/svg" xmlns:xlink="http://www.w3.org/1999/xlink" x="0px" y="0px"
	 viewBox="0 0 16 16" style="enable-background:new 0 0 16 16;" xml:space="preserve">
<style type="text/css">
	.st0{fill:#F77A26;}
	.st1{fill:#FFFFFF;}
	.st2{clip-path:url(#SVGID_2_);fill:#FFFFFF;}
	.st3{clip-path:url(#SVGID_2_);}
</style>
<g>
	<rect x="0.25" y="1.75" class="st0" width="2.5" height="1"/>
	<rect x="0.25" y="4.25" class="st0" width="2.5" height="1"/>
	<path class="st0" d="M12.25,13.16L7,9.53l0.94-1.18l5.25,3.63L12.25,13.16z M12.25,13.16"/>
	<path class="st0" d="M13.84,15.39c0.37,0,0.74-0.11,1.05-0.32l-1.3-0.96l0.9-1.23l1.23,0.9c0.02-0.1,0.02-0.21,0.03-0.31
		c0-1.05-0.85-1.91-1.91-1.91c-1.05,0-1.91,0.85-1.91,1.91C11.94,14.54,12.79,15.39,13.84,15.39L13.84,15.39z M13.84,15.39"/>
	<path class="st0" d="M6.34,6.11c-0.37,0-0.74,0.11-1.05,0.32l1.3,0.96L5.7,8.61l-1.23-0.9c-0.02,0.1-0.02,0.21-0.03,0.31
		c0,1.05,0.85,1.91,1.91,1.91c1.05,0,1.91-0.85,1.91-1.91C8.25,6.96,7.4,6.11,6.34,6.11L6.34,6.11z M6.34,6.11"/>
	<rect x="1.5" y="10" class="st1" width="0.5" height="4.5"/>
	<rect x="2.5" y="10" class="st1" width="0.5" height="4.5"/>
	<rect x="3.5" y="10" class="st1" width="0.5" height="4.5"/>
	<rect x="4.5" y="13.5" class="st1" width="0.5" height="1"/>
	<g>
		<defs>
			<rect id="SVGID_1_" width="16" height="16"/>
		</defs>
		<clipPath id="SVGID_2_">
			<use xlink:href="#SVGID_1_"  style="overflow:visible;"/>
		</clipPath>
		<rect x="5.5" y="13.5" class="st2" width="0.5" height="1"/>
		<path class="st3" d="M15.09,11.73l-0.74-0.68c0.01-0.1,0.01-0.19,0.01-0.28c0-0.09,0-0.19-0.01-0.28l0.9-0.82L14.9,8.64L13.7,8.5
			c-0.1-0.16-0.21-0.31-0.33-0.45l0.24-1.19l-0.88-0.64l-1.05,0.6c-0.17-0.07-0.35-0.13-0.53-0.18l-0.51-1.12H9.57L9.06,6.64
			C8.88,6.69,8.7,6.75,8.53,6.82L8.25,6.66V0H0v16h8.25v-1.13l0.28-0.16c0.17,0.07,0.35,0.13,0.53,0.18L9.57,16h1.07l0.51-1.12
			c0.18-0.05,0.36-0.1,0.53-0.17l0.86,0.49c0.73,0.56,1.73,0.59,2.49,0.09l0.3-0.2l-1.39-1.02l0.61-0.83l1.36,1l0.07-0.4
			C16.11,13.02,15.76,12.2,15.09,11.73L15.09,11.73z M8.5,7.38l0.11-0.05c0.22-0.1,0.45-0.17,0.68-0.22l0.12-0.03l0.47-1.05h0.43
			l0.47,1.05l0.12,0.03c0.23,0.05,0.46,0.13,0.68,0.22l0.11,0.05l1.01-0.57c0.12,0.08,0.23,0.16,0.34,0.25l-0.23,1.14l0.08,0.09
			c0.16,0.18,0.3,0.37,0.42,0.58l0.06,0.11l1.15,0.13c0.05,0.13,0.09,0.26,0.13,0.4l-0.86,0.78l0.01,0.13
			c0.01,0.12,0.02,0.24,0.02,0.36c0,0.12-0.01,0.24-0.02,0.36l-0.01,0.13l0.09,0.08c-0.03,0-0.05,0-0.07,0
			c-0.31,0-0.61,0.07-0.89,0.19l-0.63-0.43c0.13-0.85-0.24-1.69-0.94-2.18c-0.7-0.49-1.62-0.53-2.37-0.11L8.46,8.41
			c0.07-0.37,0.04-0.75-0.08-1.1L8.5,7.38z M11.85,10.76L9.5,9.13c0.54-0.2,1.14-0.13,1.61,0.19C11.57,9.65,11.86,10.19,11.85,10.76
			L11.85,10.76z M0.5,0.5h7.25V2H3V1.5H0.5V0.5z M0.5,2h2v0.5h-2V2z M0.5,3H3V2.5h4.75v2H3V4H0.5V3z M0.5,4.5h2V5h-2V4.5z
			 M7.75,15.5H0.5v-10H3V5h4.75v1.38L7.73,6.37C7.01,5.75,5.95,5.69,5.16,6.21l-0.3,0.2l1.39,1.02L5.64,8.26l-1.36-1l-0.07,0.4
			c-0.13,0.81,0.2,1.62,0.87,2.09l0,0.01l0.79,0.72c-0.01,0.09-0.01,0.19-0.01,0.28c0,0.09,0,0.19,0.01,0.28l-0.9,0.82L5,12.01
			c0.06,0.26,0.14,0.51,0.24,0.75l0.06,0.14l1.2,0.13c0.1,0.16,0.21,0.31,0.33,0.45L6.6,14.67l0.11,0.1
			c0.2,0.17,0.41,0.33,0.64,0.46l0.13,0.08l0.28-0.16V15.5z M11.71,14.15L11.6,14.2c-0.22,0.1-0.45,0.17-0.68,0.22l-0.12,0.03
			l-0.48,1.05H9.89l-0.47-1.05l-0.12-0.03c-0.23-0.05-0.46-0.13-0.68-0.22L8.5,14.15l-1.01,0.57c-0.12-0.08-0.23-0.16-0.34-0.25
			l0.23-1.14L7.3,13.25c-0.16-0.18-0.3-0.37-0.42-0.58l-0.06-0.11l-1.15-0.13c-0.05-0.13-0.09-0.26-0.13-0.4l0.86-0.78l-0.01-0.13
			C6.36,11,6.35,10.88,6.35,10.76c0-0.12,0.01-0.24,0.02-0.36l0.01-0.13l-0.13-0.11c0.03,0,0.06,0,0.09,0c0.3,0,0.6-0.06,0.87-0.19
			l0.66,0.46c-0.02,0.11-0.02,0.21-0.03,0.32c0,0.8,0.42,1.54,1.1,1.94c0.69,0.4,1.54,0.41,2.23,0.03l0.54,0.37
			c-0.02,0.09-0.03,0.19-0.03,0.28c0,0.04,0,0.07,0,0.1c0,0.07,0,0.14,0.01,0.21c0,0.02,0.01,0.04,0.01,0.06
			c0.01,0.05,0.01,0.1,0.02,0.15c0,0.02,0.01,0.04,0.01,0.06c0.01,0.05,0.02,0.1,0.04,0.14c0.01,0.02,0.01,0.03,0.02,0.05
			c0.01,0.02,0.01,0.04,0.02,0.06L11.71,14.15z M8.35,10.77l2.36,1.63c-0.54,0.2-1.14,0.13-1.61-0.19
			C8.63,11.88,8.35,11.34,8.35,10.77L8.35,10.77z M14.44,12.54l-1.2,1.63l1.18,0.86c-0.55,0.2-1.16,0.1-1.61-0.27
			c-0.03-0.03-0.06-0.06-0.1-0.08c-0.02-0.02-0.04-0.04-0.06-0.06c-0.03-0.03-0.06-0.07-0.09-0.1c-0.02-0.03-0.04-0.05-0.06-0.08
			c-0.01-0.02-0.03-0.04-0.04-0.06c-0.02-0.03-0.03-0.06-0.05-0.08c-0.01-0.02-0.03-0.04-0.04-0.06c-0.01-0.03-0.03-0.06-0.04-0.09
			c-0.01-0.02-0.02-0.05-0.03-0.07c-0.01-0.02-0.02-0.06-0.03-0.09c-0.01-0.03-0.02-0.06-0.02-0.09c-0.01-0.03-0.01-0.05-0.02-0.08
			c-0.01-0.04-0.01-0.07-0.02-0.11c0-0.02-0.01-0.04-0.01-0.06c-0.01-0.06-0.01-0.12-0.01-0.18c0-0.04,0.01-0.07,0.01-0.11
			c0.01-0.08,0.02-0.17,0.04-0.25c0.01-0.02,0.01-0.05,0.01-0.07l0.05-0.17L7.26,9.4L7.12,9.48c-0.49,0.26-1.07,0.26-1.56,0
			C5.08,9.22,4.75,8.73,4.7,8.19l1.05,0.77l1.2-1.63L5.77,6.46c0.58-0.22,1.24-0.09,1.7,0.33c0.46,0.42,0.64,1.06,0.47,1.66
			L7.89,8.63l5.03,3.47l0.14-0.08c0.49-0.26,1.07-0.27,1.56-0.01c0.49,0.26,0.82,0.74,0.88,1.29L14.44,12.54z M14.44,12.54"/>
	</g>
</g>
</svg>
