<?xml version="1.0" encoding="utf-8"?>
<!-- Generator: Adobe Illustrator 25.0.0, SVG Export Plug-In . SVG Version: 6.00 Build 0)  -->
<svg version="1.1" id="Layer_1" xmlns="http://www.w3.org/2000/svg" xmlns:xlink="http://www.w3.org/1999/xlink" x="0px" y="0px"
	 viewBox="0 0 16 16" style="enable-background:new 0 0 16 16;" xml:space="preserve">
<style type="text/css">
	.st0{fill-rule:evenodd;clip-rule:evenodd;fill:#F77A26;}
	.st1{fill-rule:evenodd;clip-rule:evenodd;fill:#FFFFFF;}
	.st2{fill-rule:evenodd;clip-rule:evenodd;fill:#99CFE0;}
	.st3{fill-rule:evenodd;clip-rule:evenodd;fill:#D4D6D8;}
</style>
<g>
	<path class="st0" d="M11.19,3.57c0.39,0.1,0.75,0.25,1.09,0.45l0.31-0.31c0.15-0.15,0.4-0.15,0.55,0l0.91,0.91
		c0.15,0.15,0.15,0.39,0,0.54l-0.31,0.31c0.2,0.33,0.35,0.7,0.45,1.09h0.44c0.21,0,0.38,0.17,0.38,0.39v1.29
		c0,0.21-0.17,0.38-0.38,0.38h-0.44C14.09,9,13.93,9.36,13.73,9.7l0.31,0.31c0.15,0.15,0.15,0.39,0,0.54l-0.91,0.91
		c-0.15,0.15-0.39,0.15-0.55,0l-0.31-0.31c-0.34,0.2-0.7,0.35-1.09,0.45v0.44c0,0.21-0.17,0.39-0.39,0.39H9.51
		c-0.21,0-0.39-0.17-0.39-0.39V11.6c-0.39-0.1-0.75-0.25-1.09-0.45l-0.31,0.31c-0.15,0.15-0.4,0.15-0.55,0l-0.91-0.91
		c-0.15-0.15-0.15-0.39,0-0.54L6.58,9.7C6.38,9.36,6.23,9,6.13,8.61H5.69c-0.21,0-0.39-0.17-0.39-0.38V6.94
		c0-0.21,0.17-0.38,0.39-0.38h0.44c0.1-0.39,0.25-0.75,0.45-1.09L6.27,5.16c-0.15-0.15-0.15-0.39,0-0.54L7.18,3.7
		c0.15-0.15,0.39-0.15,0.55,0l0.31,0.31c0.34-0.2,0.7-0.35,1.09-0.45V3.12c0-0.21,0.17-0.38,0.39-0.38h1.29
		c0.21,0,0.39,0.17,0.39,0.38V3.57z M11.19,3.57"/>
	<path class="st1" d="M10.16,10.71c1.73,0,3.13-1.4,3.13-3.13c0-1.72-1.41-3.13-3.13-3.13c-1.72,0-3.13,1.4-3.13,3.13
		C7.03,9.31,8.43,10.71,10.16,10.71L10.16,10.71z M10.16,10.71"/>
	<path class="st1" d="M10.84,9.15c0.68-0.25,1.18-0.91,1.18-1.68c0-0.61-0.31-1.16-0.79-1.48c-0.5-0.34-0.4,0.2-0.4,0.29v1.08
		c0,0.38-0.3,0.69-0.67,0.71C9.79,8.03,9.49,7.72,9.49,7.34V6.27c0-0.09,0.1-0.63-0.4-0.29C8.61,6.3,8.3,6.85,8.3,7.46
		c0,0.77,0.49,1.43,1.18,1.68v1.49c0.22,0.05,0.45,0.07,0.68,0.07c0.23,0,0.46-0.03,0.68-0.07V9.15z M10.84,9.15"/>
	<path class="st2" d="M10.84,10.64"/>
	<path class="st3" d="M7.42,1.41"/>
	<path d="M14.63,6.32h-0.27c-0.08-0.28-0.2-0.55-0.34-0.81l0.19-0.19c0.12-0.12,0.18-0.27,0.18-0.44c0-0.17-0.06-0.32-0.18-0.44
		L13.3,3.54c-0.24-0.24-0.63-0.24-0.88,0l-0.19,0.19c-0.26-0.14-0.53-0.25-0.82-0.34V3.12c0-0.34-0.28-0.62-0.62-0.62h-0.6V1.04
		C10.2,0.47,9.74,0,9.16,0H2.04C1.47,0,1,0.47,1,1.04v13.92C1,15.53,1.47,16,2.04,16h7.12c0.57,0,1.04-0.47,1.04-1.04v-2.3h0.6
		c0.34,0,0.62-0.28,0.62-0.62v-0.26c0.28-0.08,0.56-0.2,0.82-0.34l0.19,0.19c0.24,0.24,0.63,0.24,0.88,0l0.91-0.91
		c0.12-0.12,0.18-0.27,0.18-0.44c0-0.17-0.06-0.32-0.18-0.44l-0.19-0.19c0.14-0.26,0.25-0.53,0.34-0.81h0.27
		c0.34,0,0.62-0.28,0.62-0.62V6.94C15.25,6.6,14.97,6.32,14.63,6.32L14.63,6.32z M7.42,0.47L7.19,1.33H4.01L3.78,0.47H7.42z
		 M9.73,14.04H6.15c-0.13,0-0.23,0.1-0.23,0.23c0,0.13,0.1,0.23,0.23,0.23h3.59v0.46c0,0.31-0.26,0.57-0.57,0.57H2.04
		c-0.31,0-0.57-0.26-0.57-0.57v-0.46h3.6c0.13,0,0.23-0.1,0.23-0.23c0-0.13-0.1-0.23-0.23-0.23h-3.6v-13c0-0.31,0.26-0.57,0.57-0.57
		h1.25l0.27,1c0.05,0.2,0.2,0.33,0.38,0.33h3.32c0.18,0,0.33-0.13,0.38-0.33l0.27-1h1.25c0.31,0,0.57,0.26,0.57,0.57V2.5H9.51
		c-0.34,0-0.62,0.28-0.62,0.62v0.26c-0.28,0.08-0.56,0.2-0.82,0.34L7.89,3.54c-0.24-0.24-0.63-0.24-0.88,0L6.1,4.45
		C5.99,4.56,5.92,4.72,5.92,4.89c0,0.17,0.06,0.32,0.18,0.44l0.19,0.19C6.15,5.77,6.04,6.04,5.95,6.32H5.69
		c-0.34,0-0.62,0.28-0.62,0.62v1.29c0,0.34,0.28,0.62,0.62,0.62h0.27c0.08,0.28,0.2,0.55,0.34,0.81L6.1,9.85
		c-0.12,0.12-0.18,0.27-0.18,0.44c0,0.17,0.06,0.32,0.18,0.44l0.91,0.91c0.24,0.24,0.63,0.24,0.88,0l0.19-0.19
		c0.26,0.14,0.53,0.25,0.82,0.34v0.26c0,0.34,0.28,0.62,0.62,0.62h0.22V14.04z M14.78,8.23c0,0.08-0.07,0.15-0.15,0.15h-0.44
		c-0.11,0-0.2,0.07-0.23,0.18c-0.09,0.36-0.23,0.7-0.43,1.03c-0.05,0.09-0.04,0.21,0.04,0.29l0.31,0.32
		c0.03,0.03,0.04,0.06,0.04,0.1c0,0.04-0.02,0.08-0.04,0.11l-0.91,0.91c-0.06,0.06-0.16,0.06-0.21,0l-0.31-0.31
		c-0.08-0.08-0.19-0.09-0.29-0.04c-0.32,0.19-0.67,0.33-1.03,0.43c-0.1,0.03-0.18,0.12-0.18,0.23v0.44c0,0.08-0.07,0.15-0.15,0.15
		H9.51c-0.08,0-0.15-0.07-0.15-0.15V11.6c0-0.11-0.07-0.2-0.18-0.23c-0.36-0.09-0.71-0.24-1.03-0.43c-0.04-0.02-0.08-0.03-0.12-0.03
		c-0.06,0-0.12,0.02-0.17,0.07L7.56,11.3c-0.06,0.06-0.16,0.06-0.21,0l-0.91-0.91c-0.03-0.03-0.04-0.07-0.04-0.11
		c0-0.04,0.02-0.08,0.04-0.11l0.31-0.31c0.08-0.08,0.09-0.19,0.04-0.29C6.59,9.26,6.45,8.91,6.36,8.55
		c-0.03-0.1-0.12-0.18-0.23-0.18H5.69c-0.08,0-0.15-0.07-0.15-0.15V6.94c0-0.08,0.07-0.15,0.15-0.15h0.44c0.11,0,0.2-0.07,0.23-0.18
		c0.09-0.36,0.23-0.7,0.43-1.02C6.84,5.5,6.82,5.38,6.75,5.3L6.43,4.99c-0.03-0.03-0.04-0.06-0.04-0.1c0-0.04,0.02-0.08,0.04-0.11
		l0.91-0.91c0.06-0.06,0.16-0.06,0.21,0l0.31,0.31c0.08,0.08,0.19,0.09,0.29,0.04c0.32-0.19,0.67-0.33,1.03-0.43
		c0.1-0.03,0.18-0.12,0.18-0.23V3.12c0-0.08,0.07-0.15,0.15-0.15h1.29c0.08,0,0.15,0.07,0.15,0.15v0.44c0,0.11,0.07,0.2,0.18,0.23
		c0.36,0.09,0.71,0.24,1.03,0.43c0.09,0.05,0.21,0.04,0.29-0.04l0.31-0.31c0.06-0.06,0.16-0.06,0.21,0l0.91,0.91
		c0.03,0.03,0.04,0.07,0.04,0.11c0,0.04-0.02,0.08-0.04,0.11L13.57,5.3c-0.08,0.08-0.09,0.19-0.04,0.29
		c0.19,0.32,0.33,0.67,0.43,1.02c0.03,0.1,0.12,0.18,0.23,0.18h0.44c0.08,0,0.15,0.07,0.15,0.15V8.23z M14.78,8.23"/>
	<path d="M10.16,4.22c-0.67,0-1.32,0.2-1.88,0.57C8.18,4.87,8.15,5.01,8.22,5.12c0.07,0.11,0.22,0.14,0.33,0.06
		c0.48-0.32,1.04-0.49,1.61-0.49c1.6,0,2.9,1.3,2.9,2.89c0,1.27-0.83,2.36-1.98,2.74V9.3c0.71-0.33,1.18-1.05,1.18-1.84
		c0-0.67-0.33-1.3-0.89-1.68c-0.09-0.06-0.35-0.24-0.58-0.1c-0.23,0.13-0.2,0.43-0.19,0.56c0,0.01,0,0.02,0,0.02v1.08
		c0,0.25-0.19,0.45-0.43,0.48C9.91,7.8,9.72,7.59,9.72,7.34V6.27c0-0.01,0-0.02,0-0.03c0.01-0.13,0.03-0.43-0.19-0.56
		C9.3,5.55,9.04,5.73,8.96,5.79C8.4,6.17,8.07,6.79,8.07,7.46c0,0.79,0.47,1.51,1.18,1.84v1.03C8.09,9.94,7.26,8.86,7.26,7.58
		c0-0.63,0.2-1.23,0.58-1.73c0.08-0.1,0.06-0.25-0.05-0.33c-0.1-0.08-0.25-0.06-0.33,0.05C7.02,6.16,6.79,6.85,6.79,7.58
		c0,1.6,1.12,2.94,2.62,3.28c0.01,0,0.01,0,0.02,0.01c0.23,0.05,0.47,0.08,0.72,0.08c0.25,0,0.49-0.03,0.72-0.08
		c0.01,0,0.02,0,0.03-0.01c1.5-0.34,2.62-1.68,2.62-3.28C13.53,5.73,12.01,4.22,10.16,4.22L10.16,4.22z M9.71,10.44v-1.3
		c0-0.1-0.06-0.19-0.15-0.22C8.95,8.7,8.53,8.11,8.53,7.46c0-0.51,0.26-1,0.69-1.29c0.02-0.01,0.03-0.02,0.04-0.03
		c0,0.03,0,0.05,0,0.06c0,0.02,0,0.04,0,0.06v1.08c0,0.5,0.39,0.91,0.89,0.95c0.01,0,0.02,0,0.03,0c0.5-0.03,0.89-0.45,0.89-0.95
		V6.27c0-0.02,0-0.04,0-0.06c0-0.01,0-0.04,0-0.06c0.01,0.01,0.03,0.02,0.04,0.03c0.43,0.29,0.69,0.78,0.69,1.29
		c0,0.65-0.41,1.24-1.02,1.46c-0.09,0.03-0.15,0.12-0.15,0.22v1.3c-0.15,0.02-0.3,0.03-0.45,0.03C10.01,10.48,9.86,10.46,9.71,10.44
		L9.71,10.44z M9.71,10.44"/>
</g>
</svg>
