<?xml version="1.0" encoding="utf-8"?>
<!-- Generator: Adobe Illustrator 25.0.0, SVG Export Plug-In . SVG Version: 6.00 Build 0)  -->
<svg version="1.1" id="Layer_1" xmlns="http://www.w3.org/2000/svg" xmlns:xlink="http://www.w3.org/1999/xlink" x="0px" y="0px"
	 viewBox="0 0 16 16" style="enable-background:new 0 0 16 16;" xml:space="preserve">
<style type="text/css">
	.st0{fill:#FFFFFF;}
	.st1{fill:#2D2D30;}
	.st2{fill:#FFD5B8;}
	.st3{fill:#00B6BD;}
	.st4{fill:#F77A26;}
	.st5{fill:#2488FF;}
</style>
<g>
	<path class="st0" d="M14.03,14.86l-0.12,0.41c-0.07,0.23-0.27,0.38-0.51,0.38H1.46c-0.24,0-0.44-0.16-0.51-0.38l-0.12-0.41h5.81
		v0.27h1.59v-0.27H14.03z M14.03,14.86"/>
	<path class="st1" d="M14.03,14.86l-0.12,0.41c-0.07,0.23-0.27,0.38-0.51,0.38h-0.53c0.24,0,0.44-0.16,0.51-0.38l0.12-0.41H14.03z
		 M14.03,14.86"/>
	<path class="st2" d="M13.53,6.63v6.9c0,0.29-0.24,0.53-0.53,0.53H1.86c-0.29,0-0.53-0.24-0.53-0.53V7.16
		c0-0.29,0.24-0.53,0.53-0.53H13.53z M13.53,6.63"/>
	<path class="st3" d="M13.53,6.63"/>
	<path class="st4" d="M10.35,4.51h3.71c0.29,0,0.53,0.24,0.53,0.53v7.43c0,0.29-0.24,0.53-0.53,0.53h-3.71
		c-0.29,0-0.53-0.24-0.53-0.53V5.04C9.82,4.75,10.05,4.51,10.35,4.51L10.35,4.51z M10.35,4.51"/>
	<path class="st5" d="M14.59,5.04"/>
	<path class="st0" d="M13.53,4.51v0.27c0,0.29-0.24,0.53-0.53,0.53h-1.59c-0.29,0-0.53-0.24-0.53-0.53V4.51H13.53z M13.53,4.51"/>
	<path d="M15.12,0H0.8C0.36,0,0,0.36,0,0.8v8.49c0,0.44,0.36,0.8,0.8,0.8h0.27v3.45c0,0.44,0.36,0.8,0.8,0.8H13
		c0.44,0,0.8-0.36,0.8-0.8v-0.27h0.27c0.44,0,0.8-0.36,0.8-0.8v-2.39h0.27c0.44,0,0.8-0.36,0.8-0.8V0.8C15.92,0.36,15.56,0,15.12,0
		L15.12,0z M0.8,0.53h14.33c0.15,0,0.27,0.12,0.27,0.27v7.16h-0.53V5.04c0-0.44-0.36-0.8-0.8-0.8h-3.71c-0.44,0-0.8,0.36-0.8,0.8
		v1.33H1.86c-0.44,0-0.8,0.36-0.8,0.8v0.8H0.53V0.8C0.53,0.65,0.65,0.53,0.8,0.53L0.8,0.53z M13.27,4.78c0,0.15-0.12,0.27-0.27,0.27
		h-1.59c-0.15,0-0.27-0.12-0.27-0.27H13.27z M0.8,9.55c-0.15,0-0.27-0.12-0.27-0.27v-0.8h0.53v1.06H0.8z M13.27,13.53
		c0,0.15-0.12,0.27-0.27,0.27H1.86c-0.15,0-0.27-0.12-0.27-0.27V7.16c0-0.15,0.12-0.27,0.27-0.27h7.69v5.57c0,0.44,0.36,0.8,0.8,0.8
		h2.92V13.53z M14.33,12.47c0,0.15-0.12,0.27-0.27,0.27h-3.71c-0.15,0-0.27-0.12-0.27-0.27V5.04c0-0.15,0.12-0.27,0.27-0.27h0.27
		c0,0.44,0.36,0.8,0.8,0.8H13c0.44,0,0.8-0.36,0.8-0.8h0.27c0.15,0,0.27,0.12,0.27,0.27V12.47z M15.12,9.55h-0.27V8.49h0.53v0.8
		C15.39,9.43,15.27,9.55,15.12,9.55L15.12,9.55z M15.12,9.55"/>
	<path d="M14.03,14.59h-5.8c-0.15,0-0.27,0.12-0.27,0.27H6.9c0-0.15-0.12-0.27-0.27-0.27h-5.8c-0.08,0-0.16,0.04-0.21,0.11
		c-0.05,0.07-0.07,0.15-0.04,0.23l0.12,0.41c0.1,0.34,0.41,0.57,0.76,0.57H13.4c0.35,0,0.66-0.23,0.76-0.57l0.12-0.41
		c0.02-0.08,0.01-0.17-0.04-0.23C14.19,14.63,14.11,14.59,14.03,14.59L14.03,14.59z M6.37,15.12c0,0.15,0.12,0.27,0.27,0.27H1.46
		c-0.12,0-0.22-0.08-0.25-0.19l-0.02-0.07 M13.65,15.2c-0.03,0.11-0.14,0.19-0.25,0.19H8.23c0.15,0,0.27-0.12,0.27-0.27h5.18
		L13.65,15.2z M13.65,15.2"/>
</g>
</svg>
