<?xml version="1.0" encoding="utf-8"?>
<!-- Generator: Adobe Illustrator 25.0.0, SVG Export Plug-In . SVG Version: 6.00 Build 0)  -->
<svg version="1.1" id="Layer_1" xmlns="http://www.w3.org/2000/svg" xmlns:xlink="http://www.w3.org/1999/xlink" x="0px" y="0px"
	 viewBox="0 0 16 16" style="enable-background:new 0 0 16 16;" xml:space="preserve">
<style type="text/css">
	.st0{fill:#050404;}
	.st1{fill:#F77A26;}
	.st2{fill:#FEFEFE;}
</style>
<g>
	<path class="st0" d="M9.75,3.23C9.71,3.13,9.68,3.03,9.64,2.93C9.59,2.81,9.63,2.71,9.72,2.63c0.14-0.12,0.29-0.23,0.45-0.33
		c0.11-0.07,0.2-0.06,0.3,0.02c0.23,0.18,0.47,0.36,0.7,0.54c0.1,0.07,0.24,0.03,0.27-0.09c0.08-0.28,0.17-0.56,0.25-0.84
		c0.04-0.13,0.11-0.19,0.24-0.2c0.19-0.01,0.37-0.01,0.56,0c0.13,0.01,0.2,0.08,0.24,0.2c0.08,0.28,0.16,0.56,0.25,0.84
		c0.03,0.11,0.18,0.16,0.27,0.09c0.23-0.18,0.46-0.36,0.7-0.53c0.13-0.1,0.19-0.1,0.33-0.02c0.14,0.09,0.28,0.19,0.41,0.29
		c0.15,0.12,0.16,0.18,0.1,0.36c-0.09,0.26-0.19,0.52-0.28,0.78C14.46,3.89,14.54,4,14.69,4c0.29-0.01,0.57-0.02,0.86-0.02
		c0.17,0,0.22,0.03,0.28,0.19c0.06,0.16,0.12,0.33,0.16,0.5c0.04,0.15,0.01,0.21-0.12,0.3c-0.24,0.16-0.48,0.33-0.72,0.49
		c-0.12,0.08-0.12,0.22,0,0.3c0.24,0.16,0.48,0.33,0.71,0.49c0.13,0.09,0.15,0.15,0.11,0.3c-0.04,0.18-0.1,0.36-0.17,0.53
		c-0.04,0.11-0.12,0.16-0.24,0.16c-0.29-0.01-0.59-0.02-0.88-0.02c-0.16,0-0.24,0.11-0.19,0.25c0.09,0.26,0.19,0.53,0.28,0.79
		c0.06,0.16,0.05,0.25-0.09,0.33c-0.22,0.13-0.26,0.31-0.26,0.55c0.01,0.99,0.01,1.98,0,2.97c0,0.09,0.02,0.12,0.11,0.12
		c0.27-0.01,0.53,0,0.8,0c0.19,0,0.28,0.09,0.27,0.28c-0.04,0.85-0.73,1.53-1.59,1.53c-0.13,0-0.26-0.03-0.37,0.01
		c-0.11,0.04-0.1,0.2-0.15,0.31c-0.42,0.8-1.54,0.89-2.09,0.17c-0.1-0.13-0.21-0.26-0.3-0.4c-0.05-0.07-0.1-0.09-0.19-0.09
		c-2.7,0-5.39,0-8.09,0c-0.42,0-0.84,0-1.27,0C0.73,14.01,0.02,13.33,0,12.51c-0.01-0.22,0.07-0.3,0.29-0.3c0.25,0,0.49,0,0.74,0
		c0.15,0,0.15,0,0.15-0.15c0-2,0-4,0-6c0-0.62,0-1.23,0-1.85c0-0.59,0.39-0.97,0.98-0.97c2.48,0,4.96,0,7.44,0
		C9.65,3.23,9.69,3.23,9.75,3.23z M11.35,11.79c0.21,0.15,0.44,0.27,0.66,0.4c0.03,0.02,0.06,0.02,0.09,0.02c0.62,0,1.24,0,1.86,0
		c0.06,0,0.08-0.02,0.08-0.08c0-1.05,0-2.09,0-3.14c0-0.04-0.01-0.07-0.04-0.1c-0.13-0.1-0.27-0.2-0.4-0.3
		c-0.1-0.08-0.21-0.17-0.31-0.25c-0.12-0.09-0.25-0.05-0.29,0.09C12.9,8.72,12.82,9,12.74,9.27c-0.03,0.12-0.1,0.19-0.23,0.2
		c-0.19,0.01-0.37,0.02-0.56,0c-0.16-0.02-0.2-0.05-0.25-0.2c-0.08-0.27-0.16-0.55-0.24-0.82c-0.04-0.15-0.17-0.19-0.29-0.1
		c-0.23,0.18-0.46,0.36-0.7,0.53c-0.11,0.08-0.19,0.09-0.3,0.01c-0.15-0.1-0.29-0.21-0.43-0.32c-0.13-0.1-0.14-0.17-0.09-0.32
		c0.1-0.27,0.19-0.54,0.29-0.82C9.98,7.32,9.9,7.2,9.76,7.21C9.47,7.21,9.18,7.22,8.89,7.23c-0.15,0-0.2-0.04-0.26-0.17
		C8.55,6.89,8.5,6.72,8.46,6.54C8.42,6.4,8.45,6.33,8.57,6.25c0.24-0.17,0.49-0.33,0.73-0.5c0.09-0.06,0.09-0.22,0-0.28
		C9.06,5.3,8.82,5.13,8.58,4.97C8.45,4.88,8.42,4.81,8.46,4.66C8.5,4.47,8.58,4.29,8.63,4.1C8.7,4,8.79,3.97,8.91,3.98
		C9.2,3.99,9.49,3.99,9.78,4C9.86,4,9.96,3.9,9.96,3.83c0-0.1-0.07-0.17-0.16-0.17c-2.55,0-5.11,0-7.66,0c-0.06,0-0.13,0-0.19,0.02
		C1.73,3.75,1.6,3.93,1.6,4.19c0,2.64,0,5.27,0,7.91c0,0.1,0.03,0.11,0.11,0.11c2.41,0,4.82,0,7.22,0c0.03,0,0.06,0.02,0.09-0.02
		c-0.17-0.13-0.35-0.27-0.52-0.4C8.17,11.52,7.84,11.27,7.52,11c-0.06-0.05-0.1-0.05-0.17-0.02c-0.46,0.26-0.96,0.36-1.49,0.31
		c-1.38-0.14-2.4-1.47-2.17-2.84C3.74,8.2,3.9,8.14,4.11,8.3c0.53,0.42,1.06,0.83,1.59,1.25c0.05,0.04,0.09,0.06,0.15,0.05
		c0.29-0.08,0.57-0.15,0.86-0.23c0.06-0.01,0.08-0.04,0.08-0.1c0-0.29,0.01-0.57,0.02-0.86c0-0.08-0.02-0.12-0.08-0.17
		C6.19,7.82,5.66,7.4,5.13,6.99C4.94,6.84,4.96,6.65,5.18,6.56C5.6,6.38,6.03,6.32,6.48,6.39c1.49,0.22,2.43,1.67,2.03,3.12
		C8.49,9.58,8.51,9.62,8.57,9.67c0.62,0.49,1.24,0.98,1.87,1.46C10.73,11.36,11.02,11.6,11.35,11.79z M9.52,6.79
		c0-0.01,0-0.01,0-0.02c0.13,0,0.25,0.01,0.38,0c0.14-0.01,0.23,0.03,0.3,0.15C10.24,7,10.3,7.07,10.36,7.15
		c0.07,0.09,0.08,0.18,0.05,0.29c-0.1,0.26-0.18,0.53-0.29,0.79c-0.04,0.11,0.05,0.13,0.1,0.17c0.05,0.04,0.09,0.06,0.15,0.01
		c0.22-0.18,0.45-0.35,0.68-0.52c0.08-0.06,0.17-0.08,0.27-0.04c0.1,0.04,0.19,0.07,0.29,0.09c0.12,0.03,0.19,0.1,0.23,0.23
		c0.07,0.27,0.16,0.53,0.23,0.8c0.03,0.1,0.09,0.08,0.16,0.08c0.07,0,0.13,0.01,0.15-0.09c0.07-0.27,0.16-0.54,0.23-0.81
		c0.03-0.11,0.09-0.18,0.21-0.2c0.1-0.02,0.2-0.06,0.29-0.1c0.11-0.05,0.2-0.03,0.3,0.04c0.22,0.17,0.45,0.34,0.67,0.52
		c0.07,0.05,0.11,0.03,0.15-0.01c0.05-0.05,0.14-0.06,0.1-0.17c-0.1-0.26-0.19-0.53-0.28-0.79c-0.04-0.11-0.03-0.2,0.05-0.29
		c0.06-0.07,0.12-0.15,0.17-0.23c0.07-0.11,0.16-0.15,0.28-0.15c0.27,0.01,0.55,0.01,0.82,0.03c0.11,0.01,0.12-0.06,0.14-0.12
		c0.02-0.07,0.05-0.12-0.04-0.18c-0.23-0.15-0.46-0.31-0.69-0.46c-0.09-0.06-0.14-0.14-0.13-0.26c0.01-0.11,0.01-0.21,0-0.32
		c-0.01-0.11,0.03-0.19,0.13-0.26c0.23-0.15,0.46-0.32,0.69-0.47c0.08-0.05,0.08-0.1,0.05-0.17c-0.03-0.07-0.03-0.14-0.14-0.14
		c-0.28,0.02-0.56,0.02-0.84,0.03c-0.11,0-0.19-0.03-0.25-0.13c-0.05-0.09-0.11-0.17-0.18-0.25c-0.08-0.09-0.09-0.18-0.05-0.29
		c0.1-0.26,0.18-0.52,0.28-0.78c0.04-0.1-0.01-0.13-0.07-0.17c-0.06-0.04-0.1-0.09-0.18-0.02c-0.22,0.18-0.44,0.34-0.67,0.52
		c-0.09,0.07-0.17,0.08-0.28,0.04c-0.09-0.04-0.18-0.07-0.27-0.09c-0.14-0.03-0.21-0.11-0.25-0.25c-0.07-0.26-0.16-0.52-0.22-0.78
		c-0.02-0.09-0.08-0.09-0.14-0.09c-0.07,0-0.14-0.03-0.17,0.08c-0.07,0.28-0.16,0.55-0.24,0.82c-0.03,0.11-0.09,0.17-0.2,0.19
		c-0.1,0.02-0.21,0.06-0.3,0.1c-0.11,0.04-0.2,0.03-0.29-0.04c-0.22-0.17-0.44-0.33-0.66-0.51c-0.07-0.06-0.12-0.04-0.17,0.01
		c-0.05,0.05-0.13,0.07-0.08,0.18c0.1,0.26,0.19,0.54,0.29,0.8c0.04,0.1,0.02,0.18-0.04,0.26c-0.07,0.09-0.14,0.17-0.19,0.27
		c-0.06,0.09-0.13,0.14-0.25,0.13C9.66,4.43,9.38,4.44,9.11,4.42C8.99,4.41,8.97,4.47,8.94,4.56c-0.03,0.09,0,0.13,0.07,0.17
		c0.23,0.15,0.45,0.3,0.67,0.45c0.1,0.07,0.15,0.15,0.13,0.28c-0.01,0.09-0.01,0.18,0,0.27c0.02,0.13-0.03,0.22-0.14,0.29
		C9.44,6.18,9.21,6.34,8.97,6.5c-0.1,0.06-0.03,0.12-0.02,0.19C8.97,6.74,8.98,6.8,9.07,6.79C9.22,6.78,9.37,6.79,9.52,6.79z
		 M4.12,8.87C4.1,8.91,4.11,8.94,4.11,8.96c0.06,0.76,0.43,1.33,1.1,1.68c0.69,0.35,1.37,0.3,2.03-0.1
		c0.21-0.13,0.24-0.13,0.43,0.02c0.76,0.6,1.53,1.2,2.29,1.81c0.05,0.04,0.08,0.05,0.12-0.01c0.13-0.18,0.27-0.35,0.41-0.52
		c0.05-0.06,0.04-0.08-0.02-0.12C9.7,11.11,8.92,10.5,8.14,9.89C8,9.78,7.98,9.71,8.04,9.54c0.4-1.1-0.19-2.3-1.31-2.65
		C6.39,6.79,6.05,6.77,5.68,6.86c0.04,0.03,0.06,0.05,0.09,0.07c0.45,0.35,0.9,0.71,1.35,1.06c0.09,0.07,0.12,0.14,0.12,0.25
		C7.23,8.66,7.23,9.08,7.22,9.49c0,0.14-0.06,0.21-0.18,0.24c-0.41,0.11-0.82,0.22-1.23,0.32C5.71,10.08,5.64,10.06,5.56,10
		C5.39,9.87,5.22,9.74,5.05,9.6C4.74,9.36,4.43,9.12,4.12,8.87z M10.63,13.58c-0.02-0.03-0.02-0.04-0.03-0.05
		c-0.3-0.3-0.62-0.58-0.94-0.85c-0.05-0.04-0.1-0.04-0.15-0.04c-0.57,0-1.13,0-1.7,0c-1.16,0-2.31,0-3.47,0
		c-0.09,0-0.12,0.02-0.12,0.11c0.01,0.23,0.01,0.46,0,0.68c0,0.11,0.02,0.14,0.13,0.14c2.03,0,4.05,0,6.08,0
		C10.5,13.58,10.56,13.58,10.63,13.58z M13.22,13.73c-0.01-0.29-0.17-0.54-0.48-0.69c-0.61-0.29-1.21-0.6-1.77-0.97
		c-0.06-0.04-0.08-0.02-0.12,0.02c-0.14,0.18-0.28,0.36-0.42,0.54c-0.05,0.06-0.05,0.09,0.01,0.14c0.37,0.32,0.71,0.67,1.02,1.05
		c0.11,0.14,0.21,0.28,0.32,0.41c0.22,0.28,0.57,0.39,0.9,0.27C13,14.41,13.22,14.11,13.22,13.73z M2.13,12.65
		C2.13,12.65,2.13,12.65,2.13,12.65c-0.52,0-1.04,0-1.56,0c-0.11,0-0.11,0.03-0.09,0.12c0.15,0.47,0.58,0.81,1.09,0.81
		c0.71,0.01,1.42,0,2.13,0c0.07,0,0.08-0.02,0.08-0.08c0-0.24-0.01-0.49,0-0.73c0-0.1-0.02-0.13-0.12-0.13
		C3.16,12.65,2.65,12.65,2.13,12.65z M12.99,12.65c0.34,0.21,0.56,0.49,0.64,0.88c0.01,0.05,0.04,0.06,0.08,0.06
		c0.14,0,0.29,0,0.43-0.01c0.46-0.04,0.86-0.35,1-0.8c0.04-0.13,0.04-0.13-0.09-0.13c-0.65,0-1.31,0-1.96,0
		C13.06,12.65,13.02,12.65,12.99,12.65z"/>
	<path class="st1" d="M8.63,4.1C8.58,4.29,8.5,4.47,8.46,4.66C8.42,4.81,8.45,4.88,8.58,4.97C8.82,5.13,9.06,5.3,9.3,5.46
		c0.09,0.06,0.09,0.22,0,0.28c-0.24,0.17-0.49,0.33-0.73,0.5C8.45,6.33,8.42,6.4,8.46,6.54c0.05,0.18,0.1,0.35,0.17,0.52
		c0.06,0.13,0.11,0.17,0.26,0.17c0.29-0.01,0.59-0.02,0.88-0.02c0.13,0,0.22,0.11,0.17,0.24c-0.1,0.27-0.19,0.54-0.29,0.82
		C9.59,8.41,9.61,8.48,9.74,8.58c0.14,0.11,0.29,0.21,0.43,0.32c0.11,0.08,0.2,0.07,0.3-0.01c0.23-0.18,0.46-0.36,0.7-0.53
		c0.12-0.09,0.25-0.05,0.29,0.1c0.08,0.27,0.16,0.55,0.24,0.82c0.05,0.15,0.09,0.19,0.25,0.2c0.19,0.02,0.37,0.01,0.56,0
		c0.13-0.01,0.2-0.08,0.23-0.2C12.82,9,12.9,8.72,12.98,8.44c0.04-0.14,0.18-0.18,0.29-0.09c0.1,0.08,0.21,0.16,0.31,0.25
		c0,1.02,0,2.04,0,3.05c0,0.11-0.02,0.14-0.13,0.14c-0.7,0-1.4,0-2.11,0c-0.33-0.19-0.62-0.43-0.91-0.66
		c-0.62-0.49-1.24-0.98-1.87-1.46C8.51,9.62,8.49,9.58,8.52,9.51c0.4-1.45-0.54-2.9-2.03-3.12c-0.45-0.07-0.89,0-1.31,0.17
		C4.96,6.65,4.94,6.84,5.13,6.99c0.53,0.42,1.06,0.84,1.6,1.25c0.06,0.05,0.08,0.1,0.08,0.17C6.79,8.7,6.79,8.98,6.78,9.27
		c0,0.06-0.02,0.09-0.08,0.1C6.42,9.44,6.13,9.51,5.85,9.59C5.78,9.61,5.74,9.58,5.69,9.55C5.17,9.13,4.64,8.72,4.11,8.3
		C3.9,8.14,3.74,8.2,3.69,8.46c-0.23,1.37,0.78,2.7,2.17,2.84c0.53,0.05,1.03-0.05,1.49-0.31c0.07-0.04,0.11-0.03,0.17,0.02
		c0.33,0.26,0.65,0.52,0.98,0.78c-0.02,0-0.03,0-0.05,0c-2.11,0-4.21,0-6.32,0c-0.1,0-0.09-0.05-0.09-0.12c0-2.48,0-4.95,0-7.43
		c0-0.12,0.04-0.15,0.15-0.15c2.07,0,4.15,0,6.22,0C8.48,4.1,8.56,4.1,8.63,4.1z M3.27,7.11c0.23,0,0.23,0,0.23-0.22
		c0-0.22,0-0.22-0.22-0.22c-0.23,0-0.23,0-0.23,0.23C3.04,7.11,3.04,7.11,3.27,7.11z M3.26,5.43c0.23,0,0.23,0,0.23-0.22
		c0-0.22,0-0.22-0.22-0.22c-0.23,0-0.23,0-0.22,0.23C3.05,5.43,3.05,5.43,3.26,5.43z M3.27,5.83c-0.23,0-0.23,0-0.23,0.21
		c0,0.23,0,0.23,0.23,0.23c0.22,0,0.22,0,0.22-0.22C3.49,5.83,3.49,5.83,3.27,5.83z M4.45,5.22c0-0.22,0-0.22-0.22-0.23
		c-0.22,0-0.22,0-0.22,0.22c0,0.22,0,0.22,0.23,0.22C4.45,5.43,4.45,5.43,4.45,5.22z M4.45,6.05c0-0.22,0-0.22-0.22-0.22
		c0,0-0.01,0-0.01,0c-0.21,0-0.21,0-0.21,0.21c0,0.22,0,0.22,0.22,0.22C4.45,6.27,4.45,6.27,4.45,6.05z M4.45,6.9
		c0-0.23,0-0.23-0.22-0.23c-0.22,0-0.22,0-0.22,0.21c0,0.23,0,0.23,0.22,0.23C4.45,7.11,4.45,7.11,4.45,6.9z"/>
	<path class="st2" d="M8.63,4.1c-0.08,0-0.15,0-0.23,0c-2.07,0-4.15,0-6.22,0c-0.11,0-0.15,0.03-0.15,0.15c0,2.48,0,4.95,0,7.43
		c0,0.07-0.01,0.12,0.09,0.12c2.11,0,4.21,0,6.32,0c0.02,0,0.03,0,0.05,0c0.17,0.13,0.35,0.27,0.52,0.4
		C9,12.22,8.96,12.21,8.94,12.21c-2.41,0-4.82,0-7.22,0c-0.08,0-0.11-0.01-0.11-0.11c0-2.64,0-5.27,0-7.91
		c0-0.26,0.13-0.45,0.35-0.52c0.06-0.02,0.13-0.02,0.19-0.02c2.55,0,5.11,0,7.66,0c0.09,0,0.15,0.07,0.16,0.17
		C9.96,3.9,9.86,4,9.78,4C9.49,3.99,9.2,3.99,8.91,3.98C8.79,3.97,8.7,4,8.63,4.1z"/>
	<path class="st2" d="M4.12,8.87C4.43,9.12,4.74,9.36,5.05,9.6C5.22,9.74,5.39,9.87,5.56,10c0.07,0.06,0.15,0.08,0.24,0.05
		c0.41-0.11,0.82-0.22,1.23-0.32C7.16,9.7,7.22,9.63,7.22,9.49c0.01-0.41,0.01-0.83,0.02-1.24c0-0.11-0.04-0.19-0.12-0.25
		c-0.45-0.35-0.9-0.71-1.35-1.06C5.74,6.91,5.72,6.89,5.68,6.86c0.37-0.08,0.71-0.07,1.06,0.04c1.12,0.35,1.71,1.55,1.31,2.65
		C7.98,9.71,8,9.78,8.14,9.89c0.78,0.61,1.55,1.22,2.33,1.83c0.05,0.04,0.06,0.07,0.02,0.12c-0.14,0.17-0.28,0.34-0.41,0.52
		c-0.05,0.06-0.07,0.05-0.12,0.01c-0.76-0.6-1.53-1.2-2.29-1.81c-0.19-0.15-0.23-0.15-0.43-0.02c-0.66,0.4-1.34,0.45-2.03,0.1
		c-0.68-0.35-1.04-0.92-1.1-1.68C4.11,8.94,4.1,8.91,4.12,8.87z"/>
	<path class="st2" d="M2.13,12.65c0.51,0,1.03,0,1.54,0c0.1,0,0.12,0.03,0.12,0.13c-0.01,0.24,0,0.49,0,0.73
		c0,0.06-0.02,0.08-0.08,0.08c-0.71,0-1.42,0-2.13,0c-0.51-0.01-0.95-0.34-1.09-0.81c-0.03-0.09-0.02-0.12,0.09-0.12
		C1.09,12.65,1.61,12.65,2.13,12.65C2.13,12.65,2.13,12.65,2.13,12.65z"/>
	<path class="st2" d="M11.35,11.79c0.7,0,1.4-0.01,2.11,0c0.11,0,0.13-0.03,0.13-0.14c0-1.02,0-2.04,0-3.05
		c0.13,0.1,0.27,0.2,0.4,0.3c0.04,0.03,0.04,0.06,0.04,0.1c0,1.05,0,2.09,0,3.14c0,0.06-0.02,0.08-0.08,0.08c-0.62,0-1.24,0-1.86,0
		c-0.03,0-0.06,0-0.09-0.02C11.79,12.06,11.56,11.94,11.35,11.79z"/>
	<path class="st2" d="M12.99,12.65c0.03,0,0.06,0,0.1,0c0.65,0,1.31,0,1.96,0c0.13,0,0.13,0,0.09,0.13c-0.14,0.44-0.53,0.76-1,0.8
		c-0.14,0.01-0.29,0.01-0.43,0.01c-0.04,0-0.07-0.01-0.08-0.06C13.55,13.14,13.33,12.86,12.99,12.65z"/>
	<path class="st2" d="M3.27,7.11c-0.22,0-0.22,0-0.22-0.22c0-0.22,0-0.22,0.23-0.23c0.22,0,0.22,0,0.22,0.22
		C3.49,7.11,3.49,7.11,3.27,7.11z"/>
	<path class="st2" d="M3.26,5.43c-0.22,0-0.22,0-0.22-0.21c0-0.23,0-0.23,0.22-0.23c0.22,0,0.22,0,0.22,0.22
		C3.49,5.43,3.49,5.43,3.26,5.43z"/>
	<path class="st2" d="M3.27,5.83c0.22,0,0.22,0,0.22,0.22c0,0.22,0,0.22-0.22,0.22c-0.22,0-0.22,0-0.23-0.23
		C3.04,5.83,3.04,5.83,3.27,5.83z"/>
	<path class="st2" d="M4.45,5.22c0,0.21,0,0.21-0.21,0.21c-0.23,0-0.23,0-0.23-0.22c0-0.22,0-0.22,0.22-0.22
		C4.45,4.99,4.45,4.99,4.45,5.22z"/>
	<path class="st2" d="M4.45,6.05c0,0.22,0,0.22-0.22,0.22c-0.22,0-0.22,0-0.22-0.22c0-0.21,0-0.21,0.21-0.21c0,0,0.01,0,0.01,0
		C4.45,5.83,4.45,5.83,4.45,6.05z"/>
	<path class="st2" d="M4.45,6.9c0,0.21,0,0.21-0.22,0.21c-0.22,0-0.22,0-0.22-0.23c0-0.21,0-0.21,0.22-0.21
		C4.45,6.67,4.45,6.67,4.45,6.9z"/>
	<path class="st0" d="M13.77,5.61c0,0.85-0.7,1.55-1.56,1.55c-0.85,0-1.55-0.7-1.55-1.54c0-0.87,0.7-1.56,1.56-1.56
		C13.09,4.05,13.77,4.75,13.77,5.61z M13.33,5.61c0-0.62-0.5-1.12-1.11-1.12c-0.61,0-1.12,0.51-1.11,1.12
		c0,0.61,0.51,1.11,1.12,1.11C12.84,6.71,13.33,6.22,13.33,5.61z"/>
	<path class="st0" d="M12.45,14.08c-0.16,0-0.28-0.12-0.28-0.28c0-0.16,0.13-0.28,0.28-0.28c0.15,0,0.28,0.13,0.28,0.28
		C12.73,13.95,12.61,14.08,12.45,14.08z"/>
	<path class="st2" d="M13.33,5.61c0,0.61-0.5,1.11-1.11,1.11c-0.6,0-1.11-0.5-1.12-1.11c0-0.62,0.5-1.12,1.11-1.12
		C12.84,4.49,13.33,4.99,13.33,5.61z"/>
</g>
</svg>
