<?xml version="1.0" encoding="UTF-8"?>
<svg xmlns="http://www.w3.org/2000/svg" xmlns:xlink="http://www.w3.org/1999/xlink" width="51pt" height="16pt" viewBox="0 0 51 16" version="1.1">
<g id="surface1">
<path style=" stroke:none;fill-rule:nonzero;fill:rgb(100%,100%,100%);fill-opacity:1;" d="M 20.625 0.644531 L 18.113281 15.324219 L 22.097656 15.324219 L 24.609375 0.644531 Z M 20.625 0.644531 "/>
<path style=" stroke:none;fill-rule:nonzero;fill:rgb(100%,100%,100%);fill-opacity:1;" d="M 14.773438 0.644531 L 10.878906 10.675781 L 10.453125 9.136719 C 9.683594 7.324219 7.507812 4.707031 4.933594 3.078125 L 8.488281 15.324219 L 12.71875 15.324219 L 19.003906 0.675781 Z M 14.773438 0.644531 "/>
<path style=" stroke:none;fill-rule:nonzero;fill:rgb(100%,100%,100%);fill-opacity:1;" d="M 8.949219 1.691406 C 8.703125 0.800781 8.03125 0.554688 7.203125 0.523438 L 1.042969 0.523438 L 0.980469 0.800781 C 5.792969 1.96875 8.980469 4.800781 10.296875 8.183594 Z M 8.949219 1.691406 "/>
<path style=" stroke:none;fill-rule:nonzero;fill:rgb(100%,100%,100%);fill-opacity:1;" d="M 32.671875 3.445312 C 33.988281 3.414062 34.910156 3.722656 35.644531 4 L 36.011719 4.183594 L 36.5625 1.015625 C 35.765625 0.707031 34.542969 0.398438 32.976562 0.398438 C 29.023438 0.398438 26.265625 2.398438 26.234375 5.230469 C 26.234375 7.324219 28.226562 8.523438 29.761719 9.230469 C 31.324219 9.9375 31.84375 10.398438 31.8125 11.046875 C 31.8125 12.03125 30.585938 12.492188 29.421875 12.492188 C 27.828125 12.492188 26.972656 12.277344 25.683594 11.722656 L 25.164062 11.476562 L 24.609375 14.769531 C 25.53125 15.167969 27.277344 15.539062 29.054688 15.539062 C 33.253906 15.539062 35.980469 13.570312 35.980469 10.523438 C 36.011719 8.863281 34.941406 7.570312 32.640625 6.523438 C 31.230469 5.847656 30.402344 5.414062 30.402344 4.707031 C 30.402344 4.09375 31.109375 3.445312 32.671875 3.445312 Z M 32.671875 3.445312 "/>
<path style=" stroke:none;fill-rule:nonzero;fill:rgb(100%,100%,100%);fill-opacity:1;" d="M 41.867188 10.125 C 42.203125 9.292969 43.460938 6.03125 43.460938 6.03125 C 43.429688 6.0625 43.796875 5.167969 43.980469 4.617188 L 44.257812 5.875 C 44.257812 5.875 45.023438 9.382812 45.175781 10.125 Z M 46.800781 0.644531 L 43.734375 0.644531 C 42.785156 0.644531 42.082031 0.890625 41.652344 1.875 L 35.738281 15.324219 L 39.9375 15.324219 C 39.9375 15.324219 40.609375 13.507812 40.761719 13.109375 C 41.222656 13.109375 45.300781 13.109375 45.882812 13.109375 C 46.003906 13.628906 46.371094 15.292969 46.371094 15.292969 L 50.019531 15.292969 Z M 46.800781 0.644531 "/>
</g>
</svg>
