<?xml version="1.0" encoding="UTF-8"?>
<svg xmlns="http://www.w3.org/2000/svg" xmlns:xlink="http://www.w3.org/1999/xlink" width="33pt" height="32pt" viewBox="0 0 33 32" version="1.1">
<g id="surface1">
<path style=" stroke:none;fill-rule:nonzero;fill:rgb(100%,100%,100%);fill-opacity:1;" d="M 14.242188 3.664062 C 14.082031 3.460938 13.878906 3.277344 13.65625 3.136719 C 13.292969 2.894531 12.84375 2.75 12.375 2.75 C 11.988281 2.75 11.804688 2.796875 11.542969 2.917969 C 11.257812 3.015625 10.96875 3.15625 10.710938 3.441406 C 10.445312 3.71875 10.28125 4 10.160156 4.289062 C 9.933594 4.867188 9.953125 5.652344 10.359375 6.273438 C 11.171875 7.582031 11.660156 9.070312 11.847656 10.578125 C 11.886719 10.980469 11.921875 11.402344 11.921875 11.804688 C 11.921875 13.78125 11.375 15.6875 10.359375 17.359375 C 10.320312 17.433594 10.28125 17.5 10.261719 17.5625 C 10.054688 17.960938 9.972656 18.386719 10.015625 18.8125 C 10.078125 19.515625 10.480469 20.171875 11.136719 20.578125 C 11.296875 20.675781 11.480469 20.757812 11.660156 20.820312 C 11.886719 20.882812 12.105469 20.921875 12.355469 20.921875 C 13.191406 20.921875 13.9375 20.496094 14.371094 19.792969 C 15.667969 17.683594 16.421875 15.285156 16.578125 12.8125 C 16.605469 12.472656 16.621094 12.148438 16.621094 11.804688 C 16.621094 9.011719 15.851562 6.253906 14.386719 3.863281 C 14.347656 3.800781 14.285156 3.71875 14.242188 3.664062 Z M 14.242188 3.664062 "/>
<path style=" stroke:none;fill-rule:nonzero;fill:rgb(100%,100%,100%);fill-opacity:1;" d="M 6.101562 5.855469 C 5.773438 5.671875 5.40625 5.59375 5.046875 5.59375 C 4.207031 5.59375 3.457031 6.039062 3.070312 6.757812 C 2.480469 7.847656 2.910156 9.171875 3.980469 9.757812 C 7.253906 11.484375 9.371094 14.804688 9.632812 18.628906 C 9.597656 18.203125 9.65625 17.78125 9.859375 17.378906 C 9.875 17.335938 9.917969 17.277344 9.960938 17.195312 C 10.972656 15.53125 11.523438 13.617188 11.523438 11.644531 C 11.523438 11.246094 11.488281 10.84375 11.445312 10.421875 C 10.105469 8.589844 8.210938 6.976562 6.101562 5.855469 Z M 6.101562 5.855469 "/>
<path style=" stroke:none;fill-rule:nonzero;fill:rgb(100%,100%,100%);fill-opacity:1;" d="M 23.84375 1.410156 C 23.441406 0.539062 22.566406 0 21.628906 0 C 21.261719 0 20.902344 0.0820312 20.570312 0.238281 C 19.332031 0.820312 18.800781 2.292969 19.390625 3.503906 C 20.65625 6.117188 21.261719 8.890625 21.261719 11.765625 C 21.261719 14.644531 20.632812 17.417969 19.414062 19.992188 C 19.390625 20.035156 19.191406 20.496094 19.191406 21.019531 C 19.191406 21.164062 19.214844 21.382812 19.246094 21.585938 C 19.414062 22.265625 19.859375 22.90625 20.59375 23.25 C 20.933594 23.414062 21.28125 23.492188 21.648438 23.492188 C 22.542969 23.492188 23.378906 22.992188 23.820312 22.226562 C 24.308594 21.300781 24.820312 20.113281 25.246094 18.566406 C 25.386719 18.101562 25.492188 17.660156 25.617188 17.179688 C 26.019531 15.425781 26.222656 13.617188 26.222656 11.785156 C 26.207031 9.9375 25.996094 8.109375 25.59375 6.371094 C 25.207031 4.664062 24.621094 2.996094 23.84375 1.410156 Z M 23.84375 1.410156 "/>
<path style=" stroke:none;fill-rule:nonzero;fill:rgb(100%,100%,100%);fill-opacity:1;" d="M 14.085938 3.09375 C 14.109375 3.117188 14.128906 3.117188 14.128906 3.117188 C 14.3125 3.238281 14.457031 3.398438 14.636719 3.601562 C 14.675781 3.664062 14.738281 3.71875 14.777344 3.800781 C 16.246094 6.195312 17.011719 8.949219 17.011719 11.765625 C 17.011719 12.109375 16.992188 12.429688 16.972656 12.773438 C 18.152344 14.984375 18.785156 17.5 18.785156 20.132812 C 18.785156 20.335938 18.785156 20.675781 18.785156 20.921875 C 18.800781 20.636719 18.867188 20.351562 18.96875 20.089844 C 18.988281 20.050781 19.007812 20.007812 19.007812 19.972656 C 20.246094 17.398438 20.855469 14.621094 20.855469 11.746094 C 20.878906 10.78125 20.816406 10.054688 20.757812 9.59375 C 19.144531 7.039062 16.808594 4.765625 14.085938 3.09375 Z M 14.085938 3.09375 "/>
</g>
</svg>
