<?xml version="1.0" encoding="utf-8"?>
<!-- Generator: Adobe Illustrator 25.0.0, SVG Export Plug-In . SVG Version: 6.00 Build 0)  -->
<svg version="1.1" id="Layer_1" xmlns="http://www.w3.org/2000/svg" xmlns:xlink="http://www.w3.org/1999/xlink" x="0px" y="0px"
	 viewBox="0 0 16 16" style="enable-background:new 0 0 16 16;" xml:space="preserve">
<style type="text/css">
	.st0{fill:#F77A26;}
</style>
<g>
	<path d="M11.8,9.46h-0.6V9.11L11.8,9.46z M11.8,9.46"/>
	<rect x="11.2" y="3.09" width="3.31" height="6.37"/>
	<path d="M5.35,1.31c0,0.14-0.11,0.25-0.25,0.25S4.84,1.45,4.84,1.31c0-0.14,0.11-0.25,0.25-0.25S5.35,1.17,5.35,1.31L5.35,1.31z
		 M5.35,1.31"/>
	<path d="M6.11,1.31c0,0.14-0.11,0.25-0.25,0.25c-0.14,0-0.25-0.11-0.25-0.25c0-0.14,0.11-0.25,0.25-0.25
		C6,1.05,6.11,1.17,6.11,1.31L6.11,1.31z M6.11,1.31"/>
	<path d="M6.87,1.31c0,0.14-0.11,0.25-0.25,0.25c-0.14,0-0.25-0.11-0.25-0.25c0-0.14,0.11-0.25,0.25-0.25
		C6.76,1.05,6.87,1.17,6.87,1.31L6.87,1.31z M6.87,1.31"/>
	<rect x="11.2" y="3.09" class="st0" width="3.31" height="6.37"/>
	<path d="M3.82,14.55H3.56c-0.14,0-0.25,0.11-0.25,0.25c0,0.14,0.11,0.25,0.25,0.25h0.25c0.14,0,0.25-0.11,0.25-0.25
		C4.07,14.66,3.96,14.55,3.82,14.55L3.82,14.55z M3.82,14.55"/>
	<path d="M14.77,0.29H5.09c-0.56,0-1.02,0.46-1.02,1.02v3.56H2.55c-0.84,0-1.53,0.68-1.53,1.53v7.38H0.25C0.11,13.78,0,13.9,0,14.04
		v0.76c0,0.56,0.46,1.02,1.02,1.02h13.24c0.56,0,1.02-0.46,1.02-1.02v-0.76c0-0.14-0.11-0.25-0.25-0.25h-0.76v-3.06h0.51
		c0.56,0,1.02-0.46,1.02-1.02v-8.4C15.79,0.75,15.33,0.29,14.77,0.29L14.77,0.29z M5.09,10.73h7.64v2.29H2.55V6.4h1.53v3.31
		C4.07,10.27,4.53,10.73,5.09,10.73L5.09,10.73z M1.53,6.4c0-0.56,0.46-1.02,1.02-1.02h1.53v0.51H2.29c-0.14,0-0.25,0.11-0.25,0.25
		v7.13c0,0.14,0.11,0.25,0.25,0.25h10.69c0.14,0,0.25-0.11,0.25-0.25v-2.55h0.51v3.06H1.53V6.4z M8.3,14.29l-0.09,0.25H7.06
		l-0.09-0.25H8.3z M14.77,14.29v0.51c0,0.28-0.23,0.51-0.51,0.51H1.02c-0.28,0-0.51-0.23-0.51-0.51v-0.51h5.93l0.2,0.59
		c0.03,0.1,0.13,0.17,0.24,0.17H8.4c0.11,0,0.21-0.07,0.24-0.17l0.2-0.59H14.77z M15.28,9.71c0,0.28-0.23,0.51-0.51,0.51H5.09
		c-0.28,0-0.51-0.23-0.51-0.51V2.33h10.69V9.71z M15.28,1.82H4.58V1.31c0-0.28,0.23-0.51,0.51-0.51h9.68c0.28,0,0.51,0.23,0.51,0.51
		V1.82z M15.28,1.82"/>
	<path class="st0" d="M5.35,1.31c0,0.14-0.11,0.25-0.25,0.25S4.84,1.45,4.84,1.31c0-0.14,0.11-0.25,0.25-0.25S5.35,1.17,5.35,1.31
		L5.35,1.31z M5.35,1.31"/>
	<path class="st0" d="M6.11,1.31c0,0.14-0.11,0.25-0.25,0.25c-0.14,0-0.25-0.11-0.25-0.25c0-0.14,0.11-0.25,0.25-0.25
		C6,1.05,6.11,1.17,6.11,1.31L6.11,1.31z M6.11,1.31"/>
	<path class="st0" d="M6.87,1.31c0,0.14-0.11,0.25-0.25,0.25c-0.14,0-0.25-0.11-0.25-0.25c0-0.14,0.11-0.25,0.25-0.25
		C6.76,1.05,6.87,1.17,6.87,1.31L6.87,1.31z M6.87,1.31"/>
	<path d="M10.44,2.84H5.35c-0.14,0-0.25,0.11-0.25,0.25v2.29c0,0.14,0.11,0.25,0.25,0.25h5.09c0.14,0,0.25-0.11,0.25-0.25V3.09
		C10.69,2.95,10.58,2.84,10.44,2.84L10.44,2.84z M10.18,5.13H5.6V3.35h4.58V5.13z M10.18,5.13"/>
	<path d="M10.44,5.89H5.35c-0.14,0-0.25,0.11-0.25,0.25c0,0.14,0.11,0.25,0.25,0.25h5.09c0.14,0,0.25-0.11,0.25-0.25
		C10.69,6.01,10.58,5.89,10.44,5.89L10.44,5.89z M10.44,5.89"/>
	<path d="M10.44,6.66H5.35c-0.14,0-0.25,0.11-0.25,0.25s0.11,0.25,0.25,0.25h5.09c0.14,0,0.25-0.11,0.25-0.25S10.58,6.66,10.44,6.66
		L10.44,6.66z M10.44,6.66"/>
	<path d="M10.44,8.44H5.35c-0.14,0-0.25,0.11-0.25,0.25s0.11,0.25,0.25,0.25h5.09c0.14,0,0.25-0.11,0.25-0.25S10.58,8.44,10.44,8.44
		L10.44,8.44z M10.44,8.44"/>
	<path d="M7.89,9.2H5.35c-0.14,0-0.25,0.11-0.25,0.25s0.11,0.25,0.25,0.25h2.55c0.14,0,0.25-0.11,0.25-0.25S8.03,9.2,7.89,9.2
		L7.89,9.2z M7.89,9.2"/>
	<path d="M5.35,7.93H8.4c0.14,0,0.25-0.11,0.25-0.25S8.54,7.42,8.4,7.42H5.35c-0.14,0-0.25,0.11-0.25,0.25S5.21,7.93,5.35,7.93
		L5.35,7.93z M5.35,7.93"/>
	<path d="M9.42,7.93c0.14,0,0.25-0.11,0.25-0.25S9.56,7.42,9.42,7.42H9.17c-0.14,0-0.25,0.11-0.25,0.25s0.11,0.25,0.25,0.25H9.42z
		 M9.42,7.93"/>
	<path d="M14.51,2.84H11.2c-0.14,0-0.25,0.11-0.25,0.25v6.37c0,0.14,0.11,0.25,0.25,0.25h3.31c0.14,0,0.25-0.11,0.25-0.25V3.09
		C14.77,2.95,14.65,2.84,14.51,2.84L14.51,2.84z M14.26,9.2h-2.8V3.35h2.8V9.2z M14.26,9.2"/>
	<path d="M8.91,9.2H8.66C8.52,9.2,8.4,9.32,8.4,9.46s0.11,0.25,0.25,0.25h0.25c0.14,0,0.25-0.11,0.25-0.25S9.05,9.2,8.91,9.2
		L8.91,9.2z M8.91,9.2"/>
</g>
</svg>
